<?xml version='1.0' encoding='UTF-8' standalone='no'?>
<svg xmlns="http://www.w3.org/2000/svg" viewBox="0 0 425 619" width="425pt" xmlns:xlink="http://www.w3.org/1999/xlink" height="619pt">
 <title>gl2ps_renderer figure</title>
 <desc>
Creator: GL2PS 1.4.2, (C) 1999-2020 C. Geuzaine
For: Octave
CreationDate: Mon Nov 14 02:04:32 2022
</desc>
 <defs/>
 <polygon fill="#ffffff" points="0,0 425,0 425,619 0,619"/>
 <g>
  <polygon fill="#ffffff" shape-rendering="crispEdges" points="0,619 425,619 425,0 0,0"/>
  <clipPath id="cp00425619">
   <polygon points="0,619 425,619 425,0 0,0"/>
  </clipPath>
  <g clip-path="url(#cp00425619)">
   <polygon fill="#ffffff" shape-rendering="crispEdges" points="55.2609,140.554 384.701,140.554 384.701,65.4935 55.2609,65.4935"/>
   <polyline stroke-linejoin="miter" fill="none" stroke-opacity="0.15" stroke="#262626" stroke-dasharray="16,0" stroke-linecap="butt" stroke-width="0.5" points="55.2609,140.554 55.2609,65.4935"/>
   <polyline stroke-linejoin="miter" fill="none" stroke-opacity="0.15" stroke="#262626" stroke-dasharray="16,0" stroke-linecap="butt" stroke-width="0.5" points="121.149,140.554 121.149,65.4935"/>
   <polyline stroke-linejoin="miter" fill="none" stroke-opacity="0.15" stroke="#262626" stroke-dasharray="16,0" stroke-linecap="butt" stroke-width="0.5" points="187.037,140.554 187.037,65.4935"/>
   <polyline stroke-linejoin="miter" fill="none" stroke-opacity="0.15" stroke="#262626" stroke-dasharray="16,0" stroke-linecap="butt" stroke-width="0.5" points="252.925,140.554 252.925,65.4935"/>
   <polyline stroke-linejoin="miter" fill="none" stroke-opacity="0.15" stroke="#262626" stroke-dasharray="16,0" stroke-linecap="butt" stroke-width="0.5" points="318.813,140.554 318.813,65.4935"/>
   <polyline stroke-linejoin="miter" fill="none" stroke-opacity="0.15" stroke="#262626" stroke-dasharray="16,0" stroke-linecap="butt" stroke-width="0.5" points="384.701,140.554 384.701,65.4935"/>
   <polyline stroke-linejoin="miter" fill="none" stroke="#262626" stroke-linecap="butt" stroke-width="0.5" points="55.2609,140.554 55.2609,137.257"/>
   <polyline stroke-linejoin="miter" fill="none" stroke="#262626" stroke-linecap="butt" stroke-width="0.5" points="55.2609,65.4935 55.2609,68.7906"/>
   <polyline stroke-linejoin="miter" fill="none" stroke="#262626" stroke-linecap="butt" stroke-width="0.5" points="121.149,140.554 121.149,137.257"/>
   <polyline stroke-linejoin="miter" fill="none" stroke="#262626" stroke-linecap="butt" stroke-width="0.5" points="121.149,65.4935 121.149,68.7906"/>
   <polyline stroke-linejoin="miter" fill="none" stroke="#262626" stroke-linecap="butt" stroke-width="0.5" points="187.037,140.554 187.037,137.257"/>
   <polyline stroke-linejoin="miter" fill="none" stroke="#262626" stroke-linecap="butt" stroke-width="0.5" points="187.037,65.4935 187.037,68.7906"/>
   <polyline stroke-linejoin="miter" fill="none" stroke="#262626" stroke-linecap="butt" stroke-width="0.5" points="252.925,140.554 252.925,137.257"/>
   <polyline stroke-linejoin="miter" fill="none" stroke="#262626" stroke-linecap="butt" stroke-width="0.5" points="252.925,65.4935 252.925,68.7906"/>
   <polyline stroke-linejoin="miter" fill="none" stroke="#262626" stroke-linecap="butt" stroke-width="0.5" points="318.813,140.554 318.813,137.257"/>
   <polyline stroke-linejoin="miter" fill="none" stroke="#262626" stroke-linecap="butt" stroke-width="0.5" points="318.813,65.4935 318.813,68.7906"/>
   <polyline stroke-linejoin="miter" fill="none" stroke="#262626" stroke-linecap="butt" stroke-width="0.5" points="384.701,140.554 384.701,137.257"/>
   <polyline stroke-linejoin="miter" fill="none" stroke="#262626" stroke-linecap="butt" stroke-width="0.5" points="384.701,65.4935 384.701,68.7906"/>
   <text font-style="normal" font-family="FreeSans" transform="translate(52.2609,156.06) rotate(-0,3,-8)" xml:space="preserve" font-weight="normal" font-size="10">
    <tspan y="-0" fill="rgb(38,38,38)" x="0 ">0</tspan>
   </text>
   <text font-style="normal" font-family="FreeSans" transform="translate(113.649,156.06) rotate(-0,7.5,-8)" xml:space="preserve" font-weight="normal" font-size="10">
    <tspan y="-0" fill="rgb(38,38,38)" x="0 6 9 ">0.2</tspan>
   </text>
   <text font-style="normal" font-family="FreeSans" transform="translate(179.537,156.06) rotate(-0,7.5,-8)" xml:space="preserve" font-weight="normal" font-size="10">
    <tspan y="-0" fill="rgb(38,38,38)" x="0 6 9 ">0.4</tspan>
   </text>
   <text font-style="normal" font-family="FreeSans" transform="translate(245.425,156.06) rotate(-0,7.5,-8)" xml:space="preserve" font-weight="normal" font-size="10">
    <tspan y="-0" fill="rgb(38,38,38)" x="0 6 9 ">0.6</tspan>
   </text>
   <text font-style="normal" font-family="FreeSans" transform="translate(311.313,156.06) rotate(-0,7.5,-8)" xml:space="preserve" font-weight="normal" font-size="10">
    <tspan y="-0" fill="rgb(38,38,38)" x="0 6 9 ">0.8</tspan>
   </text>
   <text font-style="normal" font-family="FreeSans" transform="translate(381.701,156.06) rotate(-0,3,-8)" xml:space="preserve" font-weight="normal" font-size="10">
    <tspan y="-0" fill="rgb(38,38,38)" x="0 ">1</tspan>
   </text>
   <polyline stroke-linejoin="miter" fill="none" stroke-opacity="0.15" stroke="#262626" stroke-dasharray="16,0" stroke-linecap="butt" stroke-width="0.5" points="55.2609,137.142 384.701,137.142"/>
   <polyline stroke-linejoin="miter" fill="none" stroke-opacity="0.15" stroke="#262626" stroke-dasharray="16,0" stroke-linecap="butt" stroke-width="0.5" points="55.2609,124.736 384.701,124.736"/>
   <polyline stroke-linejoin="miter" fill="none" stroke-opacity="0.15" stroke="#262626" stroke-dasharray="16,0" stroke-linecap="butt" stroke-width="0.5" points="55.2609,112.329 384.701,112.329"/>
   <polyline stroke-linejoin="miter" fill="none" stroke-opacity="0.15" stroke="#262626" stroke-dasharray="16,0" stroke-linecap="butt" stroke-width="0.5" points="55.2609,99.9222 384.701,99.9222"/>
   <polyline stroke-linejoin="miter" fill="none" stroke-opacity="0.15" stroke="#262626" stroke-dasharray="16,0" stroke-linecap="butt" stroke-width="0.5" points="55.2609,87.5154 384.701,87.5154"/>
   <polyline stroke-linejoin="miter" fill="none" stroke-opacity="0.15" stroke="#262626" stroke-dasharray="16,0" stroke-linecap="butt" stroke-width="0.5" points="55.2609,75.1088 384.701,75.1088"/>
   <polyline stroke-linejoin="miter" fill="none" stroke="#262626" stroke-linecap="butt" stroke-width="0.5" points="55.2609,137.142 58.5597,137.142"/>
   <polyline stroke-linejoin="miter" fill="none" stroke="#262626" stroke-linecap="butt" stroke-width="0.5" points="384.701,137.142 381.402,137.142"/>
   <polyline stroke-linejoin="miter" fill="none" stroke="#262626" stroke-linecap="butt" stroke-width="0.5" points="55.2609,124.736 58.5597,124.736"/>
   <polyline stroke-linejoin="miter" fill="none" stroke="#262626" stroke-linecap="butt" stroke-width="0.5" points="384.701,124.736 381.402,124.736"/>
   <polyline stroke-linejoin="miter" fill="none" stroke="#262626" stroke-linecap="butt" stroke-width="0.5" points="55.2609,112.329 58.5597,112.329"/>
   <polyline stroke-linejoin="miter" fill="none" stroke="#262626" stroke-linecap="butt" stroke-width="0.5" points="384.701,112.329 381.402,112.329"/>
   <polyline stroke-linejoin="miter" fill="none" stroke="#262626" stroke-linecap="butt" stroke-width="0.5" points="55.2609,99.9222 58.5597,99.9222"/>
   <polyline stroke-linejoin="miter" fill="none" stroke="#262626" stroke-linecap="butt" stroke-width="0.5" points="384.701,99.9222 381.402,99.9222"/>
   <polyline stroke-linejoin="miter" fill="none" stroke="#262626" stroke-linecap="butt" stroke-width="0.5" points="55.2609,87.5154 58.5597,87.5154"/>
   <polyline stroke-linejoin="miter" fill="none" stroke="#262626" stroke-linecap="butt" stroke-width="0.5" points="384.701,87.5154 381.402,87.5154"/>
   <polyline stroke-linejoin="miter" fill="none" stroke="#262626" stroke-linecap="butt" stroke-width="0.5" points="55.2609,75.1088 58.5597,75.1088"/>
   <polyline stroke-linejoin="miter" fill="none" stroke="#262626" stroke-linecap="butt" stroke-width="0.5" points="384.701,75.1088 381.402,75.1088"/>
   <text font-style="normal" font-family="FreeSans" transform="translate(44.2542,141.142) rotate(-0,6,-4)" xml:space="preserve" font-weight="normal" font-size="10">
    <tspan y="-0" fill="rgb(38,38,38)" x="0 ">0</tspan>
   </text>
   <text font-style="normal" font-family="FreeSans" transform="translate(35.2542,128.736) rotate(-0,15,-4)" xml:space="preserve" font-weight="normal" font-size="10">
    <tspan y="-0" fill="rgb(38,38,38)" x="0 6 9 ">0.2</tspan>
   </text>
   <text font-style="normal" font-family="FreeSans" transform="translate(35.2542,116.329) rotate(-0,15,-4)" xml:space="preserve" font-weight="normal" font-size="10">
    <tspan y="-0" fill="rgb(38,38,38)" x="0 6 9 ">0.4</tspan>
   </text>
   <text font-style="normal" font-family="FreeSans" transform="translate(35.2542,103.922) rotate(-0,15,-4)" xml:space="preserve" font-weight="normal" font-size="10">
    <tspan y="-0" fill="rgb(38,38,38)" x="0 6 9 ">0.6</tspan>
   </text>
   <text font-style="normal" font-family="FreeSans" transform="translate(35.2542,91.5155) rotate(-0,15,-4)" xml:space="preserve" font-weight="normal" font-size="10">
    <tspan y="-0" fill="rgb(38,38,38)" x="0 6 9 ">0.8</tspan>
   </text>
   <text font-style="normal" font-family="FreeSans" transform="translate(44.2542,79.1087) rotate(-0,6,-4)" xml:space="preserve" font-weight="normal" font-size="10">
    <tspan y="-0" fill="rgb(38,38,38)" x="0 ">1</tspan>
   </text>
   <polyline stroke-linejoin="miter" fill="none" stroke="#262626" stroke-dasharray="16,0" stroke-linecap="square" stroke-width="0.5" points="55.2609,140.554 384.701,140.554"/>
   <polyline stroke-linejoin="miter" fill="none" stroke="#262626" stroke-dasharray="16,0" stroke-linecap="square" stroke-width="0.5" points="55.2609,65.4935 384.701,65.4935"/>
   <polyline stroke-linejoin="miter" fill="none" stroke="#262626" stroke-dasharray="16,0" stroke-linecap="square" stroke-width="0.5" points="55.2609,140.554 55.2609,65.4935"/>
   <polyline stroke-linejoin="miter" fill="none" stroke="#262626" stroke-dasharray="16,0" stroke-linecap="square" stroke-width="0.5" points="384.701,140.554 384.701,65.4935"/>
   <text font-style="normal" font-family="FreeSans" transform="translate(176.481,55.4935) rotate(-0,43.5,0)" xml:space="preserve" font-weight="bold" font-size="11">
    <tspan y="-2" fill="rgb(0,0,0)" x="0 8 14 21 28 35 38 45 51 54 60 63 69 75 81 ">Ganho de 7,6267</tspan>
   </text>
   <text font-style="normal" font-family="FreeSans" transform="translate(1.7542,103.024) rotate(-90,28.5,0)" xml:space="preserve" font-weight="normal" font-size="11">
    <tspan y="-3" fill="rgb(38,38,38)" x="0 7 13 19 25 27 33 37 41 47 53 ">Ângulo(rad)</tspan>
   </text>
   <text font-style="normal" font-family="FreeSans" transform="translate(196.481,173.06) rotate(-0,23.5,-12)" xml:space="preserve" font-weight="normal" font-size="11">
    <tspan y="-3" fill="rgb(38,38,38)" x="0 7 13 22 28 34 38 43 ">Tempo(s)</tspan>
   </text>
   <polyline stroke-linejoin="round" fill="none" stroke="#0071bc" stroke-linecap="butt" stroke-width="0.5" points="55.2609,137.142 55.9198,137.142 56.5786,137.142 57.2375,137.142 57.8964,137.142 58.5553,137.142 59.2142,136.1 59.873,136.1 60.5319,135.058 61.1908,135.058 61.8497,134.016 62.5086,132.974 63.1674,132.974 63.8263,131.932 64.4852,130.889 65.1441,129.847 65.803,128.805 66.4619,127.763 67.1207,126.721 67.7796,125.679 68.4385,124.636 69.0974,123.594 69.7562,122.552 70.4151,120.468 71.074,119.426 71.7329,118.383 72.3918,117.341 73.0507,116.299 73.7095,115.257 74.3684,114.215 75.0273,112.13 75.6862,111.088 76.345,110.046 77.0039,109.004 77.6628,107.962 78.3217,105.878 78.9806,104.835 79.6394,103.793 80.2983,102.751 80.9572,101.709 81.6161,100.667 82.275,98.5823 82.9338,97.5402 83.5927,96.498 84.2516,95.4559 84.9105,94.4137 85.5694,93.3716 86.2282,92.3294 86.8871,91.2872 87.546,90.2451 88.2049,89.2029 88.8638,88.1608 89.5226,86.0764 90.1815,85.0342 90.8404,83.9921 91.4993,83.9921 92.1581,82.9499 92.817,81.9078 93.4759,80.8656 94.1348,79.8234 94.7937,78.7813 95.4526,77.7391 96.1114,76.697 96.7703,76.697 97.4292,75.6548 98.0881,74.6126 98.747,74.6126 99.4058,73.5704 100.065,73.5704 100.724,72.5283 101.382,72.5283 102.041,71.4861 102.7,71.4861 103.359,70.444 104.018,70.444 104.677,70.444 105.336,69.4019 105.995,69.4019 106.654,69.4019 107.312,69.4019 107.971,69.4019 108.63,69.4019 109.289,69.4019 109.948,69.4019 110.607,69.4019 111.266,69.4019 111.925,69.4019 112.583,69.4019 113.242,69.4019 113.901,69.4019 114.56,69.4019 115.219,69.4019 115.878,69.4019 116.537,69.4019 117.196,69.4019 117.854,69.4019 118.513,70.444 119.172,70.444 119.831,70.444 120.49,70.444 121.149,70.444 121.808,70.444 122.467,70.444 123.126,71.4861 123.784,71.4861 124.443,71.4861 125.102,71.4861 125.761,71.4861 126.42,72.5283 127.079,72.5283 127.738,72.5283 128.397,73.5704 129.055,73.5704 129.714,73.5704 130.373,73.5704 131.032,74.6126 131.691,74.6126 132.35,74.6126 133.009,75.6548 133.668,75.6548 134.326,75.6548 134.985,75.6548 135.644,76.697 136.303,76.697 136.962,76.697 137.621,77.7391 138.28,77.7391 138.939,77.7391 139.598,78.7813 140.256,78.7813 140.915,78.7813 141.574,79.8234 142.233,79.8234 142.892,79.8234 143.551,79.8234 144.21,80.8656 144.869,80.8656 145.527,80.8656 146.186,81.9078 146.845,81.9078 147.504,81.9078 148.163,82.9499 148.822,82.9499 149.481,82.9499 150.14,82.9499 150.798,83.9921 151.457,83.9921 152.116,83.9921 152.775,83.9921 153.434,85.0342 154.093,85.0342 154.752,85.0342 155.411,85.0342 156.069,86.0764 156.728,86.0764 157.387,86.0764 158.046,86.0764 158.705,87.1186 159.364,87.1186 160.023,87.1186 160.682,87.1186 161.341,87.1186 161.999,88.1608 162.658,88.1608 163.317,88.1608 163.976,88.1608 164.635,88.1608 165.294,88.1608 165.953,89.2029 166.612,89.2029 167.27,89.2029 167.929,89.2029 168.588,89.2029 169.247,89.2029 169.906,89.2029 170.565,90.2451 171.224,90.2451 171.883,90.2451 172.541,90.2451 173.2,90.2451 173.859,90.2451 174.518,90.2451 175.177,90.2451 175.836,90.2451 176.495,90.2451 177.154,90.2451 177.813,90.2451 178.471,90.2451 179.13,90.2451 179.789,90.2451 180.448,90.2451 181.107,90.2451 181.766,90.2451 182.425,90.2451 183.084,90.2451 183.742,90.2451 184.401,90.2451 185.06,89.2029 185.719,89.2029 186.378,89.2029 187.037,89.2029 187.696,89.2029 188.355,89.2029 189.013,89.2029 189.672,89.2029 190.331,89.2029 190.99,89.2029 191.649,89.2029 192.308,89.2029 192.967,89.2029 193.626,89.2029 194.285,89.2029 194.943,89.2029 195.602,89.2029 196.261,89.2029 196.92,89.2029 197.579,89.2029 198.238,89.2029 198.897,89.2029 199.556,89.2029 200.214,89.2029 200.873,89.2029 201.532,89.2029 202.191,89.2029 202.85,89.2029 203.509,89.2029 204.168,89.2029 204.827,89.2029 205.485,89.2029 206.144,89.2029 206.803,89.2029 207.462,89.2029 208.121,89.2029 208.78,89.2029 209.439,89.2029 210.098,89.2029 210.757,89.2029 211.415,89.2029 212.074,89.2029 212.733,89.2029 213.392,89.2029 214.051,89.2029 214.71,89.2029 215.369,89.2029 216.028,89.2029 216.686,89.2029 217.345,89.2029 218.004,89.2029 218.663,89.2029 219.322,89.2029 219.981,89.2029 220.64,89.2029 221.299,89.2029 221.957,89.2029 222.616,89.2029 223.275,89.2029 223.934,89.2029 224.593,89.2029 225.252,89.2029 225.911,89.2029 226.57,89.2029 227.229,89.2029 227.887,89.2029 228.546,89.2029 229.205,89.2029 229.864,89.2029 230.523,89.2029 231.182,89.2029 231.841,89.2029 232.5,89.2029 233.158,89.2029 233.817,89.2029 234.476,89.2029 235.135,89.2029 235.794,89.2029 236.453,89.2029 237.112,89.2029 237.771,89.2029 238.429,89.2029 239.088,89.2029 239.747,89.2029 240.406,89.2029 241.065,89.2029 241.724,89.2029 242.383,89.2029 243.042,89.2029 243.701,89.2029 244.359,89.2029 245.018,89.2029 245.677,89.2029 246.336,89.2029 246.995,89.2029 247.654,89.2029 248.313,89.2029 248.972,89.2029 249.63,89.2029 250.289,89.2029 250.948,89.2029 251.607,89.2029 252.266,89.2029 252.925,89.2029 253.584,89.2029 254.243,89.2029 254.901,89.2029 255.56,89.2029 256.219,89.2029 256.878,89.2029 257.537,89.2029 258.196,89.2029 258.855,89.2029 259.514,89.2029 260.172,89.2029 260.831,89.2029 261.49,89.2029 262.149,89.2029 262.808,89.2029 263.467,89.2029 264.126,89.2029 264.785,89.2029 265.444,89.2029 266.102,89.2029 266.761,89.2029 267.42,89.2029 268.079,89.2029 268.738,89.2029 269.397,89.2029 270.056,89.2029 270.715,89.2029 271.373,89.2029 272.032,89.2029 272.691,89.2029 273.35,89.2029 274.009,89.2029 274.668,89.2029 275.327,89.2029 275.986,89.2029 276.644,89.2029 277.303,89.2029 277.962,89.2029 278.621,89.2029 279.28,89.2029 279.939,89.2029 280.598,89.2029 281.257,89.2029 281.916,89.2029 282.574,89.2029 283.233,89.2029 283.892,89.2029 284.551,89.2029 285.21,89.2029 285.869,89.2029 286.528,89.2029 287.187,89.2029 287.845,89.2029 288.504,89.2029 289.163,89.2029 289.822,89.2029 290.481,89.2029 291.14,89.2029 291.799,89.2029 292.458,89.2029 293.116,89.2029 293.775,89.2029 294.434,89.2029 295.093,89.2029 295.752,89.2029 296.411,89.2029 297.07,89.2029 297.729,89.2029 298.388,89.2029 299.046,89.2029 299.705,89.2029 300.364,89.2029 301.023,89.2029 301.682,89.2029 302.341,89.2029 303,89.2029 303.659,89.2029 304.317,89.2029 304.976,89.2029 305.635,89.2029 306.294,89.2029 306.953,89.2029 307.612,89.2029 308.271,89.2029 308.93,89.2029 309.589,89.2029 310.247,89.2029 310.906,89.2029 311.565,89.2029 312.224,89.2029 312.883,89.2029 313.542,89.2029 314.201,89.2029 314.86,89.2029 315.518,89.2029 316.177,89.2029 316.836,89.2029 317.495,89.2029 318.154,89.2029 318.813,89.2029 319.472,89.2029 320.131,89.2029 320.789,89.2029 321.448,89.2029 322.107,89.2029 322.766,89.2029 323.425,89.2029 324.084,89.2029 324.743,89.2029 325.402,89.2029 326.06,89.2029 326.719,89.2029 327.378,89.2029 328.037,89.2029 328.696,89.2029 329.355,89.2029 330.014,89.2029 330.673,89.2029 331.332,89.2029 331.99,89.2029 332.649,89.2029 333.308,89.2029 333.967,89.2029 334.626,89.2029 335.285,89.2029 335.944,89.2029 336.603,89.2029 337.261,89.2029 337.92,89.2029 338.579,89.2029 339.238,89.2029 339.897,89.2029 340.556,89.2029 341.215,89.2029 341.874,89.2029 342.532,89.2029 343.191,89.2029 343.85,89.2029 344.509,89.2029 345.168,89.2029 345.827,89.2029 346.486,89.2029 347.145,89.2029 347.804,89.2029 348.462,89.2029 349.121,89.2029 349.78,89.2029 350.439,89.2029 351.098,89.2029 351.757,89.2029 352.416,89.2029 353.075,89.2029 353.733,89.2029 354.392,89.2029 355.051,89.2029 355.71,89.2029 356.369,89.2029 357.028,89.2029 357.687,89.2029 358.346,89.2029 359.004,89.2029 359.663,89.2029 360.322,89.2029 360.981,89.2029 361.64,89.2029 362.299,89.2029 362.958,89.2029 363.617,89.2029 364.276,89.2029 364.934,89.2029 365.593,89.2029 366.252,89.2029 366.911,89.2029 367.57,89.2029 368.229,89.2029 368.888,89.2029 369.547,89.2029 370.205,89.2029 370.864,89.2029 371.523,89.2029 372.182,89.2029 372.841,89.2029 373.5,89.2029 374.159,89.2029 374.818,89.2029 375.476,89.2029 376.135,89.2029 376.794,89.2029 377.453,89.2029 378.112,89.2029 378.771,89.2029 379.43,89.2029 380.089,89.2029 380.747,89.2029 381.406,89.2029 382.065,89.2029 382.724,89.2029 383.383,89.2029 384.042,89.2029 384.701,89.2029 385.03,89.2029"/>
   <polyline stroke-linejoin="round" fill="none" stroke="#ff0000" stroke-linecap="butt" stroke-width="0.5" points="55.2609,137.142 55.9198,137.107 56.5786,137 57.2375,136.825 57.8964,136.582 58.5553,136.274 59.2142,135.902 59.873,135.469 60.5319,134.976 61.1908,134.425 61.8497,133.819 62.5086,133.159 63.1674,132.447 63.8263,131.686 64.4852,130.878 65.1441,130.025 65.803,129.128 66.4619,128.192 67.1207,127.217 67.7796,126.206 68.4385,125.161 69.0974,124.084 69.7562,122.978 70.4151,121.845 71.074,120.687 71.7329,119.507 72.3918,118.306 73.0507,117.087 73.7095,115.851 74.3684,114.602 75.0273,113.341 75.6862,112.071 76.345,110.793 77.0039,109.509 77.6628,108.221 78.3217,106.932 78.9806,105.644 79.6394,104.357 80.2983,103.075 80.9572,101.798 81.6161,100.529 82.275,99.2697 82.9338,98.0209 83.5927,96.7847 84.2516,95.5624 84.9105,94.3558 85.5694,93.1661 86.2282,91.9949 86.8871,90.8433 87.546,89.7128 88.2049,88.6044 88.8638,87.5193 89.5226,86.4587 90.1815,85.4235 90.8404,84.4148 91.4993,83.4334 92.1581,82.4802 92.817,81.5561 93.4759,80.6617 94.1348,79.7977 94.7937,78.9647 95.4526,78.1634 96.1114,77.3942 96.7703,76.6575 97.4292,75.9537 98.0881,75.2832 98.747,74.6462 99.4058,74.043 100.065,73.4738 100.724,72.9385 101.382,72.4374 102.041,71.9703 102.7,71.5374 103.359,71.1383 104.018,70.7731 104.677,70.4416 105.336,70.1435 105.995,69.8785 106.654,69.6464 107.312,69.4467 107.971,69.2791 108.63,69.1431 109.289,69.0382 109.948,68.9641 110.607,68.9199 111.266,68.9054 111.925,68.9197 112.583,68.9624 113.242,69.0327 113.901,69.1298 114.56,69.2532 115.219,69.402 115.878,69.5756 116.537,69.7731 117.196,69.9937 117.854,70.2367 118.513,70.5011 119.172,70.7861 119.831,71.091 120.49,71.4147 121.149,71.7565 121.808,72.1155 122.467,72.4907 123.126,72.8812 123.784,73.2863 124.443,73.7048 125.102,74.136 125.761,74.579 126.42,75.0329 127.079,75.4967 127.738,75.9695 128.397,76.4506 129.055,76.939 129.714,77.4338 130.373,77.9341 131.032,78.4392 131.691,78.9482 132.35,79.4601 133.009,79.9744 133.668,80.4901 134.326,81.0063 134.985,81.5225 135.644,82.0378 136.303,82.5515 136.962,83.0629 137.621,83.5712 138.28,84.0758 138.939,84.576 139.598,85.0712 140.256,85.5608 140.915,86.0441 141.574,86.5206 142.233,86.9898 142.892,87.4511 143.551,87.9039 144.21,88.348 144.869,88.7826 145.527,89.2074 146.186,89.6221 146.845,90.0261 147.504,90.4193 148.163,90.801 148.822,91.1712 149.481,91.5295 150.14,91.8755 150.798,92.2092 151.457,92.5302 152.116,92.8383 152.775,93.1334 153.434,93.4153 154.093,93.6839 154.752,93.939 155.411,94.1807 156.069,94.4087 156.728,94.6231 157.387,94.8239 158.046,95.0109 158.705,95.1843 159.364,95.3442 160.023,95.4905 160.682,95.6233 161.341,95.7427 161.999,95.8488 162.658,95.9418 163.317,96.0218 163.976,96.0889 164.635,96.1434 165.294,96.1854 165.953,96.2151 166.612,96.2328 167.27,96.2386 167.929,96.2328 168.588,96.2158 169.247,96.1877 169.906,96.1487 170.565,96.0993 171.224,96.0397 171.883,95.9702 172.541,95.8911 173.2,95.8027 173.859,95.7053 174.518,95.5994 175.177,95.4853 175.836,95.3632 176.495,95.2335 177.154,95.0966 177.813,94.9528 178.471,94.8025 179.13,94.6461 179.789,94.4838 180.448,94.3162 181.107,94.1434 181.766,93.966 182.425,93.7842 183.084,93.5984 183.742,93.409 184.401,93.2163 185.06,93.0207 185.719,92.8224 186.378,92.6221 187.037,92.4197 187.696,92.2158 188.355,92.0107 189.013,91.8047 189.672,91.5983 190.331,91.3914 190.99,91.1846 191.649,90.9783 192.308,90.7725 192.967,90.5676 193.626,90.364 194.285,90.1619 194.943,89.9615 195.602,89.7632 196.261,89.5671 196.92,89.3735 197.579,89.1826 198.238,88.9947 198.897,88.8099 199.556,88.6285 200.214,88.4506 200.873,88.2766 201.532,88.1064 202.191,87.9402 202.85,87.7784 203.509,87.621 204.168,87.468 204.827,87.3198 205.485,87.1762 206.144,87.0376 206.803,86.9039 207.462,86.7754 208.121,86.652 208.78,86.5338 209.439,86.4208 210.098,86.3132 210.757,86.2111 211.415,86.1143 212.074,86.0229 212.733,85.9371 213.392,85.8566 214.051,85.7817 214.71,85.7122 215.369,85.6482 216.028,85.5896 216.686,85.5364 217.345,85.4886 218.004,85.446 218.663,85.4088 219.322,85.3768 219.981,85.3499 220.64,85.3281 221.299,85.3112 221.957,85.2993 222.616,85.2922 223.275,85.2899 223.934,85.2922 224.593,85.2991 225.252,85.3104 225.911,85.3259 226.57,85.3457 227.229,85.3696 227.887,85.3975 228.546,85.4291 229.205,85.4645 229.864,85.5035 230.523,85.546 231.182,85.5917 231.841,85.6406 232.5,85.6926 233.158,85.7474 233.817,85.805 234.476,85.8652 235.135,85.9279 235.794,85.9929 236.453,86.06 237.112,86.1292 237.771,86.2003 238.429,86.2731 239.088,86.3475 239.747,86.4234 240.406,86.5005 241.065,86.5789 241.724,86.6583 242.383,86.7386 243.042,86.8196 243.701,86.9013 244.359,86.9835 245.018,87.066 245.677,87.1487 246.336,87.2315 246.995,87.3144 247.654,87.397 248.313,87.4795 248.972,87.5615 249.63,87.6431 250.289,87.7241 250.948,87.8043 251.607,87.8837 252.266,87.9623 252.925,88.0399 253.584,88.1163 254.243,88.1916 254.901,88.2656 255.56,88.3383 256.219,88.4095 256.878,88.4792 257.537,88.5474 258.196,88.614 258.855,88.6788 259.514,88.7418 260.172,88.8031 260.831,88.8625 261.49,88.92 262.149,88.9755 262.808,89.0291 263.467,89.0806 264.126,89.13 264.785,89.1773 265.444,89.2226 266.102,89.2657 266.761,89.3066 267.42,89.3454 268.079,89.382 268.738,89.4164 269.397,89.4485 270.056,89.4786 270.715,89.5064 271.373,89.532 272.032,89.5555 272.691,89.5768 273.35,89.596 274.009,89.613 274.668,89.6279 275.327,89.6408 275.986,89.6516 276.644,89.6603 277.303,89.6671 277.962,89.6718 278.621,89.6746 279.28,89.6756 279.939,89.6746 280.598,89.6719 281.257,89.6674 281.916,89.6611 282.574,89.6532 283.233,89.6437 283.892,89.6325 284.551,89.6198 285.21,89.6057 285.869,89.59 286.528,89.573 287.187,89.5547 287.845,89.5351 288.504,89.5143 289.163,89.4923 289.822,89.4693 290.481,89.4451 291.14,89.42 291.799,89.394 292.458,89.3671 293.116,89.3394 293.775,89.3109 294.434,89.2817 295.093,89.252 295.752,89.2216 296.411,89.1906 297.07,89.1592 297.729,89.1274 298.388,89.0953 299.046,89.0628 299.705,89.0301 300.364,88.9972 301.023,88.9642 301.682,88.931 302.341,88.8978 303,88.8647 303.659,88.8315 304.317,88.7985 304.976,88.7657 305.635,88.733 306.294,88.7006 306.953,88.6684 307.612,88.6366 308.271,88.6051 308.93,88.574 309.589,88.5434 310.247,88.5133 310.906,88.4836 311.565,88.4545 312.224,88.426 312.883,88.3981 313.542,88.3707 314.201,88.3441 314.86,88.3181 315.518,88.2928 316.177,88.2683 316.836,88.2445 317.495,88.2215 318.154,88.1993 318.813,88.1778 319.472,88.1572 320.131,88.1374 320.789,88.1184 321.448,88.1003 322.107,88.0831 322.766,88.0667 323.425,88.0511 324.084,88.0364 324.743,88.0227 325.402,88.0098 326.06,87.9977 326.719,87.9866 327.378,87.9763 328.037,87.9669 328.696,87.9584 329.355,87.9507 330.014,87.9439 330.673,87.9379 331.332,87.9328 331.99,87.9285 332.649,87.925 333.308,87.9222 333.967,87.9203 334.626,87.9193 335.285,87.9188 335.944,87.9192 336.603,87.9203 337.261,87.9221 337.92,87.9246 338.579,87.9278 339.238,87.9316 339.897,87.9361 340.556,87.9412 341.215,87.9468 341.874,87.9531 342.532,87.9599 343.191,87.9673 343.85,87.9751 344.509,87.9835 345.168,87.9922 345.827,88.0015 346.486,88.0112 347.145,88.0212 347.804,88.0316 348.462,88.0424 349.121,88.0535 349.78,88.0649 350.439,88.0766 351.098,88.0886 351.757,88.1007 352.416,88.1131 353.075,88.1257 353.733,88.1384 354.392,88.1513 355.051,88.1643 355.71,88.1774 356.369,88.1906 357.028,88.2038 357.687,88.2171 358.346,88.2304 359.004,88.2437 359.663,88.257 360.322,88.2701 360.981,88.2833 361.64,88.2964 362.299,88.3094 362.958,88.3223 363.617,88.335 364.276,88.3477 364.934,88.36 365.593,88.3723 366.252,88.3844 366.911,88.3963 367.57,88.408 368.229,88.4194 368.888,88.4306 369.547,88.4415 370.205,88.4522 370.864,88.4626 371.523,88.4727 372.182,88.4825 372.841,88.4921 373.5,88.5013 374.159,88.5102 374.818,88.5188 375.476,88.527 376.135,88.535 376.794,88.5426 377.453,88.5499 378.112,88.5568 378.771,88.5634 379.43,88.5695 380.089,88.5754 380.747,88.5809 381.406,88.5861 382.065,88.5909 382.724,88.5954 383.383,88.5995 384.042,88.6033 384.701,88.6067 385.03,88.6082"/>
   <polyline stroke-linejoin="round" fill="none" stroke="#d85218" stroke-linecap="butt" stroke-width="0.5" points="55.2609,88.4213 385.03,88.4213"/>
  </g>
  <clipPath id="cp00425619">
   <polygon points="0,619 425,619 425,0 0,0"/>
  </clipPath>
  <g clip-path="url(#cp00425619)">
   <polygon fill="#ffffff" shape-rendering="crispEdges" points="294.825,133.779 377.926,133.779 377.926,89.2288 294.825,89.2288"/>
   <polyline stroke-linejoin="miter" fill="none" stroke="#262626" stroke-dasharray="16,0" stroke-linecap="square" stroke-width="0.5" points="294.825,133.779 377.926,133.779"/>
   <polyline stroke-linejoin="miter" fill="none" stroke="#262626" stroke-dasharray="16,0" stroke-linecap="square" stroke-width="0.5" points="294.825,89.2288 377.926,89.2288"/>
   <polyline stroke-linejoin="miter" fill="none" stroke="#262626" stroke-dasharray="16,0" stroke-linecap="square" stroke-width="0.5" points="294.825,133.779 294.825,89.2288"/>
   <polyline stroke-linejoin="miter" fill="none" stroke="#262626" stroke-dasharray="16,0" stroke-linecap="square" stroke-width="0.5" points="377.926,133.779 377.926,89.2288"/>
   <polyline stroke-linejoin="round" fill="none" stroke="#0071bc" stroke-linecap="butt" stroke-width="0.5" points="298.213,97.6164 315.151,97.6164"/>
   <text font-style="normal" font-family="FreeSans" transform="translate(318.538,102.616) rotate(-0,-0,-5)" xml:space="preserve" font-weight="normal" font-size="12">
    <tspan y="-0" fill="rgb(0,0,0)" x="0 9 15 22 ">Real</tspan>
   </text>
   <polyline stroke-linejoin="round" fill="none" stroke="#d85218" stroke-linecap="butt" stroke-width="0.5" points="298.213,125.392 315.151,125.392"/>
   <text font-style="normal" font-family="FreeSans" transform="translate(318.538,130.392) rotate(-0,-0,-5)" xml:space="preserve" font-weight="normal" font-size="12">
    <tspan y="-0" fill="rgb(0,0,0)" x="0 9 15 18 24 28 34 40 46 49 ">Referencia</tspan>
   </text>
   <polyline stroke-linejoin="round" fill="none" stroke="#ff0000" stroke-linecap="butt" stroke-width="0.5" points="298.213,111.504 315.151,111.504"/>
   <text font-style="normal" font-family="FreeSans" transform="translate(318.538,117.004) rotate(-0,-0,-5.5)" xml:space="preserve" font-weight="normal" font-size="12">
    <tspan y="-1" fill="rgb(0,0,0)" x="0 8 11 21 27 30 37 44 ">Simulado</tspan>
   </text>
  </g>
  <clipPath id="cp00425619">
   <polygon points="0,619 425,619 425,0 0,0"/>
  </clipPath>
  <g clip-path="url(#cp00425619)">
   <polygon fill="#ffffff" shape-rendering="crispEdges" points="55.2609,277.611 384.701,277.611 384.701,202.55 55.2609,202.55"/>
   <polyline stroke-linejoin="miter" fill="none" stroke-opacity="0.15" stroke="#262626" stroke-dasharray="16,0" stroke-linecap="butt" stroke-width="0.5" points="55.2609,277.611 55.2609,202.55"/>
   <polyline stroke-linejoin="miter" fill="none" stroke-opacity="0.15" stroke="#262626" stroke-dasharray="16,0" stroke-linecap="butt" stroke-width="0.5" points="121.149,277.611 121.149,202.55"/>
   <polyline stroke-linejoin="miter" fill="none" stroke-opacity="0.15" stroke="#262626" stroke-dasharray="16,0" stroke-linecap="butt" stroke-width="0.5" points="187.037,277.611 187.037,202.55"/>
   <polyline stroke-linejoin="miter" fill="none" stroke-opacity="0.15" stroke="#262626" stroke-dasharray="16,0" stroke-linecap="butt" stroke-width="0.5" points="252.925,277.611 252.925,202.55"/>
   <polyline stroke-linejoin="miter" fill="none" stroke-opacity="0.15" stroke="#262626" stroke-dasharray="16,0" stroke-linecap="butt" stroke-width="0.5" points="318.813,277.611 318.813,202.55"/>
   <polyline stroke-linejoin="miter" fill="none" stroke-opacity="0.15" stroke="#262626" stroke-dasharray="16,0" stroke-linecap="butt" stroke-width="0.5" points="384.701,277.611 384.701,202.55"/>
   <polyline stroke-linejoin="miter" fill="none" stroke="#262626" stroke-linecap="butt" stroke-width="0.5" points="55.2609,277.611 55.2609,274.314"/>
   <polyline stroke-linejoin="miter" fill="none" stroke="#262626" stroke-linecap="butt" stroke-width="0.5" points="55.2609,202.55 55.2609,205.847"/>
   <polyline stroke-linejoin="miter" fill="none" stroke="#262626" stroke-linecap="butt" stroke-width="0.5" points="121.149,277.611 121.149,274.314"/>
   <polyline stroke-linejoin="miter" fill="none" stroke="#262626" stroke-linecap="butt" stroke-width="0.5" points="121.149,202.55 121.149,205.847"/>
   <polyline stroke-linejoin="miter" fill="none" stroke="#262626" stroke-linecap="butt" stroke-width="0.5" points="187.037,277.611 187.037,274.314"/>
   <polyline stroke-linejoin="miter" fill="none" stroke="#262626" stroke-linecap="butt" stroke-width="0.5" points="187.037,202.55 187.037,205.847"/>
   <polyline stroke-linejoin="miter" fill="none" stroke="#262626" stroke-linecap="butt" stroke-width="0.5" points="252.925,277.611 252.925,274.314"/>
   <polyline stroke-linejoin="miter" fill="none" stroke="#262626" stroke-linecap="butt" stroke-width="0.5" points="252.925,202.55 252.925,205.847"/>
   <polyline stroke-linejoin="miter" fill="none" stroke="#262626" stroke-linecap="butt" stroke-width="0.5" points="318.813,277.611 318.813,274.314"/>
   <polyline stroke-linejoin="miter" fill="none" stroke="#262626" stroke-linecap="butt" stroke-width="0.5" points="318.813,202.55 318.813,205.847"/>
   <polyline stroke-linejoin="miter" fill="none" stroke="#262626" stroke-linecap="butt" stroke-width="0.5" points="384.701,277.611 384.701,274.314"/>
   <polyline stroke-linejoin="miter" fill="none" stroke="#262626" stroke-linecap="butt" stroke-width="0.5" points="384.701,202.55 384.701,205.847"/>
   <text font-style="normal" font-family="FreeSans" transform="translate(52.2609,293.117) rotate(-0,3,-8)" xml:space="preserve" font-weight="normal" font-size="10">
    <tspan y="-0" fill="rgb(38,38,38)" x="0 ">0</tspan>
   </text>
   <text font-style="normal" font-family="FreeSans" transform="translate(113.649,293.117) rotate(-0,7.5,-8)" xml:space="preserve" font-weight="normal" font-size="10">
    <tspan y="-0" fill="rgb(38,38,38)" x="0 6 9 ">0.2</tspan>
   </text>
   <text font-style="normal" font-family="FreeSans" transform="translate(179.537,293.117) rotate(-0,7.5,-8)" xml:space="preserve" font-weight="normal" font-size="10">
    <tspan y="-0" fill="rgb(38,38,38)" x="0 6 9 ">0.4</tspan>
   </text>
   <text font-style="normal" font-family="FreeSans" transform="translate(245.425,293.117) rotate(-0,7.5,-8)" xml:space="preserve" font-weight="normal" font-size="10">
    <tspan y="-0" fill="rgb(38,38,38)" x="0 6 9 ">0.6</tspan>
   </text>
   <text font-style="normal" font-family="FreeSans" transform="translate(311.313,293.117) rotate(-0,7.5,-8)" xml:space="preserve" font-weight="normal" font-size="10">
    <tspan y="-0" fill="rgb(38,38,38)" x="0 6 9 ">0.8</tspan>
   </text>
   <text font-style="normal" font-family="FreeSans" transform="translate(381.701,293.117) rotate(-0,3,-8)" xml:space="preserve" font-weight="normal" font-size="10">
    <tspan y="-0" fill="rgb(38,38,38)" x="0 ">1</tspan>
   </text>
   <polyline stroke-linejoin="miter" fill="none" stroke-opacity="0.15" stroke="#262626" stroke-dasharray="16,0" stroke-linecap="butt" stroke-width="0.5" points="55.2609,274.199 384.701,274.199"/>
   <polyline stroke-linejoin="miter" fill="none" stroke-opacity="0.15" stroke="#262626" stroke-dasharray="16,0" stroke-linecap="butt" stroke-width="0.5" points="55.2609,260.392 384.701,260.392"/>
   <polyline stroke-linejoin="miter" fill="none" stroke-opacity="0.15" stroke="#262626" stroke-dasharray="16,0" stroke-linecap="butt" stroke-width="0.5" points="55.2609,246.585 384.701,246.585"/>
   <polyline stroke-linejoin="miter" fill="none" stroke-opacity="0.15" stroke="#262626" stroke-dasharray="16,0" stroke-linecap="butt" stroke-width="0.5" points="55.2609,232.778 384.701,232.778"/>
   <polyline stroke-linejoin="miter" fill="none" stroke-opacity="0.15" stroke="#262626" stroke-dasharray="16,0" stroke-linecap="butt" stroke-width="0.5" points="55.2609,218.972 384.701,218.972"/>
   <polyline stroke-linejoin="miter" fill="none" stroke-opacity="0.15" stroke="#262626" stroke-dasharray="16,0" stroke-linecap="butt" stroke-width="0.5" points="55.2609,205.165 384.701,205.165"/>
   <polyline stroke-linejoin="miter" fill="none" stroke="#262626" stroke-linecap="butt" stroke-width="0.5" points="55.2609,274.199 58.5597,274.199"/>
   <polyline stroke-linejoin="miter" fill="none" stroke="#262626" stroke-linecap="butt" stroke-width="0.5" points="384.701,274.199 381.402,274.199"/>
   <polyline stroke-linejoin="miter" fill="none" stroke="#262626" stroke-linecap="butt" stroke-width="0.5" points="55.2609,260.392 58.5597,260.392"/>
   <polyline stroke-linejoin="miter" fill="none" stroke="#262626" stroke-linecap="butt" stroke-width="0.5" points="384.701,260.392 381.402,260.392"/>
   <polyline stroke-linejoin="miter" fill="none" stroke="#262626" stroke-linecap="butt" stroke-width="0.5" points="55.2609,246.585 58.5597,246.585"/>
   <polyline stroke-linejoin="miter" fill="none" stroke="#262626" stroke-linecap="butt" stroke-width="0.5" points="384.701,246.585 381.402,246.585"/>
   <polyline stroke-linejoin="miter" fill="none" stroke="#262626" stroke-linecap="butt" stroke-width="0.5" points="55.2609,232.778 58.5597,232.778"/>
   <polyline stroke-linejoin="miter" fill="none" stroke="#262626" stroke-linecap="butt" stroke-width="0.5" points="384.701,232.778 381.402,232.778"/>
   <polyline stroke-linejoin="miter" fill="none" stroke="#262626" stroke-linecap="butt" stroke-width="0.5" points="55.2609,218.972 58.5597,218.972"/>
   <polyline stroke-linejoin="miter" fill="none" stroke="#262626" stroke-linecap="butt" stroke-width="0.5" points="384.701,218.972 381.402,218.972"/>
   <polyline stroke-linejoin="miter" fill="none" stroke="#262626" stroke-linecap="butt" stroke-width="0.5" points="55.2609,205.165 58.5597,205.165"/>
   <polyline stroke-linejoin="miter" fill="none" stroke="#262626" stroke-linecap="butt" stroke-width="0.5" points="384.701,205.165 381.402,205.165"/>
   <text font-style="normal" font-family="FreeSans" transform="translate(44.2542,278.199) rotate(-0,6,-4)" xml:space="preserve" font-weight="normal" font-size="10">
    <tspan y="-0" fill="rgb(38,38,38)" x="0 ">0</tspan>
   </text>
   <text font-style="normal" font-family="FreeSans" transform="translate(35.2542,264.392) rotate(-0,15,-4)" xml:space="preserve" font-weight="normal" font-size="10">
    <tspan y="-0" fill="rgb(38,38,38)" x="0 6 9 ">0.2</tspan>
   </text>
   <text font-style="normal" font-family="FreeSans" transform="translate(35.2542,250.585) rotate(-0,15,-4)" xml:space="preserve" font-weight="normal" font-size="10">
    <tspan y="-0" fill="rgb(38,38,38)" x="0 6 9 ">0.4</tspan>
   </text>
   <text font-style="normal" font-family="FreeSans" transform="translate(35.2542,236.778) rotate(-0,15,-4)" xml:space="preserve" font-weight="normal" font-size="10">
    <tspan y="-0" fill="rgb(38,38,38)" x="0 6 9 ">0.6</tspan>
   </text>
   <text font-style="normal" font-family="FreeSans" transform="translate(35.2542,222.972) rotate(-0,15,-4)" xml:space="preserve" font-weight="normal" font-size="10">
    <tspan y="-0" fill="rgb(38,38,38)" x="0 6 9 ">0.8</tspan>
   </text>
   <text font-style="normal" font-family="FreeSans" transform="translate(44.2542,209.165) rotate(-0,6,-4)" xml:space="preserve" font-weight="normal" font-size="10">
    <tspan y="-0" fill="rgb(38,38,38)" x="0 ">1</tspan>
   </text>
   <polyline stroke-linejoin="miter" fill="none" stroke="#262626" stroke-dasharray="16,0" stroke-linecap="square" stroke-width="0.5" points="55.2609,277.611 384.701,277.611"/>
   <polyline stroke-linejoin="miter" fill="none" stroke="#262626" stroke-dasharray="16,0" stroke-linecap="square" stroke-width="0.5" points="55.2609,202.55 384.701,202.55"/>
   <polyline stroke-linejoin="miter" fill="none" stroke="#262626" stroke-dasharray="16,0" stroke-linecap="square" stroke-width="0.5" points="55.2609,277.611 55.2609,202.55"/>
   <polyline stroke-linejoin="miter" fill="none" stroke="#262626" stroke-dasharray="16,0" stroke-linecap="square" stroke-width="0.5" points="384.701,277.611 384.701,202.55"/>
   <text font-style="normal" font-family="FreeSans" transform="translate(185.481,192.55) rotate(-0,34.5,0)" xml:space="preserve" font-weight="bold" font-size="11">
    <tspan y="-2" fill="rgb(0,0,0)" x="0 8 14 21 28 35 38 45 51 54 60 63 ">Ganho de 4,0</tspan>
   </text>
   <text font-style="normal" font-family="FreeSans" transform="translate(1.7542,240.08) rotate(-90,28.5,0)" xml:space="preserve" font-weight="normal" font-size="11">
    <tspan y="-3" fill="rgb(38,38,38)" x="0 7 13 19 25 27 33 37 41 47 53 ">Ângulo(rad)</tspan>
   </text>
   <text font-style="normal" font-family="FreeSans" transform="translate(196.481,310.117) rotate(-0,23.5,-12)" xml:space="preserve" font-weight="normal" font-size="11">
    <tspan y="-3" fill="rgb(38,38,38)" x="0 7 13 22 28 34 38 43 ">Tempo(s)</tspan>
   </text>
   <polyline stroke-linejoin="round" fill="none" stroke="#0071bc" stroke-linecap="butt" stroke-width="0.5" points="55.2609,274.199 55.9198,274.199 56.5786,274.199 57.2375,274.199 57.8964,274.199 58.5553,274.199 59.2142,274.199 59.873,274.199 60.5319,273.039 61.1908,273.039 61.8497,273.039 62.5086,273.039 63.1674,273.039 63.8263,273.039 64.4852,271.879 65.1441,271.879 65.803,271.879 66.4619,270.719 67.1207,270.719 67.7796,270.719 68.4385,269.56 69.0974,269.56 69.7562,269.56 70.4151,268.4 71.074,268.4 71.7329,267.24 72.3918,267.24 73.0507,267.24 73.7095,266.08 74.3684,266.08 75.0273,264.921 75.6862,264.921 76.345,263.761 77.0039,263.761 77.6628,262.601 78.3217,262.601 78.9806,261.441 79.6394,261.441 80.2983,260.281 80.9572,259.122 81.6161,259.122 82.275,257.962 82.9338,257.962 83.5927,256.802 84.2516,256.802 84.9105,255.642 85.5694,254.483 86.2282,254.483 86.8871,253.323 87.546,253.323 88.2049,252.163 88.8638,251.003 89.5226,251.003 90.1815,249.844 90.8404,249.844 91.4993,248.684 92.1581,248.684 92.817,247.524 93.4759,246.364 94.1348,246.364 94.7937,245.205 95.4526,245.205 96.1114,244.045 96.7703,242.885 97.4292,242.885 98.0881,241.725 98.747,241.725 99.4058,240.565 100.065,239.406 100.724,239.406 101.382,238.246 102.041,238.246 102.7,237.086 103.359,237.086 104.018,235.926 104.677,234.767 105.336,234.767 105.995,233.607 106.654,233.607 107.312,232.447 107.971,232.447 108.63,231.287 109.289,231.287 109.948,230.128 110.607,230.128 111.266,228.968 111.925,228.968 112.583,227.808 113.242,227.808 113.901,226.648 114.56,226.648 115.219,225.489 115.878,225.489 116.537,224.329 117.196,224.329 117.854,223.169 118.513,223.169 119.172,222.009 119.831,222.009 120.49,220.849 121.149,220.849 121.808,220.849 122.467,219.69 123.126,219.69 123.784,218.53 124.443,218.53 125.102,218.53 125.761,217.37 126.42,217.37 127.079,217.37 127.738,216.21 128.397,216.21 129.055,215.051 129.714,215.051 130.373,215.051 131.032,213.891 131.691,213.891 132.35,213.891 133.009,213.891 133.668,212.731 134.326,212.731 134.985,212.731 135.644,211.571 136.303,211.571 136.962,211.571 137.621,211.571 138.28,211.571 138.939,210.411 139.598,210.411 140.256,210.411 140.915,210.411 141.574,209.252 142.233,209.252 142.892,209.252 143.551,209.252 144.21,209.252 144.869,209.252 145.527,209.252 146.186,208.092 146.845,208.092 147.504,208.092 148.163,208.092 148.822,208.092 149.481,208.092 150.14,208.092 150.798,208.092 151.457,208.092 152.116,208.092 152.775,209.252 153.434,209.252 154.093,209.252 154.752,209.252 155.411,209.252 156.069,209.252 156.728,208.092 157.387,208.092 158.046,208.092 158.705,208.092 159.364,208.092 160.023,208.092 160.682,209.252 161.341,209.252 161.999,209.252 162.658,209.252 163.317,209.252 163.976,209.252 164.635,209.252 165.294,209.252 165.953,209.252 166.612,209.252 167.27,209.252 167.929,209.252 168.588,209.252 169.247,209.252 169.906,209.252 170.565,209.252 171.224,209.252 171.883,209.252 172.541,209.252 173.2,209.252 173.859,209.252 174.518,209.252 175.177,209.252 175.836,209.252 176.495,209.252 177.154,209.252 177.813,209.252 178.471,209.252 179.13,209.252 179.789,209.252 180.448,209.252 181.107,209.252 181.766,209.252 182.425,209.252 183.084,209.252 183.742,209.252 184.401,209.252 185.06,209.252 185.719,209.252 186.378,209.252 187.037,209.252 187.696,209.252 188.355,209.252 189.013,209.252 189.672,209.252 190.331,209.252 190.99,209.252 191.649,209.252 192.308,209.252 192.967,209.252 193.626,209.252 194.285,209.252 194.943,209.252 195.602,209.252 196.261,209.252 196.92,209.252 197.579,209.252 198.238,209.252 198.897,209.252 199.556,209.252 200.214,209.252 200.873,209.252 201.532,209.252 202.191,209.252 202.85,209.252 203.509,209.252 204.168,209.252 204.827,209.252 205.485,209.252 206.144,209.252 206.803,209.252 207.462,209.252 208.121,209.252 208.78,209.252 209.439,209.252 210.098,209.252 210.757,209.252 211.415,209.252 212.074,209.252 212.733,209.252 213.392,209.252 214.051,209.252 214.71,209.252 215.369,209.252 216.028,209.252 216.686,209.252 217.345,209.252 218.004,209.252 218.663,209.252 219.322,209.252 219.981,209.252 220.64,209.252 221.299,209.252 221.957,209.252 222.616,209.252 223.275,209.252 223.934,209.252 224.593,209.252 225.252,209.252 225.911,209.252 226.57,209.252 227.229,209.252 227.887,209.252 228.546,209.252 229.205,209.252 229.864,209.252 230.523,209.252 231.182,209.252 231.841,209.252 232.5,209.252 233.158,209.252 233.817,209.252 234.476,209.252 235.135,209.252 235.794,209.252 236.453,209.252 237.112,209.252 237.771,209.252 238.429,209.252 239.088,209.252 239.747,209.252 240.406,209.252 241.065,209.252 241.724,209.252 242.383,209.252 243.042,209.252 243.701,209.252 244.359,209.252 245.018,209.252 245.677,209.252 246.336,209.252 246.995,209.252 247.654,209.252 248.313,209.252 248.972,209.252 249.63,209.252 250.289,209.252 250.948,209.252 251.607,209.252 252.266,209.252 252.925,209.252 253.584,209.252 254.243,209.252 254.901,209.252 255.56,209.252 256.219,209.252 256.878,209.252 257.537,209.252 258.196,209.252 258.855,209.252 259.514,209.252 260.172,209.252 260.831,209.252 261.49,209.252 262.149,209.252 262.808,209.252 263.467,209.252 264.126,209.252 264.785,209.252 265.444,209.252 266.102,209.252 266.761,209.252 267.42,209.252 268.079,209.252 268.738,209.252 269.397,209.252 270.056,209.252 270.715,209.252 271.373,209.252 272.032,209.252 272.691,209.252 273.35,209.252 274.009,209.252 274.668,209.252 275.327,209.252 275.986,209.252 276.644,209.252 277.303,209.252 277.962,209.252 278.621,209.252 279.28,209.252 279.939,209.252 280.598,209.252 281.257,209.252 281.916,209.252 282.574,209.252 283.233,209.252 283.892,209.252 284.551,209.252 285.21,209.252 285.869,209.252 286.528,209.252 287.187,209.252 287.845,209.252 288.504,209.252 289.163,209.252 289.822,209.252 290.481,209.252 291.14,209.252 291.799,209.252 292.458,209.252 293.116,209.252 293.775,209.252 294.434,209.252 295.093,209.252 295.752,209.252 296.411,209.252 297.07,209.252 297.729,209.252 298.388,209.252 299.046,209.252 299.705,209.252 300.364,209.252 301.023,209.252 301.682,209.252 302.341,209.252 303,209.252 303.659,209.252 304.317,209.252 304.976,209.252 305.635,209.252 306.294,209.252 306.953,209.252 307.612,209.252 308.271,209.252 308.93,209.252 309.589,209.252 310.247,209.252 310.906,209.252 311.565,209.252 312.224,209.252 312.883,209.252 313.542,209.252 314.201,209.252 314.86,209.252 315.518,209.252 316.177,209.252 316.836,209.252 317.495,209.252 318.154,209.252 318.813,209.252 319.472,209.252 320.131,209.252 320.789,209.252 321.448,209.252 322.107,209.252 322.766,209.252 323.425,209.252 324.084,209.252 324.743,209.252 325.402,209.252 326.06,209.252 326.719,209.252 327.378,209.252 328.037,209.252 328.696,209.252 329.355,209.252 330.014,209.252 330.673,209.252 331.332,209.252 331.99,209.252 332.649,209.252 333.308,209.252 333.967,209.252 334.626,209.252 335.285,209.252 335.944,209.252 336.603,209.252 337.261,209.252 337.92,209.252 338.579,209.252 339.238,209.252 339.897,209.252 340.556,209.252 341.215,209.252 341.874,209.252 342.532,209.252 343.191,209.252 343.85,209.252 344.509,209.252 345.168,209.252 345.827,209.252 346.486,209.252 347.145,209.252 347.804,209.252 348.462,209.252 349.121,209.252 349.78,209.252 350.439,209.252 351.098,209.252 351.757,209.252 352.416,209.252 353.075,209.252 353.733,209.252 354.392,209.252 355.051,209.252 355.71,209.252 356.369,209.252 357.028,209.252 357.687,209.252 358.346,209.252 359.004,209.252 359.663,209.252 360.322,209.252 360.981,209.252 361.64,209.252 362.299,209.252 362.958,209.252 363.617,209.252 364.276,209.252 364.934,209.252 365.593,209.252 366.252,209.252 366.911,209.252 367.57,209.252 368.229,209.252 368.888,209.252 369.547,209.252 370.205,209.252 370.864,209.252 371.523,209.252 372.182,209.252 372.841,209.252 373.5,209.252 374.159,209.252 374.818,209.252 375.476,209.252 376.135,209.252 376.794,209.252 377.453,209.252 378.112,209.252 378.771,209.252 379.43,209.252 380.089,209.252 380.747,209.252 381.406,209.252 382.065,209.252 382.724,209.252 383.383,209.252 384.042,209.252 384.701,209.252 385.03,209.252"/>
   <polyline stroke-linejoin="round" fill="none" stroke="#ff0000" stroke-linecap="butt" stroke-width="0.5" points="55.2609,274.199 70.2354,265.324 85.21,246.135 100.185,226.407 115.159,212.316 130.134,205.962 145.108,206.293 160.083,210.639 175.057,216.142 190.032,220.691 205.006,223.276 219.981,223.87 234.955,223.058 249.93,221.626 264.904,220.246 279.879,219.316 294.854,218.945 309.828,219.029 324.803,219.369 339.777,219.763 354.752,220.071 369.726,220.233 384.701,220.256 385.03,220.255"/>
   <polyline stroke-linejoin="round" fill="none" stroke="#d85218" stroke-linecap="butt" stroke-width="0.5" points="55.2609,219.98 385.03,219.98"/>
  </g>
  <clipPath id="cp00425619">
   <polygon points="0,619 425,619 425,0 0,0"/>
  </clipPath>
  <g clip-path="url(#cp00425619)">
   <polygon fill="#ffffff" shape-rendering="crispEdges" points="294.825,270.835 377.926,270.835 377.926,226.285 294.825,226.285"/>
   <polyline stroke-linejoin="miter" fill="none" stroke="#262626" stroke-dasharray="16,0" stroke-linecap="square" stroke-width="0.5" points="294.825,270.835 377.926,270.835"/>
   <polyline stroke-linejoin="miter" fill="none" stroke="#262626" stroke-dasharray="16,0" stroke-linecap="square" stroke-width="0.5" points="294.825,226.285 377.926,226.285"/>
   <polyline stroke-linejoin="miter" fill="none" stroke="#262626" stroke-dasharray="16,0" stroke-linecap="square" stroke-width="0.5" points="294.825,270.835 294.825,226.285"/>
   <polyline stroke-linejoin="miter" fill="none" stroke="#262626" stroke-dasharray="16,0" stroke-linecap="square" stroke-width="0.5" points="377.926,270.835 377.926,226.285"/>
   <polyline stroke-linejoin="round" fill="none" stroke="#0071bc" stroke-linecap="butt" stroke-width="0.5" points="298.213,234.673 315.151,234.673"/>
   <text font-style="normal" font-family="FreeSans" transform="translate(318.538,239.673) rotate(-0,-0,-5)" xml:space="preserve" font-weight="normal" font-size="12">
    <tspan y="-0" fill="rgb(0,0,0)" x="0 9 15 22 ">Real</tspan>
   </text>
   <polyline stroke-linejoin="round" fill="none" stroke="#d85218" stroke-linecap="butt" stroke-width="0.5" points="298.213,262.448 315.151,262.448"/>
   <text font-style="normal" font-family="FreeSans" transform="translate(318.538,267.448) rotate(-0,-0,-5)" xml:space="preserve" font-weight="normal" font-size="12">
    <tspan y="-0" fill="rgb(0,0,0)" x="0 9 15 18 24 28 34 40 46 49 ">Referencia</tspan>
   </text>
   <polyline stroke-linejoin="round" fill="none" stroke="#ff0000" stroke-linecap="butt" stroke-width="0.5" points="298.213,248.56 315.151,248.56"/>
   <text font-style="normal" font-family="FreeSans" transform="translate(318.538,254.06) rotate(-0,-0,-5.5)" xml:space="preserve" font-weight="normal" font-size="12">
    <tspan y="-1" fill="rgb(0,0,0)" x="0 8 11 21 27 30 37 44 ">Simulado</tspan>
   </text>
  </g>
  <clipPath id="cp00425619">
   <polygon points="0,619 425,619 425,0 0,0"/>
  </clipPath>
  <g clip-path="url(#cp00425619)">
   <polygon fill="#ffffff" shape-rendering="crispEdges" points="55.2609,414.667 384.701,414.667 384.701,339.606 55.2609,339.606"/>
   <polyline stroke-linejoin="miter" fill="none" stroke-opacity="0.15" stroke="#262626" stroke-dasharray="16,0" stroke-linecap="butt" stroke-width="0.5" points="55.2609,414.667 55.2609,339.606"/>
   <polyline stroke-linejoin="miter" fill="none" stroke-opacity="0.15" stroke="#262626" stroke-dasharray="16,0" stroke-linecap="butt" stroke-width="0.5" points="121.149,414.667 121.149,339.606"/>
   <polyline stroke-linejoin="miter" fill="none" stroke-opacity="0.15" stroke="#262626" stroke-dasharray="16,0" stroke-linecap="butt" stroke-width="0.5" points="187.037,414.667 187.037,339.606"/>
   <polyline stroke-linejoin="miter" fill="none" stroke-opacity="0.15" stroke="#262626" stroke-dasharray="16,0" stroke-linecap="butt" stroke-width="0.5" points="252.925,414.667 252.925,339.606"/>
   <polyline stroke-linejoin="miter" fill="none" stroke-opacity="0.15" stroke="#262626" stroke-dasharray="16,0" stroke-linecap="butt" stroke-width="0.5" points="318.813,414.667 318.813,339.606"/>
   <polyline stroke-linejoin="miter" fill="none" stroke-opacity="0.15" stroke="#262626" stroke-dasharray="16,0" stroke-linecap="butt" stroke-width="0.5" points="384.701,414.667 384.701,339.606"/>
   <polyline stroke-linejoin="miter" fill="none" stroke="#262626" stroke-linecap="butt" stroke-width="0.5" points="55.2609,414.667 55.2609,411.37"/>
   <polyline stroke-linejoin="miter" fill="none" stroke="#262626" stroke-linecap="butt" stroke-width="0.5" points="55.2609,339.606 55.2609,342.903"/>
   <polyline stroke-linejoin="miter" fill="none" stroke="#262626" stroke-linecap="butt" stroke-width="0.5" points="121.149,414.667 121.149,411.37"/>
   <polyline stroke-linejoin="miter" fill="none" stroke="#262626" stroke-linecap="butt" stroke-width="0.5" points="121.149,339.606 121.149,342.903"/>
   <polyline stroke-linejoin="miter" fill="none" stroke="#262626" stroke-linecap="butt" stroke-width="0.5" points="187.037,414.667 187.037,411.37"/>
   <polyline stroke-linejoin="miter" fill="none" stroke="#262626" stroke-linecap="butt" stroke-width="0.5" points="187.037,339.606 187.037,342.903"/>
   <polyline stroke-linejoin="miter" fill="none" stroke="#262626" stroke-linecap="butt" stroke-width="0.5" points="252.925,414.667 252.925,411.37"/>
   <polyline stroke-linejoin="miter" fill="none" stroke="#262626" stroke-linecap="butt" stroke-width="0.5" points="252.925,339.606 252.925,342.903"/>
   <polyline stroke-linejoin="miter" fill="none" stroke="#262626" stroke-linecap="butt" stroke-width="0.5" points="318.813,414.667 318.813,411.37"/>
   <polyline stroke-linejoin="miter" fill="none" stroke="#262626" stroke-linecap="butt" stroke-width="0.5" points="318.813,339.606 318.813,342.903"/>
   <polyline stroke-linejoin="miter" fill="none" stroke="#262626" stroke-linecap="butt" stroke-width="0.5" points="384.701,414.667 384.701,411.37"/>
   <polyline stroke-linejoin="miter" fill="none" stroke="#262626" stroke-linecap="butt" stroke-width="0.5" points="384.701,339.606 384.701,342.903"/>
   <text font-style="normal" font-family="FreeSans" transform="translate(52.2609,430.173) rotate(-0,3,-8)" xml:space="preserve" font-weight="normal" font-size="10">
    <tspan y="-0" fill="rgb(38,38,38)" x="0 ">0</tspan>
   </text>
   <text font-style="normal" font-family="FreeSans" transform="translate(113.649,430.173) rotate(-0,7.5,-8)" xml:space="preserve" font-weight="normal" font-size="10">
    <tspan y="-0" fill="rgb(38,38,38)" x="0 6 9 ">0.2</tspan>
   </text>
   <text font-style="normal" font-family="FreeSans" transform="translate(179.537,430.173) rotate(-0,7.5,-8)" xml:space="preserve" font-weight="normal" font-size="10">
    <tspan y="-0" fill="rgb(38,38,38)" x="0 6 9 ">0.4</tspan>
   </text>
   <text font-style="normal" font-family="FreeSans" transform="translate(245.425,430.173) rotate(-0,7.5,-8)" xml:space="preserve" font-weight="normal" font-size="10">
    <tspan y="-0" fill="rgb(38,38,38)" x="0 6 9 ">0.6</tspan>
   </text>
   <text font-style="normal" font-family="FreeSans" transform="translate(311.313,430.173) rotate(-0,7.5,-8)" xml:space="preserve" font-weight="normal" font-size="10">
    <tspan y="-0" fill="rgb(38,38,38)" x="0 6 9 ">0.8</tspan>
   </text>
   <text font-style="normal" font-family="FreeSans" transform="translate(381.701,430.173) rotate(-0,3,-8)" xml:space="preserve" font-weight="normal" font-size="10">
    <tspan y="-0" fill="rgb(38,38,38)" x="0 ">1</tspan>
   </text>
   <polyline stroke-linejoin="miter" fill="none" stroke-opacity="0.15" stroke="#262626" stroke-dasharray="16,0" stroke-linecap="butt" stroke-width="0.5" points="55.2609,411.255 384.701,411.255"/>
   <polyline stroke-linejoin="miter" fill="none" stroke-opacity="0.15" stroke="#262626" stroke-dasharray="16,0" stroke-linecap="butt" stroke-width="0.5" points="55.2609,392.451 384.701,392.451"/>
   <polyline stroke-linejoin="miter" fill="none" stroke-opacity="0.15" stroke="#262626" stroke-dasharray="16,0" stroke-linecap="butt" stroke-width="0.5" points="55.2609,373.646 384.701,373.646"/>
   <polyline stroke-linejoin="miter" fill="none" stroke-opacity="0.15" stroke="#262626" stroke-dasharray="16,0" stroke-linecap="butt" stroke-width="0.5" points="55.2609,354.842 384.701,354.842"/>
   <polyline stroke-linejoin="miter" fill="none" stroke="#262626" stroke-linecap="butt" stroke-width="0.5" points="55.2609,411.255 58.5597,411.255"/>
   <polyline stroke-linejoin="miter" fill="none" stroke="#262626" stroke-linecap="butt" stroke-width="0.5" points="384.701,411.255 381.402,411.255"/>
   <polyline stroke-linejoin="miter" fill="none" stroke="#262626" stroke-linecap="butt" stroke-width="0.5" points="55.2609,392.451 58.5597,392.451"/>
   <polyline stroke-linejoin="miter" fill="none" stroke="#262626" stroke-linecap="butt" stroke-width="0.5" points="384.701,392.451 381.402,392.451"/>
   <polyline stroke-linejoin="miter" fill="none" stroke="#262626" stroke-linecap="butt" stroke-width="0.5" points="55.2609,373.646 58.5597,373.646"/>
   <polyline stroke-linejoin="miter" fill="none" stroke="#262626" stroke-linecap="butt" stroke-width="0.5" points="384.701,373.646 381.402,373.646"/>
   <polyline stroke-linejoin="miter" fill="none" stroke="#262626" stroke-linecap="butt" stroke-width="0.5" points="55.2609,354.842 58.5597,354.842"/>
   <polyline stroke-linejoin="miter" fill="none" stroke="#262626" stroke-linecap="butt" stroke-width="0.5" points="384.701,354.842 381.402,354.842"/>
   <text font-style="normal" font-family="FreeSans" transform="translate(44.2542,415.255) rotate(-0,6,-4)" xml:space="preserve" font-weight="normal" font-size="10">
    <tspan y="-0" fill="rgb(38,38,38)" x="0 ">0</tspan>
   </text>
   <text font-style="normal" font-family="FreeSans" transform="translate(35.2542,396.451) rotate(-0,15,-4)" xml:space="preserve" font-weight="normal" font-size="10">
    <tspan y="-0" fill="rgb(38,38,38)" x="0 6 9 ">0.5</tspan>
   </text>
   <text font-style="normal" font-family="FreeSans" transform="translate(44.2542,377.646) rotate(-0,6,-4)" xml:space="preserve" font-weight="normal" font-size="10">
    <tspan y="-0" fill="rgb(38,38,38)" x="0 ">1</tspan>
   </text>
   <text font-style="normal" font-family="FreeSans" transform="translate(35.2542,358.842) rotate(-0,15,-4)" xml:space="preserve" font-weight="normal" font-size="10">
    <tspan y="-0" fill="rgb(38,38,38)" x="0 6 9 ">1.5</tspan>
   </text>
   <polyline stroke-linejoin="miter" fill="none" stroke="#262626" stroke-dasharray="16,0" stroke-linecap="square" stroke-width="0.5" points="55.2609,414.667 384.701,414.667"/>
   <polyline stroke-linejoin="miter" fill="none" stroke="#262626" stroke-dasharray="16,0" stroke-linecap="square" stroke-width="0.5" points="55.2609,339.606 384.701,339.606"/>
   <polyline stroke-linejoin="miter" fill="none" stroke="#262626" stroke-dasharray="16,0" stroke-linecap="square" stroke-width="0.5" points="55.2609,414.667 55.2609,339.606"/>
   <polyline stroke-linejoin="miter" fill="none" stroke="#262626" stroke-dasharray="16,0" stroke-linecap="square" stroke-width="0.5" points="384.701,414.667 384.701,339.606"/>
   <text font-style="normal" font-family="FreeSans" transform="translate(185.481,329.606) rotate(-0,34.5,0)" xml:space="preserve" font-weight="bold" font-size="11">
    <tspan y="-2" fill="rgb(0,0,0)" x="0 8 14 21 28 35 38 45 51 54 60 63 ">Ganho de 2,0</tspan>
   </text>
   <text font-style="normal" font-family="FreeSans" transform="translate(1.7542,377.137) rotate(-90,28.5,0)" xml:space="preserve" font-weight="normal" font-size="11">
    <tspan y="-3" fill="rgb(38,38,38)" x="0 7 13 19 25 27 33 37 41 47 53 ">Ângulo(rad)</tspan>
   </text>
   <text font-style="normal" font-family="FreeSans" transform="translate(196.481,447.173) rotate(-0,23.5,-12)" xml:space="preserve" font-weight="normal" font-size="11">
    <tspan y="-3" fill="rgb(38,38,38)" x="0 7 13 22 28 34 38 43 ">Tempo(s)</tspan>
   </text>
   <polyline stroke-linejoin="round" fill="none" stroke="#0071bc" stroke-linecap="butt" stroke-width="0.5" points="55.2609,411.255 55.9198,411.255 56.5786,411.255 57.2375,411.255 57.8964,411.255 58.5553,411.255 59.2142,410.623 59.873,410.623 60.5319,410.623 61.1908,410.623 61.8497,410.623 62.5086,410.623 63.1674,409.991 63.8263,409.991 64.4852,409.991 65.1441,409.36 65.803,409.36 66.4619,409.36 67.1207,408.728 67.7796,408.728 68.4385,408.096 69.0974,408.096 69.7562,407.464 70.4151,407.464 71.074,406.832 71.7329,406.832 72.3918,406.201 73.0507,406.201 73.7095,405.569 74.3684,405.569 75.0273,404.937 75.6862,404.937 76.345,404.305 77.0039,404.305 77.6628,403.673 78.3217,403.041 78.9806,403.041 79.6394,402.41 80.2983,401.778 80.9572,401.778 81.6161,401.146 82.275,400.514 82.9338,400.514 83.5927,399.882 84.2516,399.25 84.9105,399.25 85.5694,398.619 86.2282,397.987 86.8871,397.987 87.546,397.355 88.2049,396.723 88.8638,396.091 89.5226,396.091 90.1815,395.46 90.8404,394.828 91.4993,394.828 92.1581,394.196 92.817,393.564 93.4759,392.932 94.1348,392.932 94.7937,392.3 95.4526,391.669 96.1114,391.037 96.7703,391.037 97.4292,390.405 98.0881,389.773 98.747,389.141 99.4058,389.141 100.065,388.509 100.724,387.878 101.382,387.246 102.041,387.246 102.7,386.614 103.359,385.982 104.018,385.35 104.677,385.35 105.336,384.719 105.995,384.087 106.654,383.455 107.312,383.455 107.971,382.823 108.63,382.191 109.289,381.559 109.948,381.559 110.607,380.928 111.266,380.296 111.925,379.664 112.583,379.664 113.242,379.032 113.901,378.4 114.56,377.768 115.219,377.768 115.878,377.137 116.537,376.505 117.196,376.505 117.854,375.873 118.513,375.241 119.172,374.609 119.831,374.609 120.49,373.977 121.149,373.346 121.808,373.346 122.467,372.714 123.126,372.082 123.784,372.082 124.443,371.45 125.102,370.818 125.761,370.818 126.42,370.187 127.079,369.555 127.738,369.555 128.397,368.923 129.055,368.291 129.714,368.291 130.373,367.659 131.032,367.659 131.691,367.027 132.35,366.396 133.009,366.396 133.668,365.764 134.326,365.132 134.985,365.132 135.644,364.5 136.303,364.5 136.962,363.868 137.621,363.868 138.28,363.236 138.939,363.236 139.598,362.605 140.256,361.973 140.915,361.973 141.574,361.341 142.233,361.341 142.892,360.709 143.551,360.709 144.21,360.077 144.869,360.077 145.527,359.446 146.186,359.446 146.845,358.814 147.504,358.814 148.163,358.182 148.822,358.182 149.481,357.55 150.14,357.55 150.798,357.55 151.457,356.918 152.116,356.918 152.775,356.286 153.434,356.286 154.093,355.655 154.752,355.655 155.411,355.655 156.069,355.023 156.728,355.023 157.387,354.391 158.046,354.391 158.705,354.391 159.364,353.759 160.023,353.759 160.682,353.759 161.341,353.127 161.999,353.127 162.658,352.495 163.317,351.864 163.976,351.864 164.635,351.864 165.294,351.232 165.953,351.232 166.612,351.232 167.27,350.6 167.929,350.6 168.588,350.6 169.247,350.6 169.906,349.968 170.565,349.968 171.224,349.968 171.883,349.336 172.541,349.336 173.2,349.336 173.859,349.336 174.518,349.336 175.177,348.705 175.836,348.705 176.495,348.705 177.154,348.705 177.813,348.705 178.471,348.073 179.13,348.073 179.789,348.073 180.448,348.073 181.107,348.073 181.766,347.441 182.425,347.441 183.084,347.441 183.742,347.441 184.401,347.441 185.06,347.441 185.719,347.441 186.378,347.441 187.037,347.441 187.696,347.441 188.355,347.441 189.013,347.441 189.672,347.441 190.331,347.441 190.99,346.809 191.649,346.809 192.308,346.809 192.967,346.809 193.626,346.809 194.285,346.809 194.943,346.809 195.602,346.809 196.261,346.809 196.92,346.809 197.579,346.809 198.238,346.809 198.897,346.809 199.556,346.809 200.214,345.545 200.873,345.545 201.532,345.545 202.191,345.545 202.85,345.545 203.509,345.545 204.168,345.545 204.827,345.545 205.485,345.545 206.144,345.545 206.803,345.545 207.462,345.545 208.121,345.545 208.78,345.545 209.439,345.545 210.098,345.545 210.757,345.545 211.415,345.545 212.074,345.545 212.733,343.65 213.392,343.65 214.051,343.65 214.71,343.65 215.369,343.65 216.028,343.65 216.686,343.65 217.345,343.65 218.004,343.65 218.663,343.65 219.322,343.65 219.981,343.65 220.64,343.65 221.299,343.65 221.957,343.65 222.616,343.65 223.275,343.65 223.934,343.65 224.593,343.65 225.252,343.65 225.911,343.65 226.57,343.65 227.229,343.65 227.887,343.65 228.546,343.65 229.205,343.65 229.864,343.65 230.523,343.65 231.182,343.65 231.841,343.65 232.5,343.65 233.158,343.65 233.817,343.65 234.476,343.65 235.135,343.65 235.794,343.65 236.453,343.65 237.112,343.65 237.771,343.65 238.429,343.65 239.088,343.65 239.747,343.65 240.406,343.65 241.065,343.65 241.724,343.65 242.383,343.65 243.042,343.65 243.701,343.65 244.359,343.65 245.018,343.65 245.677,343.65 246.336,343.65 246.995,343.65 247.654,343.65 248.313,343.65 248.972,343.65 249.63,343.65 250.289,343.65 250.948,343.65 251.607,343.65 252.266,343.65 252.925,343.65 253.584,343.65 254.243,343.65 254.901,343.65 255.56,343.65 256.219,343.65 256.878,343.65 257.537,343.65 258.196,343.65 258.855,343.65 259.514,343.65 260.172,343.65 260.831,343.65 261.49,343.65 262.149,343.65 262.808,343.65 263.467,343.65 264.126,343.65 264.785,343.65 265.444,343.65 266.102,343.65 266.761,343.65 267.42,343.65 268.079,343.65 268.738,343.65 269.397,343.65 270.056,343.018 270.715,343.018 271.373,343.018 272.032,343.018 272.691,343.018 273.35,343.018 274.009,343.018 274.668,343.018 275.327,343.018 275.986,343.018 276.644,343.018 277.303,343.018 277.962,343.018 278.621,343.018 279.28,343.018 279.939,343.018 280.598,343.018 281.257,343.018 281.916,343.018 282.574,343.018 283.233,343.018 283.892,343.018 284.551,343.018 285.21,343.018 285.869,343.018 286.528,343.018 287.187,343.018 287.845,343.018 288.504,343.018 289.163,343.018 289.822,343.018 290.481,343.018 291.14,343.018 291.799,343.018 292.458,343.018 293.116,343.018 293.775,343.018 294.434,343.018 295.093,343.018 295.752,343.018 296.411,343.018 297.07,343.018 297.729,343.018 298.388,343.018 299.046,343.018 299.705,343.018 300.364,343.018 301.023,343.018 301.682,343.018 302.341,343.018 303,343.018 303.659,343.018 304.317,343.018 304.976,343.018 305.635,343.018 306.294,343.018 306.953,343.018 307.612,343.018 308.271,343.018 308.93,343.018 309.589,343.018 310.247,343.018 310.906,343.018 311.565,343.018 312.224,343.018 312.883,343.018 313.542,343.018 314.201,343.018 314.86,343.018 315.518,343.018 316.177,343.018 316.836,343.018 317.495,343.018 318.154,343.018 318.813,343.018 319.472,343.018 320.131,343.018 320.789,343.018 321.448,343.018 322.107,343.018 322.766,343.018 323.425,343.018 324.084,343.018 324.743,343.018 325.402,343.018 326.06,343.018 326.719,343.018 327.378,343.018 328.037,343.018 328.696,343.018 329.355,343.018 330.014,343.018 330.673,343.018 331.332,343.018 331.99,343.018 332.649,343.018 333.308,343.018 333.967,343.018 334.626,343.018 335.285,343.018 335.944,343.018 336.603,343.018 337.261,343.018 337.92,343.018 338.579,343.018 339.238,343.018 339.897,343.018 340.556,343.018 341.215,343.018 341.874,343.018 342.532,343.018 343.191,343.018 343.85,343.018 344.509,343.018 345.168,343.018 345.827,343.018 346.486,343.018 347.145,343.018 347.804,343.018 348.462,343.018 349.121,343.018 349.78,343.018 350.439,343.018 351.098,343.018 351.757,343.018 352.416,343.018 353.075,343.018 353.733,343.018 354.392,343.018 355.051,343.018 355.71,343.018 356.369,343.018 357.028,343.018 357.687,343.018 358.346,343.018 359.004,343.018 359.663,343.018 360.322,343.018 360.981,343.018 361.64,343.018 362.299,343.018 362.958,343.018 363.617,343.018 364.276,343.018 364.934,343.018 365.593,343.018 366.252,343.018 366.911,343.018 367.57,343.018 368.229,343.018 368.888,343.018 369.547,343.018 370.205,343.018 370.864,343.018 371.523,343.018 372.182,343.018 372.841,343.018 373.5,343.018 374.159,343.018 374.818,343.018 375.476,343.018 376.135,343.018 376.794,343.018 377.453,343.018 378.112,343.018 378.771,343.018 379.43,343.018 380.089,343.018 380.747,343.018 381.406,343.018 382.065,343.018 382.724,343.018 383.383,343.018 384.042,343.018 384.701,343.018 385.03,343.018"/>
   <polyline stroke-linejoin="round" fill="none" stroke="#ff0000" stroke-linecap="butt" stroke-width="0.5" points="55.2609,411.255 76.5151,402.15 97.7693,383.751 119.023,365.758 140.278,352.944 161.532,346.281 182.786,344.556 204.04,345.796 225.294,348.185 246.549,350.492 267.803,352.12 289.057,352.957 310.311,353.163 331.565,352.995 352.82,352.685 374.074,352.389 385.03,352.283"/>
   <polyline stroke-linejoin="round" fill="none" stroke="#d85218" stroke-linecap="butt" stroke-width="0.5" points="55.2609,352.18 385.03,352.18"/>
  </g>
  <clipPath id="cp00425619">
   <polygon points="0,619 425,619 425,0 0,0"/>
  </clipPath>
  <g clip-path="url(#cp00425619)">
   <polygon fill="#ffffff" shape-rendering="crispEdges" points="294.825,407.892 377.926,407.892 377.926,363.342 294.825,363.342"/>
   <polyline stroke-linejoin="miter" fill="none" stroke="#262626" stroke-dasharray="16,0" stroke-linecap="square" stroke-width="0.5" points="294.825,407.892 377.926,407.892"/>
   <polyline stroke-linejoin="miter" fill="none" stroke="#262626" stroke-dasharray="16,0" stroke-linecap="square" stroke-width="0.5" points="294.825,363.342 377.926,363.342"/>
   <polyline stroke-linejoin="miter" fill="none" stroke="#262626" stroke-dasharray="16,0" stroke-linecap="square" stroke-width="0.5" points="294.825,407.892 294.825,363.342"/>
   <polyline stroke-linejoin="miter" fill="none" stroke="#262626" stroke-dasharray="16,0" stroke-linecap="square" stroke-width="0.5" points="377.926,407.892 377.926,363.342"/>
   <polyline stroke-linejoin="round" fill="none" stroke="#0071bc" stroke-linecap="butt" stroke-width="0.5" points="298.213,371.729 315.151,371.729"/>
   <text font-style="normal" font-family="FreeSans" transform="translate(318.538,376.729) rotate(-0,-0,-5)" xml:space="preserve" font-weight="normal" font-size="12">
    <tspan y="-0" fill="rgb(0,0,0)" x="0 9 15 22 ">Real</tspan>
   </text>
   <polyline stroke-linejoin="round" fill="none" stroke="#d85218" stroke-linecap="butt" stroke-width="0.5" points="298.213,399.504 315.151,399.504"/>
   <text font-style="normal" font-family="FreeSans" transform="translate(318.538,404.504) rotate(-0,-0,-5)" xml:space="preserve" font-weight="normal" font-size="12">
    <tspan y="-0" fill="rgb(0,0,0)" x="0 9 15 18 24 28 34 40 46 49 ">Referencia</tspan>
   </text>
   <polyline stroke-linejoin="round" fill="none" stroke="#ff0000" stroke-linecap="butt" stroke-width="0.5" points="298.213,385.617 315.151,385.617"/>
   <text font-style="normal" font-family="FreeSans" transform="translate(318.538,391.117) rotate(-0,-0,-5.5)" xml:space="preserve" font-weight="normal" font-size="12">
    <tspan y="-1" fill="rgb(0,0,0)" x="0 8 11 21 27 30 37 44 ">Simulado</tspan>
   </text>
  </g>
  <clipPath id="cp00425619">
   <polygon points="0,619 425,619 425,0 0,0"/>
  </clipPath>
  <g clip-path="url(#cp00425619)">
   <polygon fill="#ffffff" shape-rendering="crispEdges" points="55.2609,551.723 384.701,551.723 384.701,476.663 55.2609,476.663"/>
   <polyline stroke-linejoin="miter" fill="none" stroke-opacity="0.15" stroke="#262626" stroke-dasharray="16,0" stroke-linecap="butt" stroke-width="0.5" points="55.2609,551.723 55.2609,476.663"/>
   <polyline stroke-linejoin="miter" fill="none" stroke-opacity="0.15" stroke="#262626" stroke-dasharray="16,0" stroke-linecap="butt" stroke-width="0.5" points="121.149,551.723 121.149,476.663"/>
   <polyline stroke-linejoin="miter" fill="none" stroke-opacity="0.15" stroke="#262626" stroke-dasharray="16,0" stroke-linecap="butt" stroke-width="0.5" points="187.037,551.723 187.037,476.663"/>
   <polyline stroke-linejoin="miter" fill="none" stroke-opacity="0.15" stroke="#262626" stroke-dasharray="16,0" stroke-linecap="butt" stroke-width="0.5" points="252.925,551.723 252.925,476.663"/>
   <polyline stroke-linejoin="miter" fill="none" stroke-opacity="0.15" stroke="#262626" stroke-dasharray="16,0" stroke-linecap="butt" stroke-width="0.5" points="318.813,551.723 318.813,476.663"/>
   <polyline stroke-linejoin="miter" fill="none" stroke-opacity="0.15" stroke="#262626" stroke-dasharray="16,0" stroke-linecap="butt" stroke-width="0.5" points="384.701,551.723 384.701,476.663"/>
   <polyline stroke-linejoin="miter" fill="none" stroke="#262626" stroke-linecap="butt" stroke-width="0.5" points="55.2609,551.723 55.2609,548.426"/>
   <polyline stroke-linejoin="miter" fill="none" stroke="#262626" stroke-linecap="butt" stroke-width="0.5" points="55.2609,476.663 55.2609,479.96"/>
   <polyline stroke-linejoin="miter" fill="none" stroke="#262626" stroke-linecap="butt" stroke-width="0.5" points="121.149,551.723 121.149,548.426"/>
   <polyline stroke-linejoin="miter" fill="none" stroke="#262626" stroke-linecap="butt" stroke-width="0.5" points="121.149,476.663 121.149,479.96"/>
   <polyline stroke-linejoin="miter" fill="none" stroke="#262626" stroke-linecap="butt" stroke-width="0.5" points="187.037,551.723 187.037,548.426"/>
   <polyline stroke-linejoin="miter" fill="none" stroke="#262626" stroke-linecap="butt" stroke-width="0.5" points="187.037,476.663 187.037,479.96"/>
   <polyline stroke-linejoin="miter" fill="none" stroke="#262626" stroke-linecap="butt" stroke-width="0.5" points="252.925,551.723 252.925,548.426"/>
   <polyline stroke-linejoin="miter" fill="none" stroke="#262626" stroke-linecap="butt" stroke-width="0.5" points="252.925,476.663 252.925,479.96"/>
   <polyline stroke-linejoin="miter" fill="none" stroke="#262626" stroke-linecap="butt" stroke-width="0.5" points="318.813,551.723 318.813,548.426"/>
   <polyline stroke-linejoin="miter" fill="none" stroke="#262626" stroke-linecap="butt" stroke-width="0.5" points="318.813,476.663 318.813,479.96"/>
   <polyline stroke-linejoin="miter" fill="none" stroke="#262626" stroke-linecap="butt" stroke-width="0.5" points="384.701,551.723 384.701,548.426"/>
   <polyline stroke-linejoin="miter" fill="none" stroke="#262626" stroke-linecap="butt" stroke-width="0.5" points="384.701,476.663 384.701,479.96"/>
   <text font-style="normal" font-family="FreeSans" transform="translate(52.2609,567.229) rotate(-0,3,-8)" xml:space="preserve" font-weight="normal" font-size="10">
    <tspan y="-0" fill="rgb(38,38,38)" x="0 ">0</tspan>
   </text>
   <text font-style="normal" font-family="FreeSans" transform="translate(113.649,567.229) rotate(-0,7.5,-8)" xml:space="preserve" font-weight="normal" font-size="10">
    <tspan y="-0" fill="rgb(38,38,38)" x="0 6 9 ">0.2</tspan>
   </text>
   <text font-style="normal" font-family="FreeSans" transform="translate(179.537,567.229) rotate(-0,7.5,-8)" xml:space="preserve" font-weight="normal" font-size="10">
    <tspan y="-0" fill="rgb(38,38,38)" x="0 6 9 ">0.4</tspan>
   </text>
   <text font-style="normal" font-family="FreeSans" transform="translate(245.425,567.229) rotate(-0,7.5,-8)" xml:space="preserve" font-weight="normal" font-size="10">
    <tspan y="-0" fill="rgb(38,38,38)" x="0 6 9 ">0.6</tspan>
   </text>
   <text font-style="normal" font-family="FreeSans" transform="translate(311.313,567.229) rotate(-0,7.5,-8)" xml:space="preserve" font-weight="normal" font-size="10">
    <tspan y="-0" fill="rgb(38,38,38)" x="0 6 9 ">0.8</tspan>
   </text>
   <text font-style="normal" font-family="FreeSans" transform="translate(381.701,567.229) rotate(-0,3,-8)" xml:space="preserve" font-weight="normal" font-size="10">
    <tspan y="-0" fill="rgb(38,38,38)" x="0 ">1</tspan>
   </text>
   <polyline stroke-linejoin="miter" fill="none" stroke-opacity="0.15" stroke="#262626" stroke-dasharray="16,0" stroke-linecap="butt" stroke-width="0.5" points="55.2609,548.311 384.701,548.311"/>
   <polyline stroke-linejoin="miter" fill="none" stroke-opacity="0.15" stroke="#262626" stroke-dasharray="16,0" stroke-linecap="butt" stroke-width="0.5" points="55.2609,528.69 384.701,528.69"/>
   <polyline stroke-linejoin="miter" fill="none" stroke-opacity="0.15" stroke="#262626" stroke-dasharray="16,0" stroke-linecap="butt" stroke-width="0.5" points="55.2609,509.068 384.701,509.068"/>
   <polyline stroke-linejoin="miter" fill="none" stroke-opacity="0.15" stroke="#262626" stroke-dasharray="16,0" stroke-linecap="butt" stroke-width="0.5" points="55.2609,489.446 384.701,489.446"/>
   <polyline stroke-linejoin="miter" fill="none" stroke="#262626" stroke-linecap="butt" stroke-width="0.5" points="55.2609,548.311 58.5597,548.311"/>
   <polyline stroke-linejoin="miter" fill="none" stroke="#262626" stroke-linecap="butt" stroke-width="0.5" points="384.701,548.311 381.402,548.311"/>
   <polyline stroke-linejoin="miter" fill="none" stroke="#262626" stroke-linecap="butt" stroke-width="0.5" points="55.2609,528.69 58.5597,528.69"/>
   <polyline stroke-linejoin="miter" fill="none" stroke="#262626" stroke-linecap="butt" stroke-width="0.5" points="384.701,528.69 381.402,528.69"/>
   <polyline stroke-linejoin="miter" fill="none" stroke="#262626" stroke-linecap="butt" stroke-width="0.5" points="55.2609,509.068 58.5597,509.068"/>
   <polyline stroke-linejoin="miter" fill="none" stroke="#262626" stroke-linecap="butt" stroke-width="0.5" points="384.701,509.068 381.402,509.068"/>
   <polyline stroke-linejoin="miter" fill="none" stroke="#262626" stroke-linecap="butt" stroke-width="0.5" points="55.2609,489.446 58.5597,489.446"/>
   <polyline stroke-linejoin="miter" fill="none" stroke="#262626" stroke-linecap="butt" stroke-width="0.5" points="384.701,489.446 381.402,489.446"/>
   <text font-style="normal" font-family="FreeSans" transform="translate(44.2542,552.311) rotate(-0,6,-4)" xml:space="preserve" font-weight="normal" font-size="10">
    <tspan y="-0" fill="rgb(38,38,38)" x="0 ">0</tspan>
   </text>
   <text font-style="normal" font-family="FreeSans" transform="translate(44.2542,532.69) rotate(-0,6,-4)" xml:space="preserve" font-weight="normal" font-size="10">
    <tspan y="-0" fill="rgb(38,38,38)" x="0 ">1</tspan>
   </text>
   <text font-style="normal" font-family="FreeSans" transform="translate(44.2542,513.068) rotate(-0,6,-4)" xml:space="preserve" font-weight="normal" font-size="10">
    <tspan y="-0" fill="rgb(38,38,38)" x="0 ">2</tspan>
   </text>
   <text font-style="normal" font-family="FreeSans" transform="translate(44.2542,493.446) rotate(-0,6,-4)" xml:space="preserve" font-weight="normal" font-size="10">
    <tspan y="-0" fill="rgb(38,38,38)" x="0 ">3</tspan>
   </text>
   <polyline stroke-linejoin="miter" fill="none" stroke="#262626" stroke-dasharray="16,0" stroke-linecap="square" stroke-width="0.5" points="55.2609,551.723 384.701,551.723"/>
   <polyline stroke-linejoin="miter" fill="none" stroke="#262626" stroke-dasharray="16,0" stroke-linecap="square" stroke-width="0.5" points="55.2609,476.663 384.701,476.663"/>
   <polyline stroke-linejoin="miter" fill="none" stroke="#262626" stroke-dasharray="16,0" stroke-linecap="square" stroke-width="0.5" points="55.2609,551.723 55.2609,476.663"/>
   <polyline stroke-linejoin="miter" fill="none" stroke="#262626" stroke-dasharray="16,0" stroke-linecap="square" stroke-width="0.5" points="384.701,551.723 384.701,476.663"/>
   <text font-style="normal" font-family="FreeSans" transform="translate(185.481,466.663) rotate(-0,34.5,0)" xml:space="preserve" font-weight="bold" font-size="11">
    <tspan y="-2" fill="rgb(0,0,0)" x="0 8 14 21 28 35 38 45 51 54 60 63 ">Ganho de 1,5</tspan>
   </text>
   <text font-style="normal" font-family="FreeSans" transform="translate(10.7542,514.193) rotate(-90,28.5,0)" xml:space="preserve" font-weight="normal" font-size="11">
    <tspan y="-3" fill="rgb(38,38,38)" x="0 7 13 19 25 27 33 37 41 47 53 ">Ângulo(rad)</tspan>
   </text>
   <text font-style="normal" font-family="FreeSans" transform="translate(196.481,584.229) rotate(-0,23.5,-12)" xml:space="preserve" font-weight="normal" font-size="11">
    <tspan y="-3" fill="rgb(38,38,38)" x="0 7 13 22 28 34 38 43 ">Tempo(s)</tspan>
   </text>
   <polyline stroke-linejoin="round" fill="none" stroke="#0071bc" stroke-linecap="butt" stroke-width="0.5" points="55.2609,548.311 55.9198,548.311 56.5786,548.311 57.2375,547.982 57.8964,547.982 58.5553,547.982 59.2142,547.982 59.873,547.982 60.5319,547.652 61.1908,547.652 61.8497,547.323 62.5086,547.323 63.1674,546.993 63.8263,546.663 64.4852,546.663 65.1441,546.334 65.803,546.004 66.4619,545.674 67.1207,545.674 67.7796,545.345 68.4385,545.015 69.0974,544.685 69.7562,544.356 70.4151,544.026 71.074,543.696 71.7329,543.367 72.3918,543.037 73.0507,542.707 73.7095,542.378 74.3684,542.048 75.0273,541.719 75.6862,541.059 76.345,540.73 77.0039,540.4 77.6628,540.07 78.3217,539.741 78.9806,539.411 79.6394,538.752 80.2983,538.422 80.9572,538.092 81.6161,537.763 82.275,537.433 82.9338,536.774 83.5927,536.444 84.2516,536.115 84.9105,535.785 85.5694,535.126 86.2282,534.796 86.8871,534.466 87.546,533.807 88.2049,533.477 88.8638,533.148 89.5226,532.818 90.1815,532.159 90.8404,531.829 91.4993,531.499 92.1581,530.84 92.817,530.51 93.4759,530.181 94.1348,529.522 94.7937,529.192 95.4526,528.862 96.1114,528.203 96.7703,527.873 97.4292,527.544 98.0881,527.214 98.747,526.555 99.4058,526.225 100.065,525.895 100.724,525.236 101.382,524.906 102.041,524.577 102.7,523.918 103.359,523.588 104.018,523.258 104.677,522.599 105.336,522.269 105.995,521.94 106.654,521.28 107.312,520.951 107.971,520.621 108.63,520.291 109.289,519.632 109.948,519.302 110.607,518.973 111.266,518.314 111.925,517.984 112.583,517.654 113.242,517.325 113.901,516.665 114.56,516.336 115.219,516.006 115.878,515.676 116.537,515.017 117.196,514.687 117.854,514.358 118.513,514.028 119.172,513.369 119.831,513.039 120.49,512.71 121.149,512.38 121.808,512.05 122.467,511.391 123.126,511.061 123.784,510.732 124.443,510.402 125.102,510.072 125.761,509.743 126.42,509.083 127.079,508.754 127.738,508.424 128.397,508.094 129.055,507.765 129.714,507.435 130.373,507.106 131.032,506.776 131.691,506.117 132.35,505.787 133.009,505.457 133.668,505.128 134.326,504.798 134.985,504.468 135.644,504.139 136.303,503.809 136.962,503.479 137.621,503.15 138.28,502.82 138.939,502.49 139.598,502.161 140.256,501.831 140.915,501.502 141.574,501.172 142.233,500.842 142.892,500.513 143.551,500.183 144.21,499.853 144.869,499.524 145.527,499.194 146.186,498.864 146.845,498.535 147.504,498.205 148.163,497.875 148.822,497.546 149.481,497.546 150.14,497.216 150.798,496.886 151.457,496.557 152.116,496.227 152.775,495.898 153.434,495.568 154.093,495.568 154.752,495.238 155.411,494.909 156.069,494.579 156.728,494.249 157.387,493.92 158.046,493.92 158.705,493.59 159.364,493.26 160.023,492.931 160.682,492.601 161.341,492.601 161.999,492.271 162.658,491.942 163.317,491.942 163.976,491.612 164.635,491.282 165.294,490.953 165.953,490.953 166.612,490.623 167.27,490.294 167.929,490.294 168.588,489.964 169.247,489.634 169.906,489.634 170.565,489.305 171.224,488.975 171.883,488.975 172.541,488.645 173.2,488.316 173.859,488.316 174.518,487.986 175.177,487.986 175.836,487.656 176.495,487.327 177.154,487.327 177.813,486.997 178.471,486.997 179.13,486.667 179.789,486.667 180.448,486.338 181.107,486.338 181.766,486.008 182.425,486.008 183.084,485.678 183.742,485.678 184.401,485.349 185.06,485.349 185.719,485.019 186.378,485.019 187.037,484.69 187.696,484.69 188.355,484.36 189.013,484.36 189.672,484.03 190.331,484.03 190.99,484.03 191.649,483.701 192.308,483.701 192.967,483.371 193.626,483.371 194.285,483.371 194.943,483.041 195.602,483.041 196.261,482.712 196.92,482.712 197.579,482.712 198.238,482.382 198.897,482.382 199.556,482.382 200.214,482.382 200.873,482.052 201.532,482.052 202.191,482.052 202.85,481.723 203.509,481.723 204.168,481.723 204.827,481.723 205.485,481.393 206.144,481.393 206.803,481.393 207.462,481.393 208.121,481.063 208.78,481.063 209.439,481.063 210.098,481.063 210.757,481.063 211.415,481.063 212.074,480.734 212.733,480.734 213.392,480.734 214.051,480.734 214.71,480.734 215.369,480.734 216.028,480.734 216.686,480.404 217.345,480.404 218.004,480.404 218.663,480.404 219.322,480.404 219.981,480.404 220.64,480.404 221.299,480.404 221.957,480.404 222.616,480.404 223.275,480.404 223.934,480.404 224.593,480.404 225.252,480.404 225.911,480.404 226.57,480.404 227.229,480.404 227.887,480.734 228.546,480.734 229.205,480.734 229.864,480.734 230.523,480.734 231.182,480.734 231.841,480.734 232.5,480.734 233.158,480.734 233.817,480.734 234.476,480.404 235.135,480.404 235.794,480.404 236.453,480.404 237.112,480.404 237.771,480.404 238.429,480.404 239.088,480.404 239.747,480.404 240.406,480.404 241.065,480.404 241.724,480.404 242.383,480.404 243.042,480.404 243.701,480.404 244.359,480.404 245.018,480.404 245.677,480.404 246.336,480.404 246.995,480.404 247.654,480.404 248.313,480.404 248.972,480.404 249.63,480.404 250.289,480.404 250.948,480.404 251.607,480.404 252.266,480.404 252.925,480.404 253.584,480.404 254.243,480.404 254.901,480.404 255.56,480.404 256.219,480.404 256.878,480.404 257.537,480.404 258.196,480.404 258.855,480.404 259.514,480.404 260.172,480.404 260.831,480.404 261.49,480.404 262.149,480.404 262.808,480.404 263.467,480.404 264.126,480.404 264.785,480.404 265.444,480.404 266.102,480.404 266.761,480.404 267.42,480.404 268.079,480.404 268.738,480.404 269.397,480.404 270.056,480.404 270.715,480.404 271.373,480.404 272.032,480.404 272.691,480.404 273.35,480.404 274.009,480.404 274.668,480.404 275.327,480.404 275.986,480.404 276.644,480.404 277.303,480.404 277.962,480.404 278.621,480.404 279.28,480.404 279.939,480.404 280.598,480.404 281.257,480.404 281.916,480.404 282.574,480.404 283.233,480.404 283.892,480.404 284.551,480.404 285.21,480.404 285.869,480.404 286.528,480.404 287.187,480.404 287.845,480.404 288.504,480.404 289.163,480.404 289.822,480.404 290.481,480.404 291.14,480.404 291.799,480.404 292.458,480.404 293.116,480.404 293.775,480.404 294.434,480.404 295.093,480.404 295.752,480.404 296.411,480.404 297.07,480.404 297.729,480.404 298.388,480.404 299.046,480.404 299.705,480.404 300.364,480.404 301.023,480.404 301.682,480.404 302.341,480.404 303,480.404 303.659,480.404 304.317,480.404 304.976,480.404 305.635,480.404 306.294,480.404 306.953,480.404 307.612,480.404 308.271,480.404 308.93,480.404 309.589,480.404 310.247,480.404 310.906,480.404 311.565,480.404 312.224,480.404 312.883,480.404 313.542,480.404 314.201,480.404 314.86,480.404 315.518,480.404 316.177,480.404 316.836,480.404 317.495,480.404 318.154,480.404 318.813,480.404 319.472,480.404 320.131,480.404 320.789,480.404 321.448,480.404 322.107,480.404 322.766,480.404 323.425,480.404 324.084,480.404 324.743,480.404 325.402,480.404 326.06,480.404 326.719,480.404 327.378,480.404 328.037,480.404 328.696,480.404 329.355,480.404 330.014,480.404 330.673,480.404 331.332,480.404 331.99,480.404 332.649,480.404 333.308,480.404 333.967,480.404 334.626,480.404 335.285,480.404 335.944,480.404 336.603,480.404 337.261,480.404 337.92,480.404 338.579,480.404 339.238,480.404 339.897,480.404 340.556,480.404 341.215,480.404 341.874,480.404 342.532,480.404 343.191,480.404 343.85,480.404 344.509,480.404 345.168,480.404 345.827,480.404 346.486,480.404 347.145,480.404 347.804,480.404 348.462,480.404 349.121,480.404 349.78,480.404 350.439,480.404 351.098,480.404 351.757,480.404 352.416,480.404 353.075,480.404 353.733,480.404 354.392,480.404 355.051,480.404 355.71,480.404 356.369,480.404 357.028,480.404 357.687,480.404 358.346,480.404 359.004,480.404 359.663,480.404 360.322,480.404 360.981,480.404 361.64,480.404 362.299,480.404 362.958,480.404 363.617,480.404 364.276,480.404 364.934,480.404 365.593,480.404 366.252,480.404 366.911,480.404 367.57,480.404 368.229,480.404 368.888,480.404 369.547,480.404 370.205,480.404 370.864,480.404 371.523,480.404 372.182,480.404 372.841,480.404 373.5,480.404 374.159,480.404 374.818,480.404 375.476,480.404 376.135,480.404 376.794,480.404 377.453,480.404 378.112,480.404 378.771,480.404 379.43,480.404 380.089,480.404 380.747,480.404 381.406,480.404 382.065,480.404 382.724,480.404 383.383,480.404 384.042,480.404 384.701,480.404 385.03,480.404"/>
   <polyline stroke-linejoin="round" fill="none" stroke="#ff0000" stroke-linecap="butt" stroke-width="0.5" points="55.2609,548.311 79.6638,539.101 104.067,521.093 128.47,503.854 152.873,491.512 177.276,484.645 201.679,482.069 226.082,482.116 250.485,483.339 274.887,484.771 299.29,485.92 323.693,486.637 348.096,486.97 372.499,487.041 385.03,487.007"/>
   <polyline stroke-linejoin="round" fill="none" stroke="#d85218" stroke-linecap="butt" stroke-width="0.5" points="55.2609,486.667 385.03,486.667"/>
  </g>
  <clipPath id="cp00425619">
   <polygon points="0,619 425,619 425,0 0,0"/>
  </clipPath>
  <g clip-path="url(#cp00425619)">
   <polygon fill="#ffffff" shape-rendering="crispEdges" points="294.825,544.948 377.926,544.948 377.926,500.398 294.825,500.398"/>
   <polyline stroke-linejoin="miter" fill="none" stroke="#262626" stroke-dasharray="16,0" stroke-linecap="square" stroke-width="0.5" points="294.825,544.948 377.926,544.948"/>
   <polyline stroke-linejoin="miter" fill="none" stroke="#262626" stroke-dasharray="16,0" stroke-linecap="square" stroke-width="0.5" points="294.825,500.398 377.926,500.398"/>
   <polyline stroke-linejoin="miter" fill="none" stroke="#262626" stroke-dasharray="16,0" stroke-linecap="square" stroke-width="0.5" points="294.825,544.948 294.825,500.398"/>
   <polyline stroke-linejoin="miter" fill="none" stroke="#262626" stroke-dasharray="16,0" stroke-linecap="square" stroke-width="0.5" points="377.926,544.948 377.926,500.398"/>
   <polyline stroke-linejoin="round" fill="none" stroke="#0071bc" stroke-linecap="butt" stroke-width="0.5" points="298.213,508.785 315.151,508.785"/>
   <text font-style="normal" font-family="FreeSans" transform="translate(318.538,513.785) rotate(-0,-0,-5)" xml:space="preserve" font-weight="normal" font-size="12">
    <tspan y="-0" fill="rgb(0,0,0)" x="0 9 15 22 ">Real</tspan>
   </text>
   <polyline stroke-linejoin="round" fill="none" stroke="#d85218" stroke-linecap="butt" stroke-width="0.5" points="298.213,536.561 315.151,536.561"/>
   <text font-style="normal" font-family="FreeSans" transform="translate(318.538,541.561) rotate(-0,-0,-5)" xml:space="preserve" font-weight="normal" font-size="12">
    <tspan y="-0" fill="rgb(0,0,0)" x="0 9 15 18 24 28 34 40 46 49 ">Referencia</tspan>
   </text>
   <polyline stroke-linejoin="round" fill="none" stroke="#ff0000" stroke-linecap="butt" stroke-width="0.5" points="298.213,522.673 315.151,522.673"/>
   <text font-style="normal" font-family="FreeSans" transform="translate(318.538,528.173) rotate(-0,-0,-5.5)" xml:space="preserve" font-weight="normal" font-size="12">
    <tspan y="-1" fill="rgb(0,0,0)" x="0 8 11 21 27 30 37 44 ">Simulado</tspan>
   </text>
  </g>
 </g>
</svg>
