<?xml version='1.0' encoding='UTF-8' standalone='no'?>
<svg xmlns="http://www.w3.org/2000/svg" viewBox="0 0 619 354" width="619pt" height="354pt" xmlns:xlink="http://www.w3.org/1999/xlink">
 <title>gl2ps_renderer figure</title>
 <desc>
Creator: GL2PS 1.4.2, (C) 1999-2020 C. Geuzaine
For: Octave
CreationDate: Mon Nov 14 01:26:18 2022
</desc>
 <defs/>
 <polygon fill="#ffffff" points="0,0 619,0 619,354 0,354"/>
 <g>
  <polygon fill="#ffffff" shape-rendering="crispEdges" points="0,354 619,354 619,0 0,0"/>
  <clipPath id="cp00619354">
   <polygon points="0,354 619,354 619,0 0,0"/>
  </clipPath>
  <g clip-path="url(#cp00619354)">
   <polygon fill="#ffffff" shape-rendering="crispEdges" points="80.5888,315.27 561.022,315.27 561.022,26.5677 80.5888,26.5677"/>
   <polyline stroke-opacity="0.15" stroke-linecap="butt" stroke="#262626" stroke-width="0.5" stroke-dasharray="16,0" fill="none" points="80.5888,315.27 80.5888,26.5677" stroke-linejoin="miter"/>
   <polyline stroke-opacity="0.15" stroke-linecap="butt" stroke="#262626" stroke-width="0.5" stroke-dasharray="16,0" fill="none" points="203.148,315.27 203.148,26.5677" stroke-linejoin="miter"/>
   <polyline stroke-opacity="0.15" stroke-linecap="butt" stroke="#262626" stroke-width="0.5" stroke-dasharray="16,0" fill="none" points="325.708,315.27 325.708,26.5677" stroke-linejoin="miter"/>
   <polyline stroke-opacity="0.15" stroke-linecap="butt" stroke="#262626" stroke-width="0.5" stroke-dasharray="16,0" fill="none" points="448.267,315.27 448.267,26.5677" stroke-linejoin="miter"/>
   <polyline stroke-linecap="butt" stroke="#262626" stroke-width="0.5" fill="none" points="80.5888,315.27 80.5888,310.471" stroke-linejoin="miter"/>
   <polyline stroke-linecap="butt" stroke="#262626" stroke-width="0.5" fill="none" points="80.5888,26.5677 80.5888,31.3671" stroke-linejoin="miter"/>
   <polyline stroke-linecap="butt" stroke="#262626" stroke-width="0.5" fill="none" points="203.148,315.27 203.148,310.471" stroke-linejoin="miter"/>
   <polyline stroke-linecap="butt" stroke="#262626" stroke-width="0.5" fill="none" points="203.148,26.5677 203.148,31.3671" stroke-linejoin="miter"/>
   <polyline stroke-linecap="butt" stroke="#262626" stroke-width="0.5" fill="none" points="325.708,315.27 325.708,310.471" stroke-linejoin="miter"/>
   <polyline stroke-linecap="butt" stroke="#262626" stroke-width="0.5" fill="none" points="325.708,26.5677 325.708,31.3671" stroke-linejoin="miter"/>
   <polyline stroke-linecap="butt" stroke="#262626" stroke-width="0.5" fill="none" points="448.267,315.27 448.267,310.471" stroke-linejoin="miter"/>
   <polyline stroke-linecap="butt" stroke="#262626" stroke-width="0.5" fill="none" points="448.267,26.5677 448.267,31.3671" stroke-linejoin="miter"/>
   <text font-family="FreeSans" font-style="normal" font-weight="normal" transform="translate(77.5888,330.763) rotate(-0,3,-8)" font-size="10" xml:space="preserve">
    <tspan y="-0" x="0 " fill="rgb(38,38,38)">0</tspan>
   </text>
   <text font-family="FreeSans" font-style="normal" font-weight="normal" transform="translate(195.648,330.763) rotate(-0,7.5,-8)" font-size="10" xml:space="preserve">
    <tspan y="-0" x="0 6 9 " fill="rgb(38,38,38)">0.1</tspan>
   </text>
   <text font-family="FreeSans" font-style="normal" font-weight="normal" transform="translate(318.208,330.763) rotate(-0,7.5,-8)" font-size="10" xml:space="preserve">
    <tspan y="-0" x="0 6 9 " fill="rgb(38,38,38)">0.2</tspan>
   </text>
   <text font-family="FreeSans" font-style="normal" font-weight="normal" transform="translate(440.767,330.763) rotate(-0,7.5,-8)" font-size="10" xml:space="preserve">
    <tspan y="-0" x="0 6 9 " fill="rgb(38,38,38)">0.3</tspan>
   </text>
   <polyline stroke-opacity="0.15" stroke-linecap="butt" stroke="#262626" stroke-width="0.5" stroke-dasharray="16,0" fill="none" points="80.5888,315.27 561.022,315.27" stroke-linejoin="miter"/>
   <polyline stroke-opacity="0.15" stroke-linecap="butt" stroke="#262626" stroke-width="0.5" stroke-dasharray="16,0" fill="none" points="80.5888,274.027 561.022,274.027" stroke-linejoin="miter"/>
   <polyline stroke-opacity="0.15" stroke-linecap="butt" stroke="#262626" stroke-width="0.5" stroke-dasharray="16,0" fill="none" points="80.5888,232.784 561.022,232.784" stroke-linejoin="miter"/>
   <polyline stroke-opacity="0.15" stroke-linecap="butt" stroke="#262626" stroke-width="0.5" stroke-dasharray="16,0" fill="none" points="80.5888,191.541 561.022,191.541" stroke-linejoin="miter"/>
   <polyline stroke-opacity="0.15" stroke-linecap="butt" stroke="#262626" stroke-width="0.5" stroke-dasharray="16,0" fill="none" points="80.5888,150.297 561.022,150.297" stroke-linejoin="miter"/>
   <polyline stroke-opacity="0.15" stroke-linecap="butt" stroke="#262626" stroke-width="0.5" stroke-dasharray="16,0" fill="none" points="80.5888,109.054 561.022,109.054" stroke-linejoin="miter"/>
   <polyline stroke-opacity="0.15" stroke-linecap="butt" stroke="#262626" stroke-width="0.5" stroke-dasharray="16,0" fill="none" points="80.5888,67.811 561.022,67.811" stroke-linejoin="miter"/>
   <polyline stroke-opacity="0.15" stroke-linecap="butt" stroke="#262626" stroke-width="0.5" stroke-dasharray="16,0" fill="none" points="80.5888,26.5677 561.022,26.5677" stroke-linejoin="miter"/>
   <polyline stroke-linecap="butt" stroke="#262626" stroke-width="0.5" fill="none" points="80.5888,315.27 85.3975,315.27" stroke-linejoin="miter"/>
   <polyline stroke-linecap="butt" stroke="#262626" stroke-width="0.5" fill="none" points="561.022,315.27 556.213,315.27" stroke-linejoin="miter"/>
   <polyline stroke-linecap="butt" stroke="#262626" stroke-width="0.5" fill="none" points="80.5888,274.027 85.3975,274.027" stroke-linejoin="miter"/>
   <polyline stroke-linecap="butt" stroke="#262626" stroke-width="0.5" fill="none" points="561.022,274.027 556.213,274.027" stroke-linejoin="miter"/>
   <polyline stroke-linecap="butt" stroke="#262626" stroke-width="0.5" fill="none" points="80.5888,232.784 85.3975,232.784" stroke-linejoin="miter"/>
   <polyline stroke-linecap="butt" stroke="#262626" stroke-width="0.5" fill="none" points="561.022,232.784 556.213,232.784" stroke-linejoin="miter"/>
   <polyline stroke-linecap="butt" stroke="#262626" stroke-width="0.5" fill="none" points="80.5888,191.541 85.3975,191.541" stroke-linejoin="miter"/>
   <polyline stroke-linecap="butt" stroke="#262626" stroke-width="0.5" fill="none" points="561.022,191.541 556.213,191.541" stroke-linejoin="miter"/>
   <polyline stroke-linecap="butt" stroke="#262626" stroke-width="0.5" fill="none" points="80.5888,150.297 85.3975,150.297" stroke-linejoin="miter"/>
   <polyline stroke-linecap="butt" stroke="#262626" stroke-width="0.5" fill="none" points="561.022,150.297 556.213,150.297" stroke-linejoin="miter"/>
   <polyline stroke-linecap="butt" stroke="#262626" stroke-width="0.5" fill="none" points="80.5888,109.054 85.3975,109.054" stroke-linejoin="miter"/>
   <polyline stroke-linecap="butt" stroke="#262626" stroke-width="0.5" fill="none" points="561.022,109.054 556.213,109.054" stroke-linejoin="miter"/>
   <polyline stroke-linecap="butt" stroke="#262626" stroke-width="0.5" fill="none" points="80.5888,67.811 85.3975,67.811" stroke-linejoin="miter"/>
   <polyline stroke-linecap="butt" stroke="#262626" stroke-width="0.5" fill="none" points="561.022,67.811 556.213,67.811" stroke-linejoin="miter"/>
   <polyline stroke-linecap="butt" stroke="#262626" stroke-width="0.5" fill="none" points="80.5888,26.5677 85.3975,26.5677" stroke-linejoin="miter"/>
   <polyline stroke-linecap="butt" stroke="#262626" stroke-width="0.5" fill="none" points="561.022,26.5677 556.213,26.5677" stroke-linejoin="miter"/>
   <text font-family="FreeSans" font-style="normal" font-weight="normal" transform="translate(57.5843,319.27) rotate(-0,18,-4)" font-size="10" xml:space="preserve">
    <tspan y="-0" x="0 3 9 12 " fill="rgb(38,38,38)">-0.4</tspan>
   </text>
   <text font-family="FreeSans" font-style="normal" font-weight="normal" transform="translate(57.5843,278.027) rotate(-0,18,-4)" font-size="10" xml:space="preserve">
    <tspan y="-0" x="0 3 9 12 " fill="rgb(38,38,38)">-0.2</tspan>
   </text>
   <text font-family="FreeSans" font-style="normal" font-weight="normal" transform="translate(69.5843,236.784) rotate(-0,6,-4)" font-size="10" xml:space="preserve">
    <tspan y="-0" x="0 " fill="rgb(38,38,38)">0</tspan>
   </text>
   <text font-family="FreeSans" font-style="normal" font-weight="normal" transform="translate(60.5843,195.541) rotate(-0,15,-4)" font-size="10" xml:space="preserve">
    <tspan y="-0" x="0 6 9 " fill="rgb(38,38,38)">0.2</tspan>
   </text>
   <text font-family="FreeSans" font-style="normal" font-weight="normal" transform="translate(60.5843,154.297) rotate(-0,15,-4)" font-size="10" xml:space="preserve">
    <tspan y="-0" x="0 6 9 " fill="rgb(38,38,38)">0.4</tspan>
   </text>
   <text font-family="FreeSans" font-style="normal" font-weight="normal" transform="translate(60.5843,113.054) rotate(-0,15,-4)" font-size="10" xml:space="preserve">
    <tspan y="-0" x="0 6 9 " fill="rgb(38,38,38)">0.6</tspan>
   </text>
   <text font-family="FreeSans" font-style="normal" font-weight="normal" transform="translate(60.5843,71.811) rotate(-0,15,-4)" font-size="10" xml:space="preserve">
    <tspan y="-0" x="0 6 9 " fill="rgb(38,38,38)">0.8</tspan>
   </text>
   <text font-family="FreeSans" font-style="normal" font-weight="normal" transform="translate(69.5843,30.5677) rotate(-0,6,-4)" font-size="10" xml:space="preserve">
    <tspan y="-0" x="0 " fill="rgb(38,38,38)">1</tspan>
   </text>
   <polyline stroke-linecap="square" stroke="#262626" stroke-width="0.5" stroke-dasharray="16,0" fill="none" points="80.5888,315.27 561.022,315.27" stroke-linejoin="miter"/>
   <polyline stroke-linecap="square" stroke="#262626" stroke-width="0.5" stroke-dasharray="16,0" fill="none" points="80.5888,26.5677 561.022,26.5677" stroke-linejoin="miter"/>
   <polyline stroke-linecap="square" stroke="#262626" stroke-width="0.5" stroke-dasharray="16,0" fill="none" points="80.5888,315.27 80.5888,26.5677" stroke-linejoin="miter"/>
   <polyline stroke-linecap="square" stroke="#262626" stroke-width="0.5" stroke-dasharray="16,0" fill="none" points="561.022,315.27 561.022,26.5677" stroke-linejoin="miter"/>
   <text font-family="FreeSans" font-style="normal" font-weight="normal" transform="translate(297.305,347.763) rotate(-0,23.5,-12)" font-size="11" xml:space="preserve">
    <tspan y="-3" x="0 7 13 22 28 34 38 43 " fill="rgb(38,38,38)">Tempo(s)</tspan>
   </text>
   <text font-family="FreeSans" font-style="normal" font-weight="normal" transform="translate(24.0843,170.919) rotate(-90,28.5,0)" font-size="11" xml:space="preserve">
    <tspan y="-3" x="0 7 13 19 25 27 33 37 41 47 53 " fill="rgb(38,38,38)">Ângulo(rad)</tspan>
   </text>
   <polyline stroke-linecap="butt" stroke="#0071bc" stroke-width="0.5" fill="none" points="80.5888,284.82 83.04,284.947 85.4912,285.074 87.9424,285.187 90.3936,285.318 92.8447,285.421 95.2959,285.513 97.7471,285.607 100.198,285.661 102.649,285.682 105.101,285.7 107.552,285.708 110.003,285.713 112.454,285.718 114.905,285.71 117.357,285.7 119.808,285.719 122.259,285.731 124.71,285.734 127.161,285.753 129.613,285.772 132.064,285.785 134.515,285.765 136.966,285.768 139.417,285.74 141.869,285.69 144.32,285.65 146.771,285.576 149.222,285.509 151.673,285.421 154.124,285.318 156.576,285.137 159.027,285.043 161.478,284.988 163.929,284.867 166.38,284.776 168.832,284.659 171.283,284.541 173.734,284.494 176.185,284.323 178.636,284.199 181.088,284.071 183.539,283.895 185.99,283.767 188.441,283.636 190.892,283.463 193.344,283.285 195.795,283.146 198.246,283.026 200.697,282.89 203.148,282.722 205.599,282.508 208.051,282.331 210.502,282.089 212.953,281.86 215.404,281.662 217.855,281.452 220.307,281.222 222.758,281.076 225.209,280.83 227.66,280.637 230.111,280.38 232.563,280.13 235.014,279.969 237.465,279.69 239.916,279.412 242.367,279.028 244.819,278.713 247.27,278.398 249.721,278.195 252.172,277.951 254.623,277.697 257.074,277.37 259.526,277.016 261.977,276.719 264.428,276.416 266.879,276.083 269.33,275.753 271.782,275.34 274.233,274.989 276.684,274.637 279.135,274.303 281.586,273.918 284.038,273.558 286.489,273.166 288.94,272.807 291.391,272.396 293.842,272.02 296.293,271.57 298.745,271.214 301.196,270.758 303.647,270.314 306.098,269.923 308.549,269.474 311.001,269.044 313.452,268.579 315.903,268.15 318.354,267.655 320.805,267.181 323.257,266.703 325.708,266.192 328.159,265.644 330.61,265.175 333.061,264.641 335.513,264.095 337.964,263.539 340.415,263.012 342.866,262.409 345.317,261.932 347.768,261.414 350.22,260.892 352.671,260.353 355.122,259.817 357.573,259.305 360.024,258.754 362.476,258.215 364.927,257.616 367.378,257.039 369.829,256.485 372.28,255.962 374.732,255.398 377.183,254.836 379.634,254.223 382.085,253.657 384.536,253.109 386.988,252.578 389.439,252.082 391.89,251.591 394.341,251.023 396.792,250.447 399.243,249.889 401.695,249.33 404.146,248.729 406.597,248.233 409.048,247.694 411.499,246.908 413.951,246.187 416.402,244.763 418.853,244.398 421.304,243.824 423.755,243.11 426.207,242.053 428.658,241.644 431.109,240.467 433.56,240.076 436.011,239.394 438.463,238.569 440.914,237.689 443.365,237.025 445.816,236.308 448.267,235.608 450.718,234.935 453.17,234.183 455.621,233.488 458.072,232.771 460.523,232.132 462.974,231.413 465.426,230.641 467.877,229.82 470.328,227.847 472.779,226.697 475.23,225.116 477.682,223.036 480.133,221.073 482.584,219.524 485.035,217.868 487.486,216.176 489.938,214.596 492.389,212.856 494.84,211.719 497.291,210.083 499.742,208.801 502.193,207.385 504.645,206.046 507.096,204.509 509.547,203.076 511.998,201.633 514.449,200.041 516.901,198.144 519.352,196.229 521.803,194.314 524.254,192.679 526.705,191.064 529.157,189.354 531.608,187.356 534.059,185.763 536.51,184.999 538.961,183.215 541.412,182.333 543.864,181.305 546.315,179.224 548.766,178.208 551.217,176.431 553.668,175.085 556.12,173.463 558.571,171.868 561.022,170.004" stroke-linejoin="round"/>
   <polyline stroke-linecap="butt" stroke="#d85218" stroke-width="0.5" fill="none" points="80.5888,284.82 83.04,284.786 85.4912,284.691 87.9424,284.544 90.3936,284.35 92.8447,284.115 95.2959,283.846 97.7471,283.547 100.198,283.221 102.649,282.872 105.101,282.503 107.552,282.116 110.003,281.714 112.454,281.299 114.905,280.871 117.357,280.433 119.808,279.986 122.259,279.531 124.71,279.069 127.161,278.6 129.613,278.126 132.064,277.646 134.515,277.162 136.966,276.673 139.417,276.181 141.869,275.685 144.32,275.187 146.771,274.685 149.222,274.18 151.673,273.673 154.124,273.163 156.576,272.651 159.027,272.136 161.478,271.62 163.929,271.101 166.38,270.581 168.832,270.058 171.283,269.534 173.734,269.007 176.185,268.479 178.636,267.949 181.088,267.417 183.539,266.883 185.99,266.347 188.441,265.81 190.892,265.27 193.344,264.729 195.795,264.186 198.246,263.641 200.697,263.094 203.148,262.545 205.599,261.995 208.051,261.442 210.502,260.887 212.953,260.331 215.404,259.772 217.855,259.211 220.307,258.649 222.758,258.084 225.209,257.517 227.66,256.948 230.111,256.377 232.563,255.804 235.014,255.228 237.465,254.65 239.916,254.07 242.367,253.488 244.819,252.904 247.27,252.317 249.721,251.728 252.172,251.136 254.623,250.542 257.074,249.946 259.526,249.347 261.977,248.746 264.428,248.142 266.879,247.535 269.33,246.927 271.782,246.315 274.233,245.701 276.684,245.084 279.135,244.465 281.586,243.843 284.038,243.218 286.489,242.59 288.94,241.96 291.391,241.327 293.842,240.691 296.293,240.052 298.745,239.41 301.196,238.765 303.647,238.118 306.098,237.467 308.549,236.813 311.001,236.157 313.452,235.497 315.903,234.834 318.354,234.168 320.805,233.499 323.257,232.826 325.708,232.151 328.159,231.472 330.61,230.79 333.061,230.104 335.513,229.415 337.964,228.723 340.415,228.027 342.866,227.328 345.317,226.626 347.768,225.92 350.22,225.21 352.671,224.497 355.122,223.78 357.573,223.06 360.024,222.336 362.476,221.608 364.927,220.877 367.378,220.142 369.829,219.403 372.28,218.66 374.732,217.913 377.183,217.162 379.634,216.408 382.085,215.649 384.536,214.887 386.988,214.12 389.439,213.35 391.89,212.575 394.341,211.796 396.792,211.013 399.243,210.226 401.695,209.434 404.146,208.639 406.597,207.839 409.048,207.034 411.499,206.225 413.951,205.412 416.402,204.594 418.853,203.772 421.304,202.945 423.755,202.114 426.207,201.278 428.658,200.438 431.109,199.592 433.56,198.742 436.011,197.888 438.463,197.028 440.914,196.164 443.365,195.295 445.816,194.42 448.267,193.541 450.718,192.657 453.17,191.768 455.621,190.874 458.072,189.975 460.523,189.07 462.974,188.16 465.426,187.246 467.877,186.325 470.328,185.4 472.779,184.469 475.23,183.533 477.682,182.591 480.133,181.644 482.584,180.691 485.035,179.733 487.486,178.769 489.938,177.799 492.389,176.824 494.84,175.843 497.291,174.856 499.742,173.864 502.193,172.865 504.645,171.861 507.096,170.851 509.547,169.834 511.998,168.812 514.449,167.783 516.901,166.749 519.352,165.708 521.803,164.661 524.254,163.607 526.705,162.547 529.157,161.481 531.608,160.409 534.059,159.33 536.51,158.244 538.961,157.152 541.412,156.053 543.864,154.948 546.315,153.836 548.766,152.717 551.217,151.591 553.668,150.458 556.12,149.319 558.571,148.172 561.022,147.019" stroke-linejoin="round"/>
   <polyline stroke-linecap="butt" stroke="#ecb01f" stroke-width="0.5" fill="none" points="80.5888,284.82 83.04,284.786 85.4912,284.693 87.9424,284.547 90.3936,284.356 92.8447,284.128 95.2959,283.866 97.7471,283.575 100.198,283.26 102.649,282.922 105.101,282.566 107.552,282.193 110.003,281.805 112.454,281.404 114.905,280.992 117.357,280.569 119.808,280.137 122.259,279.696 124.71,279.248 127.161,278.792 129.613,278.329 132.064,277.861 134.515,277.386 136.966,276.906 139.417,276.421 141.869,275.931 144.32,275.435 146.771,274.935 149.222,274.431 151.673,273.922 154.124,273.408 156.576,272.891 159.027,272.369 161.478,271.842 163.929,271.312 166.38,270.777 168.832,270.238 171.283,269.695 173.734,269.148 176.185,268.597 178.636,268.042 181.088,267.482 183.539,266.919 185.99,266.351 188.441,265.779 190.892,265.202 193.344,264.622 195.795,264.037 198.246,263.448 200.697,262.855 203.148,262.258 205.599,261.656 208.051,261.05 210.502,260.439 212.953,259.825 215.404,259.205 217.855,258.582 220.307,257.953 222.758,257.321 225.209,256.684 227.66,256.042 230.111,255.396 232.563,254.745 235.014,254.09 237.465,253.429 239.916,252.765 242.367,252.095 244.819,251.421 247.27,250.742 249.721,250.059 252.172,249.37 254.623,248.677 257.074,247.978 259.526,247.275 261.977,246.567 264.428,245.854 266.879,245.136 269.33,244.413 271.782,243.685 274.233,242.952 276.684,242.214 279.135,241.47 281.586,240.722 284.038,239.968 286.489,239.209 288.94,238.444 291.391,237.675 293.842,236.9 296.293,236.12 298.745,235.334 301.196,234.543 303.647,233.746 306.098,232.944 308.549,232.136 311.001,231.323 313.452,230.504 315.903,229.679 318.354,228.849 320.805,228.013 323.257,227.171 325.708,226.324 328.159,225.471 330.61,224.611 333.061,223.746 335.513,222.875 337.964,221.998 340.415,221.115 342.866,220.226 345.317,219.331 347.768,218.43 350.22,217.522 352.671,216.609 355.122,215.689 357.573,214.763 360.024,213.83 362.476,212.892 364.927,211.946 367.378,210.995 369.829,210.037 372.28,209.072 374.732,208.101 377.183,207.123 379.634,206.138 382.085,205.147 384.536,204.149 386.988,203.145 389.439,202.133 391.89,201.115 394.341,200.09 396.792,199.057 399.243,198.018 401.695,196.972 404.146,195.919 406.597,194.858 409.048,193.791 411.499,192.716 413.951,191.634 416.402,190.544 418.853,189.447 421.304,188.343 423.755,187.232 426.207,186.112 428.658,184.986 431.109,183.852 433.56,182.71 436.011,181.56 438.463,180.403 440.914,179.238 443.365,178.065 445.816,176.884 448.267,175.695 450.718,174.498 453.17,173.293 455.621,172.08 458.072,170.859 460.523,169.63 462.974,168.392 465.426,167.146 467.877,165.892 470.328,164.63 472.779,163.358 475.23,162.079 477.682,160.791 480.133,159.494 482.584,158.188 485.035,156.874 487.486,155.551 489.938,154.219 492.389,152.878 494.84,151.528 497.291,150.169 499.742,148.801 502.193,147.424 504.645,146.038 507.096,144.642 509.547,143.238 511.998,141.823 514.449,140.4 516.901,138.966 519.352,137.524 521.803,136.071 524.254,134.609 526.705,133.137 529.157,131.655 531.608,130.164 534.059,128.662 536.51,127.151 538.961,125.629 541.412,124.097 543.864,122.555 546.315,121.003 548.766,119.44 551.217,117.867 553.668,116.284 556.12,114.69 558.571,113.085 561.022,111.47" stroke-linejoin="round"/>
   <polyline stroke-linecap="butt" stroke="#7d2e8d" stroke-width="0.5" fill="none" points="80.5888,284.82 83.04,284.786 85.4912,284.693 87.9424,284.55 90.3936,284.363 92.8447,284.139 95.2959,283.884 97.7471,283.602 100.198,283.295 102.649,282.968 105.101,282.624 107.552,282.263 110.003,281.887 112.454,281.499 114.905,281.1 117.357,280.689 119.808,280.269 122.259,279.84 124.71,279.403 127.161,278.957 129.613,278.504 132.064,278.044 134.515,277.576 136.966,277.102 139.417,276.621 141.869,276.134 144.32,275.64 146.771,275.14 149.222,274.634 151.673,274.122 154.124,273.604 156.576,273.08 159.027,272.55 161.478,272.014 163.929,271.472 166.38,270.924 168.832,270.37 171.283,269.81 173.734,269.244 176.185,268.673 178.636,268.095 181.088,267.511 183.539,266.921 185.99,266.326 188.441,265.724 190.892,265.116 193.344,264.502 195.795,263.882 198.246,263.256 200.697,262.624 203.148,261.985 205.599,261.341 208.051,260.69 210.502,260.033 212.953,259.37 215.404,258.7 217.855,258.025 220.307,257.343 222.758,256.654 225.209,255.959 227.66,255.258 230.111,254.55 232.563,253.836 235.014,253.115 237.465,252.388 239.916,251.654 242.367,250.914 244.819,250.167 247.27,249.414 249.721,248.653 252.172,247.887 254.623,247.113 257.074,246.333 259.526,245.545 261.977,244.751 264.428,243.951 266.879,243.143 269.33,242.328 271.782,241.507 274.233,240.678 276.684,239.843 279.135,239 281.586,238.15 284.038,237.294 286.489,236.43 288.94,235.559 291.391,234.68 293.842,233.795 296.293,232.902 298.745,232.002 301.196,231.094 303.647,230.179 306.098,229.257 308.549,228.327 311.001,227.39 313.452,226.445 315.903,225.493 318.354,224.533 320.805,223.565 323.257,222.589 325.708,221.606 328.159,220.615 330.61,219.617 333.061,218.61 335.513,217.596 337.964,216.573 340.415,215.543 342.866,214.504 345.317,213.458 347.768,212.403 350.22,211.34 352.671,210.269 355.122,209.19 357.573,208.103 360.024,207.007 362.476,205.903 364.927,204.79 367.378,203.669 369.829,202.54 372.28,201.402 374.732,200.255 377.183,199.1 379.634,197.936 382.085,196.763 384.536,195.582 386.988,194.391 389.439,193.192 391.89,191.984 394.341,190.767 396.792,189.54 399.243,188.305 401.695,187.061 404.146,185.807 406.597,184.544 409.048,183.272 411.499,181.991 413.951,180.7 416.402,179.4 418.853,178.09 421.304,176.771 423.755,175.442 426.207,174.103 428.658,172.755 431.109,171.397 433.56,170.029 436.011,168.651 438.463,167.264 440.914,165.866 443.365,164.458 445.816,163.04 448.267,161.612 450.718,160.174 453.17,158.725 455.621,157.267 458.072,155.797 460.523,154.318 462.974,152.827 465.426,151.326 467.877,149.815 470.328,148.293 472.779,146.76 475.23,145.216 477.682,143.661 480.133,142.095 482.584,140.519 485.035,138.931 487.486,137.332 489.938,135.721 492.389,134.1 494.84,132.467 497.291,130.823 499.742,129.167 502.193,127.499 504.645,125.82 507.096,124.13 509.547,122.427 511.998,120.713 514.449,118.987 516.901,117.248 519.352,115.498 521.803,113.736 524.254,111.961 526.705,110.174 529.157,108.375 531.608,106.563 534.059,104.739 536.51,102.902 538.961,101.053 541.412,99.1904 543.864,97.3155 546.315,95.4276 548.766,93.5268 551.217,91.6129 553.668,89.6859 556.12,87.7457 558.571,85.7923 561.022,83.8254" stroke-linejoin="round"/>
   <polyline stroke-linecap="butt" stroke="#76ab2f" stroke-width="0.5" fill="none" points="80.5888,284.82 83.04,284.787 85.4912,284.694 87.9424,284.553 90.3936,284.37 92.8447,284.151 95.2959,283.902 97.7471,283.626 100.198,283.329 102.649,283.011 105.101,282.676 107.552,282.326 110.003,281.962 112.454,281.585 114.905,281.196 117.357,280.796 119.808,280.386 122.259,279.967 124.71,279.538 127.161,279.1 129.613,278.654 132.064,278.2 134.515,277.738 136.966,277.268 139.417,276.79 141.869,276.304 144.32,275.811 146.771,275.31 149.222,274.801 151.673,274.286 154.124,273.762 156.576,273.232 159.027,272.694 161.478,272.148 163.929,271.595 166.38,271.035 168.832,270.467 171.283,269.892 173.734,269.309 176.185,268.719 178.636,268.122 181.088,267.517 183.539,266.904 185.99,266.284 188.441,265.657 190.892,265.022 193.344,264.379 195.795,263.729 198.246,263.071 200.697,262.406 203.148,261.733 205.599,261.052 208.051,260.364 210.502,259.668 212.953,258.964 215.404,258.252 217.855,257.533 220.307,256.805 222.758,256.07 225.209,255.327 227.66,254.576 230.111,253.817 232.563,253.051 235.014,252.276 237.465,251.493 239.916,250.702 242.367,249.903 244.819,249.096 247.27,248.281 249.721,247.458 252.172,246.627 254.623,245.787 257.074,244.939 259.526,244.083 261.977,243.218 264.428,242.346 266.879,241.464 269.33,240.575 271.782,239.677 274.233,238.77 276.684,237.855 279.135,236.932 281.586,236 284.038,235.059 286.489,234.109 288.94,233.151 291.391,232.185 293.842,231.209 296.293,230.225 298.745,229.232 301.196,228.23 303.647,227.219 306.098,226.199 308.549,225.17 311.001,224.132 313.452,223.085 315.903,222.029 318.354,220.964 320.805,219.89 323.257,218.806 325.708,217.714 328.159,216.612 330.61,215.5 333.061,214.379 335.513,213.249 337.964,212.109 340.415,210.96 342.866,209.801 345.317,208.633 347.768,207.455 350.22,206.267 352.671,205.069 355.122,203.862 357.573,202.645 360.024,201.418 362.476,200.181 364.927,198.934 367.378,197.677 369.829,196.41 372.28,195.133 374.732,193.846 377.183,192.548 379.634,191.24 382.085,189.922 384.536,188.593 386.988,187.254 389.439,185.905 391.89,184.545 394.341,183.174 396.792,181.793 399.243,180.401 401.695,178.998 404.146,177.585 406.597,176.16 409.048,174.725 411.499,173.279 413.951,171.821 416.402,170.353 418.853,168.873 421.304,167.383 423.755,165.881 426.207,164.367 428.658,162.842 431.109,161.306 433.56,159.758 436.011,158.199 438.463,156.628 440.914,155.046 443.365,153.451 445.816,151.845 448.267,150.227 450.718,148.597 453.17,146.955 455.621,145.301 458.072,143.634 460.523,141.956 462.974,140.265 465.426,138.562 467.877,136.846 470.328,135.118 472.779,133.378 475.23,131.625 477.682,129.859 480.133,128.08 482.584,126.289 485.035,124.484 487.486,122.667 489.938,120.837 492.389,118.993 494.84,117.137 497.291,115.267 499.742,113.383 502.193,111.487 504.645,109.576 507.096,107.652 509.547,105.715 511.998,103.764 514.449,101.799 516.901,99.82 519.352,97.8272 521.803,95.8203 524.254,93.7993 526.705,91.7641 529.157,89.7146 531.608,87.6508 534.059,85.5725 536.51,83.4796 538.961,81.3722 541.412,79.25 543.864,77.113 546.315,74.9612 548.766,72.7944 551.217,70.6125 553.668,68.4156 556.12,66.2033 558.571,63.9758 561.022,61.7328" stroke-linejoin="round"/>
  </g>
  <clipPath id="cp00619354">
   <polygon points="0,354 619,354 619,0 0,0"/>
  </clipPath>
  <g clip-path="url(#cp00619354)">
   <polygon fill="#ffffff" shape-rendering="crispEdges" points="87.3639,145.668 191.464,145.668 191.464,33.3429 87.3639,33.3429"/>
   <polyline stroke-linecap="square" stroke="#262626" stroke-width="0.5" stroke-dasharray="16,0" fill="none" points="87.3639,145.668 191.464,145.668" stroke-linejoin="miter"/>
   <polyline stroke-linecap="square" stroke="#262626" stroke-width="0.5" stroke-dasharray="16,0" fill="none" points="87.3639,33.3429 191.464,33.3429" stroke-linejoin="miter"/>
   <polyline stroke-linecap="square" stroke="#262626" stroke-width="0.5" stroke-dasharray="16,0" fill="none" points="87.3639,145.668 87.3639,33.3429" stroke-linejoin="miter"/>
   <polyline stroke-linecap="square" stroke="#262626" stroke-width="0.5" stroke-dasharray="16,0" fill="none" points="191.464,145.668 191.464,33.3429" stroke-linejoin="miter"/>
   <polyline stroke-linecap="butt" stroke="#0071bc" stroke-width="0.5" fill="none" points="90.7515,44.7304 107.689,44.7304" stroke-linejoin="round"/>
   <text font-family="FreeSans" font-style="normal" font-weight="normal" transform="translate(111.077,52.7304) rotate(-0,-0,-8)" font-size="20" xml:space="preserve">
    <tspan y="-0" x="0 14 25 36 " fill="rgb(0,0,0)">Real</tspan>
   </text>
   <polyline stroke-linecap="butt" stroke="#d85218" stroke-width="0.5" fill="none" points="90.7515,65.618 107.689,65.618" stroke-linejoin="round"/>
   <text font-family="FreeSans" font-style="normal" font-weight="normal" transform="translate(111.077,75.118) rotate(-0,-0,-9.5)" font-size="20" xml:space="preserve">
    <tspan y="-3" x="0 " fill="rgb(0,0,0)">b</tspan>
    <tspan y="-0" x="11 " fill="rgb(0,0,0)" font-size="14">r</tspan>
    <tspan y="-3" x="16 21 33 38 49 55 66 " fill="rgb(0,0,0)"> = 0,01</tspan>
   </text>
   <polyline stroke-linecap="butt" stroke="#ecb01f" stroke-width="0.5" fill="none" points="90.7515,88.0056 107.689,88.0056" stroke-linejoin="round"/>
   <text font-family="FreeSans" font-style="normal" font-weight="normal" transform="translate(111.077,97.5056) rotate(-0,-0,-9.5)" font-size="20" xml:space="preserve">
    <tspan y="-3" x="0 " fill="rgb(0,0,0)">b</tspan>
    <tspan y="-0" x="11 " fill="rgb(0,0,0)" font-size="14">r</tspan>
    <tspan y="-3" x="16 21 33 38 49 55 66 " fill="rgb(0,0,0)"> = 0,02</tspan>
   </text>
   <polyline stroke-linecap="butt" stroke="#7d2e8d" stroke-width="0.5" fill="none" points="90.7515,110.393 107.689,110.393" stroke-linejoin="round"/>
   <text font-family="FreeSans" font-style="normal" font-weight="normal" transform="translate(111.077,119.893) rotate(-0,-0,-9.5)" font-size="20" xml:space="preserve">
    <tspan y="-3" x="0 " fill="rgb(0,0,0)">b</tspan>
    <tspan y="-0" x="11 " fill="rgb(0,0,0)" font-size="14">r</tspan>
    <tspan y="-3" x="16 21 33 38 49 55 66 " fill="rgb(0,0,0)"> = 0,03</tspan>
   </text>
   <polyline stroke-linecap="butt" stroke="#76ab2f" stroke-width="0.5" fill="none" points="90.7515,132.781 107.689,132.781" stroke-linejoin="round"/>
   <text font-family="FreeSans" font-style="normal" font-weight="normal" transform="translate(111.077,142.281) rotate(-0,-0,-9.5)" font-size="20" xml:space="preserve">
    <tspan y="-3" x="0 " fill="rgb(0,0,0)">b</tspan>
    <tspan y="-0" x="11 " fill="rgb(0,0,0)" font-size="14">r</tspan>
    <tspan y="-3" x="16 21 33 38 49 55 66 " fill="rgb(0,0,0)"> = 0,04</tspan>
   </text>
  </g>
 </g>
</svg>
