<?xml version='1.0' encoding='UTF-8' standalone='no'?>
<svg height="354pt" xmlns:xlink="http://www.w3.org/1999/xlink" xmlns="http://www.w3.org/2000/svg" width="619pt" viewBox="0 0 619 354">
 <title>gl2ps_renderer figure</title>
 <desc>
Creator: GL2PS 1.4.2, (C) 1999-2020 C. Geuzaine
For: Octave
CreationDate: Mon Nov 14 01:25:33 2022
</desc>
 <defs/>
 <polygon fill="#ffffff" points="0,0 619,0 619,354 0,354"/>
 <g>
  <polygon shape-rendering="crispEdges" fill="#ffffff" points="0,354 619,354 619,0 0,0"/>
  <clipPath id="cp00619354">
   <polygon points="0,354 619,354 619,0 0,0"/>
  </clipPath>
  <g clip-path="url(#cp00619354)">
   <polygon shape-rendering="crispEdges" fill="#ffffff" points="80.5888,315.27 561.022,315.27 561.022,26.5677 80.5888,26.5677"/>
   <polyline stroke-linejoin="miter" stroke-width="0.5" stroke-opacity="0.15" fill="none" stroke="#262626" stroke-linecap="butt" stroke-dasharray="16,0" points="80.5888,315.27 80.5888,26.5677"/>
   <polyline stroke-linejoin="miter" stroke-width="0.5" stroke-opacity="0.15" fill="none" stroke="#262626" stroke-linecap="butt" stroke-dasharray="16,0" points="158.329,315.27 158.329,26.5677"/>
   <polyline stroke-linejoin="miter" stroke-width="0.5" stroke-opacity="0.15" fill="none" stroke="#262626" stroke-linecap="butt" stroke-dasharray="16,0" points="236.069,315.27 236.069,26.5677"/>
   <polyline stroke-linejoin="miter" stroke-width="0.5" stroke-opacity="0.15" fill="none" stroke="#262626" stroke-linecap="butt" stroke-dasharray="16,0" points="313.809,315.27 313.809,26.5677"/>
   <polyline stroke-linejoin="miter" stroke-width="0.5" stroke-opacity="0.15" fill="none" stroke="#262626" stroke-linecap="butt" stroke-dasharray="16,0" points="391.549,315.27 391.549,26.5677"/>
   <polyline stroke-linejoin="miter" stroke-width="0.5" stroke-opacity="0.15" fill="none" stroke="#262626" stroke-linecap="butt" stroke-dasharray="16,0" points="469.289,315.27 469.289,26.5677"/>
   <polyline stroke-linejoin="miter" stroke-width="0.5" stroke-opacity="0.15" fill="none" stroke="#262626" stroke-linecap="butt" stroke-dasharray="16,0" points="547.029,315.27 547.029,26.5677"/>
   <polyline stroke-linejoin="miter" stroke-width="0.5" fill="none" stroke="#262626" stroke-linecap="butt" points="80.5888,315.27 80.5888,310.471"/>
   <polyline stroke-linejoin="miter" stroke-width="0.5" fill="none" stroke="#262626" stroke-linecap="butt" points="80.5888,26.5677 80.5888,31.3671"/>
   <polyline stroke-linejoin="miter" stroke-width="0.5" fill="none" stroke="#262626" stroke-linecap="butt" points="158.329,315.27 158.329,310.471"/>
   <polyline stroke-linejoin="miter" stroke-width="0.5" fill="none" stroke="#262626" stroke-linecap="butt" points="158.329,26.5677 158.329,31.3671"/>
   <polyline stroke-linejoin="miter" stroke-width="0.5" fill="none" stroke="#262626" stroke-linecap="butt" points="236.069,315.27 236.069,310.471"/>
   <polyline stroke-linejoin="miter" stroke-width="0.5" fill="none" stroke="#262626" stroke-linecap="butt" points="236.069,26.5677 236.069,31.3671"/>
   <polyline stroke-linejoin="miter" stroke-width="0.5" fill="none" stroke="#262626" stroke-linecap="butt" points="313.809,315.27 313.809,310.471"/>
   <polyline stroke-linejoin="miter" stroke-width="0.5" fill="none" stroke="#262626" stroke-linecap="butt" points="313.809,26.5677 313.809,31.3671"/>
   <polyline stroke-linejoin="miter" stroke-width="0.5" fill="none" stroke="#262626" stroke-linecap="butt" points="391.549,315.27 391.549,310.471"/>
   <polyline stroke-linejoin="miter" stroke-width="0.5" fill="none" stroke="#262626" stroke-linecap="butt" points="391.549,26.5677 391.549,31.3671"/>
   <polyline stroke-linejoin="miter" stroke-width="0.5" fill="none" stroke="#262626" stroke-linecap="butt" points="469.289,315.27 469.289,310.471"/>
   <polyline stroke-linejoin="miter" stroke-width="0.5" fill="none" stroke="#262626" stroke-linecap="butt" points="469.289,26.5677 469.289,31.3671"/>
   <polyline stroke-linejoin="miter" stroke-width="0.5" fill="none" stroke="#262626" stroke-linecap="butt" points="547.029,315.27 547.029,310.471"/>
   <polyline stroke-linejoin="miter" stroke-width="0.5" fill="none" stroke="#262626" stroke-linecap="butt" points="547.029,26.5677 547.029,31.3671"/>
   <text font-family="FreeSans" font-size="10" transform="translate(77.5888,330.763) rotate(-0,3,-8)" font-weight="normal" xml:space="preserve" font-style="normal">
    <tspan y="-0" fill="rgb(38,38,38)" x="0 ">0</tspan>
   </text>
   <text font-family="FreeSans" font-size="10" transform="translate(150.829,330.763) rotate(-0,7.5,-8)" font-weight="normal" xml:space="preserve" font-style="normal">
    <tspan y="-0" fill="rgb(38,38,38)" x="0 6 9 ">0.1</tspan>
   </text>
   <text font-family="FreeSans" font-size="10" transform="translate(228.569,330.763) rotate(-0,7.5,-8)" font-weight="normal" xml:space="preserve" font-style="normal">
    <tspan y="-0" fill="rgb(38,38,38)" x="0 6 9 ">0.2</tspan>
   </text>
   <text font-family="FreeSans" font-size="10" transform="translate(306.309,330.763) rotate(-0,7.5,-8)" font-weight="normal" xml:space="preserve" font-style="normal">
    <tspan y="-0" fill="rgb(38,38,38)" x="0 6 9 ">0.3</tspan>
   </text>
   <text font-family="FreeSans" font-size="10" transform="translate(384.049,330.763) rotate(-0,7.5,-8)" font-weight="normal" xml:space="preserve" font-style="normal">
    <tspan y="-0" fill="rgb(38,38,38)" x="0 6 9 ">0.4</tspan>
   </text>
   <text font-family="FreeSans" font-size="10" transform="translate(461.789,330.763) rotate(-0,7.5,-8)" font-weight="normal" xml:space="preserve" font-style="normal">
    <tspan y="-0" fill="rgb(38,38,38)" x="0 6 9 ">0.5</tspan>
   </text>
   <text font-family="FreeSans" font-size="10" transform="translate(539.529,330.763) rotate(-0,7.5,-8)" font-weight="normal" xml:space="preserve" font-style="normal">
    <tspan y="-0" fill="rgb(38,38,38)" x="0 6 9 ">0.6</tspan>
   </text>
   <polyline stroke-linejoin="miter" stroke-width="0.5" stroke-opacity="0.15" fill="none" stroke="#262626" stroke-linecap="butt" stroke-dasharray="16,0" points="80.5888,315.27 561.022,315.27"/>
   <polyline stroke-linejoin="miter" stroke-width="0.5" stroke-opacity="0.15" fill="none" stroke="#262626" stroke-linecap="butt" stroke-dasharray="16,0" points="80.5888,243.095 561.022,243.095"/>
   <polyline stroke-linejoin="miter" stroke-width="0.5" stroke-opacity="0.15" fill="none" stroke="#262626" stroke-linecap="butt" stroke-dasharray="16,0" points="80.5888,170.919 561.022,170.919"/>
   <polyline stroke-linejoin="miter" stroke-width="0.5" stroke-opacity="0.15" fill="none" stroke="#262626" stroke-linecap="butt" stroke-dasharray="16,0" points="80.5888,98.7434 561.022,98.7434"/>
   <polyline stroke-linejoin="miter" stroke-width="0.5" stroke-opacity="0.15" fill="none" stroke="#262626" stroke-linecap="butt" stroke-dasharray="16,0" points="80.5888,26.5677 561.022,26.5677"/>
   <polyline stroke-linejoin="miter" stroke-width="0.5" fill="none" stroke="#262626" stroke-linecap="butt" points="80.5888,315.27 85.3975,315.27"/>
   <polyline stroke-linejoin="miter" stroke-width="0.5" fill="none" stroke="#262626" stroke-linecap="butt" points="561.022,315.27 556.213,315.27"/>
   <polyline stroke-linejoin="miter" stroke-width="0.5" fill="none" stroke="#262626" stroke-linecap="butt" points="80.5888,243.095 85.3975,243.095"/>
   <polyline stroke-linejoin="miter" stroke-width="0.5" fill="none" stroke="#262626" stroke-linecap="butt" points="561.022,243.095 556.213,243.095"/>
   <polyline stroke-linejoin="miter" stroke-width="0.5" fill="none" stroke="#262626" stroke-linecap="butt" points="80.5888,170.919 85.3975,170.919"/>
   <polyline stroke-linejoin="miter" stroke-width="0.5" fill="none" stroke="#262626" stroke-linecap="butt" points="561.022,170.919 556.213,170.919"/>
   <polyline stroke-linejoin="miter" stroke-width="0.5" fill="none" stroke="#262626" stroke-linecap="butt" points="80.5888,98.7434 85.3975,98.7434"/>
   <polyline stroke-linejoin="miter" stroke-width="0.5" fill="none" stroke="#262626" stroke-linecap="butt" points="561.022,98.7434 556.213,98.7434"/>
   <polyline stroke-linejoin="miter" stroke-width="0.5" fill="none" stroke="#262626" stroke-linecap="butt" points="80.5888,26.5677 85.3975,26.5677"/>
   <polyline stroke-linejoin="miter" stroke-width="0.5" fill="none" stroke="#262626" stroke-linecap="butt" points="561.022,26.5677 556.213,26.5677"/>
   <text font-family="FreeSans" font-size="10" transform="translate(57.5843,319.27) rotate(-0,18,-4)" font-weight="normal" xml:space="preserve" font-style="normal">
    <tspan y="-0" fill="rgb(38,38,38)" x="0 3 9 12 ">-0.5</tspan>
   </text>
   <text font-family="FreeSans" font-size="10" transform="translate(69.5843,247.095) rotate(-0,6,-4)" font-weight="normal" xml:space="preserve" font-style="normal">
    <tspan y="-0" fill="rgb(38,38,38)" x="0 ">0</tspan>
   </text>
   <text font-family="FreeSans" font-size="10" transform="translate(60.5843,174.919) rotate(-0,15,-4)" font-weight="normal" xml:space="preserve" font-style="normal">
    <tspan y="-0" fill="rgb(38,38,38)" x="0 6 9 ">0.5</tspan>
   </text>
   <text font-family="FreeSans" font-size="10" transform="translate(69.5843,102.743) rotate(-0,6,-4)" font-weight="normal" xml:space="preserve" font-style="normal">
    <tspan y="-0" fill="rgb(38,38,38)" x="0 ">1</tspan>
   </text>
   <text font-family="FreeSans" font-size="10" transform="translate(60.5843,30.5677) rotate(-0,15,-4)" font-weight="normal" xml:space="preserve" font-style="normal">
    <tspan y="-0" fill="rgb(38,38,38)" x="0 6 9 ">1.5</tspan>
   </text>
   <polyline stroke-linejoin="miter" stroke-width="0.5" fill="none" stroke="#262626" stroke-linecap="square" stroke-dasharray="16,0" points="80.5888,315.27 561.022,315.27"/>
   <polyline stroke-linejoin="miter" stroke-width="0.5" fill="none" stroke="#262626" stroke-linecap="square" stroke-dasharray="16,0" points="80.5888,26.5677 561.022,26.5677"/>
   <polyline stroke-linejoin="miter" stroke-width="0.5" fill="none" stroke="#262626" stroke-linecap="square" stroke-dasharray="16,0" points="80.5888,315.27 80.5888,26.5677"/>
   <polyline stroke-linejoin="miter" stroke-width="0.5" fill="none" stroke="#262626" stroke-linecap="square" stroke-dasharray="16,0" points="561.022,315.27 561.022,26.5677"/>
   <text font-family="FreeSans" font-size="11" transform="translate(297.305,347.763) rotate(-0,23.5,-12)" font-weight="normal" xml:space="preserve" font-style="normal">
    <tspan y="-3" fill="rgb(38,38,38)" x="0 7 13 22 28 34 38 43 ">Tempo(s)</tspan>
   </text>
   <text font-family="FreeSans" font-size="11" transform="translate(24.0843,170.919) rotate(-90,28.5,0)" font-weight="normal" xml:space="preserve" font-style="normal">
    <tspan y="-3" fill="rgb(38,38,38)" x="0 7 13 19 25 27 33 37 41 47 53 ">Ângulo(rad)</tspan>
   </text>
   <polyline stroke-linejoin="round" stroke-width="0.5" fill="none" stroke="#0071bc" stroke-linecap="butt" points="80.5888,281.723 82.1436,281.818 83.6984,281.905 85.2532,281.993 86.808,282.085 88.3628,282.167 89.9176,282.251 91.4724,282.332 93.0272,282.4 94.582,282.465 96.1368,282.528 97.6916,282.59 99.2464,282.656 100.801,282.715 102.356,282.779 103.911,282.844 105.466,282.917 107.02,283.002 108.575,283.102 110.13,283.199 111.685,283.278 113.24,283.324 114.794,283.377 116.349,283.423 117.904,283.431 119.459,283.47 121.014,283.473 122.568,283.498 124.123,283.517 125.678,283.574 127.233,283.592 128.788,283.616 130.342,283.639 131.897,283.66 133.452,283.684 135.007,283.701 136.562,283.719 138.116,283.713 139.671,283.711 141.226,283.732 142.781,283.746 144.336,283.757 145.89,283.734 147.445,283.728 149,283.729 150.555,283.738 152.11,283.746 153.664,283.708 155.219,283.674 156.774,283.687 158.329,283.665 159.884,283.664 161.438,283.639 162.993,283.62 164.548,283.605 166.103,283.618 167.658,283.607 169.212,283.557 170.767,283.531 172.322,283.49 173.877,283.469 175.432,283.436 176.986,283.37 178.541,283.327 180.096,283.275 181.651,283.222 183.206,283.182 184.76,283.139 186.315,283.103 187.87,283.08 189.425,283.036 190.98,282.989 192.534,282.976 194.089,282.929 195.644,282.927 197.199,282.894 198.754,282.866 200.308,282.805 201.863,282.758 203.418,282.735 204.973,282.709 206.528,282.649 208.082,282.618 209.637,282.603 211.192,282.58 212.747,282.575 214.302,282.567 215.856,282.552 217.411,282.564 218.966,282.547 220.521,282.536 222.076,282.566 223.63,282.585 225.185,282.576 226.74,282.646 228.295,282.677 229.85,282.662 231.404,282.69 232.959,282.697 234.514,282.699 236.069,282.681 237.624,282.666 239.178,282.591 240.733,282.524 242.288,282.455 243.843,282.349 245.398,282.21 246.952,282.041 248.507,281.833 250.062,281.604 251.617,281.404 253.172,281.164 254.726,280.937 256.281,280.691 257.836,280.454 259.391,280.221 260.946,279.989 262.5,279.741 264.055,279.488 265.61,279.254 267.165,279.031 268.72,278.813 270.274,278.557 271.829,278.314 273.384,278.074 274.939,277.839 276.494,277.624 278.048,277.375 279.603,277.167 281.158,276.965 282.713,276.736 284.268,276.501 285.822,276.285 287.377,276.078 288.932,275.836 290.487,275.579 292.042,275.346 293.596,275.11 295.151,274.886 296.706,274.654 298.261,274.389 299.816,274.157 301.37,273.945 302.925,273.706 304.48,273.483 306.035,273.229 307.59,272.984 309.144,272.73 310.699,272.522 312.254,272.281 313.809,272.042 315.364,271.82 316.918,271.587 318.473,271.356 320.028,271.141 321.583,270.893 323.138,270.662 324.692,270.431 326.247,270.166 327.802,269.922 329.357,269.702 330.912,269.481 332.466,269.229 334.021,268.998 335.576,268.733 337.131,268.463 338.686,268.223 340.24,267.991 341.795,267.743 343.35,267.518 344.905,267.279 346.46,267.026 348.014,266.8 349.569,266.585 351.124,266.318 352.679,266.061 354.234,265.83 355.788,265.574 357.343,265.339 358.898,265.08 360.453,264.824 362.008,264.561 363.562,264.306 365.117,264.047 366.672,263.775 368.227,263.526 369.782,263.255 371.336,263.009 372.891,262.762 374.446,262.48 376.001,262.211 377.556,261.954 379.11,261.69 380.665,261.432 382.22,261.15 383.775,260.879 385.33,260.608 386.884,260.347 388.439,260.084 389.994,259.824 391.549,259.535 393.104,259.254 394.658,258.987 396.213,258.698 397.768,258.413 399.323,258.143 400.878,257.876 402.432,257.571 403.987,257.28 405.542,256.983 407.097,256.703 408.652,256.407 410.206,256.103 411.761,255.778 413.316,255.48 414.871,255.176 416.426,254.871 417.98,254.515 419.535,254.201 421.09,253.864 422.645,253.542 424.2,253.213 425.754,252.877 427.309,252.527 428.864,252.191 430.419,251.868 431.974,251.591 433.528,251.32 435.083,251.083 436.638,250.812 438.193,250.5 439.748,250.143 441.302,249.766 442.857,249.415 444.412,249.047 445.967,248.67 447.522,248.297 449.076,247.879 450.631,247.486 452.186,247.097 453.741,246.711 455.296,246.328 456.85,245.92 458.405,245.521 459.96,245.167 461.515,244.804 463.07,244.401 464.624,244.002 466.179,243.548 467.734,243.142 469.289,242.778 470.844,242.445 472.398,242.104 473.953,241.72 475.508,241.323 477.063,240.883 478.618,240.386 480.172,239.927 481.727,239.531 483.282,239.028 484.837,238.519 486.392,237.984 487.946,237.471 489.501,236.991 491.056,236.519 492.611,236.07 494.166,235.601 495.72,235.142 497.275,234.738 498.83,234.257 500.385,233.786 501.94,233.217 503.494,232.684 505.049,232.123 506.604,231.643 508.159,231.188 509.714,230.668 511.268,230.045 512.823,229.403 514.378,228.45 515.933,227.021 517.488,225.953 519.042,224.797 520.597,223.659 522.152,222.446 523.707,221.218 525.262,219.754 526.816,218.537 528.371,217.444 529.926,216.468 531.481,215.245 533.036,213.989 534.59,212.786 536.145,211.438 537.7,210.287 539.255,209.013 540.81,207.975 542.364,206.548 543.919,205.565 545.474,204.308 547.029,203.398 548.584,202.115 550.138,200.886 551.693,199.752 553.248,198.741 554.803,197.608 556.358,196.669 557.912,195.54 559.467,194.555 561.022,193.582"/>
   <polyline stroke-linejoin="round" stroke-width="0.5" fill="none" stroke="#d85218" stroke-linecap="butt" points="80.5888,281.723 82.1436,281.71 83.6984,281.672 85.2532,281.612 86.808,281.534 88.3628,281.439 89.9176,281.331 91.4724,281.211 93.0272,281.081 94.582,280.942 96.1368,280.796 97.6916,280.642 99.2464,280.484 100.801,280.32 102.356,280.152 103.911,279.981 105.466,279.806 107.02,279.629 108.575,279.45 110.13,279.269 111.685,279.086 113.24,278.902 114.794,278.716 116.349,278.53 117.904,278.343 119.459,278.156 121.014,277.967 122.568,277.779 124.123,277.589 125.678,277.4 127.233,277.211 128.788,277.021 130.342,276.831 131.897,276.641 133.452,276.451 135.007,276.26 136.562,276.07 138.116,275.88 139.671,275.69 141.226,275.5 142.781,275.31 144.336,275.12 145.89,274.93 147.445,274.74 149,274.549 150.555,274.36 152.11,274.17 153.664,273.98 155.219,273.79 156.774,273.6 158.329,273.41 159.884,273.22 161.438,273.031 162.993,272.841 164.548,272.651 166.103,272.461 167.658,272.271 169.212,272.081 170.767,271.891 172.322,271.701 173.877,271.511 175.432,271.321 176.986,271.131 178.541,270.941 180.096,270.751 181.651,270.56 183.206,270.37 184.76,270.179 186.315,269.988 187.87,269.798 189.425,269.607 190.98,269.415 192.534,269.224 194.089,269.033 195.644,268.841 197.199,268.649 198.754,268.457 200.308,268.265 201.863,268.073 203.418,267.88 204.973,267.687 206.528,267.494 208.082,267.301 209.637,267.107 211.192,266.914 212.747,266.719 214.302,266.525 215.856,266.33 217.411,266.135 218.966,265.94 220.521,265.745 222.076,265.549 223.63,265.352 225.185,265.156 226.74,264.959 228.295,264.762 229.85,264.564 231.404,264.366 232.959,264.168 234.514,263.969 236.069,263.77 237.624,263.57 239.178,263.37 240.733,263.169 242.288,262.969 243.843,262.767 245.398,262.565 246.952,262.363 248.507,262.16 250.062,261.957 251.617,261.753 253.172,261.549 254.726,261.344 256.281,261.139 257.836,260.933 259.391,260.726 260.946,260.519 262.5,260.312 264.055,260.104 265.61,259.895 267.165,259.686 268.72,259.476 270.274,259.265 271.829,259.054 273.384,258.843 274.939,258.63 276.494,258.417 278.048,258.203 279.603,257.989 281.158,257.774 282.713,257.558 284.268,257.342 285.822,257.125 287.377,256.907 288.932,256.688 290.487,256.469 292.042,256.249 293.596,256.028 295.151,255.806 296.706,255.584 298.261,255.361 299.816,255.137 301.37,254.912 302.925,254.686 304.48,254.46 306.035,254.232 307.59,254.004 309.144,253.775 310.699,253.545 312.254,253.315 313.809,253.083 315.364,252.85 316.918,252.617 318.473,252.382 320.028,252.147 321.583,251.911 323.138,251.673 324.692,251.435 326.247,251.196 327.802,250.956 329.357,250.715 330.912,250.472 332.466,250.229 334.021,249.985 335.576,249.74 337.131,249.493 338.686,249.246 340.24,248.997 341.795,248.748 343.35,248.497 344.905,248.245 346.46,247.992 348.014,247.738 349.569,247.483 351.124,247.226 352.679,246.969 354.234,246.71 355.788,246.45 357.343,246.189 358.898,245.927 360.453,245.663 362.008,245.398 363.562,245.132 365.117,244.865 366.672,244.596 368.227,244.326 369.782,244.055 371.336,243.782 372.891,243.509 374.446,243.233 376.001,242.957 377.556,242.679 379.11,242.4 380.665,242.119 382.22,241.837 383.775,241.553 385.33,241.268 386.884,240.982 388.439,240.694 389.994,240.405 391.549,240.114 393.104,239.822 394.658,239.528 396.213,239.233 397.768,238.936 399.323,238.638 400.878,238.338 402.432,238.036 403.987,237.733 405.542,237.428 407.097,237.122 408.652,236.814 410.206,236.505 411.761,236.193 413.316,235.881 414.871,235.566 416.426,235.25 417.98,234.932 419.535,234.612 421.09,234.291 422.645,233.967 424.2,233.643 425.754,233.316 427.309,232.987 428.864,232.657 430.419,232.325 431.974,231.991 433.528,231.655 435.083,231.317 436.638,230.977 438.193,230.636 439.748,230.292 441.302,229.947 442.857,229.6 444.412,229.25 445.967,228.899 447.522,228.546 449.076,228.19 450.631,227.833 452.186,227.474 453.741,227.112 455.296,226.749 456.85,226.383 458.405,226.015 459.96,225.646 461.515,225.274 463.07,224.899 464.624,224.523 466.179,224.145 467.734,223.764 469.289,223.381 470.844,222.996 472.398,222.608 473.953,222.219 475.508,221.827 477.063,221.432 478.618,221.036 480.172,220.637 481.727,220.235 483.282,219.831 484.837,219.425 486.392,219.017 487.946,218.606 489.501,218.192 491.056,217.776 492.611,217.358 494.166,216.937 495.72,216.513 497.275,216.087 498.83,215.658 500.385,215.227 501.94,214.793 503.494,214.357 505.049,213.918 506.604,213.476 508.159,213.031 509.714,212.584 511.268,212.134 512.823,211.682 514.378,211.226 515.933,210.768 517.488,210.307 519.042,209.843 520.597,209.377 522.152,208.907 523.707,208.435 525.262,207.959 526.816,207.481 528.371,207 529.926,206.515 531.481,206.028 533.036,205.538 534.59,205.045 536.145,204.548 537.7,204.049 539.255,203.546 540.81,203.041 542.364,202.532 543.919,202.02 545.474,201.504 547.029,200.986 548.584,200.464 550.138,199.939 551.693,199.411 553.248,198.88 554.803,198.345 556.358,197.806 557.912,197.265 559.467,196.72 561.022,196.171"/>
   <polyline stroke-linejoin="round" stroke-width="0.5" fill="none" stroke="#ecb01f" stroke-linecap="butt" points="80.5888,281.723 82.1436,281.71 83.6984,281.672 85.2532,281.613 86.808,281.536 88.3628,281.444 89.9176,281.339 91.4724,281.223 93.0272,281.097 94.582,280.963 96.1368,280.822 97.6916,280.674 99.2464,280.522 100.801,280.364 102.356,280.203 103.911,280.037 105.466,279.869 107.02,279.698 108.575,279.525 110.13,279.349 111.685,279.171 113.24,278.992 114.794,278.811 116.349,278.628 117.904,278.444 119.459,278.258 121.014,278.072 122.568,277.884 124.123,277.695 125.678,277.505 127.233,277.314 128.788,277.122 130.342,276.928 131.897,276.734 133.452,276.539 135.007,276.343 136.562,276.146 138.116,275.948 139.671,275.75 141.226,275.55 142.781,275.349 144.336,275.148 145.89,274.945 147.445,274.742 149,274.537 150.555,274.332 152.11,274.125 153.664,273.918 155.219,273.71 156.774,273.501 158.329,273.29 159.884,273.079 161.438,272.867 162.993,272.654 164.548,272.44 166.103,272.224 167.658,272.008 169.212,271.791 170.767,271.572 172.322,271.353 173.877,271.132 175.432,270.911 176.986,270.688 178.541,270.464 180.096,270.24 181.651,270.014 183.206,269.786 184.76,269.558 186.315,269.329 187.87,269.098 189.425,268.866 190.98,268.634 192.534,268.399 194.089,268.164 195.644,267.928 197.199,267.69 198.754,267.451 200.308,267.211 201.863,266.969 203.418,266.727 204.973,266.483 206.528,266.237 208.082,265.991 209.637,265.743 211.192,265.494 212.747,265.243 214.302,264.992 215.856,264.738 217.411,264.484 218.966,264.228 220.521,263.971 222.076,263.712 223.63,263.452 225.185,263.191 226.74,262.928 228.295,262.663 229.85,262.397 231.404,262.13 232.959,261.862 234.514,261.591 236.069,261.32 237.624,261.046 239.178,260.772 240.733,260.495 242.288,260.217 243.843,259.938 245.398,259.657 246.952,259.375 248.507,259.091 250.062,258.805 251.617,258.517 253.172,258.229 254.726,257.938 256.281,257.646 257.836,257.352 259.391,257.056 260.946,256.759 262.5,256.46 264.055,256.159 265.61,255.856 267.165,255.552 268.72,255.246 270.274,254.939 271.829,254.629 273.384,254.318 274.939,254.004 276.494,253.689 278.048,253.373 279.603,253.054 281.158,252.733 282.713,252.411 284.268,252.087 285.822,251.76 287.377,251.432 288.932,251.102 290.487,250.77 292.042,250.436 293.596,250.1 295.151,249.762 296.706,249.422 298.261,249.08 299.816,248.736 301.37,248.39 302.925,248.042 304.48,247.691 306.035,247.339 307.59,246.984 309.144,246.628 310.699,246.269 312.254,245.908 313.809,245.545 315.364,245.179 316.918,244.812 318.473,244.442 320.028,244.07 321.583,243.696 323.138,243.319 324.692,242.94 326.247,242.559 327.802,242.176 329.357,241.79 330.912,241.402 332.466,241.011 334.021,240.618 335.576,240.223 337.131,239.825 338.686,239.425 340.24,239.022 341.795,238.617 343.35,238.21 344.905,237.799 346.46,237.387 348.014,236.971 349.569,236.554 351.124,236.133 352.679,235.71 354.234,235.285 355.788,234.856 357.343,234.426 358.898,233.992 360.453,233.556 362.008,233.117 363.562,232.675 365.117,232.23 366.672,231.783 368.227,231.333 369.782,230.88 371.336,230.425 372.891,229.966 374.446,229.505 376.001,229.04 377.556,228.573 379.11,228.103 380.665,227.63 382.22,227.154 383.775,226.675 385.33,226.193 386.884,225.708 388.439,225.22 389.994,224.728 391.549,224.234 393.104,223.737 394.658,223.236 396.213,222.732 397.768,222.226 399.323,221.715 400.878,221.202 402.432,220.686 403.987,220.166 405.542,219.643 407.097,219.116 408.652,218.586 410.206,218.053 411.761,217.517 413.316,216.977 414.871,216.433 416.426,215.886 417.98,215.336 419.535,214.782 421.09,214.225 422.645,213.664 424.2,213.1 425.754,212.532 427.309,211.96 428.864,211.385 430.419,210.806 431.974,210.223 433.528,209.636 435.083,209.046 436.638,208.452 438.193,207.855 439.748,207.253 441.302,206.648 442.857,206.038 444.412,205.425 445.967,204.808 447.522,204.187 449.076,203.562 450.631,202.933 452.186,202.3 453.741,201.663 455.296,201.021 456.85,200.376 458.405,199.727 459.96,199.073 461.515,198.415 463.07,197.753 464.624,197.087 466.179,196.416 467.734,195.741 469.289,195.062 470.844,194.378 472.398,193.69 473.953,192.997 475.508,192.3 477.063,191.599 478.618,190.893 480.172,190.182 481.727,189.467 483.282,188.747 484.837,188.023 486.392,187.294 487.946,186.56 489.501,185.821 491.056,185.078 492.611,184.33 494.166,183.577 495.72,182.819 497.275,182.056 498.83,181.289 500.385,180.516 501.94,179.738 503.494,178.956 505.049,178.168 506.604,177.375 508.159,176.577 509.714,175.774 511.268,174.965 512.823,174.152 514.378,173.333 515.933,172.509 517.488,171.679 519.042,170.844 520.597,170.004 522.152,169.158 523.707,168.307 525.262,167.45 526.816,166.588 528.371,165.72 529.926,164.846 531.481,163.967 533.036,163.082 534.59,162.191 536.145,161.294 537.7,160.392 539.255,159.484 540.81,158.57 542.364,157.65 543.919,156.723 545.474,155.791 547.029,154.853 548.584,153.909 550.138,152.958 551.693,152.002 553.248,151.039 554.803,150.07 556.358,149.094 557.912,148.113 559.467,147.124 561.022,146.13"/>
   <polyline stroke-linejoin="round" stroke-width="0.5" fill="none" stroke="#7d2e8d" stroke-linecap="butt" points="80.5888,281.723 82.1436,281.71 83.6984,281.672 85.2532,281.614 86.808,281.539 88.3628,281.449 89.9176,281.347 91.4724,281.234 93.0272,281.112 94.582,280.983 96.1368,280.846 97.6916,280.704 99.2464,280.556 100.801,280.404 102.356,280.248 103.911,280.088 105.466,279.925 107.02,279.758 108.575,279.59 110.13,279.418 111.685,279.244 113.24,279.068 114.794,278.89 116.349,278.71 117.904,278.528 119.459,278.344 121.014,278.158 122.568,277.97 124.123,277.78 125.678,277.589 127.233,277.396 128.788,277.201 130.342,277.005 131.897,276.806 133.452,276.607 135.007,276.405 136.562,276.202 138.116,275.997 139.671,275.79 141.226,275.582 142.781,275.372 144.336,275.16 145.89,274.947 147.445,274.732 149,274.515 150.555,274.296 152.11,274.076 153.664,273.854 155.219,273.63 156.774,273.404 158.329,273.177 159.884,272.948 161.438,272.717 162.993,272.484 164.548,272.25 166.103,272.013 167.658,271.775 169.212,271.535 170.767,271.293 172.322,271.05 173.877,270.804 175.432,270.557 176.986,270.308 178.541,270.056 180.096,269.803 181.651,269.548 183.206,269.292 184.76,269.033 186.315,268.772 187.87,268.509 189.425,268.245 190.98,267.978 192.534,267.709 194.089,267.439 195.644,267.166 197.199,266.892 198.754,266.615 200.308,266.336 201.863,266.055 203.418,265.773 204.973,265.488 206.528,265.201 208.082,264.912 209.637,264.62 211.192,264.327 212.747,264.032 214.302,263.734 215.856,263.434 217.411,263.132 218.966,262.828 220.521,262.522 222.076,262.214 223.63,261.903 225.185,261.59 226.74,261.275 228.295,260.957 229.85,260.638 231.404,260.316 232.959,259.991 234.514,259.665 236.069,259.336 237.624,259.004 239.178,258.671 240.733,258.335 242.288,257.996 243.843,257.656 245.398,257.312 246.952,256.967 248.507,256.619 250.062,256.268 251.617,255.915 253.172,255.56 254.726,255.202 256.281,254.841 257.836,254.478 259.391,254.113 260.946,253.745 262.5,253.374 264.055,253.001 265.61,252.625 267.165,252.247 268.72,251.866 270.274,251.482 271.829,251.096 273.384,250.707 274.939,250.315 276.494,249.92 278.048,249.523 279.603,249.123 281.158,248.72 282.713,248.315 284.268,247.907 285.822,247.496 287.377,247.082 288.932,246.665 290.487,246.245 292.042,245.823 293.596,245.398 295.151,244.969 296.706,244.538 298.261,244.104 299.816,243.667 301.37,243.226 302.925,242.783 304.48,242.337 306.035,241.888 307.59,241.436 309.144,240.98 310.699,240.522 312.254,240.06 313.809,239.596 315.364,239.128 316.918,238.657 318.473,238.182 320.028,237.705 321.583,237.224 323.138,236.74 324.692,236.253 326.247,235.763 327.802,235.269 329.357,234.772 330.912,234.271 332.466,233.767 334.021,233.26 335.576,232.749 337.131,232.235 338.686,231.717 340.24,231.196 341.795,230.672 343.35,230.144 344.905,229.612 346.46,229.077 348.014,228.538 349.569,227.995 351.124,227.449 352.679,226.899 354.234,226.346 355.788,225.789 357.343,225.228 358.898,224.663 360.453,224.095 362.008,223.523 363.562,222.947 365.117,222.367 366.672,221.783 368.227,221.195 369.782,220.604 371.336,220.008 372.891,219.409 374.446,218.805 376.001,218.198 377.556,217.586 379.11,216.971 380.665,216.351 382.22,215.727 383.775,215.099 385.33,214.467 386.884,213.83 388.439,213.19 389.994,212.545 391.549,211.896 393.104,211.242 394.658,210.585 396.213,209.922 397.768,209.256 399.323,208.585 400.878,207.909 402.432,207.23 403.987,206.545 405.542,205.856 407.097,205.163 408.652,204.465 410.206,203.762 411.761,203.055 413.316,202.343 414.871,201.626 416.426,200.904 417.98,200.178 419.535,199.447 421.09,198.711 422.645,197.971 424.2,197.225 425.754,196.475 427.309,195.719 428.864,194.959 430.419,194.193 431.974,193.423 433.528,192.647 435.083,191.866 436.638,191.08 438.193,190.289 439.748,189.493 441.302,188.692 442.857,187.885 444.412,187.073 445.967,186.255 447.522,185.433 449.076,184.604 450.631,183.771 452.186,182.932 453.741,182.087 455.296,181.237 456.85,180.381 458.405,179.519 459.96,178.652 461.515,177.78 463.07,176.901 464.624,176.017 466.179,175.127 467.734,174.231 469.289,173.329 470.844,172.421 472.398,171.508 473.953,170.588 475.508,169.662 477.063,168.73 478.618,167.792 480.172,166.848 481.727,165.898 483.282,164.942 484.837,163.979 486.392,163.01 487.946,162.034 489.501,161.053 491.056,160.064 492.611,159.07 494.166,158.069 495.72,157.061 497.275,156.046 498.83,155.025 500.385,153.998 501.94,152.963 503.494,151.922 505.049,150.874 506.604,149.819 508.159,148.758 509.714,147.689 511.268,146.613 512.823,145.531 514.378,144.441 515.933,143.344 517.488,142.24 519.042,141.128 520.597,140.01 522.152,138.884 523.707,137.751 525.262,136.61 526.816,135.462 528.371,134.306 529.926,133.143 531.481,131.973 533.036,130.794 534.59,129.608 536.145,128.414 537.7,127.213 539.255,126.003 540.81,124.786 542.364,123.56 543.919,122.327 545.474,121.086 547.029,119.836 548.584,118.579 550.138,117.313 551.693,116.039 553.248,114.756 554.803,113.466 556.358,112.166 557.912,110.859 559.467,109.543 561.022,108.218"/>
   <polyline stroke-linejoin="round" stroke-width="0.5" fill="none" stroke="#76ab2f" stroke-linecap="butt" points="80.5888,281.723 82.1436,281.71 83.6984,281.673 85.2532,281.616 86.808,281.542 88.3628,281.454 89.9176,281.354 91.4724,281.245 93.0272,281.126 94.582,281 96.1368,280.868 97.6916,280.73 99.2464,280.587 100.801,280.44 102.356,280.288 103.911,280.132 105.466,279.974 107.02,279.811 108.575,279.646 110.13,279.478 111.685,279.307 113.24,279.134 114.794,278.958 116.349,278.779 117.904,278.598 119.459,278.415 121.014,278.229 122.568,278.041 124.123,277.85 125.678,277.658 127.233,277.462 128.788,277.265 130.342,277.065 131.897,276.863 133.452,276.658 135.007,276.452 136.562,276.243 138.116,276.031 139.671,275.818 141.226,275.602 142.781,275.384 144.336,275.163 145.89,274.94 147.445,274.715 149,274.487 150.555,274.257 152.11,274.025 153.664,273.79 155.219,273.553 156.774,273.313 158.329,273.072 159.884,272.827 161.438,272.581 162.993,272.331 164.548,272.08 166.103,271.826 167.658,271.569 169.212,271.311 170.767,271.049 172.322,270.785 173.877,270.519 175.432,270.25 176.986,269.979 178.541,269.705 180.096,269.429 181.651,269.15 183.206,268.868 184.76,268.584 186.315,268.297 187.87,268.008 189.425,267.716 190.98,267.422 192.534,267.125 194.089,266.825 195.644,266.523 197.199,266.218 198.754,265.911 200.308,265.6 201.863,265.288 203.418,264.972 204.973,264.654 206.528,264.332 208.082,264.009 209.637,263.682 211.192,263.353 212.747,263.021 214.302,262.686 215.856,262.348 217.411,262.008 218.966,261.665 220.521,261.318 222.076,260.97 223.63,260.618 225.185,260.263 226.74,259.905 228.295,259.545 229.85,259.182 231.404,258.815 232.959,258.446 234.514,258.074 236.069,257.698 237.624,257.32 239.178,256.939 240.733,256.555 242.288,256.168 243.843,255.777 245.398,255.384 246.952,254.987 248.507,254.588 250.062,254.185 251.617,253.779 253.172,253.37 254.726,252.958 256.281,252.543 257.836,252.125 259.391,251.703 260.946,251.278 262.5,250.85 264.055,250.419 265.61,249.984 267.165,249.546 268.72,249.105 270.274,248.66 271.829,248.212 273.384,247.761 274.939,247.306 276.494,246.848 278.048,246.387 279.603,245.922 281.158,245.453 282.713,244.981 284.268,244.506 285.822,244.027 287.377,243.545 288.932,243.059 290.487,242.569 292.042,242.076 293.596,241.58 295.151,241.079 296.706,240.575 298.261,240.068 299.816,239.556 301.37,239.041 302.925,238.522 304.48,238 306.035,237.474 307.59,236.944 309.144,236.41 310.699,235.872 312.254,235.33 313.809,234.785 315.364,234.236 316.918,233.682 318.473,233.125 320.028,232.564 321.583,231.999 323.138,231.43 324.692,230.857 326.247,230.279 327.802,229.698 329.357,229.113 330.912,228.523 332.466,227.929 334.021,227.331 335.576,226.729 337.131,226.123 338.686,225.513 340.24,224.898 341.795,224.279 343.35,223.655 344.905,223.027 346.46,222.395 348.014,221.759 349.569,221.118 351.124,220.472 352.679,219.823 354.234,219.168 355.788,218.509 357.343,217.846 358.898,217.178 360.453,216.505 362.008,215.828 363.562,215.146 365.117,214.459 366.672,213.768 368.227,213.072 369.782,212.371 371.336,211.665 372.891,210.955 374.446,210.24 376.001,209.519 377.556,208.794 379.11,208.064 380.665,207.329 382.22,206.589 383.775,205.844 385.33,205.094 386.884,204.339 388.439,203.578 389.994,202.813 391.549,202.042 393.104,201.266 394.658,200.485 396.213,199.699 397.768,198.907 399.323,198.11 400.878,197.307 402.432,196.499 403.987,195.686 405.542,194.867 407.097,194.043 408.652,193.213 410.206,192.377 411.761,191.536 413.316,190.69 414.871,189.837 416.426,188.979 417.98,188.115 419.535,187.246 421.09,186.37 422.645,185.489 424.2,184.602 425.754,183.709 427.309,182.81 428.864,181.905 430.419,180.994 431.974,180.076 433.528,179.153 435.083,178.224 436.638,177.288 438.193,176.346 439.748,175.398 441.302,174.444 442.857,173.483 444.412,172.516 445.967,171.542 447.522,170.562 449.076,169.576 450.631,168.583 452.186,167.583 453.741,166.577 455.296,165.564 456.85,164.545 458.405,163.518 459.96,162.485 461.515,161.445 463.07,160.399 464.624,159.345 466.179,158.284 467.734,157.217 469.289,156.142 470.844,155.06 472.398,153.971 473.953,152.875 475.508,151.772 477.063,150.662 478.618,149.544 480.172,148.419 481.727,147.286 483.282,146.146 484.837,144.999 486.392,143.844 487.946,142.681 489.501,141.511 491.056,140.333 492.611,139.147 494.166,137.954 495.72,136.752 497.275,135.543 498.83,134.326 500.385,133.101 501.94,131.868 503.494,130.627 505.049,129.378 506.604,128.12 508.159,126.855 509.714,125.581 511.268,124.298 512.823,123.008 514.378,121.709 515.933,120.401 517.488,119.085 519.042,117.76 520.597,116.427 522.152,115.085 523.707,113.734 525.262,112.375 526.816,111.006 528.371,109.629 529.926,108.243 531.481,106.847 533.036,105.443 534.59,104.029 536.145,102.606 537.7,101.174 539.255,99.7326 540.81,98.2818 542.364,96.8215 543.919,95.3517 545.474,93.8724 547.029,92.3835 548.584,90.8849 550.138,89.3765 551.693,87.8583 553.248,86.3302 554.803,84.7923 556.358,83.2443 557.912,81.6863 559.467,80.1182 561.022,78.5398"/>
  </g>
  <clipPath id="cp00619354">
   <polygon points="0,354 619,354 619,0 0,0"/>
  </clipPath>
  <g clip-path="url(#cp00619354)">
   <polygon shape-rendering="crispEdges" fill="#ffffff" points="87.3639,145.668 191.464,145.668 191.464,33.3429 87.3639,33.3429"/>
   <polyline stroke-linejoin="miter" stroke-width="0.5" fill="none" stroke="#262626" stroke-linecap="square" stroke-dasharray="16,0" points="87.3639,145.668 191.464,145.668"/>
   <polyline stroke-linejoin="miter" stroke-width="0.5" fill="none" stroke="#262626" stroke-linecap="square" stroke-dasharray="16,0" points="87.3639,33.3429 191.464,33.3429"/>
   <polyline stroke-linejoin="miter" stroke-width="0.5" fill="none" stroke="#262626" stroke-linecap="square" stroke-dasharray="16,0" points="87.3639,145.668 87.3639,33.3429"/>
   <polyline stroke-linejoin="miter" stroke-width="0.5" fill="none" stroke="#262626" stroke-linecap="square" stroke-dasharray="16,0" points="191.464,145.668 191.464,33.3429"/>
   <polyline stroke-linejoin="round" stroke-width="0.5" fill="none" stroke="#0071bc" stroke-linecap="butt" points="90.7515,44.7304 107.689,44.7304"/>
   <text font-family="FreeSans" font-size="20" transform="translate(111.077,52.7304) rotate(-0,-0,-8)" font-weight="normal" xml:space="preserve" font-style="normal">
    <tspan y="-0" fill="rgb(0,0,0)" x="0 14 25 36 ">Real</tspan>
   </text>
   <polyline stroke-linejoin="round" stroke-width="0.5" fill="none" stroke="#d85218" stroke-linecap="butt" points="90.7515,65.618 107.689,65.618"/>
   <text font-family="FreeSans" font-size="20" transform="translate(111.077,75.118) rotate(-0,-0,-9.5)" font-weight="normal" xml:space="preserve" font-style="normal">
    <tspan y="-3" fill="rgb(0,0,0)" x="0 ">b</tspan>
    <tspan y="-0" font-size="14" fill="rgb(0,0,0)" x="11 ">r</tspan>
    <tspan y="-3" fill="rgb(0,0,0)" x="16 21 33 38 49 55 66 "> = 0,01</tspan>
   </text>
   <polyline stroke-linejoin="round" stroke-width="0.5" fill="none" stroke="#ecb01f" stroke-linecap="butt" points="90.7515,88.0056 107.689,88.0056"/>
   <text font-family="FreeSans" font-size="20" transform="translate(111.077,97.5056) rotate(-0,-0,-9.5)" font-weight="normal" xml:space="preserve" font-style="normal">
    <tspan y="-3" fill="rgb(0,0,0)" x="0 ">b</tspan>
    <tspan y="-0" font-size="14" fill="rgb(0,0,0)" x="11 ">r</tspan>
    <tspan y="-3" fill="rgb(0,0,0)" x="16 21 33 38 49 55 66 "> = 0,02</tspan>
   </text>
   <polyline stroke-linejoin="round" stroke-width="0.5" fill="none" stroke="#7d2e8d" stroke-linecap="butt" points="90.7515,110.393 107.689,110.393"/>
   <text font-family="FreeSans" font-size="20" transform="translate(111.077,119.893) rotate(-0,-0,-9.5)" font-weight="normal" xml:space="preserve" font-style="normal">
    <tspan y="-3" fill="rgb(0,0,0)" x="0 ">b</tspan>
    <tspan y="-0" font-size="14" fill="rgb(0,0,0)" x="11 ">r</tspan>
    <tspan y="-3" fill="rgb(0,0,0)" x="16 21 33 38 49 55 66 "> = 0,03</tspan>
   </text>
   <polyline stroke-linejoin="round" stroke-width="0.5" fill="none" stroke="#76ab2f" stroke-linecap="butt" points="90.7515,132.781 107.689,132.781"/>
   <text font-family="FreeSans" font-size="20" transform="translate(111.077,142.281) rotate(-0,-0,-9.5)" font-weight="normal" xml:space="preserve" font-style="normal">
    <tspan y="-3" fill="rgb(0,0,0)" x="0 ">b</tspan>
    <tspan y="-0" font-size="14" fill="rgb(0,0,0)" x="11 ">r</tspan>
    <tspan y="-3" fill="rgb(0,0,0)" x="16 21 33 38 49 55 66 "> = 0,04</tspan>
   </text>
  </g>
 </g>
</svg>
