<?xml version='1.0' encoding='UTF-8' standalone='no'?>
<svg height="354pt" xmlns:xlink="http://www.w3.org/1999/xlink" xmlns="http://www.w3.org/2000/svg" width="619pt" viewBox="0 0 619 354">
 <title>gl2ps_renderer figure</title>
 <desc>
Creator: GL2PS 1.4.2, (C) 1999-2020 C. Geuzaine
For: Octave
CreationDate: Mon Nov 14 01:23:16 2022
</desc>
 <defs/>
 <polygon fill="#ffffff" points="0,0 619,0 619,354 0,354"/>
 <g>
  <polygon shape-rendering="crispEdges" fill="#ffffff" points="0,354 619,354 619,0 0,0"/>
  <clipPath id="cp00619354">
   <polygon points="0,354 619,354 619,0 0,0"/>
  </clipPath>
  <g clip-path="url(#cp00619354)">
   <polygon shape-rendering="crispEdges" fill="#ffffff" points="80.5888,315.27 561.022,315.27 561.022,26.5677 80.5888,26.5677"/>
   <polyline stroke-dasharray="16,0" stroke-width="0.5" fill="none" points="80.5888,315.27 80.5888,26.5677" stroke-linecap="butt" stroke-linejoin="miter" stroke="#262626" stroke-opacity="0.15"/>
   <polyline stroke-dasharray="16,0" stroke-width="0.5" fill="none" points="158.329,315.27 158.329,26.5677" stroke-linecap="butt" stroke-linejoin="miter" stroke="#262626" stroke-opacity="0.15"/>
   <polyline stroke-dasharray="16,0" stroke-width="0.5" fill="none" points="236.069,315.27 236.069,26.5677" stroke-linecap="butt" stroke-linejoin="miter" stroke="#262626" stroke-opacity="0.15"/>
   <polyline stroke-dasharray="16,0" stroke-width="0.5" fill="none" points="313.809,315.27 313.809,26.5677" stroke-linecap="butt" stroke-linejoin="miter" stroke="#262626" stroke-opacity="0.15"/>
   <polyline stroke-dasharray="16,0" stroke-width="0.5" fill="none" points="391.549,315.27 391.549,26.5677" stroke-linecap="butt" stroke-linejoin="miter" stroke="#262626" stroke-opacity="0.15"/>
   <polyline stroke-dasharray="16,0" stroke-width="0.5" fill="none" points="469.289,315.27 469.289,26.5677" stroke-linecap="butt" stroke-linejoin="miter" stroke="#262626" stroke-opacity="0.15"/>
   <polyline stroke-dasharray="16,0" stroke-width="0.5" fill="none" points="547.029,315.27 547.029,26.5677" stroke-linecap="butt" stroke-linejoin="miter" stroke="#262626" stroke-opacity="0.15"/>
   <polyline stroke-width="0.5" fill="none" points="80.5888,315.27 80.5888,310.471" stroke-linecap="butt" stroke-linejoin="miter" stroke="#262626"/>
   <polyline stroke-width="0.5" fill="none" points="80.5888,26.5677 80.5888,31.3671" stroke-linecap="butt" stroke-linejoin="miter" stroke="#262626"/>
   <polyline stroke-width="0.5" fill="none" points="158.329,315.27 158.329,310.471" stroke-linecap="butt" stroke-linejoin="miter" stroke="#262626"/>
   <polyline stroke-width="0.5" fill="none" points="158.329,26.5677 158.329,31.3671" stroke-linecap="butt" stroke-linejoin="miter" stroke="#262626"/>
   <polyline stroke-width="0.5" fill="none" points="236.069,315.27 236.069,310.471" stroke-linecap="butt" stroke-linejoin="miter" stroke="#262626"/>
   <polyline stroke-width="0.5" fill="none" points="236.069,26.5677 236.069,31.3671" stroke-linecap="butt" stroke-linejoin="miter" stroke="#262626"/>
   <polyline stroke-width="0.5" fill="none" points="313.809,315.27 313.809,310.471" stroke-linecap="butt" stroke-linejoin="miter" stroke="#262626"/>
   <polyline stroke-width="0.5" fill="none" points="313.809,26.5677 313.809,31.3671" stroke-linecap="butt" stroke-linejoin="miter" stroke="#262626"/>
   <polyline stroke-width="0.5" fill="none" points="391.549,315.27 391.549,310.471" stroke-linecap="butt" stroke-linejoin="miter" stroke="#262626"/>
   <polyline stroke-width="0.5" fill="none" points="391.549,26.5677 391.549,31.3671" stroke-linecap="butt" stroke-linejoin="miter" stroke="#262626"/>
   <polyline stroke-width="0.5" fill="none" points="469.289,315.27 469.289,310.471" stroke-linecap="butt" stroke-linejoin="miter" stroke="#262626"/>
   <polyline stroke-width="0.5" fill="none" points="469.289,26.5677 469.289,31.3671" stroke-linecap="butt" stroke-linejoin="miter" stroke="#262626"/>
   <polyline stroke-width="0.5" fill="none" points="547.029,315.27 547.029,310.471" stroke-linecap="butt" stroke-linejoin="miter" stroke="#262626"/>
   <polyline stroke-width="0.5" fill="none" points="547.029,26.5677 547.029,31.3671" stroke-linecap="butt" stroke-linejoin="miter" stroke="#262626"/>
   <text xml:space="preserve" font-weight="normal" font-style="normal" font-size="10" font-family="FreeSans" transform="translate(77.5888,330.763) rotate(-0,3,-8)">
    <tspan x="0 " fill="rgb(38,38,38)" y="-0">0</tspan>
   </text>
   <text xml:space="preserve" font-weight="normal" font-style="normal" font-size="10" font-family="FreeSans" transform="translate(150.829,330.763) rotate(-0,7.5,-8)">
    <tspan x="0 6 9 " fill="rgb(38,38,38)" y="-0">0.1</tspan>
   </text>
   <text xml:space="preserve" font-weight="normal" font-style="normal" font-size="10" font-family="FreeSans" transform="translate(228.569,330.763) rotate(-0,7.5,-8)">
    <tspan x="0 6 9 " fill="rgb(38,38,38)" y="-0">0.2</tspan>
   </text>
   <text xml:space="preserve" font-weight="normal" font-style="normal" font-size="10" font-family="FreeSans" transform="translate(306.309,330.763) rotate(-0,7.5,-8)">
    <tspan x="0 6 9 " fill="rgb(38,38,38)" y="-0">0.3</tspan>
   </text>
   <text xml:space="preserve" font-weight="normal" font-style="normal" font-size="10" font-family="FreeSans" transform="translate(384.049,330.763) rotate(-0,7.5,-8)">
    <tspan x="0 6 9 " fill="rgb(38,38,38)" y="-0">0.4</tspan>
   </text>
   <text xml:space="preserve" font-weight="normal" font-style="normal" font-size="10" font-family="FreeSans" transform="translate(461.789,330.763) rotate(-0,7.5,-8)">
    <tspan x="0 6 9 " fill="rgb(38,38,38)" y="-0">0.5</tspan>
   </text>
   <text xml:space="preserve" font-weight="normal" font-style="normal" font-size="10" font-family="FreeSans" transform="translate(539.529,330.763) rotate(-0,7.5,-8)">
    <tspan x="0 6 9 " fill="rgb(38,38,38)" y="-0">0.6</tspan>
   </text>
   <polyline stroke-dasharray="16,0" stroke-width="0.5" fill="none" points="80.5888,315.27 561.022,315.27" stroke-linecap="butt" stroke-linejoin="miter" stroke="#262626" stroke-opacity="0.15"/>
   <polyline stroke-dasharray="16,0" stroke-width="0.5" fill="none" points="80.5888,257.53 561.022,257.53" stroke-linecap="butt" stroke-linejoin="miter" stroke="#262626" stroke-opacity="0.15"/>
   <polyline stroke-dasharray="16,0" stroke-width="0.5" fill="none" points="80.5888,199.789 561.022,199.789" stroke-linecap="butt" stroke-linejoin="miter" stroke="#262626" stroke-opacity="0.15"/>
   <polyline stroke-dasharray="16,0" stroke-width="0.5" fill="none" points="80.5888,142.049 561.022,142.049" stroke-linecap="butt" stroke-linejoin="miter" stroke="#262626" stroke-opacity="0.15"/>
   <polyline stroke-dasharray="16,0" stroke-width="0.5" fill="none" points="80.5888,84.3083 561.022,84.3083" stroke-linecap="butt" stroke-linejoin="miter" stroke="#262626" stroke-opacity="0.15"/>
   <polyline stroke-dasharray="16,0" stroke-width="0.5" fill="none" points="80.5888,26.5677 561.022,26.5677" stroke-linecap="butt" stroke-linejoin="miter" stroke="#262626" stroke-opacity="0.15"/>
   <polyline stroke-width="0.5" fill="none" points="80.5888,315.27 85.3975,315.27" stroke-linecap="butt" stroke-linejoin="miter" stroke="#262626"/>
   <polyline stroke-width="0.5" fill="none" points="561.022,315.27 556.213,315.27" stroke-linecap="butt" stroke-linejoin="miter" stroke="#262626"/>
   <polyline stroke-width="0.5" fill="none" points="80.5888,257.53 85.3975,257.53" stroke-linecap="butt" stroke-linejoin="miter" stroke="#262626"/>
   <polyline stroke-width="0.5" fill="none" points="561.022,257.53 556.213,257.53" stroke-linecap="butt" stroke-linejoin="miter" stroke="#262626"/>
   <polyline stroke-width="0.5" fill="none" points="80.5888,199.789 85.3975,199.789" stroke-linecap="butt" stroke-linejoin="miter" stroke="#262626"/>
   <polyline stroke-width="0.5" fill="none" points="561.022,199.789 556.213,199.789" stroke-linecap="butt" stroke-linejoin="miter" stroke="#262626"/>
   <polyline stroke-width="0.5" fill="none" points="80.5888,142.049 85.3975,142.049" stroke-linecap="butt" stroke-linejoin="miter" stroke="#262626"/>
   <polyline stroke-width="0.5" fill="none" points="561.022,142.049 556.213,142.049" stroke-linecap="butt" stroke-linejoin="miter" stroke="#262626"/>
   <polyline stroke-width="0.5" fill="none" points="80.5888,84.3083 85.3975,84.3083" stroke-linecap="butt" stroke-linejoin="miter" stroke="#262626"/>
   <polyline stroke-width="0.5" fill="none" points="561.022,84.3083 556.213,84.3083" stroke-linecap="butt" stroke-linejoin="miter" stroke="#262626"/>
   <polyline stroke-width="0.5" fill="none" points="80.5888,26.5677 85.3975,26.5677" stroke-linecap="butt" stroke-linejoin="miter" stroke="#262626"/>
   <polyline stroke-width="0.5" fill="none" points="561.022,26.5677 556.213,26.5677" stroke-linecap="butt" stroke-linejoin="miter" stroke="#262626"/>
   <text xml:space="preserve" font-weight="normal" font-style="normal" font-size="10" font-family="FreeSans" transform="translate(57.5843,319.27) rotate(-0,18,-4)">
    <tspan x="0 3 9 12 " fill="rgb(38,38,38)" y="-0">-0.5</tspan>
   </text>
   <text xml:space="preserve" font-weight="normal" font-style="normal" font-size="10" font-family="FreeSans" transform="translate(69.5843,261.53) rotate(-0,6,-4)">
    <tspan x="0 " fill="rgb(38,38,38)" y="-0">0</tspan>
   </text>
   <text xml:space="preserve" font-weight="normal" font-style="normal" font-size="10" font-family="FreeSans" transform="translate(60.5843,203.789) rotate(-0,15,-4)">
    <tspan x="0 6 9 " fill="rgb(38,38,38)" y="-0">0.5</tspan>
   </text>
   <text xml:space="preserve" font-weight="normal" font-style="normal" font-size="10" font-family="FreeSans" transform="translate(69.5843,146.049) rotate(-0,6,-4)">
    <tspan x="0 " fill="rgb(38,38,38)" y="-0">1</tspan>
   </text>
   <text xml:space="preserve" font-weight="normal" font-style="normal" font-size="10" font-family="FreeSans" transform="translate(60.5843,88.3083) rotate(-0,15,-4)">
    <tspan x="0 6 9 " fill="rgb(38,38,38)" y="-0">1.5</tspan>
   </text>
   <text xml:space="preserve" font-weight="normal" font-style="normal" font-size="10" font-family="FreeSans" transform="translate(69.5843,30.5677) rotate(-0,6,-4)">
    <tspan x="0 " fill="rgb(38,38,38)" y="-0">2</tspan>
   </text>
   <polyline stroke-dasharray="16,0" stroke-width="0.5" fill="none" points="80.5888,315.27 561.022,315.27" stroke-linecap="square" stroke-linejoin="miter" stroke="#262626"/>
   <polyline stroke-dasharray="16,0" stroke-width="0.5" fill="none" points="80.5888,26.5677 561.022,26.5677" stroke-linecap="square" stroke-linejoin="miter" stroke="#262626"/>
   <polyline stroke-dasharray="16,0" stroke-width="0.5" fill="none" points="80.5888,315.27 80.5888,26.5677" stroke-linecap="square" stroke-linejoin="miter" stroke="#262626"/>
   <polyline stroke-dasharray="16,0" stroke-width="0.5" fill="none" points="561.022,315.27 561.022,26.5677" stroke-linecap="square" stroke-linejoin="miter" stroke="#262626"/>
   <text xml:space="preserve" font-weight="normal" font-style="normal" font-size="11" font-family="FreeSans" transform="translate(297.305,347.763) rotate(-0,23.5,-12)">
    <tspan x="0 7 13 22 28 34 38 43 " fill="rgb(38,38,38)" y="-3">Tempo(s)</tspan>
   </text>
   <text xml:space="preserve" font-weight="normal" font-style="normal" font-size="11" font-family="FreeSans" transform="translate(24.0843,170.919) rotate(-90,28.5,0)">
    <tspan x="0 7 13 19 25 27 33 37 41 47 53 " fill="rgb(38,38,38)" y="-3">Ângulo(rad)</tspan>
   </text>
   <polyline stroke-width="0.5" fill="none" points="80.5888,288.433 82.1436,288.509 83.6984,288.578 85.2532,288.648 86.808,288.722 88.3628,288.788 89.9176,288.855 91.4724,288.92 93.0272,288.974 94.582,289.026 96.1368,289.077 97.6916,289.126 99.2464,289.179 100.801,289.226 102.356,289.277 103.911,289.329 105.466,289.388 107.02,289.456 108.575,289.536 110.13,289.613 111.685,289.677 113.24,289.713 114.794,289.756 116.349,289.792 117.904,289.799 119.459,289.83 121.014,289.832 122.568,289.853 124.123,289.867 125.678,289.913 127.233,289.928 128.788,289.947 130.342,289.965 131.897,289.982 133.452,290.001 135.007,290.015 136.562,290.029 138.116,290.024 139.671,290.023 141.226,290.04 142.781,290.051 144.336,290.06 145.89,290.042 147.445,290.037 149,290.037 150.555,290.045 152.11,290.051 153.664,290.021 155.219,289.993 156.774,290.004 158.329,289.986 159.884,289.985 161.438,289.965 162.993,289.95 164.548,289.938 166.103,289.948 167.658,289.939 169.212,289.9 170.767,289.879 172.322,289.846 173.877,289.829 175.432,289.803 176.986,289.75 178.541,289.716 180.096,289.674 181.651,289.632 183.206,289.599 184.76,289.566 186.315,289.536 187.87,289.518 189.425,289.483 190.98,289.445 192.534,289.435 194.089,289.398 195.644,289.395 197.199,289.369 198.754,289.347 200.308,289.298 201.863,289.261 203.418,289.242 204.973,289.221 206.528,289.173 208.082,289.148 209.637,289.136 211.192,289.118 212.747,289.114 214.302,289.108 215.856,289.095 217.411,289.105 218.966,289.091 220.521,289.083 222.076,289.107 223.63,289.122 225.185,289.115 226.74,289.171 228.295,289.196 229.85,289.184 231.404,289.206 232.959,289.211 234.514,289.213 236.069,289.199 237.624,289.187 239.178,289.127 240.733,289.073 242.288,289.018 243.843,288.933 245.398,288.822 246.952,288.687 248.507,288.521 250.062,288.338 251.617,288.177 253.172,287.985 254.726,287.804 256.281,287.607 257.836,287.417 259.391,287.231 260.946,287.045 262.5,286.847 264.055,286.644 265.61,286.457 267.165,286.279 268.72,286.104 270.274,285.9 271.829,285.706 273.384,285.513 274.939,285.326 276.494,285.153 278.048,284.954 279.603,284.788 281.158,284.626 282.713,284.443 284.268,284.255 285.822,284.082 287.377,283.916 288.932,283.723 290.487,283.518 292.042,283.331 293.596,283.142 295.151,282.963 296.706,282.777 298.261,282.565 299.816,282.38 301.37,282.21 302.925,282.019 304.48,281.841 306.035,281.637 307.59,281.441 309.144,281.238 310.699,281.071 312.254,280.879 313.809,280.688 315.364,280.51 316.918,280.324 318.473,280.139 320.028,279.967 321.583,279.768 323.138,279.584 324.692,279.399 326.247,279.187 327.802,278.991 329.357,278.816 330.912,278.639 332.466,278.437 334.021,278.253 335.576,278.041 337.131,277.824 338.686,277.632 340.24,277.447 341.795,277.248 343.35,277.068 344.905,276.877 346.46,276.675 348.014,276.494 349.569,276.322 351.124,276.108 352.679,275.903 354.234,275.718 355.788,275.514 357.343,275.325 358.898,275.118 360.453,274.913 362.008,274.703 363.562,274.499 365.117,274.292 366.672,274.074 368.227,273.875 369.782,273.658 371.336,273.461 372.891,273.264 374.446,273.038 376.001,272.823 377.556,272.617 379.11,272.406 380.665,272.199 382.22,271.974 383.775,271.757 385.33,271.541 386.884,271.332 388.439,271.121 389.994,270.913 391.549,270.682 393.104,270.457 394.658,270.243 396.213,270.013 397.768,269.785 399.323,269.569 400.878,269.355 402.432,269.111 403.987,268.878 405.542,268.641 407.097,268.416 408.652,268.18 410.206,267.936 411.761,267.677 413.316,267.438 414.871,267.195 416.426,266.951 417.98,266.666 419.535,266.415 421.09,266.145 422.645,265.888 424.2,265.625 425.754,265.356 427.309,265.076 428.864,264.807 430.419,264.548 431.974,264.327 433.528,264.111 435.083,263.921 436.638,263.704 438.193,263.454 439.748,263.168 441.302,262.867 442.857,262.586 444.412,262.292 445.967,261.99 447.522,261.692 449.076,261.358 450.631,261.043 452.186,260.731 453.741,260.423 455.296,260.117 456.85,259.79 458.405,259.471 459.96,259.188 461.515,258.897 463.07,258.575 464.624,258.256 466.179,257.893 467.734,257.567 469.289,257.277 470.844,257.01 472.398,256.738 473.953,256.43 475.508,256.112 477.063,255.761 478.618,255.363 480.172,254.995 481.727,254.679 483.282,254.276 484.837,253.87 486.392,253.441 487.946,253.031 489.501,252.647 491.056,252.269 492.611,251.91 494.166,251.535 495.72,251.168 497.275,250.844 498.83,250.46 500.385,250.083 501.94,249.628 503.494,249.202 505.049,248.752 506.604,248.369 508.159,248.005 509.714,247.588 511.268,247.09 512.823,246.577 514.378,245.814 515.933,244.671 517.488,243.816 519.042,242.892 520.597,241.981 522.152,241.011 523.707,240.029 525.262,238.858 526.816,237.884 528.371,237.01 529.926,236.228 531.481,235.25 533.036,234.246 534.59,233.283 536.145,232.205 537.7,231.284 539.255,230.264 540.81,229.434 542.364,228.293 543.919,227.506 545.474,226.501 547.029,225.773 548.584,224.746 550.138,223.763 551.693,222.856 553.248,222.047 554.803,221.141 556.358,220.389 557.912,219.486 559.467,218.698 561.022,217.92" stroke-linecap="butt" stroke-linejoin="round" stroke="#0071bc"/>
   <polyline stroke-width="0.5" fill="none" points="80.5888,288.433 82.1436,288.412 83.6984,288.355 85.2532,288.266 86.808,288.153 88.3628,288.018 89.9176,287.865 91.4724,287.698 93.0272,287.518 94.582,287.328 96.1368,287.129 97.6916,286.922 99.2464,286.709 100.801,286.491 102.356,286.268 103.911,286.041 105.466,285.81 107.02,285.577 108.575,285.34 110.13,285.102 111.685,284.861 113.24,284.618 114.794,284.373 116.349,284.127 117.904,283.879 119.459,283.63 121.014,283.379 122.568,283.126 124.123,282.872 125.678,282.617 127.233,282.361 128.788,282.103 130.342,281.844 131.897,281.584 133.452,281.322 135.007,281.059 136.562,280.795 138.116,280.529 139.671,280.262 141.226,279.993 142.781,279.724 144.336,279.453 145.89,279.18 147.445,278.906 149,278.631 150.555,278.354 152.11,278.076 153.664,277.796 155.219,277.515 156.774,277.232 158.329,276.948 159.884,276.662 161.438,276.374 162.993,276.085 164.548,275.794 166.103,275.502 167.658,275.208 169.212,274.912 170.767,274.615 172.322,274.315 173.877,274.014 175.432,273.712 176.986,273.407 178.541,273.101 180.096,272.793 181.651,272.483 183.206,272.171 184.76,271.857 186.315,271.541 187.87,271.223 189.425,270.904 190.98,270.582 192.534,270.258 194.089,269.932 195.644,269.604 197.199,269.274 198.754,268.942 200.308,268.608 201.863,268.272 203.418,267.933 204.973,267.592 206.528,267.249 208.082,266.904 209.637,266.556 211.192,266.206 212.747,265.854 214.302,265.499 215.856,265.142 217.411,264.783 218.966,264.421 220.521,264.056 222.076,263.69 223.63,263.32 225.185,262.948 226.74,262.574 228.295,262.196 229.85,261.817 231.404,261.434 232.959,261.049 234.514,260.661 236.069,260.271 237.624,259.878 239.178,259.481 240.733,259.082 242.288,258.681 243.843,258.276 245.398,257.868 246.952,257.458 248.507,257.044 250.062,256.628 251.617,256.208 253.172,255.786 254.726,255.36 256.281,254.931 257.836,254.499 259.391,254.064 260.946,253.626 262.5,253.184 264.055,252.74 265.61,252.291 267.165,251.84 268.72,251.385 270.274,250.927 271.829,250.465 273.384,250 274.939,249.531 276.494,249.059 278.048,248.583 279.603,248.104 281.158,247.621 282.713,247.134 284.268,246.644 285.822,246.15 287.377,245.652 288.932,245.15 290.487,244.645 292.042,244.136 293.596,243.622 295.151,243.105 296.706,242.584 298.261,242.059 299.816,241.529 301.37,240.996 302.925,240.458 304.48,239.916 306.035,239.37 307.59,238.82 309.144,238.266 310.699,237.707 312.254,237.144 313.809,236.576 315.364,236.004 316.918,235.428 318.473,234.846 320.028,234.261 321.583,233.671 323.138,233.076 324.692,232.476 326.247,231.872 327.802,231.263 329.357,230.649 330.912,230.03 332.466,229.406 334.021,228.777 335.576,228.144 337.131,227.505 338.686,226.861 340.24,226.212 341.795,225.558 343.35,224.899 344.905,224.234 346.46,223.564 348.014,222.889 349.569,222.208 351.124,221.522 352.679,220.83 354.234,220.133 355.788,219.43 357.343,218.721 358.898,218.007 360.453,217.287 362.008,216.561 363.562,215.83 365.117,215.092 366.672,214.348 368.227,213.599 369.782,212.843 371.336,212.081 372.891,211.314 374.446,210.539 376.001,209.759 377.556,208.972 379.11,208.179 380.665,207.379 382.22,206.573 383.775,205.761 385.33,204.941 386.884,204.115 388.439,203.283 389.994,202.443 391.549,201.597 393.104,200.743 394.658,199.883 396.213,199.016 397.768,198.141 399.323,197.26 400.878,196.371 402.432,195.475 403.987,194.572 405.542,193.661 407.097,192.743 408.652,191.817 410.206,190.883 411.761,189.942 413.316,188.994 414.871,188.037 416.426,187.073 417.98,186.1 419.535,185.12 421.09,184.131 422.645,183.135 424.2,182.13 425.754,181.117 427.309,180.096 428.864,179.066 430.419,178.027 431.974,176.98 433.528,175.925 435.083,174.861 436.638,173.788 438.193,172.706 439.748,171.615 441.302,170.515 442.857,169.406 444.412,168.288 445.967,167.16 447.522,166.024 449.076,164.878 450.631,163.722 452.186,162.557 453.741,161.382 455.296,160.197 456.85,159.003 458.405,157.799 459.96,156.584 461.515,155.36 463.07,154.126 464.624,152.881 466.179,151.626 467.734,150.36 469.289,149.084 470.844,147.798 472.398,146.5 473.953,145.192 475.508,143.873 477.063,142.544 478.618,141.203 480.172,139.85 481.727,138.487 483.282,137.112 484.837,135.726 486.392,134.329 487.946,132.919 489.501,131.498 491.056,130.066 492.611,128.621 494.166,127.164 495.72,125.695 497.275,124.214 498.83,122.72 500.385,121.214 501.94,119.696 503.494,118.165 505.049,116.621 506.604,115.064 508.159,113.494 509.714,111.911 511.268,110.315 512.823,108.706 514.378,107.083 515.933,105.447 517.488,103.797 519.042,102.133 520.597,100.455 522.152,98.7637 523.707,97.0579 525.262,95.3378 526.816,93.6035 528.371,91.8546 529.926,90.0911 531.481,88.3129 533.036,86.5198 534.59,84.7117 536.145,82.8886 537.7,81.0502 539.255,79.1964 540.81,77.3272 542.364,75.4423 543.919,73.5417 545.474,71.6252 547.029,69.6926 548.584,67.7439 550.138,65.7789 551.693,63.7975 553.248,61.7995 554.803,59.7848 556.358,57.7532 557.912,55.7047 559.467,53.6389 561.022,51.5559" stroke-linecap="butt" stroke-linejoin="round" stroke="#d85218"/>
   <polyline stroke-width="0.5" fill="none" points="80.5888,288.433 82.1436,288.422 83.6984,288.392 85.2532,288.345 86.808,288.283 88.3628,288.21 89.9176,288.126 91.4724,288.033 93.0272,287.932 94.582,287.825 96.1368,287.712 97.6916,287.594 99.2464,287.471 100.801,287.345 102.356,287.216 103.911,287.084 105.466,286.949 107.02,286.813 108.575,286.674 110.13,286.533 111.685,286.391 113.24,286.247 114.794,286.103 116.349,285.956 117.904,285.809 119.459,285.661 121.014,285.511 122.568,285.361 124.123,285.21 125.678,285.058 127.233,284.905 128.788,284.751 130.342,284.597 131.897,284.442 133.452,284.285 135.007,284.129 136.562,283.971 138.116,283.813 139.671,283.654 141.226,283.494 142.781,283.333 144.336,283.172 145.89,283.01 147.445,282.847 149,282.684 150.555,282.519 152.11,282.354 153.664,282.189 155.219,282.022 156.774,281.855 158.329,281.686 159.884,281.517 161.438,281.348 162.993,281.177 164.548,281.006 166.103,280.834 167.658,280.661 169.212,280.487 170.767,280.312 172.322,280.136 173.877,279.96 175.432,279.783 176.986,279.605 178.541,279.426 180.096,279.246 181.651,279.065 183.206,278.883 184.76,278.701 186.315,278.517 187.87,278.333 189.425,278.147 190.98,277.961 192.534,277.774 194.089,277.585 195.644,277.396 197.199,277.206 198.754,277.015 200.308,276.823 201.863,276.63 203.418,276.435 204.973,276.24 206.528,276.044 208.082,275.847 209.637,275.649 211.192,275.449 212.747,275.249 214.302,275.047 215.856,274.845 217.411,274.641 218.966,274.437 220.521,274.231 222.076,274.024 223.63,273.816 225.185,273.607 226.74,273.396 228.295,273.185 229.85,272.972 231.404,272.758 232.959,272.543 234.514,272.327 236.069,272.11 237.624,271.891 239.178,271.671 240.733,271.45 242.288,271.228 243.843,271.005 245.398,270.78 246.952,270.554 248.507,270.327 250.062,270.098 251.617,269.868 253.172,269.637 254.726,269.404 256.281,269.171 257.836,268.935 259.391,268.699 260.946,268.461 262.5,268.222 264.055,267.981 265.61,267.739 267.165,267.496 268.72,267.251 270.274,267.005 271.829,266.757 273.384,266.508 274.939,266.258 276.494,266.006 278.048,265.752 279.603,265.497 281.158,265.241 282.713,264.983 284.268,264.723 285.822,264.462 287.377,264.2 288.932,263.936 290.487,263.67 292.042,263.403 293.596,263.134 295.151,262.864 296.706,262.592 298.261,262.318 299.816,262.043 301.37,261.766 302.925,261.487 304.48,261.207 306.035,260.925 307.59,260.642 309.144,260.356 310.699,260.069 312.254,259.78 313.809,259.49 315.364,259.198 316.918,258.904 318.473,258.608 320.028,258.31 321.583,258.011 323.138,257.71 324.692,257.406 326.247,257.102 327.802,256.795 329.357,256.486 330.912,256.176 332.466,255.863 334.021,255.549 335.576,255.233 337.131,254.914 338.686,254.594 340.24,254.272 341.795,253.948 343.35,253.622 344.905,253.294 346.46,252.963 348.014,252.631 349.569,252.297 351.124,251.961 352.679,251.622 354.234,251.282 355.788,250.939 357.343,250.595 358.898,250.248 360.453,249.899 362.008,249.547 363.562,249.194 365.117,248.838 366.672,248.481 368.227,248.121 369.782,247.758 371.336,247.394 372.891,247.027 374.446,246.658 376.001,246.286 377.556,245.913 379.11,245.537 380.665,245.158 382.22,244.777 383.775,244.394 385.33,244.008 386.884,243.62 388.439,243.23 389.994,242.837 391.549,242.441 393.104,242.043 394.658,241.643 396.213,241.24 397.768,240.835 399.323,240.426 400.878,240.016 402.432,239.602 403.987,239.187 405.542,238.768 407.097,238.347 408.652,237.923 410.206,237.497 411.761,237.067 413.316,236.635 414.871,236.201 416.426,235.763 417.98,235.323 419.535,234.88 421.09,234.434 422.645,233.985 424.2,233.534 425.754,233.079 427.309,232.622 428.864,232.162 430.419,231.699 431.974,231.232 433.528,230.763 435.083,230.291 436.638,229.816 438.193,229.338 439.748,228.857 441.302,228.372 442.857,227.885 444.412,227.394 445.967,226.901 447.522,226.404 449.076,225.904 450.631,225.4 452.186,224.894 453.741,224.384 455.296,223.871 456.85,223.355 458.405,222.835 459.96,222.312 461.515,221.786 463.07,221.256 464.624,220.723 466.179,220.187 467.734,219.647 469.289,219.103 470.844,218.556 472.398,218.006 473.953,217.452 475.508,216.894 477.063,216.333 478.618,215.768 480.172,215.2 481.727,214.628 483.282,214.052 484.837,213.472 486.392,212.889 487.946,212.302 489.501,211.711 491.056,211.116 492.611,210.518 494.166,209.916 495.72,209.309 497.275,208.699 498.83,208.085 500.385,207.467 501.94,206.845 503.494,206.219 505.049,205.588 506.604,204.954 508.159,204.316 509.714,203.673 511.268,203.027 512.823,202.376 514.378,201.721 515.933,201.061 517.488,200.398 519.042,199.73 520.597,199.057 522.152,198.381 523.707,197.7 525.262,197.014 526.816,196.324 528.371,195.63 529.926,194.931 531.481,194.228 533.036,193.52 534.59,192.807 536.145,192.09 537.7,191.368 539.255,190.641 540.81,189.91 542.364,189.174 543.919,188.433 545.474,187.687 547.029,186.937 548.584,186.181 550.138,185.421 551.693,184.656 553.248,183.885 554.803,183.11 556.358,182.33 557.912,181.544 559.467,180.754 561.022,179.958" stroke-linecap="butt" stroke-linejoin="round" stroke="#ecb01f"/>
   <polyline stroke-width="0.5" fill="none" points="80.5888,288.433 82.1436,288.426 83.6984,288.405 85.2532,288.373 86.808,288.331 88.3628,288.28 89.9176,288.222 91.4724,288.158 93.0272,288.088 94.582,288.013 96.1368,287.935 97.6916,287.852 99.2464,287.766 100.801,287.678 102.356,287.587 103.911,287.494 105.466,287.399 107.02,287.303 108.575,287.204 110.13,287.105 111.685,287.004 113.24,286.902 114.794,286.799 116.349,286.696 117.904,286.591 119.459,286.486 121.014,286.379 122.568,286.272 124.123,286.165 125.678,286.057 127.233,285.948 128.788,285.838 130.342,285.728 131.897,285.618 133.452,285.507 135.007,285.395 136.562,285.283 138.116,285.17 139.671,285.057 141.226,284.943 142.781,284.828 144.336,284.714 145.89,284.598 147.445,284.482 149,284.366 150.555,284.249 152.11,284.132 153.664,284.014 155.219,283.896 156.774,283.777 158.329,283.657 159.884,283.537 161.438,283.417 162.993,283.296 164.548,283.174 166.103,283.052 167.658,282.929 169.212,282.806 170.767,282.682 172.322,282.558 173.877,282.433 175.432,282.308 176.986,282.182 178.541,282.056 180.096,281.928 181.651,281.801 183.206,281.673 184.76,281.544 186.315,281.414 187.87,281.284 189.425,281.154 190.98,281.023 192.534,280.891 194.089,280.758 195.644,280.625 197.199,280.492 198.754,280.358 200.308,280.223 201.863,280.087 203.418,279.951 204.973,279.814 206.528,279.677 208.082,279.539 209.637,279.4 211.192,279.261 212.747,279.121 214.302,278.98 215.856,278.839 217.411,278.697 218.966,278.554 220.521,278.411 222.076,278.267 223.63,278.122 225.185,277.977 226.74,277.831 228.295,277.684 229.85,277.536 231.404,277.388 232.959,277.239 234.514,277.09 236.069,276.939 237.624,276.788 239.178,276.636 240.733,276.484 242.288,276.33 243.843,276.176 245.398,276.021 246.952,275.866 248.507,275.709 250.062,275.552 251.617,275.394 253.172,275.236 254.726,275.076 256.281,274.916 257.836,274.755 259.391,274.593 260.946,274.431 262.5,274.267 264.055,274.103 265.61,273.938 267.165,273.772 268.72,273.605 270.274,273.438 271.829,273.269 273.384,273.1 274.939,272.93 276.494,272.759 278.048,272.587 279.603,272.414 281.158,272.241 282.713,272.066 284.268,271.891 285.822,271.715 287.377,271.538 288.932,271.359 290.487,271.181 292.042,271.001 293.596,270.82 295.151,270.638 296.706,270.456 298.261,270.272 299.816,270.088 301.37,269.902 302.925,269.716 304.48,269.529 306.035,269.34 307.59,269.151 309.144,268.961 310.699,268.77 312.254,268.577 313.809,268.384 315.364,268.19 316.918,267.995 318.473,267.799 320.028,267.601 321.583,267.403 323.138,267.204 324.692,267.003 326.247,266.802 327.802,266.6 329.357,266.396 330.912,266.192 332.466,265.986 334.021,265.779 335.576,265.572 337.131,265.363 338.686,265.153 340.24,264.942 341.795,264.73 343.35,264.517 344.905,264.302 346.46,264.087 348.014,263.87 349.569,263.652 351.124,263.433 352.679,263.213 354.234,262.992 355.788,262.77 357.343,262.546 358.898,262.321 360.453,262.095 362.008,261.868 363.562,261.64 365.117,261.41 366.672,261.18 368.227,260.948 369.782,260.714 371.336,260.48 372.891,260.244 374.446,260.007 376.001,259.769 377.556,259.529 379.11,259.289 380.665,259.047 382.22,258.803 383.775,258.559 385.33,258.313 386.884,258.065 388.439,257.817 389.994,257.567 391.549,257.316 393.104,257.063 394.658,256.809 396.213,256.554 397.768,256.297 399.323,256.039 400.878,255.779 402.432,255.519 403.987,255.256 405.542,254.993 407.097,254.728 408.652,254.461 410.206,254.193 411.761,253.924 413.316,253.653 414.871,253.381 416.426,253.107 417.98,252.832 419.535,252.555 421.09,252.277 422.645,251.997 424.2,251.716 425.754,251.433 427.309,251.149 428.864,250.863 430.419,250.575 431.974,250.287 433.528,249.996 435.083,249.704 436.638,249.41 438.193,249.115 439.748,248.818 441.302,248.52 442.857,248.22 444.412,247.918 445.967,247.615 447.522,247.31 449.076,247.003 450.631,246.695 452.186,246.385 453.741,246.073 455.296,245.76 456.85,245.445 458.405,245.128 459.96,244.809 461.515,244.489 463.07,244.167 464.624,243.843 466.179,243.518 467.734,243.19 469.289,242.861 470.844,242.53 472.398,242.198 473.953,241.863 475.508,241.527 477.063,241.189 478.618,240.849 480.172,240.507 481.727,240.163 483.282,239.817 484.837,239.47 486.392,239.12 487.946,238.769 489.501,238.416 491.056,238.06 492.611,237.703 494.166,237.344 495.72,236.983 497.275,236.62 498.83,236.255 500.385,235.888 501.94,235.519 503.494,235.148 505.049,234.774 506.604,234.399 508.159,234.022 509.714,233.643 511.268,233.261 512.823,232.878 514.378,232.492 515.933,232.104 517.488,231.715 519.042,231.322 520.597,230.928 522.152,230.532 523.707,230.133 525.262,229.733 526.816,229.33 528.371,228.925 529.926,228.517 531.481,228.108 533.036,227.696 534.59,227.282 536.145,226.865 537.7,226.446 539.255,226.025 540.81,225.602 542.364,225.176 543.919,224.748 545.474,224.318 547.029,223.885 548.584,223.45 550.138,223.012 551.693,222.572 553.248,222.13 554.803,221.685 556.358,221.238 557.912,220.788 559.467,220.336 561.022,219.881" stroke-linecap="butt" stroke-linejoin="round" stroke="#7d2e8d"/>
   <polyline stroke-width="0.5" fill="none" points="80.5888,288.433 82.1436,288.427 83.6984,288.412 85.2532,288.387 86.808,288.355 88.3628,288.317 89.9176,288.273 91.4724,288.224 93.0272,288.17 94.582,288.113 96.1368,288.052 97.6916,287.989 99.2464,287.923 100.801,287.855 102.356,287.785 103.911,287.713 105.466,287.64 107.02,287.565 108.575,287.489 110.13,287.412 111.685,287.334 113.24,287.255 114.794,287.176 116.349,287.095 117.904,287.014 119.459,286.932 121.014,286.85 122.568,286.767 124.123,286.683 125.678,286.599 127.233,286.515 128.788,286.43 130.342,286.344 131.897,286.259 133.452,286.172 135.007,286.086 136.562,285.998 138.116,285.911 139.671,285.823 141.226,285.735 142.781,285.646 144.336,285.557 145.89,285.467 147.445,285.377 149,285.287 150.555,285.196 152.11,285.105 153.664,285.014 155.219,284.922 156.774,284.83 158.329,284.737 159.884,284.644 161.438,284.551 162.993,284.457 164.548,284.363 166.103,284.268 167.658,284.173 169.212,284.078 170.767,283.982 172.322,283.886 173.877,283.789 175.432,283.692 176.986,283.595 178.541,283.497 180.096,283.398 181.651,283.3 183.206,283.201 184.76,283.101 186.315,283.001 187.87,282.901 189.425,282.8 190.98,282.699 192.534,282.597 194.089,282.495 195.644,282.392 197.199,282.289 198.754,282.186 200.308,282.082 201.863,281.978 203.418,281.873 204.973,281.768 206.528,281.662 208.082,281.556 209.637,281.449 211.192,281.342 212.747,281.235 214.302,281.126 215.856,281.018 217.411,280.909 218.966,280.8 220.521,280.69 222.076,280.579 223.63,280.468 225.185,280.357 226.74,280.245 228.295,280.133 229.85,280.02 231.404,279.906 232.959,279.792 234.514,279.678 236.069,279.563 237.624,279.448 239.178,279.332 240.733,279.215 242.288,279.098 243.843,278.981 245.398,278.863 246.952,278.744 248.507,278.625 250.062,278.505 251.617,278.385 253.172,278.265 254.726,278.143 256.281,278.022 257.836,277.899 259.391,277.776 260.946,277.653 262.5,277.529 264.055,277.404 265.61,277.279 267.165,277.153 268.72,277.027 270.274,276.9 271.829,276.773 273.384,276.645 274.939,276.516 276.494,276.387 278.048,276.257 279.603,276.127 281.158,275.996 282.713,275.864 284.268,275.732 285.822,275.599 287.377,275.466 288.932,275.332 290.487,275.197 292.042,275.062 293.596,274.926 295.151,274.79 296.706,274.653 298.261,274.515 299.816,274.377 301.37,274.238 302.925,274.098 304.48,273.958 306.035,273.817 307.59,273.675 309.144,273.533 310.699,273.39 312.254,273.246 313.809,273.102 315.364,272.957 316.918,272.811 318.473,272.665 320.028,272.518 321.583,272.37 323.138,272.222 324.692,272.073 326.247,271.923 327.802,271.773 329.357,271.622 330.912,271.47 332.466,271.317 334.021,271.164 335.576,271.01 337.131,270.855 338.686,270.7 340.24,270.544 341.795,270.387 343.35,270.229 344.905,270.071 346.46,269.912 348.014,269.752 349.569,269.591 351.124,269.43 352.679,269.267 354.234,269.105 355.788,268.941 357.343,268.776 358.898,268.611 360.453,268.445 362.008,268.278 363.562,268.111 365.117,267.942 366.672,267.773 368.227,267.603 369.782,267.432 371.336,267.261 372.891,267.088 374.446,266.915 376.001,266.741 377.556,266.566 379.11,266.39 380.665,266.214 382.22,266.036 383.775,265.858 385.33,265.679 386.884,265.499 388.439,265.318 389.994,265.137 391.549,264.954 393.104,264.771 394.658,264.586 396.213,264.401 397.768,264.215 399.323,264.028 400.878,263.84 402.432,263.652 403.987,263.462 405.542,263.271 407.097,263.08 408.652,262.888 410.206,262.694 411.761,262.5 413.316,262.305 414.871,262.109 416.426,261.912 417.98,261.714 419.535,261.515 421.09,261.315 422.645,261.114 424.2,260.912 425.754,260.71 427.309,260.506 428.864,260.301 430.419,260.095 431.974,259.889 433.528,259.681 435.083,259.472 436.638,259.263 438.193,259.052 439.748,258.84 441.302,258.627 442.857,258.414 444.412,258.199 445.967,257.983 447.522,257.766 449.076,257.548 450.631,257.329 452.186,257.109 453.741,256.888 455.296,256.666 456.85,256.442 458.405,256.218 459.96,255.993 461.515,255.766 463.07,255.538 464.624,255.31 466.179,255.08 467.734,254.849 469.289,254.617 470.844,254.384 472.398,254.149 473.953,253.914 475.508,253.677 477.063,253.44 478.618,253.201 480.172,252.961 481.727,252.719 483.282,252.477 484.837,252.234 486.392,251.989 487.946,251.743 489.501,251.496 491.056,251.247 492.611,250.998 494.166,250.747 495.72,250.495 497.275,250.242 498.83,249.987 500.385,249.732 501.94,249.475 503.494,249.217 505.049,248.957 506.604,248.697 508.159,248.435 509.714,248.171 511.268,247.907 512.823,247.641 514.378,247.374 515.933,247.106 517.488,246.836 519.042,246.565 520.597,246.293 522.152,246.019 523.707,245.744 525.262,245.467 526.816,245.19 528.371,244.911 529.926,244.63 531.481,244.349 533.036,244.065 534.59,243.781 536.145,243.495 537.7,243.208 539.255,242.919 540.81,242.629 542.364,242.337 543.919,242.044 545.474,241.75 547.029,241.454 548.584,241.156 550.138,240.858 551.693,240.557 553.248,240.256 554.803,239.953 556.358,239.648 557.912,239.342 559.467,239.034 561.022,238.725" stroke-linecap="butt" stroke-linejoin="round" stroke="#76ab2f"/>
  </g>
  <clipPath id="cp00619354">
   <polygon points="0,354 619,354 619,0 0,0"/>
  </clipPath>
  <g clip-path="url(#cp00619354)">
   <polygon shape-rendering="crispEdges" fill="#ffffff" points="87.3639,145.668 188.464,145.668 188.464,33.3429 87.3639,33.3429"/>
   <polyline stroke-dasharray="16,0" stroke-width="0.5" fill="none" points="87.3639,145.668 188.464,145.668" stroke-linecap="square" stroke-linejoin="miter" stroke="#262626"/>
   <polyline stroke-dasharray="16,0" stroke-width="0.5" fill="none" points="87.3639,33.3429 188.464,33.3429" stroke-linecap="square" stroke-linejoin="miter" stroke="#262626"/>
   <polyline stroke-dasharray="16,0" stroke-width="0.5" fill="none" points="87.3639,145.668 87.3639,33.3429" stroke-linecap="square" stroke-linejoin="miter" stroke="#262626"/>
   <polyline stroke-dasharray="16,0" stroke-width="0.5" fill="none" points="188.464,145.668 188.464,33.3429" stroke-linecap="square" stroke-linejoin="miter" stroke="#262626"/>
   <polyline stroke-width="0.5" fill="none" points="90.7515,44.7304 107.689,44.7304" stroke-linecap="butt" stroke-linejoin="round" stroke="#0071bc"/>
   <text xml:space="preserve" font-weight="normal" font-style="normal" font-size="20" font-family="FreeSans" transform="translate(111.077,52.7304) rotate(-0,-0,-8)">
    <tspan x="0 14 25 36 " fill="rgb(0,0,0)" y="-0">Real</tspan>
   </text>
   <polyline stroke-width="0.5" fill="none" points="90.7515,65.618 107.689,65.618" stroke-linecap="butt" stroke-linejoin="round" stroke="#d85218"/>
   <text xml:space="preserve" font-weight="normal" font-style="normal" font-size="20" font-family="FreeSans" transform="translate(111.077,75.118) rotate(-0,-0,-9.5)">
    <tspan x="0 " fill="rgb(0,0,0)" y="-3">I</tspan>
    <tspan x="6 " fill="rgb(0,0,0)" font-size="14" y="-0">c</tspan>
    <tspan x="13 18 30 35 46 52 63 " fill="rgb(0,0,0)" y="-3"> = 0,03</tspan>
   </text>
   <polyline stroke-width="0.5" fill="none" points="90.7515,88.0056 107.689,88.0056" stroke-linecap="butt" stroke-linejoin="round" stroke="#ecb01f"/>
   <text xml:space="preserve" font-weight="normal" font-style="normal" font-size="20" font-family="FreeSans" transform="translate(111.077,97.5056) rotate(-0,-0,-9.5)">
    <tspan x="0 " fill="rgb(0,0,0)" y="-3">I</tspan>
    <tspan x="6 " fill="rgb(0,0,0)" font-size="14" y="-0">c</tspan>
    <tspan x="13 18 30 35 46 52 63 " fill="rgb(0,0,0)" y="-3"> = 0,06</tspan>
   </text>
   <polyline stroke-width="0.5" fill="none" points="90.7515,110.393 107.689,110.393" stroke-linecap="butt" stroke-linejoin="round" stroke="#7d2e8d"/>
   <text xml:space="preserve" font-weight="normal" font-style="normal" font-size="20" font-family="FreeSans" transform="translate(111.077,119.893) rotate(-0,-0,-9.5)">
    <tspan x="0 " fill="rgb(0,0,0)" y="-3">I</tspan>
    <tspan x="6 " fill="rgb(0,0,0)" font-size="14" y="-0">c</tspan>
    <tspan x="13 18 30 35 46 52 63 " fill="rgb(0,0,0)" y="-3"> = 0,09</tspan>
   </text>
   <polyline stroke-width="0.5" fill="none" points="90.7515,132.781 107.689,132.781" stroke-linecap="butt" stroke-linejoin="round" stroke="#76ab2f"/>
   <text xml:space="preserve" font-weight="normal" font-style="normal" font-size="20" font-family="FreeSans" transform="translate(111.077,142.281) rotate(-0,-0,-9.5)">
    <tspan x="0 " fill="rgb(0,0,0)" y="-3">I</tspan>
    <tspan x="6 " fill="rgb(0,0,0)" font-size="14" y="-0">c</tspan>
    <tspan x="13 18 30 35 46 52 63 " fill="rgb(0,0,0)" y="-3"> = 0,12</tspan>
   </text>
  </g>
 </g>
</svg>
