<?xml version='1.0' encoding='UTF-8' standalone='no'?>
<svg xmlns="http://www.w3.org/2000/svg" xmlns:xlink="http://www.w3.org/1999/xlink" height="354pt" viewBox="0 0 619 354" width="619pt">
 <title>gl2ps_renderer figure</title>
 <desc>
Creator: GL2PS 1.4.2, (C) 1999-2020 C. Geuzaine
For: Octave
CreationDate: Mon Nov 14 01:12:15 2022
</desc>
 <defs/>
 <polygon points="0,0 619,0 619,354 0,354" fill="#ffffff"/>
 <g>
  <polygon points="0,354 619,354 619,0 0,0" shape-rendering="crispEdges" fill="#ffffff"/>
  <clipPath id="cp00619354">
   <polygon points="0,354 619,354 619,0 0,0"/>
  </clipPath>
  <g clip-path="url(#cp00619354)">
   <polygon points="80.5888,315.27 561.022,315.27 561.022,26.5677 80.5888,26.5677" shape-rendering="crispEdges" fill="#ffffff"/>
   <polyline points="80.5888,315.27 80.5888,26.5677" stroke-width="0.5" fill="none" stroke-linejoin="miter" stroke="#262626" stroke-opacity="0.15" stroke-dasharray="16,0" stroke-linecap="butt"/>
   <polyline points="196.635,315.27 196.635,26.5677" stroke-width="0.5" fill="none" stroke-linejoin="miter" stroke="#262626" stroke-opacity="0.15" stroke-dasharray="16,0" stroke-linecap="butt"/>
   <polyline points="312.682,315.27 312.682,26.5677" stroke-width="0.5" fill="none" stroke-linejoin="miter" stroke="#262626" stroke-opacity="0.15" stroke-dasharray="16,0" stroke-linecap="butt"/>
   <polyline points="428.729,315.27 428.729,26.5677" stroke-width="0.5" fill="none" stroke-linejoin="miter" stroke="#262626" stroke-opacity="0.15" stroke-dasharray="16,0" stroke-linecap="butt"/>
   <polyline points="544.776,315.27 544.776,26.5677" stroke-width="0.5" fill="none" stroke-linejoin="miter" stroke="#262626" stroke-opacity="0.15" stroke-dasharray="16,0" stroke-linecap="butt"/>
   <polyline points="80.5888,315.27 80.5888,310.471" stroke-width="0.5" fill="none" stroke-linejoin="miter" stroke="#262626" stroke-linecap="butt"/>
   <polyline points="80.5888,26.5677 80.5888,31.3671" stroke-width="0.5" fill="none" stroke-linejoin="miter" stroke="#262626" stroke-linecap="butt"/>
   <polyline points="196.635,315.27 196.635,310.471" stroke-width="0.5" fill="none" stroke-linejoin="miter" stroke="#262626" stroke-linecap="butt"/>
   <polyline points="196.635,26.5677 196.635,31.3671" stroke-width="0.5" fill="none" stroke-linejoin="miter" stroke="#262626" stroke-linecap="butt"/>
   <polyline points="312.682,315.27 312.682,310.471" stroke-width="0.5" fill="none" stroke-linejoin="miter" stroke="#262626" stroke-linecap="butt"/>
   <polyline points="312.682,26.5677 312.682,31.3671" stroke-width="0.5" fill="none" stroke-linejoin="miter" stroke="#262626" stroke-linecap="butt"/>
   <polyline points="428.729,315.27 428.729,310.471" stroke-width="0.5" fill="none" stroke-linejoin="miter" stroke="#262626" stroke-linecap="butt"/>
   <polyline points="428.729,26.5677 428.729,31.3671" stroke-width="0.5" fill="none" stroke-linejoin="miter" stroke="#262626" stroke-linecap="butt"/>
   <polyline points="544.776,315.27 544.776,310.471" stroke-width="0.5" fill="none" stroke-linejoin="miter" stroke="#262626" stroke-linecap="butt"/>
   <polyline points="544.776,26.5677 544.776,31.3671" stroke-width="0.5" fill="none" stroke-linejoin="miter" stroke="#262626" stroke-linecap="butt"/>
   <text font-style="normal" font-weight="normal" font-size="10" font-family="FreeSans" transform="translate(77.5888,330.763) rotate(-0,3,-8)" xml:space="preserve">
    <tspan y="-0" fill="rgb(38,38,38)" x="0 ">0</tspan>
   </text>
   <text font-style="normal" font-weight="normal" font-size="10" font-family="FreeSans" transform="translate(189.135,330.763) rotate(-0,7.5,-8)" xml:space="preserve">
    <tspan y="-0" fill="rgb(38,38,38)" x="0 6 9 ">0.1</tspan>
   </text>
   <text font-style="normal" font-weight="normal" font-size="10" font-family="FreeSans" transform="translate(305.182,330.763) rotate(-0,7.5,-8)" xml:space="preserve">
    <tspan y="-0" fill="rgb(38,38,38)" x="0 6 9 ">0.2</tspan>
   </text>
   <text font-style="normal" font-weight="normal" font-size="10" font-family="FreeSans" transform="translate(421.229,330.763) rotate(-0,7.5,-8)" xml:space="preserve">
    <tspan y="-0" fill="rgb(38,38,38)" x="0 6 9 ">0.3</tspan>
   </text>
   <text font-style="normal" font-weight="normal" font-size="10" font-family="FreeSans" transform="translate(537.275,330.763) rotate(-0,7.5,-8)" xml:space="preserve">
    <tspan y="-0" fill="rgb(38,38,38)" x="0 6 9 ">0.4</tspan>
   </text>
   <polyline points="80.5888,315.27 561.022,315.27" stroke-width="0.5" fill="none" stroke-linejoin="miter" stroke="#262626" stroke-opacity="0.15" stroke-dasharray="16,0" stroke-linecap="butt"/>
   <polyline points="80.5888,243.095 561.022,243.095" stroke-width="0.5" fill="none" stroke-linejoin="miter" stroke="#262626" stroke-opacity="0.15" stroke-dasharray="16,0" stroke-linecap="butt"/>
   <polyline points="80.5888,170.919 561.022,170.919" stroke-width="0.5" fill="none" stroke-linejoin="miter" stroke="#262626" stroke-opacity="0.15" stroke-dasharray="16,0" stroke-linecap="butt"/>
   <polyline points="80.5888,98.7434 561.022,98.7434" stroke-width="0.5" fill="none" stroke-linejoin="miter" stroke="#262626" stroke-opacity="0.15" stroke-dasharray="16,0" stroke-linecap="butt"/>
   <polyline points="80.5888,26.5677 561.022,26.5677" stroke-width="0.5" fill="none" stroke-linejoin="miter" stroke="#262626" stroke-opacity="0.15" stroke-dasharray="16,0" stroke-linecap="butt"/>
   <polyline points="80.5888,315.27 85.3975,315.27" stroke-width="0.5" fill="none" stroke-linejoin="miter" stroke="#262626" stroke-linecap="butt"/>
   <polyline points="561.022,315.27 556.213,315.27" stroke-width="0.5" fill="none" stroke-linejoin="miter" stroke="#262626" stroke-linecap="butt"/>
   <polyline points="80.5888,243.095 85.3975,243.095" stroke-width="0.5" fill="none" stroke-linejoin="miter" stroke="#262626" stroke-linecap="butt"/>
   <polyline points="561.022,243.095 556.213,243.095" stroke-width="0.5" fill="none" stroke-linejoin="miter" stroke="#262626" stroke-linecap="butt"/>
   <polyline points="80.5888,170.919 85.3975,170.919" stroke-width="0.5" fill="none" stroke-linejoin="miter" stroke="#262626" stroke-linecap="butt"/>
   <polyline points="561.022,170.919 556.213,170.919" stroke-width="0.5" fill="none" stroke-linejoin="miter" stroke="#262626" stroke-linecap="butt"/>
   <polyline points="80.5888,98.7434 85.3975,98.7434" stroke-width="0.5" fill="none" stroke-linejoin="miter" stroke="#262626" stroke-linecap="butt"/>
   <polyline points="561.022,98.7434 556.213,98.7434" stroke-width="0.5" fill="none" stroke-linejoin="miter" stroke="#262626" stroke-linecap="butt"/>
   <polyline points="80.5888,26.5677 85.3975,26.5677" stroke-width="0.5" fill="none" stroke-linejoin="miter" stroke="#262626" stroke-linecap="butt"/>
   <polyline points="561.022,26.5677 556.213,26.5677" stroke-width="0.5" fill="none" stroke-linejoin="miter" stroke="#262626" stroke-linecap="butt"/>
   <text font-style="normal" font-weight="normal" font-size="10" font-family="FreeSans" transform="translate(57.5843,319.27) rotate(-0,18,-4)" xml:space="preserve">
    <tspan y="-0" fill="rgb(38,38,38)" x="0 3 9 12 ">-0.5</tspan>
   </text>
   <text font-style="normal" font-weight="normal" font-size="10" font-family="FreeSans" transform="translate(69.5843,247.095) rotate(-0,6,-4)" xml:space="preserve">
    <tspan y="-0" fill="rgb(38,38,38)" x="0 ">0</tspan>
   </text>
   <text font-style="normal" font-weight="normal" font-size="10" font-family="FreeSans" transform="translate(60.5843,174.919) rotate(-0,15,-4)" xml:space="preserve">
    <tspan y="-0" fill="rgb(38,38,38)" x="0 6 9 ">0.5</tspan>
   </text>
   <text font-style="normal" font-weight="normal" font-size="10" font-family="FreeSans" transform="translate(69.5843,102.743) rotate(-0,6,-4)" xml:space="preserve">
    <tspan y="-0" fill="rgb(38,38,38)" x="0 ">1</tspan>
   </text>
   <text font-style="normal" font-weight="normal" font-size="10" font-family="FreeSans" transform="translate(60.5843,30.5677) rotate(-0,15,-4)" xml:space="preserve">
    <tspan y="-0" fill="rgb(38,38,38)" x="0 6 9 ">1.5</tspan>
   </text>
   <polyline points="80.5888,315.27 561.022,315.27" stroke-width="0.5" fill="none" stroke-linejoin="miter" stroke="#262626" stroke-dasharray="16,0" stroke-linecap="square"/>
   <polyline points="80.5888,26.5677 561.022,26.5677" stroke-width="0.5" fill="none" stroke-linejoin="miter" stroke="#262626" stroke-dasharray="16,0" stroke-linecap="square"/>
   <polyline points="80.5888,315.27 80.5888,26.5677" stroke-width="0.5" fill="none" stroke-linejoin="miter" stroke="#262626" stroke-dasharray="16,0" stroke-linecap="square"/>
   <polyline points="561.022,315.27 561.022,26.5677" stroke-width="0.5" fill="none" stroke-linejoin="miter" stroke="#262626" stroke-dasharray="16,0" stroke-linecap="square"/>
   <text font-style="normal" font-weight="normal" font-size="11" font-family="FreeSans" transform="translate(297.305,347.763) rotate(-0,23.5,-12)" xml:space="preserve">
    <tspan y="-3" fill="rgb(38,38,38)" x="0 7 13 22 28 34 38 43 ">Tempo(s)</tspan>
   </text>
   <text font-style="normal" font-weight="normal" font-size="11" font-family="FreeSans" transform="translate(24.0843,170.919) rotate(-90,28.5,0)" xml:space="preserve">
    <tspan y="-3" fill="rgb(38,38,38)" x="0 7 13 19 25 27 33 37 41 47 53 ">Ângulo(rad)</tspan>
   </text>
   <polyline points="80.5888,271.556 82.9097,271.555 85.2307,271.555 87.5516,271.553 89.8725,271.568 92.1935,271.56 94.5144,271.537 96.8353,271.511 99.1563,271.463 101.477,271.426 103.798,271.403 106.119,271.38 108.44,271.355 110.761,271.322 113.082,271.281 115.403,271.247 117.724,271.195 120.045,271.132 122.366,271.07 124.687,271.026 127.007,270.989 129.328,270.96 131.649,270.91 133.97,270.868 136.291,270.828 138.612,270.783 140.933,270.749 143.254,270.707 145.575,270.638 147.896,270.584 150.217,270.507 152.538,270.43 154.859,270.398 157.18,270.334 159.501,270.265 161.821,270.19 164.142,270.117 166.463,270.05 168.784,269.997 171.105,269.941 173.426,269.854 175.747,269.787 178.068,269.709 180.389,269.622 182.71,269.581 185.031,269.473 187.352,269.382 189.673,269.277 191.994,269.181 194.315,269.106 196.635,269.024 198.956,268.889 201.277,268.77 203.598,268.686 205.919,268.603 208.24,268.513 210.561,268.393 212.882,268.281 215.203,268.191 217.524,268.035 219.845,267.928 222.166,267.773 224.487,267.68 226.808,267.588 229.129,267.457 231.449,267.342 233.77,267.188 236.091,267.09 238.412,266.947 240.733,266.814 243.054,266.677 245.375,266.509 247.696,266.359 250.017,266.221 252.338,266.059 254.659,265.899 256.98,265.729 259.301,265.605 261.622,265.465 263.943,265.313 266.263,265.126 268.584,264.948 270.905,264.762 273.226,264.584 275.547,264.423 277.868,264.273 280.189,264.064 282.51,263.871 284.831,263.62 287.152,263.424 289.473,263.192 291.794,263.002 294.115,262.762 296.436,262.531 298.757,262.287 301.077,262.078 303.398,261.82 305.719,261.554 308.04,261.31 310.361,261.046 312.682,260.768 315.003,260.557 317.324,260.336 319.645,260.066 321.966,259.769 324.287,259.522 326.608,259.247 328.929,258.997 331.25,258.715 333.571,258.474 335.891,258.174 338.212,257.913 340.533,257.644 342.854,257.377 345.175,257.088 347.496,256.795 349.817,256.499 352.138,256.231 354.459,255.944 356.78,255.656 359.101,255.393 361.422,255.084 363.743,254.779 366.064,254.473 368.385,254.168 370.705,253.861 373.026,253.563 375.347,253.247 377.668,252.93 379.989,252.601 382.31,252.259 384.631,251.945 386.952,251.586 389.273,251.226 391.594,250.87 393.915,250.533 396.236,250.179 398.557,249.82 400.878,249.455 403.199,249.073 405.519,248.723 407.84,248.376 410.161,248.053 412.482,247.686 414.803,247.334 417.124,246.99 419.445,246.656 421.766,246.349 424.087,245.961 426.408,245.63 428.729,245.283 431.05,244.897 433.371,244.48 435.692,244.095 438.013,243.732 440.333,243.333 442.654,242.853 444.975,242.404 447.296,241.982 449.617,241.526 451.938,241.02 454.259,240.583 456.58,240.149 458.901,239.733 461.222,239.249 463.543,238.743 465.864,238.28 468.185,237.881 470.506,237.433 472.827,237.018 475.147,236.56 477.468,236.178 479.789,235.652 482.11,235.225 484.431,234.683 486.752,234.061 489.073,233.125 491.394,232.414 493.715,231.212 496.036,230.499 498.357,229.525 500.678,228.491 502.999,227.515 505.32,226.523 507.641,225.393 509.961,224.746 512.282,224.026 514.603,222.747 516.924,221.804 519.245,220.737 521.566,219.993 523.887,218.984 526.208,217.671 528.529,216.359 530.85,215.22 533.171,213.651 535.492,212.723 537.813,211.698 540.134,210.136 542.455,209.035 544.776,207.649 547.096,206.394 549.417,205.387 551.738,203.997 554.059,202.938 556.38,201.788 558.701,200.266 561.022,198.981" stroke-width="0.5" fill="none" stroke-linejoin="round" stroke="#0071bc" stroke-linecap="butt"/>
   <polyline points="80.5888,271.556 82.9097,271.52 85.2307,271.42 87.5516,271.267 89.8725,271.07 92.1935,270.835 94.5144,270.568 96.8353,270.274 99.1563,269.958 101.477,269.622 103.798,269.269 106.119,268.903 108.44,268.523 110.761,268.133 113.082,267.733 115.403,267.325 117.724,266.909 120.045,266.486 122.366,266.057 124.687,265.622 127.007,265.181 129.328,264.735 131.649,264.285 133.97,263.829 136.291,263.369 138.612,262.905 140.933,262.437 143.254,261.964 145.575,261.487 147.896,261.006 150.217,260.521 152.538,260.032 154.859,259.539 157.18,259.042 159.501,258.541 161.821,258.035 164.142,257.526 166.463,257.013 168.784,256.495 171.105,255.974 173.426,255.448 175.747,254.918 178.068,254.384 180.389,253.846 182.71,253.303 185.031,252.756 187.352,252.205 189.673,251.65 191.994,251.09 194.315,250.525 196.635,249.956 198.956,249.383 201.277,248.805 203.598,248.222 205.919,247.634 208.24,247.042 210.561,246.446 212.882,245.844 215.203,245.238 217.524,244.627 219.845,244.011 222.166,243.389 224.487,242.763 226.808,242.132 229.129,241.496 231.449,240.855 233.77,240.209 236.091,239.557 238.412,238.9 240.733,238.238 243.054,237.57 245.375,236.897 247.696,236.219 250.017,235.535 252.338,234.846 254.659,234.151 256.98,233.45 259.301,232.744 261.622,232.032 263.943,231.314 266.263,230.59 268.584,229.86 270.905,229.125 273.226,228.383 275.547,227.636 277.868,226.882 280.189,226.122 282.51,225.356 284.831,224.584 287.152,223.806 289.473,223.021 291.794,222.229 294.115,221.432 296.436,220.627 298.757,219.816 301.077,218.999 303.398,218.174 305.719,217.343 308.04,216.506 310.361,215.661 312.682,214.809 315.003,213.95 317.324,213.085 319.645,212.212 321.966,211.332 324.287,210.445 326.608,209.55 328.929,208.648 331.25,207.739 333.571,206.822 335.891,205.898 338.212,204.966 340.533,204.026 342.854,203.078 345.175,202.123 347.496,201.16 349.817,200.189 352.138,199.21 354.459,198.222 356.78,197.227 359.101,196.223 361.422,195.211 363.743,194.191 366.064,193.162 368.385,192.125 370.705,191.079 373.026,190.025 375.347,188.962 377.668,187.89 379.989,186.809 382.31,185.719 384.631,184.62 386.952,183.512 389.273,182.395 391.594,181.268 393.915,180.132 396.236,178.987 398.557,177.832 400.878,176.668 403.199,175.494 405.519,174.31 407.84,173.116 410.161,171.913 412.482,170.699 414.803,169.476 417.124,168.242 419.445,166.998 421.766,165.743 424.087,164.478 426.408,163.203 428.729,161.917 431.05,160.62 433.371,159.313 435.692,157.994 438.013,156.665 440.333,155.325 442.654,153.973 444.975,152.61 447.296,151.236 449.617,149.85 451.938,148.453 454.259,147.044 456.58,145.623 458.901,144.191 461.222,142.746 463.543,141.29 465.864,139.821 468.185,138.34 470.506,136.847 472.827,135.341 475.147,133.823 477.468,132.292 479.789,130.749 482.11,129.192 484.431,127.622 486.752,126.04 489.073,124.444 491.394,122.834 493.715,121.212 496.036,119.575 498.357,117.925 500.678,116.262 502.999,114.584 505.32,112.892 507.641,111.187 509.961,109.467 512.282,107.732 514.603,105.983 516.924,104.22 519.245,102.441 521.566,100.648 523.887,98.84 526.208,97.0167 528.529,95.1782 530.85,93.3242 533.171,91.4548 535.492,89.5697 537.813,87.6689 540.134,85.7521 542.455,83.8193 544.776,81.8703 547.096,79.9051 549.417,77.9233 551.738,75.925 554.059,73.9099 556.38,71.878 558.701,69.8291 561.022,67.763" stroke-width="0.5" fill="none" stroke-linejoin="round" stroke="#d85218" stroke-linecap="butt"/>
   <polyline points="80.5888,271.556 82.9097,271.537 85.2307,271.484 87.5516,271.403 89.8725,271.296 92.1935,271.168 94.5144,271.021 96.8353,270.858 99.1563,270.681 101.477,270.492 103.798,270.292 106.119,270.082 108.44,269.865 110.761,269.64 113.082,269.409 115.403,269.171 117.724,268.929 120.045,268.681 122.366,268.43 124.687,268.174 127.007,267.914 129.328,267.651 131.649,267.384 133.97,267.115 136.291,266.842 138.612,266.567 140.933,266.289 143.254,266.008 145.575,265.724 147.896,265.438 150.217,265.15 152.538,264.859 154.859,264.565 157.18,264.27 159.501,263.971 161.821,263.671 164.142,263.368 166.463,263.063 168.784,262.755 171.105,262.445 173.426,262.133 175.747,261.818 178.068,261.501 180.389,261.182 182.71,260.86 185.031,260.536 187.352,260.209 189.673,259.88 191.994,259.549 194.315,259.215 196.635,258.879 198.956,258.54 201.277,258.199 203.598,257.855 205.919,257.509 208.24,257.161 210.561,256.809 212.882,256.456 215.203,256.1 217.524,255.741 219.845,255.38 222.166,255.016 224.487,254.649 226.808,254.28 229.129,253.908 231.449,253.534 233.77,253.157 236.091,252.777 238.412,252.395 240.733,252.009 243.054,251.622 245.375,251.231 247.696,250.838 250.017,250.441 252.338,250.042 254.659,249.641 256.98,249.236 259.301,248.828 261.622,248.418 263.943,248.005 266.263,247.589 268.584,247.17 270.905,246.748 273.226,246.323 275.547,245.895 277.868,245.464 280.189,245.03 282.51,244.593 284.831,244.153 287.152,243.71 289.473,243.264 291.794,242.815 294.115,242.363 296.436,241.907 298.757,241.449 301.077,240.987 303.398,240.522 305.719,240.054 308.04,239.582 310.361,239.107 312.682,238.629 315.003,238.148 317.324,237.663 319.645,237.175 321.966,236.684 324.287,236.189 326.608,235.691 328.929,235.19 331.25,234.685 333.571,234.176 335.891,233.664 338.212,233.149 340.533,232.63 342.854,232.107 345.175,231.581 347.496,231.051 349.817,230.518 352.138,229.981 354.459,229.44 356.78,228.896 359.101,228.348 361.422,227.796 363.743,227.241 366.064,226.681 368.385,226.118 370.705,225.551 373.026,224.98 375.347,224.405 377.668,223.827 379.989,223.244 382.31,222.658 384.631,222.067 386.952,221.472 389.273,220.874 391.594,220.271 393.915,219.664 396.236,219.054 398.557,218.439 400.878,217.819 403.199,217.196 405.519,216.568 407.84,215.937 410.161,215.301 412.482,214.66 414.803,214.016 417.124,213.366 419.445,212.713 421.766,212.055 424.087,211.393 426.408,210.726 428.729,210.055 431.05,209.379 433.371,208.699 435.692,208.014 438.013,207.324 440.333,206.63 442.654,205.931 444.975,205.228 447.296,204.52 449.617,203.807 451.938,203.089 454.259,202.366 456.58,201.639 458.901,200.906 461.222,200.169 463.543,199.427 465.864,198.679 468.185,197.927 470.506,197.17 472.827,196.408 475.147,195.64 477.468,194.868 479.789,194.09 482.11,193.307 484.431,192.519 486.752,191.725 489.073,190.926 491.394,190.122 493.715,189.313 496.036,188.498 498.357,187.677 500.678,186.851 502.999,186.02 505.32,185.183 507.641,184.34 509.961,183.492 512.282,182.638 514.603,181.779 516.924,180.914 519.245,180.042 521.566,179.166 523.887,178.283 526.208,177.394 528.529,176.5 530.85,175.599 533.171,174.693 535.492,173.78 537.813,172.862 540.134,171.937 542.455,171.006 544.776,170.069 547.096,169.126 549.417,168.176 551.738,167.22 554.059,166.258 556.38,165.289 558.701,164.314 561.022,163.332" stroke-width="0.5" fill="none" stroke-linejoin="round" stroke="#ecb01f" stroke-linecap="butt"/>
   <polyline points="80.5888,271.556 82.9097,271.543 85.2307,271.507 87.5516,271.452 89.8725,271.378 92.1935,271.29 94.5144,271.189 96.8353,271.076 99.1563,270.953 101.477,270.822 103.798,270.683 106.119,270.536 108.44,270.384 110.761,270.226 113.082,270.064 115.403,269.896 117.724,269.725 120.045,269.551 122.366,269.373 124.687,269.192 127.007,269.008 129.328,268.822 131.649,268.633 133.97,268.441 136.291,268.248 138.612,268.052 140.933,267.855 143.254,267.655 145.575,267.453 147.896,267.25 150.217,267.045 152.538,266.838 154.859,266.629 157.18,266.418 159.501,266.206 161.821,265.992 164.142,265.777 166.463,265.559 168.784,265.341 171.105,265.12 173.426,264.898 175.747,264.674 178.068,264.448 180.389,264.221 182.71,263.993 185.031,263.762 187.352,263.53 189.673,263.296 191.994,263.061 194.315,262.824 196.635,262.585 198.956,262.345 201.277,262.103 203.598,261.859 205.919,261.614 208.24,261.366 210.561,261.118 212.882,260.867 215.203,260.615 217.524,260.361 219.845,260.105 222.166,259.847 224.487,259.588 226.808,259.327 229.129,259.065 231.449,258.8 233.77,258.534 236.091,258.266 238.412,257.996 240.733,257.724 243.054,257.451 245.375,257.175 247.696,256.898 250.017,256.619 252.338,256.339 254.659,256.056 256.98,255.771 259.301,255.485 261.622,255.197 263.943,254.907 266.263,254.614 268.584,254.32 270.905,254.025 273.226,253.727 275.547,253.427 277.868,253.125 280.189,252.822 282.51,252.516 284.831,252.209 287.152,251.899 289.473,251.588 291.794,251.274 294.115,250.959 296.436,250.641 298.757,250.322 301.077,250 303.398,249.676 305.719,249.351 308.04,249.023 310.361,248.693 312.682,248.361 315.003,248.027 317.324,247.691 319.645,247.353 321.966,247.012 324.287,246.67 326.608,246.325 328.929,245.978 331.25,245.629 333.571,245.278 335.891,244.925 338.212,244.569 340.533,244.211 342.854,243.851 345.175,243.489 347.496,243.125 349.817,242.758 352.138,242.389 354.459,242.018 356.78,241.644 359.101,241.268 361.422,240.89 363.743,240.509 366.064,240.126 368.385,239.741 370.705,239.354 373.026,238.964 375.347,238.571 377.668,238.177 379.989,237.779 382.31,237.38 384.631,236.978 386.952,236.573 389.273,236.166 391.594,235.757 393.915,235.345 396.236,234.931 398.557,234.514 400.878,234.094 403.199,233.672 405.519,233.248 407.84,232.821 410.161,232.391 412.482,231.959 414.803,231.524 417.124,231.087 419.445,230.647 421.766,230.204 424.087,229.758 426.408,229.31 428.729,228.86 431.05,228.406 433.371,227.95 435.692,227.491 438.013,227.029 440.333,226.565 442.654,226.098 444.975,225.628 447.296,225.155 449.617,224.68 451.938,224.201 454.259,223.72 456.58,223.236 458.901,222.749 461.222,222.259 463.543,221.767 465.864,221.271 468.185,220.772 470.506,220.271 472.827,219.766 475.147,219.259 477.468,218.748 479.789,218.235 482.11,217.718 484.431,217.199 486.752,216.676 489.073,216.15 491.394,215.622 493.715,215.09 496.036,214.555 498.357,214.017 500.678,213.475 502.999,212.931 505.32,212.383 507.641,211.832 509.961,211.278 512.282,210.721 514.603,210.16 516.924,209.596 519.245,209.029 521.566,208.458 523.887,207.884 526.208,207.307 528.529,206.727 530.85,206.143 533.171,205.555 535.492,204.965 537.813,204.37 540.134,203.773 542.455,203.172 544.776,202.567 547.096,201.959 549.417,201.347 551.738,200.732 554.059,200.113 556.38,199.491 558.701,198.865 561.022,198.235" stroke-width="0.5" fill="none" stroke-linejoin="round" stroke="#7d2e8d" stroke-linecap="butt"/>
   <polyline points="80.5888,271.556 82.9097,271.546 85.2307,271.519 87.5516,271.477 89.8725,271.421 92.1935,271.354 94.5144,271.277 96.8353,271.191 99.1563,271.097 101.477,270.996 103.798,270.889 106.119,270.776 108.44,270.659 110.761,270.538 113.082,270.412 115.403,270.284 117.724,270.152 120.045,270.017 122.366,269.879 124.687,269.739 127.007,269.597 129.328,269.453 131.649,269.306 133.97,269.158 136.291,269.008 138.612,268.856 140.933,268.703 143.254,268.548 145.575,268.392 147.896,268.234 150.217,268.075 152.538,267.914 154.859,267.752 157.18,267.589 159.501,267.424 161.821,267.258 164.142,267.091 166.463,266.922 168.784,266.752 171.105,266.581 173.426,266.409 175.747,266.235 178.068,266.06 180.389,265.884 182.71,265.706 185.031,265.527 187.352,265.347 189.673,265.166 191.994,264.984 194.315,264.8 196.635,264.615 198.956,264.428 201.277,264.241 203.598,264.052 205.919,263.862 208.24,263.67 210.561,263.478 212.882,263.284 215.203,263.088 217.524,262.892 219.845,262.694 222.166,262.494 224.487,262.294 226.808,262.092 229.129,261.889 231.449,261.684 233.77,261.478 236.091,261.271 238.412,261.063 240.733,260.853 243.054,260.642 245.375,260.429 247.696,260.215 250.017,260 252.338,259.783 254.659,259.565 256.98,259.346 259.301,259.125 261.622,258.903 263.943,258.679 266.263,258.454 268.584,258.228 270.905,258 273.226,257.771 275.547,257.54 277.868,257.308 280.189,257.075 282.51,256.84 284.831,256.603 287.152,256.365 289.473,256.126 291.794,255.885 294.115,255.643 296.436,255.4 298.757,255.154 301.077,254.908 303.398,254.66 305.719,254.41 308.04,254.159 310.361,253.906 312.682,253.652 315.003,253.396 317.324,253.139 319.645,252.88 321.966,252.62 324.287,252.358 326.608,252.095 328.929,251.83 331.25,251.563 333.571,251.295 335.891,251.025 338.212,250.754 340.533,250.481 342.854,250.207 345.175,249.931 347.496,249.653 349.817,249.374 352.138,249.093 354.459,248.81 356.78,248.526 359.101,248.24 361.422,247.953 363.743,247.664 366.064,247.373 368.385,247.081 370.705,246.787 373.026,246.491 375.347,246.193 377.668,245.894 379.989,245.593 382.31,245.29 384.631,244.986 386.952,244.68 389.273,244.372 391.594,244.063 393.915,243.751 396.236,243.438 398.557,243.123 400.878,242.807 403.199,242.488 405.519,242.168 407.84,241.846 410.161,241.522 412.482,241.197 414.803,240.869 417.124,240.54 419.445,240.209 421.766,239.876 424.087,239.541 426.408,239.204 428.729,238.866 431.05,238.525 433.371,238.183 435.692,237.839 438.013,237.493 440.333,237.145 442.654,236.795 444.975,236.443 447.296,236.089 449.617,235.733 451.938,235.376 454.259,235.016 456.58,234.654 458.901,234.291 461.222,233.925 463.543,233.557 465.864,233.188 468.185,232.816 470.506,232.443 472.827,232.067 475.147,231.689 477.468,231.309 479.789,230.928 482.11,230.544 484.431,230.158 486.752,229.77 489.073,229.379 491.394,228.987 493.715,228.593 496.036,228.196 498.357,227.798 500.678,227.397 502.999,226.994 505.32,226.589 507.641,226.181 509.961,225.772 512.282,225.36 514.603,224.946 516.924,224.53 519.245,224.112 521.566,223.691 523.887,223.268 526.208,222.843 528.529,222.416 530.85,221.986 533.171,221.554 535.492,221.12 537.813,220.684 540.134,220.245 542.455,219.804 544.776,219.36 547.096,218.914 549.417,218.466 551.738,218.016 554.059,217.563 556.38,217.107 558.701,216.649 561.022,216.189" stroke-width="0.5" fill="none" stroke-linejoin="round" stroke="#76ab2f" stroke-linecap="butt"/>
  </g>
  <clipPath id="cp00619354">
   <polygon points="0,354 619,354 619,0 0,0"/>
  </clipPath>
  <g clip-path="url(#cp00619354)">
   <polygon points="87.3639,308.495 188.464,308.495 188.464,196.17 87.3639,196.17" shape-rendering="crispEdges" fill="#ffffff"/>
   <polyline points="87.3639,308.495 188.464,308.495" stroke-width="0.5" fill="none" stroke-linejoin="miter" stroke="#262626" stroke-dasharray="16,0" stroke-linecap="square"/>
   <polyline points="87.3639,196.17 188.464,196.17" stroke-width="0.5" fill="none" stroke-linejoin="miter" stroke="#262626" stroke-dasharray="16,0" stroke-linecap="square"/>
   <polyline points="87.3639,308.495 87.3639,196.17" stroke-width="0.5" fill="none" stroke-linejoin="miter" stroke="#262626" stroke-dasharray="16,0" stroke-linecap="square"/>
   <polyline points="188.464,308.495 188.464,196.17" stroke-width="0.5" fill="none" stroke-linejoin="miter" stroke="#262626" stroke-dasharray="16,0" stroke-linecap="square"/>
   <polyline points="90.7515,207.557 107.689,207.557" stroke-width="0.5" fill="none" stroke-linejoin="round" stroke="#0071bc" stroke-linecap="butt"/>
   <text font-style="normal" font-weight="normal" font-size="20" font-family="FreeSans" transform="translate(111.077,215.557) rotate(-0,-0,-8)" xml:space="preserve">
    <tspan y="-0" fill="rgb(0,0,0)" x="0 14 25 36 ">Real</tspan>
   </text>
   <polyline points="90.7515,228.445 107.689,228.445" stroke-width="0.5" fill="none" stroke-linejoin="round" stroke="#d85218" stroke-linecap="butt"/>
   <text font-style="normal" font-weight="normal" font-size="20" font-family="FreeSans" transform="translate(111.077,237.945) rotate(-0,-0,-9.5)" xml:space="preserve">
    <tspan y="-3" fill="rgb(0,0,0)" x="0 ">I</tspan>
    <tspan font-size="14" y="-0" fill="rgb(0,0,0)" x="6 ">c</tspan>
    <tspan y="-3" fill="rgb(0,0,0)" x="13 18 30 35 46 52 63 "> = 0,03</tspan>
   </text>
   <polyline points="90.7515,250.833 107.689,250.833" stroke-width="0.5" fill="none" stroke-linejoin="round" stroke="#ecb01f" stroke-linecap="butt"/>
   <text font-style="normal" font-weight="normal" font-size="20" font-family="FreeSans" transform="translate(111.077,260.333) rotate(-0,-0,-9.5)" xml:space="preserve">
    <tspan y="-3" fill="rgb(0,0,0)" x="0 ">I</tspan>
    <tspan font-size="14" y="-0" fill="rgb(0,0,0)" x="6 ">c</tspan>
    <tspan y="-3" fill="rgb(0,0,0)" x="13 18 30 35 46 52 63 "> = 0,06</tspan>
   </text>
   <polyline points="90.7515,273.22 107.689,273.22" stroke-width="0.5" fill="none" stroke-linejoin="round" stroke="#7d2e8d" stroke-linecap="butt"/>
   <text font-style="normal" font-weight="normal" font-size="20" font-family="FreeSans" transform="translate(111.077,282.72) rotate(-0,-0,-9.5)" xml:space="preserve">
    <tspan y="-3" fill="rgb(0,0,0)" x="0 ">I</tspan>
    <tspan font-size="14" y="-0" fill="rgb(0,0,0)" x="6 ">c</tspan>
    <tspan y="-3" fill="rgb(0,0,0)" x="13 18 30 35 46 52 63 "> = 0,09</tspan>
   </text>
   <polyline points="90.7515,295.608 107.689,295.608" stroke-width="0.5" fill="none" stroke-linejoin="round" stroke="#76ab2f" stroke-linecap="butt"/>
   <text font-style="normal" font-weight="normal" font-size="20" font-family="FreeSans" transform="translate(111.077,305.108) rotate(-0,-0,-9.5)" xml:space="preserve">
    <tspan y="-3" fill="rgb(0,0,0)" x="0 ">I</tspan>
    <tspan font-size="14" y="-0" fill="rgb(0,0,0)" x="6 ">c</tspan>
    <tspan y="-3" fill="rgb(0,0,0)" x="13 18 30 35 46 52 63 "> = 0,12</tspan>
   </text>
  </g>
 </g>
</svg>
