<?xml version='1.0' encoding='UTF-8' standalone='no'?>
<svg xmlns:xlink="http://www.w3.org/1999/xlink" width="619pt" viewBox="0 0 619 354" height="354pt" xmlns="http://www.w3.org/2000/svg">
 <title>gl2ps_renderer figure</title>
 <desc>
Creator: GL2PS 1.4.2, (C) 1999-2020 C. Geuzaine
For: Octave
CreationDate: Mon Nov 14 01:25:57 2022
</desc>
 <defs/>
 <polygon points="0,0 619,0 619,354 0,354" fill="#ffffff"/>
 <g>
  <polygon points="0,354 619,354 619,0 0,0" fill="#ffffff" shape-rendering="crispEdges"/>
  <clipPath id="cp00619354">
   <polygon points="0,354 619,354 619,0 0,0"/>
  </clipPath>
  <g clip-path="url(#cp00619354)">
   <polygon points="80.5888,315.27 561.022,315.27 561.022,26.5677 80.5888,26.5677" fill="#ffffff" shape-rendering="crispEdges"/>
   <polyline stroke-linecap="butt" stroke-width="0.5" stroke-linejoin="miter" points="80.5888,315.27 80.5888,26.5677" stroke-dasharray="16,0" stroke="#262626" stroke-opacity="0.15" fill="none"/>
   <polyline stroke-linecap="butt" stroke-width="0.5" stroke-linejoin="miter" points="196.635,315.27 196.635,26.5677" stroke-dasharray="16,0" stroke="#262626" stroke-opacity="0.15" fill="none"/>
   <polyline stroke-linecap="butt" stroke-width="0.5" stroke-linejoin="miter" points="312.682,315.27 312.682,26.5677" stroke-dasharray="16,0" stroke="#262626" stroke-opacity="0.15" fill="none"/>
   <polyline stroke-linecap="butt" stroke-width="0.5" stroke-linejoin="miter" points="428.729,315.27 428.729,26.5677" stroke-dasharray="16,0" stroke="#262626" stroke-opacity="0.15" fill="none"/>
   <polyline stroke-linecap="butt" stroke-width="0.5" stroke-linejoin="miter" points="544.776,315.27 544.776,26.5677" stroke-dasharray="16,0" stroke="#262626" stroke-opacity="0.15" fill="none"/>
   <polyline stroke-linecap="butt" stroke-width="0.5" stroke-linejoin="miter" points="80.5888,315.27 80.5888,310.471" stroke="#262626" fill="none"/>
   <polyline stroke-linecap="butt" stroke-width="0.5" stroke-linejoin="miter" points="80.5888,26.5677 80.5888,31.3671" stroke="#262626" fill="none"/>
   <polyline stroke-linecap="butt" stroke-width="0.5" stroke-linejoin="miter" points="196.635,315.27 196.635,310.471" stroke="#262626" fill="none"/>
   <polyline stroke-linecap="butt" stroke-width="0.5" stroke-linejoin="miter" points="196.635,26.5677 196.635,31.3671" stroke="#262626" fill="none"/>
   <polyline stroke-linecap="butt" stroke-width="0.5" stroke-linejoin="miter" points="312.682,315.27 312.682,310.471" stroke="#262626" fill="none"/>
   <polyline stroke-linecap="butt" stroke-width="0.5" stroke-linejoin="miter" points="312.682,26.5677 312.682,31.3671" stroke="#262626" fill="none"/>
   <polyline stroke-linecap="butt" stroke-width="0.5" stroke-linejoin="miter" points="428.729,315.27 428.729,310.471" stroke="#262626" fill="none"/>
   <polyline stroke-linecap="butt" stroke-width="0.5" stroke-linejoin="miter" points="428.729,26.5677 428.729,31.3671" stroke="#262626" fill="none"/>
   <polyline stroke-linecap="butt" stroke-width="0.5" stroke-linejoin="miter" points="544.776,315.27 544.776,310.471" stroke="#262626" fill="none"/>
   <polyline stroke-linecap="butt" stroke-width="0.5" stroke-linejoin="miter" points="544.776,26.5677 544.776,31.3671" stroke="#262626" fill="none"/>
   <text font-family="FreeSans" xml:space="preserve" font-weight="normal" font-style="normal" transform="translate(77.5888,330.763) rotate(-0,3,-8)" font-size="10">
    <tspan y="-0" x="0 " fill="rgb(38,38,38)">0</tspan>
   </text>
   <text font-family="FreeSans" xml:space="preserve" font-weight="normal" font-style="normal" transform="translate(189.135,330.763) rotate(-0,7.5,-8)" font-size="10">
    <tspan y="-0" x="0 6 9 " fill="rgb(38,38,38)">0.1</tspan>
   </text>
   <text font-family="FreeSans" xml:space="preserve" font-weight="normal" font-style="normal" transform="translate(305.182,330.763) rotate(-0,7.5,-8)" font-size="10">
    <tspan y="-0" x="0 6 9 " fill="rgb(38,38,38)">0.2</tspan>
   </text>
   <text font-family="FreeSans" xml:space="preserve" font-weight="normal" font-style="normal" transform="translate(421.229,330.763) rotate(-0,7.5,-8)" font-size="10">
    <tspan y="-0" x="0 6 9 " fill="rgb(38,38,38)">0.3</tspan>
   </text>
   <text font-family="FreeSans" xml:space="preserve" font-weight="normal" font-style="normal" transform="translate(537.275,330.763) rotate(-0,7.5,-8)" font-size="10">
    <tspan y="-0" x="0 6 9 " fill="rgb(38,38,38)">0.4</tspan>
   </text>
   <polyline stroke-linecap="butt" stroke-width="0.5" stroke-linejoin="miter" points="80.5888,315.27 561.022,315.27" stroke-dasharray="16,0" stroke="#262626" stroke-opacity="0.15" fill="none"/>
   <polyline stroke-linecap="butt" stroke-width="0.5" stroke-linejoin="miter" points="80.5888,257.53 561.022,257.53" stroke-dasharray="16,0" stroke="#262626" stroke-opacity="0.15" fill="none"/>
   <polyline stroke-linecap="butt" stroke-width="0.5" stroke-linejoin="miter" points="80.5888,199.789 561.022,199.789" stroke-dasharray="16,0" stroke="#262626" stroke-opacity="0.15" fill="none"/>
   <polyline stroke-linecap="butt" stroke-width="0.5" stroke-linejoin="miter" points="80.5888,142.049 561.022,142.049" stroke-dasharray="16,0" stroke="#262626" stroke-opacity="0.15" fill="none"/>
   <polyline stroke-linecap="butt" stroke-width="0.5" stroke-linejoin="miter" points="80.5888,84.3083 561.022,84.3083" stroke-dasharray="16,0" stroke="#262626" stroke-opacity="0.15" fill="none"/>
   <polyline stroke-linecap="butt" stroke-width="0.5" stroke-linejoin="miter" points="80.5888,26.5677 561.022,26.5677" stroke-dasharray="16,0" stroke="#262626" stroke-opacity="0.15" fill="none"/>
   <polyline stroke-linecap="butt" stroke-width="0.5" stroke-linejoin="miter" points="80.5888,315.27 85.3975,315.27" stroke="#262626" fill="none"/>
   <polyline stroke-linecap="butt" stroke-width="0.5" stroke-linejoin="miter" points="561.022,315.27 556.213,315.27" stroke="#262626" fill="none"/>
   <polyline stroke-linecap="butt" stroke-width="0.5" stroke-linejoin="miter" points="80.5888,257.53 85.3975,257.53" stroke="#262626" fill="none"/>
   <polyline stroke-linecap="butt" stroke-width="0.5" stroke-linejoin="miter" points="561.022,257.53 556.213,257.53" stroke="#262626" fill="none"/>
   <polyline stroke-linecap="butt" stroke-width="0.5" stroke-linejoin="miter" points="80.5888,199.789 85.3975,199.789" stroke="#262626" fill="none"/>
   <polyline stroke-linecap="butt" stroke-width="0.5" stroke-linejoin="miter" points="561.022,199.789 556.213,199.789" stroke="#262626" fill="none"/>
   <polyline stroke-linecap="butt" stroke-width="0.5" stroke-linejoin="miter" points="80.5888,142.049 85.3975,142.049" stroke="#262626" fill="none"/>
   <polyline stroke-linecap="butt" stroke-width="0.5" stroke-linejoin="miter" points="561.022,142.049 556.213,142.049" stroke="#262626" fill="none"/>
   <polyline stroke-linecap="butt" stroke-width="0.5" stroke-linejoin="miter" points="80.5888,84.3083 85.3975,84.3083" stroke="#262626" fill="none"/>
   <polyline stroke-linecap="butt" stroke-width="0.5" stroke-linejoin="miter" points="561.022,84.3083 556.213,84.3083" stroke="#262626" fill="none"/>
   <polyline stroke-linecap="butt" stroke-width="0.5" stroke-linejoin="miter" points="80.5888,26.5677 85.3975,26.5677" stroke="#262626" fill="none"/>
   <polyline stroke-linecap="butt" stroke-width="0.5" stroke-linejoin="miter" points="561.022,26.5677 556.213,26.5677" stroke="#262626" fill="none"/>
   <text font-family="FreeSans" xml:space="preserve" font-weight="normal" font-style="normal" transform="translate(57.5843,319.27) rotate(-0,18,-4)" font-size="10">
    <tspan y="-0" x="0 3 9 12 " fill="rgb(38,38,38)">-0.2</tspan>
   </text>
   <text font-family="FreeSans" xml:space="preserve" font-weight="normal" font-style="normal" transform="translate(69.5843,261.53) rotate(-0,6,-4)" font-size="10">
    <tspan y="-0" x="0 " fill="rgb(38,38,38)">0</tspan>
   </text>
   <text font-family="FreeSans" xml:space="preserve" font-weight="normal" font-style="normal" transform="translate(60.5843,203.789) rotate(-0,15,-4)" font-size="10">
    <tspan y="-0" x="0 6 9 " fill="rgb(38,38,38)">0.2</tspan>
   </text>
   <text font-family="FreeSans" xml:space="preserve" font-weight="normal" font-style="normal" transform="translate(60.5843,146.049) rotate(-0,15,-4)" font-size="10">
    <tspan y="-0" x="0 6 9 " fill="rgb(38,38,38)">0.4</tspan>
   </text>
   <text font-family="FreeSans" xml:space="preserve" font-weight="normal" font-style="normal" transform="translate(60.5843,88.3083) rotate(-0,15,-4)" font-size="10">
    <tspan y="-0" x="0 6 9 " fill="rgb(38,38,38)">0.6</tspan>
   </text>
   <text font-family="FreeSans" xml:space="preserve" font-weight="normal" font-style="normal" transform="translate(60.5843,30.5677) rotate(-0,15,-4)" font-size="10">
    <tspan y="-0" x="0 6 9 " fill="rgb(38,38,38)">0.8</tspan>
   </text>
   <polyline stroke-linecap="square" stroke-width="0.5" stroke-linejoin="miter" points="80.5888,315.27 561.022,315.27" stroke-dasharray="16,0" stroke="#262626" fill="none"/>
   <polyline stroke-linecap="square" stroke-width="0.5" stroke-linejoin="miter" points="80.5888,26.5677 561.022,26.5677" stroke-dasharray="16,0" stroke="#262626" fill="none"/>
   <polyline stroke-linecap="square" stroke-width="0.5" stroke-linejoin="miter" points="80.5888,315.27 80.5888,26.5677" stroke-dasharray="16,0" stroke="#262626" fill="none"/>
   <polyline stroke-linecap="square" stroke-width="0.5" stroke-linejoin="miter" points="561.022,315.27 561.022,26.5677" stroke-dasharray="16,0" stroke="#262626" fill="none"/>
   <text font-family="FreeSans" xml:space="preserve" font-weight="normal" font-style="normal" transform="translate(297.305,347.763) rotate(-0,23.5,-12)" font-size="11">
    <tspan y="-3" x="0 7 13 22 28 34 38 43 " fill="rgb(38,38,38)">Tempo(s)</tspan>
   </text>
   <text font-family="FreeSans" xml:space="preserve" font-weight="normal" font-style="normal" transform="translate(24.0843,170.919) rotate(-90,28.5,0)" font-size="11">
    <tspan y="-3" x="0 7 13 19 25 27 33 37 41 47 53 " fill="rgb(38,38,38)">Ângulo(rad)</tspan>
   </text>
   <polyline stroke-linecap="butt" stroke-width="0.5" stroke-linejoin="round" points="80.5888,314.452 82.9097,314.45 85.2307,314.45 87.5516,314.447 89.8725,314.476 92.1935,314.461 94.5144,314.415 96.8353,314.362 99.1563,314.267 101.477,314.193 103.798,314.147 106.119,314.101 108.44,314.051 110.761,313.984 113.082,313.901 115.403,313.834 117.724,313.73 120.045,313.604 122.366,313.48 124.687,313.392 127.007,313.318 129.328,313.259 131.649,313.16 133.97,313.076 136.291,312.997 138.612,312.907 140.933,312.838 143.254,312.754 145.575,312.617 147.896,312.508 150.217,312.355 152.538,312.2 154.859,312.136 157.18,312.008 159.501,311.87 161.821,311.721 164.142,311.574 166.463,311.44 168.784,311.334 171.105,311.223 173.426,311.048 175.747,310.914 178.068,310.759 180.389,310.585 182.71,310.501 185.031,310.286 187.352,310.104 189.673,309.894 191.994,309.703 194.315,309.553 196.635,309.389 198.956,309.118 201.277,308.88 203.598,308.713 205.919,308.546 208.24,308.367 210.561,308.126 212.882,307.903 215.203,307.722 217.524,307.411 219.845,307.196 222.166,306.885 224.487,306.7 226.808,306.516 229.129,306.255 231.449,306.024 233.77,305.717 236.091,305.521 238.412,305.234 240.733,304.968 243.054,304.694 245.375,304.358 247.696,304.058 250.017,303.782 252.338,303.458 254.659,303.137 256.98,302.799 259.301,302.55 261.622,302.27 263.943,301.967 266.263,301.592 268.584,301.237 270.905,300.865 273.226,300.508 275.547,300.186 277.868,299.887 280.189,299.468 282.51,299.081 284.831,298.58 287.152,298.189 289.473,297.725 291.794,297.345 294.115,296.864 296.436,296.403 298.757,295.915 301.077,295.497 303.398,294.981 305.719,294.448 308.04,293.96 310.361,293.433 312.682,292.877 315.003,292.455 317.324,292.012 319.645,291.473 321.966,290.878 324.287,290.384 326.608,289.835 328.929,289.334 331.25,288.77 333.571,288.289 335.891,287.688 338.212,287.167 340.533,286.628 342.854,286.095 345.175,285.516 347.496,284.93 349.817,284.337 352.138,283.803 354.459,283.229 356.78,282.653 359.101,282.127 361.422,281.508 363.743,280.898 366.064,280.286 368.385,279.676 370.705,279.063 373.026,278.465 375.347,277.834 377.668,277.2 379.989,276.542 382.31,275.859 384.631,275.231 386.952,274.513 389.273,273.792 391.594,273.08 393.915,272.406 396.236,271.699 398.557,270.98 400.878,270.251 403.199,269.487 405.519,268.786 407.84,268.092 410.161,267.446 412.482,266.713 414.803,266.008 417.124,265.321 419.445,264.652 421.766,264.038 424.087,263.263 426.408,262.601 428.729,261.906 431.05,261.134 433.371,260.301 435.692,259.53 438.013,258.804 440.333,258.006 442.654,257.046 444.975,256.148 447.296,255.304 449.617,254.393 451.938,253.38 454.259,252.506 456.58,251.639 458.901,250.807 461.222,249.838 463.543,248.826 465.864,247.9 468.185,247.101 470.506,246.207 472.827,245.377 475.147,244.461 477.468,243.697 479.789,242.644 482.11,241.791 484.431,240.707 486.752,239.463 489.073,237.59 491.394,236.169 493.715,233.764 496.036,232.338 498.357,230.391 500.678,228.322 502.999,226.37 505.32,224.387 507.641,222.127 509.961,220.833 512.282,219.393 514.603,216.834 516.924,214.949 519.245,212.815 521.566,211.327 523.887,209.309 526.208,206.683 528.529,204.058 530.85,201.78 533.171,198.643 535.492,196.787 537.813,194.736 540.134,191.612 542.455,189.41 544.776,186.639 547.096,184.129 549.417,182.114 551.738,179.334 554.059,177.215 556.38,174.916 558.701,171.873 561.022,169.302" stroke="#0071bc" fill="none"/>
   <polyline stroke-linecap="butt" stroke-width="0.5" stroke-linejoin="round" points="80.5888,314.452 82.9097,314.414 85.2307,314.308 87.5516,314.142 89.8725,313.925 92.1935,313.662 94.5144,313.36 96.8353,313.024 99.1563,312.659 101.477,312.267 103.798,311.853 106.119,311.419 108.44,310.968 110.761,310.502 113.082,310.022 115.403,309.531 117.724,309.029 120.045,308.518 122.366,307.999 124.687,307.473 127.007,306.94 129.328,306.402 131.649,305.858 133.97,305.309 136.291,304.756 138.612,304.2 140.933,303.639 143.254,303.075 145.575,302.508 147.896,301.938 150.217,301.365 152.538,300.789 154.859,300.211 157.18,299.631 159.501,299.047 161.821,298.462 164.142,297.874 166.463,297.285 168.784,296.693 171.105,296.098 173.426,295.502 175.747,294.903 178.068,294.303 180.389,293.7 182.71,293.095 185.031,292.488 187.352,291.879 189.673,291.267 191.994,290.654 194.315,290.038 196.635,289.42 198.956,288.8 201.277,288.177 203.598,287.553 205.919,286.926 208.24,286.296 210.561,285.665 212.882,285.031 215.203,284.394 217.524,283.756 219.845,283.114 222.166,282.471 224.487,281.824 226.808,281.176 229.129,280.524 231.449,279.871 233.77,279.214 236.091,278.555 238.412,277.893 240.733,277.229 243.054,276.562 245.375,275.892 247.696,275.219 250.017,274.543 252.338,273.865 254.659,273.184 256.98,272.5 259.301,271.812 261.622,271.122 263.943,270.429 266.263,269.733 268.584,269.034 270.905,268.332 273.226,267.626 275.547,266.918 277.868,266.206 280.189,265.491 282.51,264.773 284.831,264.051 287.152,263.326 289.473,262.598 291.794,261.867 294.115,261.132 296.436,260.393 298.757,259.651 301.077,258.906 303.398,258.157 305.719,257.404 308.04,256.648 310.361,255.888 312.682,255.125 315.003,254.358 317.324,253.587 319.645,252.812 321.966,252.033 324.287,251.251 326.608,250.464 328.929,249.674 331.25,248.88 333.571,248.081 335.891,247.279 338.212,246.473 340.533,245.662 342.854,244.847 345.175,244.028 347.496,243.205 349.817,242.378 352.138,241.546 354.459,240.71 356.78,239.87 359.101,239.025 361.422,238.176 363.743,237.322 366.064,236.464 368.385,235.601 370.705,234.734 373.026,233.862 375.347,232.985 377.668,232.104 379.989,231.217 382.31,230.326 384.631,229.431 386.952,228.53 389.273,227.624 391.594,226.714 393.915,225.798 396.236,224.877 398.557,223.951 400.878,223.021 403.199,222.085 405.519,221.143 407.84,220.197 410.161,219.245 412.482,218.288 414.803,217.325 417.124,216.357 419.445,215.384 421.766,214.405 424.087,213.421 426.408,212.43 428.729,211.435 431.05,210.433 433.371,209.426 435.692,208.413 438.013,207.394 440.333,206.37 442.654,205.339 444.975,204.303 447.296,203.26 449.617,202.212 451.938,201.157 454.259,200.096 456.58,199.029 458.901,197.956 461.222,196.876 463.543,195.79 465.864,194.698 468.185,193.599 470.506,192.494 472.827,191.382 475.147,190.264 477.468,189.139 479.789,188.007 482.11,186.869 484.431,185.724 486.752,184.572 489.073,183.413 491.394,182.247 493.715,181.074 496.036,179.894 498.357,178.707 500.678,177.513 502.999,176.311 505.32,175.103 507.641,173.887 509.961,172.663 512.282,171.432 514.603,170.194 516.924,168.948 519.245,167.695 521.566,166.434 523.887,165.165 526.208,163.889 528.529,162.604 530.85,161.312 533.171,160.012 535.492,158.704 537.813,157.388 540.134,156.063 542.455,154.731 544.776,153.39 547.096,152.041 549.417,150.684 551.738,149.318 554.059,147.944 556.38,146.561 558.701,145.17 561.022,143.77" stroke="#d85218" fill="none"/>
   <polyline stroke-linecap="butt" stroke-width="0.5" stroke-linejoin="round" points="80.5888,314.452 82.9097,314.414 85.2307,314.309 87.5516,314.146 89.8725,313.932 92.1935,313.676 94.5144,313.382 96.8353,313.056 99.1563,312.702 101.477,312.323 103.798,311.924 106.119,311.505 108.44,311.07 110.761,310.62 113.082,310.158 115.403,309.683 117.724,309.198 120.045,308.703 122.366,308.199 124.687,307.688 127.007,307.169 129.328,306.642 131.649,306.109 133.97,305.57 136.291,305.025 138.612,304.474 140.933,303.918 143.254,303.356 145.575,302.789 147.896,302.217 150.217,301.64 152.538,301.058 154.859,300.471 157.18,299.88 159.501,299.283 161.821,298.682 164.142,298.076 166.463,297.466 168.784,296.851 171.105,296.231 173.426,295.606 175.747,294.977 178.068,294.342 180.389,293.704 182.71,293.06 185.031,292.412 187.352,291.759 189.673,291.101 191.994,290.438 194.315,289.77 196.635,289.098 198.956,288.42 201.277,287.738 203.598,287.051 205.919,286.359 208.24,285.662 210.561,284.959 212.882,284.252 215.203,283.54 217.524,282.822 219.845,282.1 222.166,281.372 224.487,280.639 226.808,279.9 229.129,279.157 231.449,278.408 233.77,277.654 236.091,276.894 238.412,276.13 240.733,275.359 243.054,274.583 245.375,273.802 247.696,273.015 250.017,272.223 252.338,271.425 254.659,270.621 256.98,269.812 259.301,268.997 261.622,268.177 263.943,267.35 266.263,266.518 268.584,265.68 270.905,264.836 273.226,263.986 275.547,263.13 277.868,262.269 280.189,261.401 282.51,260.527 284.831,259.647 287.152,258.761 289.473,257.869 291.794,256.97 294.115,256.066 296.436,255.155 298.757,254.238 301.077,253.314 303.398,252.384 305.719,251.448 308.04,250.505 310.361,249.555 312.682,248.599 315.003,247.637 317.324,246.667 319.645,245.691 321.966,244.709 324.287,243.719 326.608,242.723 328.929,241.72 331.25,240.71 333.571,239.693 335.891,238.669 338.212,237.638 340.533,236.6 342.854,235.555 345.175,234.503 347.496,233.443 349.817,232.377 352.138,231.303 354.459,230.221 356.78,229.133 359.101,228.036 361.422,226.933 363.743,225.822 366.064,224.703 368.385,223.576 370.705,222.442 373.026,221.301 375.347,220.151 377.668,218.994 379.989,217.828 382.31,216.655 384.631,215.474 386.952,214.285 389.273,213.088 391.594,211.883 393.915,210.669 396.236,209.447 398.557,208.217 400.878,206.979 403.199,205.732 405.519,204.477 407.84,203.214 410.161,201.942 412.482,200.661 414.803,199.371 417.124,198.073 419.445,196.766 421.766,195.451 424.087,194.126 426.408,192.793 428.729,191.45 431.05,190.099 433.371,188.738 435.692,187.368 438.013,185.989 440.333,184.601 442.654,183.203 444.975,181.796 447.296,180.379 449.617,178.953 451.938,177.518 454.259,176.073 456.58,174.618 458.901,173.153 461.222,171.678 463.543,170.194 465.864,168.699 468.185,167.195 470.506,165.68 472.827,164.156 475.147,162.621 477.468,161.075 479.789,159.52 482.11,157.954 484.431,156.377 486.752,154.79 489.073,153.193 491.394,151.584 493.715,149.965 496.036,148.335 498.357,146.695 500.678,145.043 502.999,143.38 505.32,141.706 507.641,140.021 509.961,138.325 512.282,136.617 514.603,134.898 516.924,133.167 519.245,131.425 521.566,129.672 523.887,127.906 526.208,126.129 528.529,124.34 530.85,122.539 533.171,120.726 535.492,118.901 537.813,117.064 540.134,115.214 542.455,113.353 544.776,111.478 547.096,109.592 549.417,107.693 551.738,105.781 554.059,103.856 556.38,101.919 558.701,99.9684 561.022,98.0052" stroke="#ecb01f" fill="none"/>
   <polyline stroke-linecap="butt" stroke-width="0.5" stroke-linejoin="round" points="80.5888,314.452 82.9097,314.414 85.2307,314.31 87.5516,314.149 89.8725,313.94 92.1935,313.689 94.5144,313.403 96.8353,313.086 99.1563,312.742 101.477,312.375 103.798,311.988 106.119,311.583 108.44,311.162 110.761,310.727 113.082,310.278 115.403,309.818 117.724,309.346 120.045,308.864 122.366,308.373 124.687,307.873 127.007,307.364 129.328,306.847 131.649,306.322 133.97,305.789 136.291,305.249 138.612,304.702 140.933,304.147 143.254,303.586 145.575,303.017 147.896,302.442 150.217,301.859 152.538,301.27 154.859,300.674 157.18,300.072 159.501,299.462 161.821,298.846 164.142,298.224 166.463,297.594 168.784,296.958 171.105,296.315 173.426,295.665 175.747,295.009 178.068,294.346 180.389,293.675 182.71,292.999 185.031,292.315 187.352,291.624 189.673,290.927 191.994,290.222 194.315,289.511 196.635,288.793 198.956,288.068 201.277,287.335 203.598,286.596 205.919,285.85 208.24,285.096 210.561,284.335 212.882,283.568 215.203,282.793 217.524,282.011 219.845,281.221 222.166,280.425 224.487,279.621 226.808,278.809 229.129,277.991 231.449,277.164 233.77,276.331 236.091,275.49 238.412,274.642 240.733,273.785 243.054,272.922 245.375,272.051 247.696,271.172 250.017,270.285 252.338,269.391 254.659,268.489 256.98,267.58 259.301,266.662 261.622,265.737 263.943,264.804 266.263,263.862 268.584,262.913 270.905,261.956 273.226,260.991 275.547,260.018 277.868,259.037 280.189,258.047 282.51,257.049 284.831,256.043 287.152,255.029 289.473,254.007 291.794,252.976 294.115,251.937 296.436,250.889 298.757,249.833 301.077,248.768 303.398,247.695 305.719,246.613 308.04,245.523 310.361,244.424 312.682,243.316 315.003,242.199 317.324,241.073 319.645,239.939 321.966,238.796 324.287,237.643 326.608,236.482 328.929,235.312 331.25,234.132 333.571,232.943 335.891,231.746 338.212,230.539 340.533,229.322 342.854,228.096 345.175,226.861 347.496,225.617 349.817,224.363 352.138,223.099 354.459,221.826 356.78,220.543 359.101,219.25 361.422,217.948 363.743,216.636 366.064,215.314 368.385,213.982 370.705,212.64 373.026,211.288 375.347,209.926 377.668,208.553 379.989,207.171 382.31,205.778 384.631,204.375 386.952,202.962 389.273,201.538 391.594,200.104 393.915,198.659 396.236,197.204 398.557,195.738 400.878,194.261 403.199,192.773 405.519,191.275 407.84,189.765 410.161,188.245 412.482,186.714 414.803,185.171 417.124,183.618 419.445,182.053 421.766,180.477 424.087,178.89 426.408,177.291 428.729,175.68 431.05,174.059 433.371,172.425 435.692,170.78 438.013,169.123 440.333,167.454 442.654,165.774 444.975,164.081 447.296,162.376 449.617,160.66 451.938,158.931 454.259,157.19 456.58,155.436 458.901,153.671 461.222,151.892 463.543,150.102 465.864,148.298 468.185,146.482 470.506,144.653 472.827,142.812 475.147,140.957 477.468,139.09 479.789,137.209 482.11,135.316 484.431,133.409 486.752,131.488 489.073,129.555 491.394,127.608 493.715,125.647 496.036,123.673 498.357,121.685 500.678,119.684 502.999,117.668 505.32,115.639 507.641,113.595 509.961,111.538 512.282,109.466 514.603,107.38 516.924,105.28 519.245,103.165 521.566,101.035 523.887,98.8913 526.208,96.7325 528.529,94.5589 530.85,92.3705 533.171,90.167 535.492,87.9485 537.813,85.7147 540.134,83.4658 542.455,81.2014 544.776,78.9216 547.096,76.6263 549.417,74.3153 551.738,71.9885 554.059,69.6459 556.38,67.2874 558.701,64.9129 561.022,62.5222" stroke="#7d2e8d" fill="none"/>
   <polyline stroke-linecap="butt" stroke-width="0.5" stroke-linejoin="round" points="80.5888,314.452 82.9097,314.415 85.2307,314.311 87.5516,314.152 89.8725,313.947 92.1935,313.701 94.5144,313.422 96.8353,313.113 99.1563,312.779 101.477,312.423 103.798,312.048 106.119,311.654 108.44,311.246 110.761,310.822 113.082,310.386 115.403,309.937 117.724,309.477 120.045,309.006 122.366,308.525 124.687,308.033 127.007,307.533 129.328,307.022 131.649,306.503 133.97,305.975 136.291,305.438 138.612,304.892 140.933,304.338 143.254,303.775 145.575,303.204 147.896,302.624 150.217,302.036 152.538,301.44 154.859,300.835 157.18,300.222 159.501,299.6 161.821,298.971 164.142,298.332 166.463,297.686 168.784,297.031 171.105,296.367 173.426,295.695 175.747,295.015 178.068,294.327 180.389,293.629 182.71,292.924 185.031,292.209 187.352,291.487 189.673,290.755 191.994,290.016 194.315,289.267 196.635,288.51 198.956,287.744 201.277,286.97 203.598,286.186 205.919,285.394 208.24,284.594 210.561,283.784 212.882,282.966 215.203,282.139 217.524,281.303 219.845,280.458 222.166,279.604 224.487,278.741 226.808,277.869 229.129,276.988 231.449,276.098 233.77,275.199 236.091,274.29 238.412,273.373 240.733,272.446 243.054,271.511 245.375,270.565 247.696,269.611 250.017,268.647 252.338,267.674 254.659,266.692 256.98,265.7 259.301,264.698 261.622,263.687 263.943,262.667 266.263,261.636 268.584,260.597 270.905,259.547 273.226,258.488 275.547,257.419 277.868,256.34 280.189,255.252 282.51,254.153 284.831,253.045 287.152,251.927 289.473,250.799 291.794,249.66 294.115,248.512 296.436,247.353 298.757,246.185 301.077,245.006 303.398,243.816 305.719,242.617 308.04,241.407 310.361,240.187 312.682,238.956 315.003,237.715 317.324,236.463 319.645,235.201 321.966,233.928 324.287,232.644 326.608,231.35 328.929,230.045 331.25,228.729 333.571,227.402 335.891,226.064 338.212,224.715 340.533,223.355 342.854,221.984 345.175,220.602 347.496,219.209 349.817,217.804 352.138,216.388 354.459,214.961 356.78,213.522 359.101,212.072 361.422,210.611 363.743,209.137 366.064,207.652 368.385,206.156 370.705,204.647 373.026,203.127 375.347,201.595 377.668,200.051 379.989,198.495 382.31,196.927 384.631,195.346 386.952,193.754 389.273,192.149 391.594,190.532 393.915,188.903 396.236,187.261 398.557,185.607 400.878,183.94 403.199,182.26 405.519,180.568 407.84,178.863 410.161,177.145 412.482,175.414 414.803,173.67 417.124,171.913 419.445,170.143 421.766,168.36 424.087,166.564 426.408,164.754 428.729,162.931 431.05,161.094 433.371,159.244 435.692,157.381 438.013,155.503 440.333,153.612 442.654,151.707 444.975,149.788 447.296,147.855 449.617,145.908 451.938,143.947 454.259,141.971 456.58,139.981 458.901,137.977 461.222,135.959 463.543,133.925 465.864,131.878 468.185,129.815 470.506,127.738 472.827,125.646 475.147,123.539 477.468,121.416 479.789,119.279 482.11,117.127 484.431,114.959 486.752,112.776 489.073,110.577 491.394,108.363 493.715,106.133 496.036,103.887 498.357,101.626 500.678,99.3482 502.999,97.0548 505.32,94.7452 507.641,92.4195 509.961,90.0775 512.282,87.7191 514.603,85.3442 516.924,82.9527 519.245,80.5446 521.566,78.1196 523.887,75.6778 526.208,73.2191 528.529,70.7432 530.85,68.2502 533.171,65.74 535.492,63.2123 537.813,60.6672 540.134,58.1046 542.455,55.5242 544.776,52.9261 547.096,50.3101 549.417,47.676 551.738,45.024 554.059,42.3536 556.38,39.665 558.701,36.9579 561.022,34.2324" stroke="#76ab2f" fill="none"/>
  </g>
  <clipPath id="cp00619354">
   <polygon points="0,354 619,354 619,0 0,0"/>
  </clipPath>
  <g clip-path="url(#cp00619354)">
   <polygon points="87.3639,145.668 191.464,145.668 191.464,33.3429 87.3639,33.3429" fill="#ffffff" shape-rendering="crispEdges"/>
   <polyline stroke-linecap="square" stroke-width="0.5" stroke-linejoin="miter" points="87.3639,145.668 191.464,145.668" stroke-dasharray="16,0" stroke="#262626" fill="none"/>
   <polyline stroke-linecap="square" stroke-width="0.5" stroke-linejoin="miter" points="87.3639,33.3429 191.464,33.3429" stroke-dasharray="16,0" stroke="#262626" fill="none"/>
   <polyline stroke-linecap="square" stroke-width="0.5" stroke-linejoin="miter" points="87.3639,145.668 87.3639,33.3429" stroke-dasharray="16,0" stroke="#262626" fill="none"/>
   <polyline stroke-linecap="square" stroke-width="0.5" stroke-linejoin="miter" points="191.464,145.668 191.464,33.3429" stroke-dasharray="16,0" stroke="#262626" fill="none"/>
   <polyline stroke-linecap="butt" stroke-width="0.5" stroke-linejoin="round" points="90.7515,44.7304 107.689,44.7304" stroke="#0071bc" fill="none"/>
   <text font-family="FreeSans" xml:space="preserve" font-weight="normal" font-style="normal" transform="translate(111.077,52.7304) rotate(-0,-0,-8)" font-size="20">
    <tspan y="-0" x="0 14 25 36 " fill="rgb(0,0,0)">Real</tspan>
   </text>
   <polyline stroke-linecap="butt" stroke-width="0.5" stroke-linejoin="round" points="90.7515,65.618 107.689,65.618" stroke="#d85218" fill="none"/>
   <text font-family="FreeSans" xml:space="preserve" font-weight="normal" font-style="normal" transform="translate(111.077,75.118) rotate(-0,-0,-9.5)" font-size="20">
    <tspan y="-3" x="0 " fill="rgb(0,0,0)">b</tspan>
    <tspan y="-0" x="11 " fill="rgb(0,0,0)" font-size="14">r</tspan>
    <tspan y="-3" x="16 21 33 38 49 55 66 " fill="rgb(0,0,0)"> = 0,01</tspan>
   </text>
   <polyline stroke-linecap="butt" stroke-width="0.5" stroke-linejoin="round" points="90.7515,88.0056 107.689,88.0056" stroke="#ecb01f" fill="none"/>
   <text font-family="FreeSans" xml:space="preserve" font-weight="normal" font-style="normal" transform="translate(111.077,97.5056) rotate(-0,-0,-9.5)" font-size="20">
    <tspan y="-3" x="0 " fill="rgb(0,0,0)">b</tspan>
    <tspan y="-0" x="11 " fill="rgb(0,0,0)" font-size="14">r</tspan>
    <tspan y="-3" x="16 21 33 38 49 55 66 " fill="rgb(0,0,0)"> = 0,02</tspan>
   </text>
   <polyline stroke-linecap="butt" stroke-width="0.5" stroke-linejoin="round" points="90.7515,110.393 107.689,110.393" stroke="#7d2e8d" fill="none"/>
   <text font-family="FreeSans" xml:space="preserve" font-weight="normal" font-style="normal" transform="translate(111.077,119.893) rotate(-0,-0,-9.5)" font-size="20">
    <tspan y="-3" x="0 " fill="rgb(0,0,0)">b</tspan>
    <tspan y="-0" x="11 " fill="rgb(0,0,0)" font-size="14">r</tspan>
    <tspan y="-3" x="16 21 33 38 49 55 66 " fill="rgb(0,0,0)"> = 0,03</tspan>
   </text>
   <polyline stroke-linecap="butt" stroke-width="0.5" stroke-linejoin="round" points="90.7515,132.781 107.689,132.781" stroke="#76ab2f" fill="none"/>
   <text font-family="FreeSans" xml:space="preserve" font-weight="normal" font-style="normal" transform="translate(111.077,142.281) rotate(-0,-0,-9.5)" font-size="20">
    <tspan y="-3" x="0 " fill="rgb(0,0,0)">b</tspan>
    <tspan y="-0" x="11 " fill="rgb(0,0,0)" font-size="14">r</tspan>
    <tspan y="-3" x="16 21 33 38 49 55 66 " fill="rgb(0,0,0)"> = 0,04</tspan>
   </text>
  </g>
 </g>
</svg>
