<?xml version='1.0' encoding='UTF-8' standalone='no'?>
<svg viewBox="0 0 619 354" xmlns:xlink="http://www.w3.org/1999/xlink" xmlns="http://www.w3.org/2000/svg" height="354pt" width="619pt">
 <title>gl2ps_renderer figure</title>
 <desc>
Creator: GL2PS 1.4.2, (C) 1999-2020 C. Geuzaine
For: Octave
CreationDate: Mon Nov 14 01:24:06 2022
</desc>
 <defs/>
 <polygon fill="#ffffff" points="0,0 619,0 619,354 0,354"/>
 <g>
  <polygon fill="#ffffff" shape-rendering="crispEdges" points="0,354 619,354 619,0 0,0"/>
  <clipPath id="cp00619354">
   <polygon points="0,354 619,354 619,0 0,0"/>
  </clipPath>
  <g clip-path="url(#cp00619354)">
   <polygon fill="#ffffff" shape-rendering="crispEdges" points="80.5888,315.27 561.022,315.27 561.022,26.5677 80.5888,26.5677"/>
   <polyline stroke="#262626" stroke-width="0.5" stroke-linejoin="miter" fill="none" stroke-linecap="butt" stroke-dasharray="16,0" stroke-opacity="0.15" points="80.5888,315.27 80.5888,26.5677"/>
   <polyline stroke="#262626" stroke-width="0.5" stroke-linejoin="miter" fill="none" stroke-linecap="butt" stroke-dasharray="16,0" stroke-opacity="0.15" points="203.148,315.27 203.148,26.5677"/>
   <polyline stroke="#262626" stroke-width="0.5" stroke-linejoin="miter" fill="none" stroke-linecap="butt" stroke-dasharray="16,0" stroke-opacity="0.15" points="325.708,315.27 325.708,26.5677"/>
   <polyline stroke="#262626" stroke-width="0.5" stroke-linejoin="miter" fill="none" stroke-linecap="butt" stroke-dasharray="16,0" stroke-opacity="0.15" points="448.267,315.27 448.267,26.5677"/>
   <polyline stroke="#262626" stroke-width="0.5" stroke-linejoin="miter" fill="none" stroke-linecap="butt" points="80.5888,315.27 80.5888,310.471"/>
   <polyline stroke="#262626" stroke-width="0.5" stroke-linejoin="miter" fill="none" stroke-linecap="butt" points="80.5888,26.5677 80.5888,31.3671"/>
   <polyline stroke="#262626" stroke-width="0.5" stroke-linejoin="miter" fill="none" stroke-linecap="butt" points="203.148,315.27 203.148,310.471"/>
   <polyline stroke="#262626" stroke-width="0.5" stroke-linejoin="miter" fill="none" stroke-linecap="butt" points="203.148,26.5677 203.148,31.3671"/>
   <polyline stroke="#262626" stroke-width="0.5" stroke-linejoin="miter" fill="none" stroke-linecap="butt" points="325.708,315.27 325.708,310.471"/>
   <polyline stroke="#262626" stroke-width="0.5" stroke-linejoin="miter" fill="none" stroke-linecap="butt" points="325.708,26.5677 325.708,31.3671"/>
   <polyline stroke="#262626" stroke-width="0.5" stroke-linejoin="miter" fill="none" stroke-linecap="butt" points="448.267,315.27 448.267,310.471"/>
   <polyline stroke="#262626" stroke-width="0.5" stroke-linejoin="miter" fill="none" stroke-linecap="butt" points="448.267,26.5677 448.267,31.3671"/>
   <text font-size="10" font-family="FreeSans" xml:space="preserve" font-weight="normal" font-style="normal" transform="translate(77.5888,330.763) rotate(-0,3,-8)">
    <tspan x="0 " fill="rgb(38,38,38)" y="-0">0</tspan>
   </text>
   <text font-size="10" font-family="FreeSans" xml:space="preserve" font-weight="normal" font-style="normal" transform="translate(195.648,330.763) rotate(-0,7.5,-8)">
    <tspan x="0 6 9 " fill="rgb(38,38,38)" y="-0">0.1</tspan>
   </text>
   <text font-size="10" font-family="FreeSans" xml:space="preserve" font-weight="normal" font-style="normal" transform="translate(318.208,330.763) rotate(-0,7.5,-8)">
    <tspan x="0 6 9 " fill="rgb(38,38,38)" y="-0">0.2</tspan>
   </text>
   <text font-size="10" font-family="FreeSans" xml:space="preserve" font-weight="normal" font-style="normal" transform="translate(440.767,330.763) rotate(-0,7.5,-8)">
    <tspan x="0 6 9 " fill="rgb(38,38,38)" y="-0">0.3</tspan>
   </text>
   <polyline stroke="#262626" stroke-width="0.5" stroke-linejoin="miter" fill="none" stroke-linecap="butt" stroke-dasharray="16,0" stroke-opacity="0.15" points="80.5888,315.27 561.022,315.27"/>
   <polyline stroke="#262626" stroke-width="0.5" stroke-linejoin="miter" fill="none" stroke-linecap="butt" stroke-dasharray="16,0" stroke-opacity="0.15" points="80.5888,243.095 561.022,243.095"/>
   <polyline stroke="#262626" stroke-width="0.5" stroke-linejoin="miter" fill="none" stroke-linecap="butt" stroke-dasharray="16,0" stroke-opacity="0.15" points="80.5888,170.919 561.022,170.919"/>
   <polyline stroke="#262626" stroke-width="0.5" stroke-linejoin="miter" fill="none" stroke-linecap="butt" stroke-dasharray="16,0" stroke-opacity="0.15" points="80.5888,98.7434 561.022,98.7434"/>
   <polyline stroke="#262626" stroke-width="0.5" stroke-linejoin="miter" fill="none" stroke-linecap="butt" stroke-dasharray="16,0" stroke-opacity="0.15" points="80.5888,26.5677 561.022,26.5677"/>
   <polyline stroke="#262626" stroke-width="0.5" stroke-linejoin="miter" fill="none" stroke-linecap="butt" points="80.5888,315.27 85.3975,315.27"/>
   <polyline stroke="#262626" stroke-width="0.5" stroke-linejoin="miter" fill="none" stroke-linecap="butt" points="561.022,315.27 556.213,315.27"/>
   <polyline stroke="#262626" stroke-width="0.5" stroke-linejoin="miter" fill="none" stroke-linecap="butt" points="80.5888,243.095 85.3975,243.095"/>
   <polyline stroke="#262626" stroke-width="0.5" stroke-linejoin="miter" fill="none" stroke-linecap="butt" points="561.022,243.095 556.213,243.095"/>
   <polyline stroke="#262626" stroke-width="0.5" stroke-linejoin="miter" fill="none" stroke-linecap="butt" points="80.5888,170.919 85.3975,170.919"/>
   <polyline stroke="#262626" stroke-width="0.5" stroke-linejoin="miter" fill="none" stroke-linecap="butt" points="561.022,170.919 556.213,170.919"/>
   <polyline stroke="#262626" stroke-width="0.5" stroke-linejoin="miter" fill="none" stroke-linecap="butt" points="80.5888,98.7434 85.3975,98.7434"/>
   <polyline stroke="#262626" stroke-width="0.5" stroke-linejoin="miter" fill="none" stroke-linecap="butt" points="561.022,98.7434 556.213,98.7434"/>
   <polyline stroke="#262626" stroke-width="0.5" stroke-linejoin="miter" fill="none" stroke-linecap="butt" points="80.5888,26.5677 85.3975,26.5677"/>
   <polyline stroke="#262626" stroke-width="0.5" stroke-linejoin="miter" fill="none" stroke-linecap="butt" points="561.022,26.5677 556.213,26.5677"/>
   <text font-size="10" font-family="FreeSans" xml:space="preserve" font-weight="normal" font-style="normal" transform="translate(57.5843,319.27) rotate(-0,18,-4)">
    <tspan x="0 3 9 12 " fill="rgb(38,38,38)" y="-0">-0.5</tspan>
   </text>
   <text font-size="10" font-family="FreeSans" xml:space="preserve" font-weight="normal" font-style="normal" transform="translate(69.5843,247.095) rotate(-0,6,-4)">
    <tspan x="0 " fill="rgb(38,38,38)" y="-0">0</tspan>
   </text>
   <text font-size="10" font-family="FreeSans" xml:space="preserve" font-weight="normal" font-style="normal" transform="translate(60.5843,174.919) rotate(-0,15,-4)">
    <tspan x="0 6 9 " fill="rgb(38,38,38)" y="-0">0.5</tspan>
   </text>
   <text font-size="10" font-family="FreeSans" xml:space="preserve" font-weight="normal" font-style="normal" transform="translate(69.5843,102.743) rotate(-0,6,-4)">
    <tspan x="0 " fill="rgb(38,38,38)" y="-0">1</tspan>
   </text>
   <text font-size="10" font-family="FreeSans" xml:space="preserve" font-weight="normal" font-style="normal" transform="translate(60.5843,30.5677) rotate(-0,15,-4)">
    <tspan x="0 6 9 " fill="rgb(38,38,38)" y="-0">1.5</tspan>
   </text>
   <polyline stroke="#262626" stroke-width="0.5" stroke-linejoin="miter" fill="none" stroke-linecap="square" stroke-dasharray="16,0" points="80.5888,315.27 561.022,315.27"/>
   <polyline stroke="#262626" stroke-width="0.5" stroke-linejoin="miter" fill="none" stroke-linecap="square" stroke-dasharray="16,0" points="80.5888,26.5677 561.022,26.5677"/>
   <polyline stroke="#262626" stroke-width="0.5" stroke-linejoin="miter" fill="none" stroke-linecap="square" stroke-dasharray="16,0" points="80.5888,315.27 80.5888,26.5677"/>
   <polyline stroke="#262626" stroke-width="0.5" stroke-linejoin="miter" fill="none" stroke-linecap="square" stroke-dasharray="16,0" points="561.022,315.27 561.022,26.5677"/>
   <text font-size="11" font-family="FreeSans" xml:space="preserve" font-weight="normal" font-style="normal" transform="translate(297.305,347.763) rotate(-0,23.5,-12)">
    <tspan x="0 7 13 22 28 34 38 43 " fill="rgb(38,38,38)" y="-3">Tempo(s)</tspan>
   </text>
   <text font-size="11" font-family="FreeSans" xml:space="preserve" font-weight="normal" font-style="normal" transform="translate(24.0843,170.919) rotate(-90,28.5,0)">
    <tspan x="0 7 13 19 25 27 33 37 41 47 53 " fill="rgb(38,38,38)" y="-3">Ângulo(rad)</tspan>
   </text>
   <polyline stroke="#0071bc" stroke-width="0.5" stroke-linejoin="round" fill="none" stroke-linecap="butt" points="80.5888,279.52 83.04,279.609 85.4912,279.698 87.9424,279.777 90.3936,279.869 92.8447,279.941 95.2959,280.005 97.7471,280.071 100.198,280.108 102.649,280.123 105.101,280.136 107.552,280.142 110.003,280.145 112.454,280.148 114.905,280.143 117.357,280.136 119.808,280.149 122.259,280.158 124.71,280.16 127.161,280.173 129.613,280.186 132.064,280.196 134.515,280.181 136.966,280.184 139.417,280.164 141.869,280.129 144.32,280.101 146.771,280.049 149.222,280.003 151.673,279.941 154.124,279.869 156.576,279.742 159.027,279.676 161.478,279.638 163.929,279.553 166.38,279.489 168.832,279.408 171.283,279.325 173.734,279.292 176.185,279.172 178.636,279.085 181.088,278.996 183.539,278.873 185.99,278.783 188.441,278.691 190.892,278.57 193.344,278.446 195.795,278.348 198.246,278.264 200.697,278.169 203.148,278.051 205.599,277.902 208.051,277.778 210.502,277.609 212.953,277.448 215.404,277.31 217.855,277.162 220.307,277.001 222.758,276.899 225.209,276.727 227.66,276.592 230.111,276.412 232.563,276.237 235.014,276.125 237.465,275.929 239.916,275.734 242.367,275.466 244.819,275.245 247.27,275.025 249.721,274.883 252.172,274.712 254.623,274.534 257.074,274.305 259.526,274.057 261.977,273.849 264.428,273.637 266.879,273.404 269.33,273.173 271.782,272.884 274.233,272.638 276.684,272.392 279.135,272.158 281.586,271.889 284.038,271.637 286.489,271.362 288.94,271.111 291.391,270.823 293.842,270.56 296.293,270.245 298.745,269.996 301.196,269.677 303.647,269.366 306.098,269.092 308.549,268.778 311.001,268.477 313.452,268.151 315.903,267.851 318.354,267.504 320.805,267.173 323.257,266.838 325.708,266.481 328.159,266.097 330.61,265.769 333.061,265.395 335.513,265.013 337.964,264.623 340.415,264.254 342.866,263.832 345.317,263.498 347.768,263.136 350.22,262.771 352.671,262.393 355.122,262.018 357.573,261.66 360.024,261.274 362.476,260.896 364.927,260.477 367.378,260.073 369.829,259.686 372.28,259.32 374.732,258.924 377.183,258.531 379.634,258.102 382.085,257.706 384.536,257.322 386.988,256.951 389.439,256.603 391.89,256.26 394.341,255.862 396.792,255.459 399.243,255.069 401.695,254.677 404.146,254.256 406.597,253.909 409.048,253.532 411.499,252.981 413.951,252.477 416.402,251.48 418.853,251.225 421.304,250.822 423.755,250.323 426.207,249.583 428.658,249.297 431.109,248.473 433.56,248.199 436.011,247.722 438.463,247.144 440.914,246.528 443.365,246.064 445.816,245.561 448.267,245.072 450.718,244.601 453.17,244.074 455.621,243.588 458.072,243.085 460.523,242.638 462.974,242.135 465.426,241.595 467.877,241.02 470.328,239.639 472.779,238.834 475.23,237.728 477.682,236.271 480.133,234.897 482.584,233.813 485.035,232.653 487.486,231.469 489.938,230.363 492.389,229.145 494.84,228.349 497.291,227.204 499.742,226.306 502.193,225.315 504.645,224.378 507.096,223.302 509.547,222.299 511.998,221.289 514.449,220.175 516.901,218.847 519.352,217.506 521.803,216.166 524.254,215.021 526.705,213.89 529.157,212.694 531.608,211.295 534.059,210.18 536.51,209.645 538.961,208.396 541.412,207.779 543.864,207.059 546.315,205.603 548.766,204.891 551.217,203.648 553.668,202.705 556.12,201.57 558.571,200.454 561.022,199.149"/>
   <polyline stroke="#d85218" stroke-width="0.5" stroke-linejoin="round" fill="none" stroke-linecap="butt" points="80.5888,279.52 83.04,279.475 85.4912,279.351 87.9424,279.16 90.3936,278.913 92.8447,278.62 95.2959,278.286 97.7471,277.92 100.198,277.525 102.649,277.106 105.101,276.666 107.552,276.208 110.003,275.735 112.454,275.249 114.905,274.75 117.357,274.241 119.808,273.722 122.259,273.194 124.71,272.659 127.161,272.117 129.613,271.567 132.064,271.012 134.515,270.45 136.966,269.882 139.417,269.309 141.869,268.73 144.32,268.147 146.771,267.558 149.222,266.964 151.673,266.364 154.124,265.76 156.576,265.151 159.027,264.537 161.478,263.918 163.929,263.294 166.38,262.665 168.832,262.031 171.283,261.392 173.734,260.748 176.185,260.098 178.636,259.444 181.088,258.785 183.539,258.12 185.99,257.45 188.441,256.775 190.892,256.094 193.344,255.409 195.795,254.717 198.246,254.021 200.697,253.319 203.148,252.611 205.599,251.898 208.051,251.179 210.502,250.454 212.953,249.724 215.404,248.987 217.855,248.245 220.307,247.497 222.758,246.744 225.209,245.984 227.66,245.218 230.111,244.446 232.563,243.668 235.014,242.883 237.465,242.093 239.916,241.296 242.367,240.492 244.819,239.682 247.27,238.866 249.721,238.043 252.172,237.214 254.623,236.378 257.074,235.535 259.526,234.685 261.977,233.829 264.428,232.965 266.879,232.095 269.33,231.217 271.782,230.333 274.233,229.441 276.684,228.542 279.135,227.636 281.586,226.723 284.038,225.802 286.489,224.873 288.94,223.937 291.391,222.994 293.842,222.043 296.293,221.084 298.745,220.117 301.196,219.142 303.647,218.16 306.098,217.169 308.549,216.171 311.001,215.164 313.452,214.149 315.903,213.126 318.354,212.094 320.805,211.054 323.257,210.005 325.708,208.948 328.159,207.882 330.61,206.808 333.061,205.724 335.513,204.632 337.964,203.531 340.415,202.42 342.866,201.301 345.317,200.172 347.768,199.035 350.22,197.887 352.671,196.731 355.122,195.565 357.573,194.389 360.024,193.203 362.476,192.008 364.927,190.803 367.378,189.588 369.829,188.363 372.28,187.128 374.732,185.883 377.183,184.627 379.634,183.361 382.085,182.085 384.536,180.798 386.988,179.501 389.439,178.192 391.89,176.873 394.341,175.543 396.792,174.202 399.243,172.85 401.695,171.487 404.146,170.112 406.597,168.726 409.048,167.329 411.499,165.92 413.951,164.499 416.402,163.067 418.853,161.623 421.304,160.166 423.755,158.698 426.207,157.217 428.658,155.724 431.109,154.219 433.56,152.701 436.011,151.171 438.463,149.628 440.914,148.072 443.365,146.503 445.816,144.922 448.267,143.327 450.718,141.718 453.17,140.097 455.621,138.462 458.072,136.813 460.523,135.15 462.974,133.474 465.426,131.784 467.877,130.08 470.328,128.361 472.779,126.628 475.23,124.881 477.682,123.119 480.133,121.343 482.584,119.552 485.035,117.746 487.486,115.924 489.938,114.088 492.389,112.236 494.84,110.369 497.291,108.486 499.742,106.588 502.193,104.674 504.645,102.744 507.096,100.797 509.547,98.8347 511.998,96.8557 514.449,94.8603 516.901,92.8481 519.352,90.8192 521.803,88.7734 524.254,86.7104 526.705,84.6303 529.157,82.5327 531.608,80.4177 534.059,78.285 536.51,76.1345 538.961,73.9659 541.412,71.7793 543.864,69.5744 546.315,67.3511 548.766,65.1092 551.217,62.8485 553.668,60.569 556.12,58.2704 558.571,55.9525 561.022,53.6153"/>
   <polyline stroke="#ecb01f" stroke-width="0.5" stroke-linejoin="round" fill="none" stroke-linecap="butt" points="80.5888,279.52 83.04,279.496 85.4912,279.431 87.9424,279.329 90.3936,279.196 92.8447,279.035 95.2959,278.852 97.7471,278.649 100.198,278.428 102.649,278.192 105.101,277.942 107.552,277.681 110.003,277.41 112.454,277.129 114.905,276.84 117.357,276.544 119.808,276.242 122.259,275.933 124.71,275.619 127.161,275.3 129.613,274.977 132.064,274.649 134.515,274.316 136.966,273.98 139.417,273.641 141.869,273.297 144.32,272.951 146.771,272.601 149.222,272.248 151.673,271.891 154.124,271.532 156.576,271.169 159.027,270.804 161.478,270.436 163.929,270.064 166.38,269.69 168.832,269.313 171.283,268.933 173.734,268.55 176.185,268.164 178.636,267.775 181.088,267.384 183.539,266.989 185.99,266.591 188.441,266.191 190.892,265.788 193.344,265.381 195.795,264.972 198.246,264.56 200.697,264.145 203.148,263.726 205.599,263.305 208.051,262.881 210.502,262.454 212.953,262.023 215.404,261.59 217.855,261.153 220.307,260.713 222.758,260.271 225.209,259.825 227.66,259.375 230.111,258.923 232.563,258.467 235.014,258.009 237.465,257.547 239.916,257.081 242.367,256.613 244.819,256.141 247.27,255.666 249.721,255.187 252.172,254.705 254.623,254.22 257.074,253.731 259.526,253.239 261.977,252.743 264.428,252.244 266.879,251.741 269.33,251.235 271.782,250.726 274.233,250.212 276.684,249.696 279.135,249.175 281.586,248.651 284.038,248.124 286.489,247.592 288.94,247.057 291.391,246.518 293.842,245.976 296.293,245.43 298.745,244.88 301.196,244.326 303.647,243.768 306.098,243.207 308.549,242.641 311.001,242.072 313.452,241.499 315.903,240.921 318.354,240.34 320.805,239.755 323.257,239.166 325.708,238.573 328.159,237.975 330.61,237.374 333.061,236.768 335.513,236.159 337.964,235.545 340.415,234.927 342.866,234.304 345.317,233.678 347.768,233.047 350.22,232.412 352.671,231.772 355.122,231.128 357.573,230.48 360.024,229.827 362.476,229.17 364.927,228.508 367.378,227.842 369.829,227.172 372.28,226.496 374.732,225.816 377.183,225.132 379.634,224.443 382.085,223.749 384.536,223.051 386.988,222.347 389.439,221.639 391.89,220.926 394.341,220.209 396.792,219.486 399.243,218.759 401.695,218.026 404.146,217.289 406.597,216.547 409.048,215.799 411.499,215.047 413.951,214.29 416.402,213.527 418.853,212.759 421.304,211.986 423.755,211.208 426.207,210.425 428.658,209.636 431.109,208.842 433.56,208.043 436.011,207.238 438.463,206.428 440.914,205.612 443.365,204.791 445.816,203.965 448.267,203.132 450.718,202.295 453.17,201.451 455.621,200.602 458.072,199.747 460.523,198.887 462.974,198.021 465.426,197.148 467.877,196.271 470.328,195.387 472.779,194.497 475.23,193.601 477.682,192.699 480.133,191.792 482.584,190.878 485.035,189.958 487.486,189.032 489.938,188.099 492.389,187.161 494.84,186.216 497.291,185.265 499.742,184.307 502.193,183.343 504.645,182.373 507.096,181.396 509.547,180.412 511.998,179.422 514.449,178.426 516.901,177.422 519.352,176.412 521.803,175.396 524.254,174.372 526.705,173.342 529.157,172.305 531.608,171.261 534.059,170.21 536.51,169.151 538.961,168.086 541.412,167.014 543.864,165.935 546.315,164.848 548.766,163.754 551.217,162.653 553.668,161.545 556.12,160.429 558.571,159.306 561.022,158.175"/>
   <polyline stroke="#7d2e8d" stroke-width="0.5" stroke-linejoin="round" fill="none" stroke-linecap="butt" points="80.5888,279.52 83.04,279.504 85.4912,279.459 87.9424,279.39 90.3936,279.299 92.8447,279.189 95.2959,279.062 97.7471,278.921 100.198,278.768 102.649,278.604 105.101,278.43 107.552,278.247 110.003,278.057 112.454,277.861 114.905,277.658 117.357,277.449 119.808,277.236 122.259,277.018 124.71,276.796 127.161,276.571 129.613,276.341 132.064,276.109 134.515,275.874 136.966,275.635 139.417,275.394 141.869,275.15 144.32,274.904 146.771,274.655 149.222,274.404 151.673,274.15 154.124,273.895 156.576,273.637 159.027,273.377 161.478,273.115 163.929,272.85 166.38,272.584 168.832,272.316 171.283,272.045 173.734,271.773 176.185,271.498 178.636,271.221 181.088,270.943 183.539,270.662 185.99,270.38 188.441,270.095 190.892,269.808 193.344,269.519 195.795,269.229 198.246,268.936 200.697,268.641 203.148,268.344 205.599,268.045 208.051,267.744 210.502,267.441 212.953,267.136 215.404,266.828 217.855,266.519 220.307,266.207 222.758,265.894 225.209,265.578 227.66,265.26 230.111,264.94 232.563,264.618 235.014,264.293 237.465,263.967 239.916,263.638 242.367,263.307 244.819,262.974 247.27,262.639 249.721,262.301 252.172,261.961 254.623,261.619 257.074,261.275 259.526,260.928 261.977,260.58 264.428,260.228 266.879,259.875 269.33,259.519 271.782,259.161 274.233,258.801 276.684,258.438 279.135,258.073 281.586,257.706 284.038,257.336 286.489,256.964 288.94,256.589 291.391,256.212 293.842,255.833 296.293,255.451 298.745,255.067 301.196,254.68 303.647,254.291 306.098,253.899 308.549,253.505 311.001,253.108 313.452,252.709 315.903,252.308 318.354,251.903 320.805,251.497 323.257,251.087 325.708,250.675 328.159,250.261 330.61,249.844 333.061,249.424 335.513,249.002 337.964,248.577 340.415,248.149 342.866,247.719 345.317,247.286 347.768,246.85 350.22,246.412 352.671,245.971 355.122,245.527 357.573,245.08 360.024,244.631 362.476,244.179 364.927,243.724 367.378,243.266 369.829,242.805 372.28,242.342 374.732,241.876 377.183,241.407 379.634,240.935 382.085,240.46 384.536,239.982 386.988,239.502 389.439,239.018 391.89,238.532 394.341,238.042 396.792,237.55 399.243,237.054 401.695,236.556 404.146,236.054 406.597,235.55 409.048,235.042 411.499,234.531 413.951,234.017 416.402,233.501 418.853,232.981 421.304,232.458 423.755,231.931 426.207,231.402 428.658,230.869 431.109,230.333 433.56,229.794 436.011,229.252 438.463,228.707 440.914,228.158 443.365,227.606 445.816,227.05 448.267,226.492 450.718,225.93 453.17,225.364 455.621,224.796 458.072,224.223 460.523,223.648 462.974,223.069 465.426,222.486 467.877,221.901 470.328,221.311 472.779,220.718 475.23,220.122 477.682,219.522 480.133,218.919 482.584,218.312 485.035,217.701 487.486,217.087 489.938,216.469 492.389,215.848 494.84,215.223 497.291,214.594 499.742,213.961 502.193,213.325 504.645,212.685 507.096,212.041 509.547,211.394 511.998,210.742 514.449,210.087 516.901,209.428 519.352,208.765 521.803,208.098 524.254,207.428 526.705,206.753 529.157,206.075 531.608,205.392 534.059,204.706 536.51,204.015 538.961,203.321 541.412,202.622 543.864,201.919 546.315,201.213 548.766,200.502 551.217,199.787 553.668,199.068 556.12,198.344 558.571,197.617 561.022,196.885"/>
   <polyline stroke="#76ab2f" stroke-width="0.5" stroke-linejoin="round" fill="none" stroke-linecap="butt" points="80.5888,279.52 83.04,279.508 85.4912,279.474 87.9424,279.421 90.3936,279.352 92.8447,279.268 95.2959,279.172 97.7471,279.064 100.198,278.947 102.649,278.821 105.101,278.687 107.552,278.547 110.003,278.401 112.454,278.249 114.905,278.093 117.357,277.932 119.808,277.768 122.259,277.599 124.71,277.428 127.161,277.253 129.613,277.076 132.064,276.896 134.515,276.714 136.966,276.529 139.417,276.342 141.869,276.153 144.32,275.962 146.771,275.769 149.222,275.574 151.673,275.378 154.124,275.179 156.576,274.979 159.027,274.777 161.478,274.574 163.929,274.369 166.38,274.162 168.832,273.954 171.283,273.744 173.734,273.532 176.185,273.319 178.636,273.104 181.088,272.888 183.539,272.67 185.99,272.451 188.441,272.23 190.892,272.008 193.344,271.784 195.795,271.558 198.246,271.331 200.697,271.103 203.148,270.872 205.599,270.641 208.051,270.407 210.502,270.172 212.953,269.936 215.404,269.698 217.855,269.458 220.307,269.217 222.758,268.974 225.209,268.73 227.66,268.484 230.111,268.236 232.563,267.987 235.014,267.736 237.465,267.483 239.916,267.229 242.367,266.973 244.819,266.716 247.27,266.457 249.721,266.196 252.172,265.934 254.623,265.669 257.074,265.404 259.526,265.136 261.977,264.867 264.428,264.596 266.879,264.324 269.33,264.049 271.782,263.774 274.233,263.496 276.684,263.216 279.135,262.935 281.586,262.652 284.038,262.368 286.489,262.081 288.94,261.793 291.391,261.503 293.842,261.212 296.293,260.918 298.745,260.623 301.196,260.326 303.647,260.027 306.098,259.726 308.549,259.424 311.001,259.12 313.452,258.814 315.903,258.506 318.354,258.196 320.805,257.884 323.257,257.57 325.708,257.255 328.159,256.938 330.61,256.619 333.061,256.298 335.513,255.975 337.964,255.65 340.415,255.323 342.866,254.994 345.317,254.664 347.768,254.331 350.22,253.996 352.671,253.66 355.122,253.322 357.573,252.981 360.024,252.639 362.476,252.294 364.927,251.948 367.378,251.6 369.829,251.249 372.28,250.897 374.732,250.542 377.183,250.186 379.634,249.827 382.085,249.467 384.536,249.104 386.988,248.739 389.439,248.372 391.89,248.003 394.341,247.632 396.792,247.259 399.243,246.884 401.695,246.507 404.146,246.127 406.597,245.746 409.048,245.362 411.499,244.976 413.951,244.588 416.402,244.197 418.853,243.805 421.304,243.41 423.755,243.013 426.207,242.614 428.658,242.213 431.109,241.809 433.56,241.403 436.011,240.995 438.463,240.585 440.914,240.172 443.365,239.757 445.816,239.34 448.267,238.92 450.718,238.498 453.17,238.074 455.621,237.648 458.072,237.219 460.523,236.787 462.974,236.354 465.426,235.918 467.877,235.479 470.328,235.039 472.779,234.595 475.23,234.15 477.682,233.702 480.133,233.251 482.584,232.798 485.035,232.343 487.486,231.885 489.938,231.424 492.389,230.961 494.84,230.496 497.291,230.028 499.742,229.557 502.193,229.084 504.645,228.609 507.096,228.131 509.547,227.65 511.998,227.166 514.449,226.681 516.901,226.192 519.352,225.701 521.803,225.207 524.254,224.71 526.705,224.211 529.157,223.709 531.608,223.205 534.059,222.698 536.51,222.188 538.961,221.675 541.412,221.16 543.864,220.642 546.315,220.121 548.766,219.597 551.217,219.07 553.668,218.541 556.12,218.009 558.571,217.474 561.022,216.936"/>
  </g>
  <clipPath id="cp00619354">
   <polygon points="0,354 619,354 619,0 0,0"/>
  </clipPath>
  <g clip-path="url(#cp00619354)">
   <polygon fill="#ffffff" shape-rendering="crispEdges" points="87.3639,145.668 188.464,145.668 188.464,33.3429 87.3639,33.3429"/>
   <polyline stroke="#262626" stroke-width="0.5" stroke-linejoin="miter" fill="none" stroke-linecap="square" stroke-dasharray="16,0" points="87.3639,145.668 188.464,145.668"/>
   <polyline stroke="#262626" stroke-width="0.5" stroke-linejoin="miter" fill="none" stroke-linecap="square" stroke-dasharray="16,0" points="87.3639,33.3429 188.464,33.3429"/>
   <polyline stroke="#262626" stroke-width="0.5" stroke-linejoin="miter" fill="none" stroke-linecap="square" stroke-dasharray="16,0" points="87.3639,145.668 87.3639,33.3429"/>
   <polyline stroke="#262626" stroke-width="0.5" stroke-linejoin="miter" fill="none" stroke-linecap="square" stroke-dasharray="16,0" points="188.464,145.668 188.464,33.3429"/>
   <polyline stroke="#0071bc" stroke-width="0.5" stroke-linejoin="round" fill="none" stroke-linecap="butt" points="90.7515,44.7304 107.689,44.7304"/>
   <text font-size="20" font-family="FreeSans" xml:space="preserve" font-weight="normal" font-style="normal" transform="translate(111.077,52.7304) rotate(-0,-0,-8)">
    <tspan x="0 14 25 36 " fill="rgb(0,0,0)" y="-0">Real</tspan>
   </text>
   <polyline stroke="#d85218" stroke-width="0.5" stroke-linejoin="round" fill="none" stroke-linecap="butt" points="90.7515,65.618 107.689,65.618"/>
   <text font-size="20" font-family="FreeSans" xml:space="preserve" font-weight="normal" font-style="normal" transform="translate(111.077,75.118) rotate(-0,-0,-9.5)">
    <tspan x="0 " fill="rgb(0,0,0)" y="-3">I</tspan>
    <tspan font-size="14" x="6 " fill="rgb(0,0,0)" y="-0">c</tspan>
    <tspan x="13 18 30 35 46 52 63 " fill="rgb(0,0,0)" y="-3"> = 0,03</tspan>
   </text>
   <polyline stroke="#ecb01f" stroke-width="0.5" stroke-linejoin="round" fill="none" stroke-linecap="butt" points="90.7515,88.0056 107.689,88.0056"/>
   <text font-size="20" font-family="FreeSans" xml:space="preserve" font-weight="normal" font-style="normal" transform="translate(111.077,97.5056) rotate(-0,-0,-9.5)">
    <tspan x="0 " fill="rgb(0,0,0)" y="-3">I</tspan>
    <tspan font-size="14" x="6 " fill="rgb(0,0,0)" y="-0">c</tspan>
    <tspan x="13 18 30 35 46 52 63 " fill="rgb(0,0,0)" y="-3"> = 0,06</tspan>
   </text>
   <polyline stroke="#7d2e8d" stroke-width="0.5" stroke-linejoin="round" fill="none" stroke-linecap="butt" points="90.7515,110.393 107.689,110.393"/>
   <text font-size="20" font-family="FreeSans" xml:space="preserve" font-weight="normal" font-style="normal" transform="translate(111.077,119.893) rotate(-0,-0,-9.5)">
    <tspan x="0 " fill="rgb(0,0,0)" y="-3">I</tspan>
    <tspan font-size="14" x="6 " fill="rgb(0,0,0)" y="-0">c</tspan>
    <tspan x="13 18 30 35 46 52 63 " fill="rgb(0,0,0)" y="-3"> = 0,09</tspan>
   </text>
   <polyline stroke="#76ab2f" stroke-width="0.5" stroke-linejoin="round" fill="none" stroke-linecap="butt" points="90.7515,132.781 107.689,132.781"/>
   <text font-size="20" font-family="FreeSans" xml:space="preserve" font-weight="normal" font-style="normal" transform="translate(111.077,142.281) rotate(-0,-0,-9.5)">
    <tspan x="0 " fill="rgb(0,0,0)" y="-3">I</tspan>
    <tspan font-size="14" x="6 " fill="rgb(0,0,0)" y="-0">c</tspan>
    <tspan x="13 18 30 35 46 52 63 " fill="rgb(0,0,0)" y="-3"> = 0,12</tspan>
   </text>
  </g>
 </g>
</svg>
