<?xml version='1.0' encoding='UTF-8' standalone='no'?>
<svg width="619pt" height="354pt" xmlns:xlink="http://www.w3.org/1999/xlink" xmlns="http://www.w3.org/2000/svg" viewBox="0 0 619 354">
 <title>gl2ps_renderer figure</title>
 <desc>
Creator: GL2PS 1.4.2, (C) 1999-2020 C. Geuzaine
For: Octave
CreationDate: Mon Nov 14 00:50:37 2022
</desc>
 <defs/>
 <polygon fill="#ffffff" points="0,0 619,0 619,354 0,354"/>
 <g>
  <polygon shape-rendering="crispEdges" fill="#ffffff" points="0,354 619,354 619,0 0,0"/>
  <clipPath id="cp00619354">
   <polygon points="0,354 619,354 619,0 0,0"/>
  </clipPath>
  <g clip-path="url(#cp00619354)">
   <polygon shape-rendering="crispEdges" fill="#ffffff" points="80.5888,315.27 561.022,315.27 561.022,26.5677 80.5888,26.5677"/>
   <polyline fill="none" stroke-linejoin="miter" stroke-dasharray="16,0" stroke="#262626" stroke-width="0.5" stroke-opacity="0.15" stroke-linecap="butt" points="80.5888,315.27 80.5888,26.5677"/>
   <polyline fill="none" stroke-linejoin="miter" stroke-dasharray="16,0" stroke="#262626" stroke-width="0.5" stroke-opacity="0.15" stroke-linecap="butt" points="158.329,315.27 158.329,26.5677"/>
   <polyline fill="none" stroke-linejoin="miter" stroke-dasharray="16,0" stroke="#262626" stroke-width="0.5" stroke-opacity="0.15" stroke-linecap="butt" points="236.069,315.27 236.069,26.5677"/>
   <polyline fill="none" stroke-linejoin="miter" stroke-dasharray="16,0" stroke="#262626" stroke-width="0.5" stroke-opacity="0.15" stroke-linecap="butt" points="313.809,315.27 313.809,26.5677"/>
   <polyline fill="none" stroke-linejoin="miter" stroke-dasharray="16,0" stroke="#262626" stroke-width="0.5" stroke-opacity="0.15" stroke-linecap="butt" points="391.549,315.27 391.549,26.5677"/>
   <polyline fill="none" stroke-linejoin="miter" stroke-dasharray="16,0" stroke="#262626" stroke-width="0.5" stroke-opacity="0.15" stroke-linecap="butt" points="469.289,315.27 469.289,26.5677"/>
   <polyline fill="none" stroke-linejoin="miter" stroke-dasharray="16,0" stroke="#262626" stroke-width="0.5" stroke-opacity="0.15" stroke-linecap="butt" points="547.029,315.27 547.029,26.5677"/>
   <polyline fill="none" stroke-linejoin="miter" stroke="#262626" stroke-width="0.5" stroke-linecap="butt" points="80.5888,315.27 80.5888,310.471"/>
   <polyline fill="none" stroke-linejoin="miter" stroke="#262626" stroke-width="0.5" stroke-linecap="butt" points="80.5888,26.5677 80.5888,31.3671"/>
   <polyline fill="none" stroke-linejoin="miter" stroke="#262626" stroke-width="0.5" stroke-linecap="butt" points="158.329,315.27 158.329,310.471"/>
   <polyline fill="none" stroke-linejoin="miter" stroke="#262626" stroke-width="0.5" stroke-linecap="butt" points="158.329,26.5677 158.329,31.3671"/>
   <polyline fill="none" stroke-linejoin="miter" stroke="#262626" stroke-width="0.5" stroke-linecap="butt" points="236.069,315.27 236.069,310.471"/>
   <polyline fill="none" stroke-linejoin="miter" stroke="#262626" stroke-width="0.5" stroke-linecap="butt" points="236.069,26.5677 236.069,31.3671"/>
   <polyline fill="none" stroke-linejoin="miter" stroke="#262626" stroke-width="0.5" stroke-linecap="butt" points="313.809,315.27 313.809,310.471"/>
   <polyline fill="none" stroke-linejoin="miter" stroke="#262626" stroke-width="0.5" stroke-linecap="butt" points="313.809,26.5677 313.809,31.3671"/>
   <polyline fill="none" stroke-linejoin="miter" stroke="#262626" stroke-width="0.5" stroke-linecap="butt" points="391.549,315.27 391.549,310.471"/>
   <polyline fill="none" stroke-linejoin="miter" stroke="#262626" stroke-width="0.5" stroke-linecap="butt" points="391.549,26.5677 391.549,31.3671"/>
   <polyline fill="none" stroke-linejoin="miter" stroke="#262626" stroke-width="0.5" stroke-linecap="butt" points="469.289,315.27 469.289,310.471"/>
   <polyline fill="none" stroke-linejoin="miter" stroke="#262626" stroke-width="0.5" stroke-linecap="butt" points="469.289,26.5677 469.289,31.3671"/>
   <polyline fill="none" stroke-linejoin="miter" stroke="#262626" stroke-width="0.5" stroke-linecap="butt" points="547.029,315.27 547.029,310.471"/>
   <polyline fill="none" stroke-linejoin="miter" stroke="#262626" stroke-width="0.5" stroke-linecap="butt" points="547.029,26.5677 547.029,31.3671"/>
   <text xml:space="preserve" font-style="normal" font-family="FreeSans" font-size="10" font-weight="normal" transform="translate(77.5888,330.763) rotate(-0,3,-8)">
    <tspan y="-0" fill="rgb(38,38,38)" x="0 ">0</tspan>
   </text>
   <text xml:space="preserve" font-style="normal" font-family="FreeSans" font-size="10" font-weight="normal" transform="translate(150.829,330.763) rotate(-0,7.5,-8)">
    <tspan y="-0" fill="rgb(38,38,38)" x="0 6 9 ">0.1</tspan>
   </text>
   <text xml:space="preserve" font-style="normal" font-family="FreeSans" font-size="10" font-weight="normal" transform="translate(228.569,330.763) rotate(-0,7.5,-8)">
    <tspan y="-0" fill="rgb(38,38,38)" x="0 6 9 ">0.2</tspan>
   </text>
   <text xml:space="preserve" font-style="normal" font-family="FreeSans" font-size="10" font-weight="normal" transform="translate(306.309,330.763) rotate(-0,7.5,-8)">
    <tspan y="-0" fill="rgb(38,38,38)" x="0 6 9 ">0.3</tspan>
   </text>
   <text xml:space="preserve" font-style="normal" font-family="FreeSans" font-size="10" font-weight="normal" transform="translate(384.049,330.763) rotate(-0,7.5,-8)">
    <tspan y="-0" fill="rgb(38,38,38)" x="0 6 9 ">0.4</tspan>
   </text>
   <text xml:space="preserve" font-style="normal" font-family="FreeSans" font-size="10" font-weight="normal" transform="translate(461.789,330.763) rotate(-0,7.5,-8)">
    <tspan y="-0" fill="rgb(38,38,38)" x="0 6 9 ">0.5</tspan>
   </text>
   <text xml:space="preserve" font-style="normal" font-family="FreeSans" font-size="10" font-weight="normal" transform="translate(539.529,330.763) rotate(-0,7.5,-8)">
    <tspan y="-0" fill="rgb(38,38,38)" x="0 6 9 ">0.6</tspan>
   </text>
   <polyline fill="none" stroke-linejoin="miter" stroke-dasharray="16,0" stroke="#262626" stroke-width="0.5" stroke-opacity="0.15" stroke-linecap="butt" points="80.5888,315.27 561.022,315.27"/>
   <polyline fill="none" stroke-linejoin="miter" stroke-dasharray="16,0" stroke="#262626" stroke-width="0.5" stroke-opacity="0.15" stroke-linecap="butt" points="80.5888,267.153 561.022,267.153"/>
   <polyline fill="none" stroke-linejoin="miter" stroke-dasharray="16,0" stroke="#262626" stroke-width="0.5" stroke-opacity="0.15" stroke-linecap="butt" points="80.5888,219.036 561.022,219.036"/>
   <polyline fill="none" stroke-linejoin="miter" stroke-dasharray="16,0" stroke="#262626" stroke-width="0.5" stroke-opacity="0.15" stroke-linecap="butt" points="80.5888,170.919 561.022,170.919"/>
   <polyline fill="none" stroke-linejoin="miter" stroke-dasharray="16,0" stroke="#262626" stroke-width="0.5" stroke-opacity="0.15" stroke-linecap="butt" points="80.5888,122.802 561.022,122.802"/>
   <polyline fill="none" stroke-linejoin="miter" stroke-dasharray="16,0" stroke="#262626" stroke-width="0.5" stroke-opacity="0.15" stroke-linecap="butt" points="80.5888,74.6848 561.022,74.6848"/>
   <polyline fill="none" stroke-linejoin="miter" stroke-dasharray="16,0" stroke="#262626" stroke-width="0.5" stroke-opacity="0.15" stroke-linecap="butt" points="80.5888,26.5677 561.022,26.5677"/>
   <polyline fill="none" stroke-linejoin="miter" stroke="#262626" stroke-width="0.5" stroke-linecap="butt" points="80.5888,315.27 85.3975,315.27"/>
   <polyline fill="none" stroke-linejoin="miter" stroke="#262626" stroke-width="0.5" stroke-linecap="butt" points="561.022,315.27 556.213,315.27"/>
   <polyline fill="none" stroke-linejoin="miter" stroke="#262626" stroke-width="0.5" stroke-linecap="butt" points="80.5888,267.153 85.3975,267.153"/>
   <polyline fill="none" stroke-linejoin="miter" stroke="#262626" stroke-width="0.5" stroke-linecap="butt" points="561.022,267.153 556.213,267.153"/>
   <polyline fill="none" stroke-linejoin="miter" stroke="#262626" stroke-width="0.5" stroke-linecap="butt" points="80.5888,219.036 85.3975,219.036"/>
   <polyline fill="none" stroke-linejoin="miter" stroke="#262626" stroke-width="0.5" stroke-linecap="butt" points="561.022,219.036 556.213,219.036"/>
   <polyline fill="none" stroke-linejoin="miter" stroke="#262626" stroke-width="0.5" stroke-linecap="butt" points="80.5888,170.919 85.3975,170.919"/>
   <polyline fill="none" stroke-linejoin="miter" stroke="#262626" stroke-width="0.5" stroke-linecap="butt" points="561.022,170.919 556.213,170.919"/>
   <polyline fill="none" stroke-linejoin="miter" stroke="#262626" stroke-width="0.5" stroke-linecap="butt" points="80.5888,122.802 85.3975,122.802"/>
   <polyline fill="none" stroke-linejoin="miter" stroke="#262626" stroke-width="0.5" stroke-linecap="butt" points="561.022,122.802 556.213,122.802"/>
   <polyline fill="none" stroke-linejoin="miter" stroke="#262626" stroke-width="0.5" stroke-linecap="butt" points="80.5888,74.6848 85.3975,74.6848"/>
   <polyline fill="none" stroke-linejoin="miter" stroke="#262626" stroke-width="0.5" stroke-linecap="butt" points="561.022,74.6848 556.213,74.6848"/>
   <polyline fill="none" stroke-linejoin="miter" stroke="#262626" stroke-width="0.5" stroke-linecap="butt" points="80.5888,26.5677 85.3975,26.5677"/>
   <polyline fill="none" stroke-linejoin="miter" stroke="#262626" stroke-width="0.5" stroke-linecap="butt" points="561.022,26.5677 556.213,26.5677"/>
   <text xml:space="preserve" font-style="normal" font-family="FreeSans" font-size="10" font-weight="normal" transform="translate(66.5843,319.27) rotate(-0,9,-4)">
    <tspan y="-0" fill="rgb(38,38,38)" x="0 3 ">-6</tspan>
   </text>
   <text xml:space="preserve" font-style="normal" font-family="FreeSans" font-size="10" font-weight="normal" transform="translate(66.5843,271.153) rotate(-0,9,-4)">
    <tspan y="-0" fill="rgb(38,38,38)" x="0 3 ">-5</tspan>
   </text>
   <text xml:space="preserve" font-style="normal" font-family="FreeSans" font-size="10" font-weight="normal" transform="translate(66.5843,223.036) rotate(-0,9,-4)">
    <tspan y="-0" fill="rgb(38,38,38)" x="0 3 ">-4</tspan>
   </text>
   <text xml:space="preserve" font-style="normal" font-family="FreeSans" font-size="10" font-weight="normal" transform="translate(66.5843,174.919) rotate(-0,9,-4)">
    <tspan y="-0" fill="rgb(38,38,38)" x="0 3 ">-3</tspan>
   </text>
   <text xml:space="preserve" font-style="normal" font-family="FreeSans" font-size="10" font-weight="normal" transform="translate(66.5843,126.802) rotate(-0,9,-4)">
    <tspan y="-0" fill="rgb(38,38,38)" x="0 3 ">-2</tspan>
   </text>
   <text xml:space="preserve" font-style="normal" font-family="FreeSans" font-size="10" font-weight="normal" transform="translate(66.5843,78.6849) rotate(-0,9,-4)">
    <tspan y="-0" fill="rgb(38,38,38)" x="0 3 ">-1</tspan>
   </text>
   <text xml:space="preserve" font-style="normal" font-family="FreeSans" font-size="10" font-weight="normal" transform="translate(69.5843,30.5677) rotate(-0,6,-4)">
    <tspan y="-0" fill="rgb(38,38,38)" x="0 ">0</tspan>
   </text>
   <polyline fill="none" stroke-linejoin="miter" stroke-dasharray="16,0" stroke="#262626" stroke-width="0.5" stroke-linecap="square" points="80.5888,315.27 561.022,315.27"/>
   <polyline fill="none" stroke-linejoin="miter" stroke-dasharray="16,0" stroke="#262626" stroke-width="0.5" stroke-linecap="square" points="80.5888,26.5677 561.022,26.5677"/>
   <polyline fill="none" stroke-linejoin="miter" stroke-dasharray="16,0" stroke="#262626" stroke-width="0.5" stroke-linecap="square" points="80.5888,315.27 80.5888,26.5677"/>
   <polyline fill="none" stroke-linejoin="miter" stroke-dasharray="16,0" stroke="#262626" stroke-width="0.5" stroke-linecap="square" points="561.022,315.27 561.022,26.5677"/>
   <text xml:space="preserve" font-style="normal" font-family="FreeSans" font-size="11" font-weight="normal" transform="translate(297.305,347.763) rotate(-0,23.5,-12)">
    <tspan y="-3" fill="rgb(38,38,38)" x="0 7 13 22 28 34 38 43 ">Tempo(s)</tspan>
   </text>
   <text xml:space="preserve" font-style="normal" font-family="FreeSans" font-size="11" font-weight="normal" transform="translate(33.0843,170.919) rotate(-90,28.5,0)">
    <tspan y="-3" fill="rgb(38,38,38)" x="0 7 13 19 25 27 33 37 41 47 53 ">Ângulo(rad)</tspan>
   </text>
   <polyline fill="none" stroke-linejoin="round" stroke="#0071bc" stroke-width="0.5" stroke-linecap="butt" points="80.5888,26.5677 82.1436,26.5677 83.6984,26.5677 85.2532,26.5677 86.808,26.5677 88.3628,26.5677 89.9176,26.5677 91.4724,26.5677 93.0272,27.3761 94.582,27.3761 96.1368,27.3761 97.6916,27.3761 99.2464,27.3761 100.801,27.3761 102.356,27.3761 103.911,27.3761 105.466,28.1845 107.02,28.1845 108.575,28.1845 110.13,28.1845 111.685,28.1845 113.24,28.9928 114.794,28.9928 116.349,28.9928 117.904,28.9928 119.459,29.8012 121.014,29.8012 122.568,29.8012 124.123,29.8012 125.678,30.6096 127.233,30.6096 128.788,30.6096 130.342,31.4179 131.897,31.4179 133.452,31.4179 135.007,32.2263 136.562,32.2263 138.116,32.2263 139.671,33.0347 141.226,33.0347 142.781,33.0347 144.336,33.843 145.89,33.843 147.445,33.843 149,34.6514 150.555,34.6514 152.11,35.4598 153.664,35.4598 155.219,36.2681 156.774,36.2681 158.329,36.2681 159.884,37.0764 161.438,37.0764 162.993,37.8848 164.548,37.8848 166.103,38.6932 167.658,38.6932 169.212,39.5016 170.767,39.5016 172.322,40.3099 173.877,40.3099 175.432,41.1183 176.986,41.1183 178.541,41.9267 180.096,41.9267 181.651,42.735 183.206,42.735 184.76,43.5434 186.315,43.5434 187.87,44.3518 189.425,44.3518 190.98,45.1601 192.534,45.1601 194.089,45.9685 195.644,45.9685 197.199,46.7769 198.754,46.7769 200.308,47.5852 201.863,48.3936 203.418,48.3936 204.973,49.202 206.528,49.202 208.082,50.0103 209.637,50.0103 211.192,50.8187 212.747,51.6271 214.302,51.6271 215.856,52.4355 217.411,52.4355 218.966,53.2438 220.521,54.0522 222.076,54.0522 223.63,54.8605 225.185,54.8605 226.74,55.6689 228.295,56.4773 229.85,56.4773 231.404,57.2856 232.959,57.2856 234.514,58.094 236.069,58.094 237.624,58.9023 239.178,59.7107 240.733,59.7107 242.288,60.5191 243.843,61.3275 245.398,61.3275 246.952,62.1358 248.507,62.1358 250.062,62.9442 251.617,63.7526 253.172,63.7526 254.726,64.5609 256.281,65.3693 257.836,65.3693 259.391,66.1776 260.946,66.986 262.5,66.986 264.055,67.7944 265.61,68.6028 267.165,68.6028 268.72,69.4111 270.274,70.2195 271.829,70.2195 273.384,71.0279 274.939,71.8362 276.494,72.6446 278.048,72.6446 279.603,73.4529 281.158,74.2613 282.713,74.2613 284.268,75.0697 285.822,75.8781 287.377,76.6864 288.932,76.6864 290.487,77.4948 292.042,78.3031 293.596,78.3031 295.151,79.1115 296.706,79.9199 298.261,80.7282 299.816,80.7282 301.37,81.5366 302.925,82.3449 304.48,83.1533 306.035,83.1533 307.59,83.9617 309.144,84.7701 310.699,85.5784 312.254,86.3868 313.809,86.3868 315.364,87.1952 316.918,88.0035 318.473,88.8119 320.028,89.6203 321.583,89.6203 323.138,90.4286 324.692,91.237 326.247,92.0454 327.802,92.8537 329.357,93.6621 330.912,94.4705 332.466,94.4705 334.021,95.2788 335.576,96.0872 337.131,96.8955 338.686,97.7039 340.24,98.5123 341.795,99.3206 343.35,100.129 344.905,100.129 346.46,100.937 348.014,101.746 349.569,102.554 351.124,103.362 352.679,104.171 354.234,104.979 355.788,105.788 357.343,106.596 358.898,107.404 360.453,108.213 362.008,109.021 363.562,109.829 365.117,110.638 366.672,111.446 368.227,112.255 369.782,113.063 371.336,113.871 372.891,114.68 374.446,115.488 376.001,116.296 377.556,117.105 379.11,117.913 380.665,118.721 382.22,119.53 383.775,120.338 385.33,121.146 386.884,121.955 388.439,122.763 389.994,123.572 391.549,124.38 393.104,125.997 394.658,126.805 396.213,127.613 397.768,128.422 399.323,129.23 400.878,130.039 402.432,130.847 403.987,131.655 405.542,132.464 407.097,134.08 408.652,134.889 410.206,135.697 411.761,136.505 413.316,137.314 414.871,138.122 416.426,138.931 417.98,140.547 419.535,141.356 421.09,142.164 422.645,142.972 424.2,143.781 425.754,144.589 427.309,146.206 428.864,147.014 430.419,147.823 431.974,148.631 433.528,149.439 435.083,151.056 436.638,151.864 438.193,152.673 439.748,154.29 441.302,155.098 442.857,155.906 444.412,156.715 445.967,158.331 447.522,159.14 449.076,159.948 450.631,161.565 452.186,162.373 453.741,163.182 455.296,164.798 456.85,165.607 458.405,166.415 459.96,168.032 461.515,168.84 463.07,169.648 464.624,171.265 466.179,172.074 467.734,172.882 469.289,174.499 470.844,175.307 472.398,176.115 473.953,177.732 475.508,178.54 477.063,180.157 478.618,180.966 480.172,181.774 481.727,183.391 483.282,184.199 484.837,185.816 486.392,186.624 487.946,187.433 489.501,189.049 491.056,189.858 492.611,191.474 494.166,192.283 495.72,193.091 497.275,194.708 498.83,195.516 500.385,197.133 501.94,197.941 503.494,199.558 505.049,200.366 506.604,201.175 508.159,202.791 509.714,203.6 511.268,205.217 512.823,206.025 514.378,207.642 515.933,208.45 517.488,210.067 519.042,210.875 520.597,212.492 522.152,213.3 523.707,214.109 525.262,215.725 526.816,216.534 528.371,218.15 529.926,218.959 531.481,220.576 533.036,221.384 534.59,223.001 536.145,223.809 537.7,225.426 539.255,226.234 540.81,227.042 542.364,228.659 543.919,229.468 545.474,231.084 547.029,231.893 548.584,233.509 550.138,234.318 551.693,235.934 553.248,236.743 554.803,238.36 556.358,239.168 557.912,240.785 559.467,241.593 561.022,243.21"/>
   <polyline fill="none" stroke-linejoin="round" stroke="#d85218" stroke-width="0.5" stroke-linecap="butt" points="80.5888,26.5677 82.1436,26.6314 83.6984,26.811 85.2532,27.091 86.808,27.4581 88.3628,27.9006 89.9176,28.4085 91.4724,28.9732 93.0272,29.5869 94.582,30.2433 96.1368,30.9366 97.6916,31.6618 99.2464,32.4148 100.801,33.1919 102.356,33.9898 103.911,34.8058 105.466,35.6375 107.02,36.4827 108.575,37.3398 110.13,38.207 111.685,39.0831 113.24,39.9669 114.794,40.8574 116.349,41.7537 117.904,42.655 119.459,43.5606 121.014,44.4701 122.568,45.3828 124.123,46.2984 125.678,47.2165 127.233,48.1367 128.788,49.0588 130.342,49.9826 131.897,50.9078 133.452,51.8342 135.007,52.7617 136.562,53.6902 138.116,54.6194 139.671,55.5495 141.226,56.4801 142.781,57.4113 144.336,58.343 145.89,59.2752 147.445,60.2077 149,61.1406 150.555,62.0738 152.11,63.0073 153.664,63.9409 155.219,64.8749 156.774,65.809 158.329,66.7433 159.884,67.6778 161.438,68.6124 162.993,69.5471 164.548,70.482 166.103,71.4171 167.658,72.3522 169.212,73.2874 170.767,74.2228 172.322,75.1582 173.877,76.0938 175.432,77.0294 176.986,77.9651 178.541,78.9009 180.096,79.8368 181.651,80.7727 183.206,81.7088 184.76,82.6449 186.315,83.5811 187.87,84.5173 189.425,85.4537 190.98,86.3901 192.534,87.3266 194.089,88.2632 195.644,89.1999 197.199,90.1366 198.754,91.0734 200.308,92.0103 201.863,92.9472 203.418,93.8843 204.973,94.8214 206.528,95.7586 208.082,96.6958 209.637,97.6331 211.192,98.5706 212.747,99.5081 214.302,100.446 215.856,101.383 217.411,102.321 218.966,103.259 220.521,104.197 222.076,105.135 223.63,106.073 225.185,107.011 226.74,107.949 228.295,108.887 229.85,109.826 231.404,110.764 232.959,111.703 234.514,112.641 236.069,113.58 237.624,114.519 239.178,115.458 240.733,116.397 242.288,117.336 243.843,118.275 245.398,119.214 246.952,120.153 248.507,121.093 250.062,122.032 251.617,122.972 253.172,123.912 254.726,124.851 256.281,125.791 257.836,126.731 259.391,127.671 260.946,128.611 262.5,129.552 264.055,130.492 265.61,131.432 267.165,132.373 268.72,133.314 270.274,134.254 271.829,135.195 273.384,136.136 274.939,137.077 276.494,138.018 278.048,138.959 279.603,139.901 281.158,140.842 282.713,141.784 284.268,142.725 285.822,143.667 287.377,144.609 288.932,145.551 290.487,146.493 292.042,147.435 293.596,148.377 295.151,149.32 296.706,150.262 298.261,151.205 299.816,152.147 301.37,153.09 302.925,154.033 304.48,154.976 306.035,155.919 307.59,156.863 309.144,157.806 310.699,158.749 312.254,159.693 313.809,160.637 315.364,161.581 316.918,162.525 318.473,163.469 320.028,164.413 321.583,165.357 323.138,166.302 324.692,167.246 326.247,168.191 327.802,169.136 329.357,170.081 330.912,171.026 332.466,171.971 334.021,172.916 335.576,173.862 337.131,174.807 338.686,175.753 340.24,176.699 341.795,177.645 343.35,178.591 344.905,179.537 346.46,180.484 348.014,181.43 349.569,182.377 351.124,183.324 352.679,184.27 354.234,185.218 355.788,186.165 357.343,187.112 358.898,188.06 360.453,189.007 362.008,189.955 363.562,190.903 365.117,191.851 366.672,192.799 368.227,193.748 369.782,194.696 371.336,195.645 372.891,196.594 374.446,197.543 376.001,198.492 377.556,199.441 379.11,200.39 380.665,201.34 382.22,202.29 383.775,203.24 385.33,204.19 386.884,205.14 388.439,206.09 389.994,207.041 391.549,207.992 393.104,208.942 394.658,209.894 396.213,210.845 397.768,211.796 399.323,212.748 400.878,213.699 402.432,214.651 403.987,215.603 405.542,216.556 407.097,217.508 408.652,218.461 410.206,219.413 411.761,220.366 413.316,221.319 414.871,222.273 416.426,223.226 417.98,224.18 419.535,225.134 421.09,226.088 422.645,227.042 424.2,227.996 425.754,228.951 427.309,229.906 428.864,230.861 430.419,231.816 431.974,232.771 433.528,233.727 435.083,234.682 436.638,235.638 438.193,236.595 439.748,237.551 441.302,238.507 442.857,239.464 444.412,240.421 445.967,241.378 447.522,242.336 449.076,243.293 450.631,244.251 452.186,245.209 453.741,246.167 455.296,247.126 456.85,248.084 458.405,249.043 459.96,250.002 461.515,250.962 463.07,251.921 464.624,252.881 466.179,253.841 467.734,254.801 469.289,255.762 470.844,256.722 472.398,257.683 473.953,258.644 475.508,259.606 477.063,260.567 478.618,261.529 480.172,262.491 481.727,263.453 483.282,264.416 484.837,265.379 486.392,266.342 487.946,267.305 489.501,268.269 491.056,269.233 492.611,270.197 494.166,271.161 495.72,272.125 497.275,273.09 498.83,274.055 500.385,275.021 501.94,275.986 503.494,276.952 505.049,277.918 506.604,278.884 508.159,279.851 509.714,280.818 511.268,281.785 512.823,282.753 514.378,283.72 515.933,284.689 517.488,285.657 519.042,286.625 520.597,287.594 522.152,288.563 523.707,289.533 525.262,290.503 526.816,291.473 528.371,292.443 529.926,293.414 531.481,294.384 533.036,295.356 534.59,296.327 536.145,297.299 537.7,298.271 539.255,299.244 540.81,300.216 542.364,301.189 543.919,302.163 545.474,303.136 547.029,304.11 548.584,305.085 550.138,306.059 551.693,307.034 553.248,308.01 554.803,308.985 556.358,309.961 557.912,310.937 559.467,311.914 561.022,312.891"/>
   <polyline fill="none" stroke-linejoin="round" stroke="#ecb01f" stroke-width="0.5" stroke-linecap="butt" points="80.5888,26.5677 82.1436,26.631 83.6984,26.808 85.2532,27.0818 86.808,27.4379 88.3628,27.8638 89.9176,28.3493 91.4724,28.8854 93.0272,29.4645 94.582,30.0802 96.1368,30.7271 97.6916,31.4004 99.2464,32.0963 100.801,32.8113 102.356,33.5427 103.911,34.2879 105.466,35.045 107.02,35.8122 108.575,36.5879 110.13,37.371 111.685,38.1602 113.24,38.9548 114.794,39.754 116.349,40.557 117.904,41.3633 119.459,42.1725 121.014,42.9841 122.568,43.7978 124.123,44.6133 125.678,45.4303 127.233,46.2486 128.788,47.0681 130.342,47.8886 131.897,48.71 133.452,49.532 135.007,50.3548 136.562,51.1782 138.116,52.002 139.671,52.8263 141.226,53.651 142.781,54.4761 144.336,55.3015 145.89,56.1273 147.445,56.9532 149,57.7795 150.555,58.606 152.11,59.4327 153.664,60.2596 155.219,61.0868 156.774,61.9141 158.329,62.7416 159.884,63.5693 161.438,64.3972 162.993,65.2252 164.548,66.0534 166.103,66.8818 167.658,67.7103 169.212,68.539 170.767,69.3678 172.322,70.1968 173.877,71.026 175.432,71.8553 176.986,72.6848 178.541,73.5144 180.096,74.3442 181.651,75.1742 183.206,76.0043 184.76,76.8346 186.315,77.665 187.87,78.4956 189.425,79.3264 190.98,80.1573 192.534,80.9884 194.089,81.8196 195.644,82.651 197.199,83.4826 198.754,84.3144 200.308,85.1463 201.863,85.9784 203.418,86.8106 204.973,87.6431 206.528,88.4757 208.082,89.3085 209.637,90.1414 211.192,90.9745 212.747,91.8079 214.302,92.6414 215.856,93.475 217.411,94.3089 218.966,95.1429 220.521,95.9772 222.076,96.8116 223.63,97.6462 225.185,98.481 226.74,99.3159 228.295,100.151 229.85,100.986 231.404,101.822 232.959,102.658 234.514,103.494 236.069,104.33 237.624,105.166 239.178,106.003 240.733,106.84 242.288,107.676 243.843,108.514 245.398,109.351 246.952,110.189 248.507,111.026 250.062,111.864 251.617,112.703 253.172,113.541 254.726,114.38 256.281,115.218 257.836,116.058 259.391,116.897 260.946,117.736 262.5,118.576 264.055,119.416 265.61,120.256 267.165,121.097 268.72,121.937 270.274,122.778 271.829,123.619 273.384,124.461 274.939,125.302 276.494,126.144 278.048,126.986 279.603,127.828 281.158,128.671 282.713,129.514 284.268,130.357 285.822,131.2 287.377,132.044 288.932,132.887 290.487,133.731 292.042,134.576 293.596,135.42 295.151,136.265 296.706,137.11 298.261,137.955 299.816,138.801 301.37,139.647 302.925,140.493 304.48,141.339 306.035,142.186 307.59,143.033 309.144,143.88 310.699,144.727 312.254,145.575 313.809,146.423 315.364,147.272 316.918,148.12 318.473,148.969 320.028,149.818 321.583,150.668 323.138,151.517 324.692,152.367 326.247,153.218 327.802,154.068 329.357,154.919 330.912,155.771 332.466,156.622 334.021,157.474 335.576,158.326 337.131,159.179 338.686,160.031 340.24,160.884 341.795,161.738 343.35,162.592 344.905,163.446 346.46,164.3 348.014,165.155 349.569,166.01 351.124,166.865 352.679,167.721 354.234,168.577 355.788,169.433 357.343,170.29 358.898,171.147 360.453,172.004 362.008,172.862 363.562,173.72 365.117,174.578 366.672,175.437 368.227,176.296 369.782,177.155 371.336,178.015 372.891,178.875 374.446,179.736 376.001,180.597 377.556,181.458 379.11,182.32 380.665,183.182 382.22,184.044 383.775,184.907 385.33,185.77 386.884,186.634 388.439,187.498 389.994,188.362 391.549,189.227 393.104,190.092 394.658,190.957 396.213,191.823 397.768,192.689 399.323,193.556 400.878,194.423 402.432,195.291 403.987,196.159 405.542,197.027 407.097,197.896 408.652,198.765 410.206,199.635 411.761,200.505 413.316,201.375 414.871,202.246 416.426,203.117 417.98,203.989 419.535,204.861 421.09,205.734 422.645,206.607 424.2,207.481 425.754,208.355 427.309,209.229 428.864,210.104 430.419,210.979 431.974,211.855 433.528,212.732 435.083,213.608 436.638,214.486 438.193,215.363 439.748,216.242 441.302,217.12 442.857,217.999 444.412,218.879 445.967,219.759 447.522,220.64 449.076,221.521 450.631,222.403 452.186,223.285 453.741,224.168 455.296,225.051 456.85,225.935 458.405,226.819 459.96,227.704 461.515,228.589 463.07,229.475 464.624,230.361 466.179,231.248 467.734,232.135 469.289,233.023 470.844,233.912 472.398,234.801 473.953,235.691 475.508,236.581 477.063,237.472 478.618,238.363 480.172,239.255 481.727,240.147 483.282,241.04 484.837,241.934 486.392,242.828 487.946,243.723 489.501,244.618 491.056,245.514 492.611,246.411 494.166,247.308 495.72,248.206 497.275,249.104 498.83,250.003 500.385,250.903 501.94,251.803 503.494,252.704 505.049,253.606 506.604,254.508 508.159,255.411 509.714,256.314 511.268,257.219 512.823,258.123 514.378,259.029 515.933,259.935 517.488,260.842 519.042,261.749 520.597,262.657 522.152,263.566 523.707,264.476 525.262,265.386 526.816,266.297 528.371,267.208 529.926,268.121 531.481,269.034 533.036,269.947 534.59,270.862 536.145,271.777 537.7,272.693 539.255,273.61 540.81,274.527 542.364,275.445 543.919,276.364 545.474,277.284 547.029,278.204 548.584,279.125 550.138,280.047 551.693,280.97 553.248,281.893 554.803,282.817 556.358,283.742 557.912,284.668 559.467,285.595 561.022,286.522"/>
   <polyline fill="none" stroke-linejoin="round" stroke="#7d2e8d" stroke-width="0.5" stroke-linecap="butt" points="80.5888,26.5677 82.1436,26.6306 83.6984,26.8052 85.2532,27.0729 86.808,27.4184 88.3628,27.8287 89.9176,28.2932 91.4724,28.8028 93.0272,29.3502 94.582,29.929 96.1368,30.5341 97.6916,31.1613 99.2464,31.8067 100.801,32.4675 102.356,33.1412 103.911,33.8255 105.466,34.5189 107.02,35.2198 108.575,35.927 110.13,36.6395 111.685,37.3564 113.24,38.0772 114.794,38.8011 116.349,39.5276 117.904,40.2565 119.459,40.9872 121.014,41.7197 122.568,42.4535 124.123,43.1885 125.678,43.9246 127.233,44.6616 128.788,45.3994 130.342,46.1379 131.897,46.8771 133.452,47.6168 135.007,48.357 136.562,49.0977 138.116,49.8388 139.671,50.5803 141.226,51.3221 142.781,52.0643 144.336,52.8069 145.89,53.5497 147.445,54.2929 149,55.0363 150.555,55.7801 152.11,56.5241 153.664,57.2684 155.219,58.013 156.774,58.7578 158.329,59.5029 159.884,60.2483 161.438,60.9939 162.993,61.7398 164.548,62.486 166.103,63.2324 167.658,63.9791 169.212,64.726 170.767,65.4733 172.322,66.2207 173.877,66.9685 175.432,67.7165 176.986,68.4648 178.541,69.2134 180.096,69.9622 181.651,70.7113 183.206,71.4607 184.76,72.2103 186.315,72.9603 187.87,73.7105 189.425,74.461 190.98,75.2117 192.534,75.9628 194.089,76.7141 195.644,77.4657 197.199,78.2177 198.754,78.9698 200.308,79.7224 201.863,80.4752 203.418,81.2282 204.973,81.9816 206.528,82.7353 208.082,83.4893 209.637,84.2436 211.192,84.9981 212.747,85.753 214.302,86.5082 215.856,87.2637 217.411,88.0196 218.966,88.7757 220.521,89.5321 222.076,90.2889 223.63,91.046 225.185,91.8034 226.74,92.5611 228.295,93.3192 229.85,94.0776 231.404,94.8363 232.959,95.5953 234.514,96.3547 236.069,97.1144 237.624,97.8745 239.178,98.6349 240.733,99.3956 242.288,100.157 243.843,100.918 245.398,101.68 246.952,102.442 248.507,103.204 250.062,103.967 251.617,104.73 253.172,105.494 254.726,106.258 256.281,107.022 257.836,107.787 259.391,108.552 260.946,109.317 262.5,110.083 264.055,110.849 265.61,111.615 267.165,112.382 268.72,113.15 270.274,113.917 271.829,114.685 273.384,115.454 274.939,116.222 276.494,116.992 278.048,117.761 279.603,118.531 281.158,119.302 282.713,120.072 284.268,120.844 285.822,121.615 287.377,122.387 288.932,123.16 290.487,123.932 292.042,124.706 293.596,125.479 295.151,126.253 296.706,127.028 298.261,127.803 299.816,128.578 301.37,129.354 302.925,130.13 304.48,130.907 306.035,131.684 307.59,132.462 309.144,133.24 310.699,134.018 312.254,134.797 313.809,135.577 315.364,136.357 316.918,137.137 318.473,137.918 320.028,138.699 321.583,139.481 323.138,140.263 324.692,141.046 326.247,141.829 327.802,142.613 329.357,143.397 330.912,144.181 332.466,144.967 334.021,145.752 335.576,146.538 337.131,147.325 338.686,148.112 340.24,148.9 341.795,149.688 343.35,150.476 344.905,151.266 346.46,152.055 348.014,152.846 349.569,153.636 351.124,154.428 352.679,155.219 354.234,156.012 355.788,156.805 357.343,157.598 358.898,158.392 360.453,159.187 362.008,159.982 363.562,160.778 365.117,161.574 366.672,162.371 368.227,163.168 369.782,163.966 371.336,164.764 372.891,165.564 374.446,166.363 376.001,167.164 377.556,167.964 379.11,168.766 380.665,169.568 382.22,170.371 383.775,171.174 385.33,171.978 386.884,172.782 388.439,173.587 389.994,174.393 391.549,175.2 393.104,176.007 394.658,176.814 396.213,177.623 397.768,178.431 399.323,179.241 400.878,180.051 402.432,180.862 403.987,181.674 405.542,182.486 407.097,183.299 408.652,184.112 410.206,184.927 411.761,185.742 413.316,186.557 414.871,187.373 416.426,188.19 417.98,189.008 419.535,189.827 421.09,190.646 422.645,191.465 424.2,192.286 425.754,193.107 427.309,193.929 428.864,194.752 430.419,195.575 431.974,196.4 433.528,197.225 435.083,198.05 436.638,198.877 438.193,199.704 439.748,200.532 441.302,201.361 442.857,202.19 444.412,203.02 445.967,203.851 447.522,204.683 449.076,205.516 450.631,206.349 452.186,207.184 453.741,208.019 455.296,208.855 456.85,209.691 458.405,210.529 459.96,211.367 461.515,212.207 463.07,213.047 464.624,213.888 466.179,214.729 467.734,215.572 469.289,216.415 470.844,217.26 472.398,218.105 473.953,218.951 475.508,219.798 477.063,220.646 478.618,221.495 480.172,222.344 481.727,223.195 483.282,224.047 484.837,224.899 486.392,225.752 487.946,226.607 489.501,227.462 491.056,228.318 492.611,229.175 494.166,230.033 495.72,230.892 497.275,231.753 498.83,232.613 500.385,233.476 501.94,234.339 503.494,235.202 505.049,236.067 506.604,236.933 508.159,237.8 509.714,238.668 511.268,239.538 512.823,240.408 514.378,241.279 515.933,242.151 517.488,243.024 519.042,243.898 520.597,244.774 522.152,245.65 523.707,246.528 525.262,247.406 526.816,248.286 528.371,249.167 529.926,250.049 531.481,250.932 533.036,251.816 534.59,252.701 536.145,253.588 537.7,254.475 539.255,255.364 540.81,256.254 542.364,257.145 543.919,258.037 545.474,258.931 547.029,259.826 548.584,260.721 550.138,261.618 551.693,262.517 553.248,263.416 554.803,264.317 556.358,265.219 557.912,266.122 559.467,267.027 561.022,267.932"/>
   <polyline fill="none" stroke-linejoin="round" stroke="#76ab2f" stroke-width="0.5" stroke-linecap="butt" points="80.5888,26.5677 82.1436,26.6302 83.6984,26.8024 85.2532,27.0642 86.808,27.3996 88.3628,27.7951 89.9176,28.2399 91.4724,28.725 93.0272,29.2433 94.582,29.7886 96.1368,30.3562 97.6916,30.9421 99.2464,31.5429 100.801,32.1561 102.356,32.7794 103.911,33.4111 105.466,34.0497 107.02,34.694 108.575,35.343 110.13,35.9959 111.685,36.6521 113.24,37.311 114.794,37.9722 116.349,38.6354 117.904,39.3002 119.459,39.9664 121.014,40.6339 122.568,41.3024 124.123,41.9718 125.678,42.642 127.233,43.313 128.788,43.9846 130.342,44.6569 131.897,45.3297 133.452,46.003 135.007,46.6768 136.562,47.3511 138.116,48.0258 139.671,48.701 141.226,49.3766 142.781,50.0526 144.336,50.7289 145.89,51.4057 147.445,52.0829 149,52.7604 150.555,53.4383 152.11,54.1166 153.664,54.7953 155.219,55.4743 156.774,56.1537 158.329,56.8335 159.884,57.5137 161.438,58.1943 162.993,58.8752 164.548,59.5565 166.103,60.2382 167.658,60.9203 169.212,61.6027 170.767,62.2856 172.322,62.9688 173.877,63.6524 175.432,64.3364 176.986,65.0208 178.541,65.7056 180.096,66.3907 181.651,67.0763 183.206,67.7623 184.76,68.4487 186.315,69.1354 187.87,69.8226 189.425,70.5102 190.98,71.1982 192.534,71.8866 194.089,72.5754 195.644,73.2646 197.199,73.9543 198.754,74.6443 200.308,75.3348 201.863,76.0257 203.418,76.717 204.973,77.4088 206.528,78.101 208.082,78.7936 209.637,79.4866 211.192,80.1801 212.747,80.8741 214.302,81.5684 215.856,82.2632 217.411,82.9585 218.966,83.6541 220.521,84.3503 222.076,85.0469 223.63,85.7439 225.185,86.4414 226.74,87.1394 228.295,87.8378 229.85,88.5367 231.404,89.2361 232.959,89.9359 234.514,90.6362 236.069,91.337 237.624,92.0382 239.178,92.74 240.733,93.4422 242.288,94.1448 243.843,94.848 245.398,95.5517 246.952,96.2559 248.507,96.9605 250.062,97.6657 251.617,98.3713 253.172,99.0775 254.726,99.7842 256.281,100.491 257.836,101.199 259.391,101.907 260.946,102.616 262.5,103.325 264.055,104.035 265.61,104.745 267.165,105.456 268.72,106.167 270.274,106.879 271.829,107.592 273.384,108.305 274.939,109.018 276.494,109.732 278.048,110.447 279.603,111.162 281.158,111.878 282.713,112.594 284.268,113.311 285.822,114.028 287.377,114.746 288.932,115.465 290.487,116.184 292.042,116.904 293.596,117.624 295.151,118.345 296.706,119.066 298.261,119.788 299.816,120.511 301.37,121.234 302.925,121.958 304.48,122.683 306.035,123.408 307.59,124.134 309.144,124.86 310.699,125.587 312.254,126.314 313.809,127.043 315.364,127.771 316.918,128.501 318.473,129.231 320.028,129.962 321.583,130.693 323.138,131.425 324.692,132.158 326.247,132.891 327.802,133.625 329.357,134.36 330.912,135.095 332.466,135.832 334.021,136.568 335.576,137.306 337.131,138.044 338.686,138.783 340.24,139.522 341.795,140.262 343.35,141.003 344.905,141.745 346.46,142.487 348.014,143.23 349.569,143.974 351.124,144.718 352.679,145.464 354.234,146.21 355.788,146.956 357.343,147.704 358.898,148.452 360.453,149.201 362.008,149.951 363.562,150.701 365.117,151.452 366.672,152.204 368.227,152.957 369.782,153.711 371.336,154.465 372.891,155.22 374.446,155.976 376.001,156.733 377.556,157.49 379.11,158.249 380.665,159.008 382.22,159.768 383.775,160.529 385.33,161.29 386.884,162.053 388.439,162.816 389.994,163.58 391.549,164.345 393.104,165.111 394.658,165.878 396.213,166.646 397.768,167.414 399.323,168.183 400.878,168.954 402.432,169.725 403.987,170.497 405.542,171.27 407.097,172.044 408.652,172.818 410.206,173.594 411.761,174.37 413.316,175.148 414.871,175.926 416.426,176.706 417.98,177.486 419.535,178.267 421.09,179.05 422.645,179.833 424.2,180.617 425.754,181.402 427.309,182.188 428.864,182.975 430.419,183.763 431.974,184.553 433.528,185.343 435.083,186.134 436.638,186.926 438.193,187.719 439.748,188.513 441.302,189.308 442.857,190.105 444.412,190.902 445.967,191.7 447.522,192.5 449.076,193.3 450.631,194.102 452.186,194.905 453.741,195.708 455.296,196.513 456.85,197.319 458.405,198.126 459.96,198.935 461.515,199.744 463.07,200.554 464.624,201.366 466.179,202.179 467.734,202.993 469.289,203.808 470.844,204.624 472.398,205.441 473.953,206.26 475.508,207.08 477.063,207.901 478.618,208.723 480.172,209.546 481.727,210.371 483.282,211.197 484.837,212.024 486.392,212.852 487.946,213.682 489.501,214.513 491.056,215.345 492.611,216.178 494.166,217.013 495.72,217.849 497.275,218.686 498.83,219.525 500.385,220.364 501.94,221.206 503.494,222.048 505.049,222.892 506.604,223.737 508.159,224.584 509.714,225.432 511.268,226.281 512.823,227.132 514.378,227.984 515.933,228.838 517.488,229.692 519.042,230.549 520.597,231.407 522.152,232.266 523.707,233.127 525.262,233.989 526.816,234.852 528.371,235.717 529.926,236.584 531.481,237.452 533.036,238.321 534.59,239.193 536.145,240.065 537.7,240.939 539.255,241.815 540.81,242.692 542.364,243.571 543.919,244.451 545.474,245.333 547.029,246.217 548.584,247.102 550.138,247.989 551.693,248.877 553.248,249.767 554.803,250.658 556.358,251.552 557.912,252.447 559.467,253.343 561.022,254.242"/>
  </g>
  <clipPath id="cp00619354">
   <polygon points="0,354 619,354 619,0 0,0"/>
  </clipPath>
  <g clip-path="url(#cp00619354)">
   <polygon shape-rendering="crispEdges" fill="#ffffff" points="87.3639,308.495 191.464,308.495 191.464,196.17 87.3639,196.17"/>
   <polyline fill="none" stroke-linejoin="miter" stroke-dasharray="16,0" stroke="#262626" stroke-width="0.5" stroke-linecap="square" points="87.3639,308.495 191.464,308.495"/>
   <polyline fill="none" stroke-linejoin="miter" stroke-dasharray="16,0" stroke="#262626" stroke-width="0.5" stroke-linecap="square" points="87.3639,196.17 191.464,196.17"/>
   <polyline fill="none" stroke-linejoin="miter" stroke-dasharray="16,0" stroke="#262626" stroke-width="0.5" stroke-linecap="square" points="87.3639,308.495 87.3639,196.17"/>
   <polyline fill="none" stroke-linejoin="miter" stroke-dasharray="16,0" stroke="#262626" stroke-width="0.5" stroke-linecap="square" points="191.464,308.495 191.464,196.17"/>
   <polyline fill="none" stroke-linejoin="round" stroke="#0071bc" stroke-width="0.5" stroke-linecap="butt" points="90.7515,207.557 107.689,207.557"/>
   <text xml:space="preserve" font-style="normal" font-family="FreeSans" font-size="20" font-weight="normal" transform="translate(111.077,215.557) rotate(-0,-0,-8)">
    <tspan y="-0" fill="rgb(0,0,0)" x="0 14 25 36 ">Real</tspan>
   </text>
   <polyline fill="none" stroke-linejoin="round" stroke="#d85218" stroke-width="0.5" stroke-linecap="butt" points="90.7515,228.445 107.689,228.445"/>
   <text xml:space="preserve" font-style="normal" font-family="FreeSans" font-size="20" font-weight="normal" transform="translate(111.077,237.945) rotate(-0,-0,-9.5)">
    <tspan y="-3" fill="rgb(0,0,0)" x="0 ">b</tspan>
    <tspan y="-0" fill="rgb(0,0,0)" font-size="14" x="11 ">r</tspan>
    <tspan y="-3" fill="rgb(0,0,0)" x="16 21 33 38 49 55 66 "> = 0,01</tspan>
   </text>
   <polyline fill="none" stroke-linejoin="round" stroke="#ecb01f" stroke-width="0.5" stroke-linecap="butt" points="90.7515,250.833 107.689,250.833"/>
   <text xml:space="preserve" font-style="normal" font-family="FreeSans" font-size="20" font-weight="normal" transform="translate(111.077,260.333) rotate(-0,-0,-9.5)">
    <tspan y="-3" fill="rgb(0,0,0)" x="0 ">b</tspan>
    <tspan y="-0" fill="rgb(0,0,0)" font-size="14" x="11 ">r</tspan>
    <tspan y="-3" fill="rgb(0,0,0)" x="16 21 33 38 49 55 66 "> = 0,02</tspan>
   </text>
   <polyline fill="none" stroke-linejoin="round" stroke="#7d2e8d" stroke-width="0.5" stroke-linecap="butt" points="90.7515,273.22 107.689,273.22"/>
   <text xml:space="preserve" font-style="normal" font-family="FreeSans" font-size="20" font-weight="normal" transform="translate(111.077,282.72) rotate(-0,-0,-9.5)">
    <tspan y="-3" fill="rgb(0,0,0)" x="0 ">b</tspan>
    <tspan y="-0" fill="rgb(0,0,0)" font-size="14" x="11 ">r</tspan>
    <tspan y="-3" fill="rgb(0,0,0)" x="16 21 33 38 49 55 66 "> = 0,03</tspan>
   </text>
   <polyline fill="none" stroke-linejoin="round" stroke="#76ab2f" stroke-width="0.5" stroke-linecap="butt" points="90.7515,295.608 107.689,295.608"/>
   <text xml:space="preserve" font-style="normal" font-family="FreeSans" font-size="20" font-weight="normal" transform="translate(111.077,305.108) rotate(-0,-0,-9.5)">
    <tspan y="-3" fill="rgb(0,0,0)" x="0 ">b</tspan>
    <tspan y="-0" fill="rgb(0,0,0)" font-size="14" x="11 ">r</tspan>
    <tspan y="-3" fill="rgb(0,0,0)" x="16 21 33 38 49 55 66 "> = 0,04</tspan>
   </text>
  </g>
 </g>
</svg>
