<?xml version='1.0' encoding='UTF-8' standalone='no'?>
<svg xmlns:xlink="http://www.w3.org/1999/xlink" xmlns="http://www.w3.org/2000/svg" width="619pt" viewBox="0 0 619 354" height="354pt">
 <title>gl2ps_renderer figure</title>
 <desc>
Creator: GL2PS 1.4.2, (C) 1999-2020 C. Geuzaine
For: Octave
CreationDate: Mon Nov 14 00:45:48 2022
</desc>
 <defs/>
 <polygon points="0,0 619,0 619,354 0,354" fill="#ffffff"/>
 <g>
  <polygon shape-rendering="crispEdges" points="0,354 619,354 619,0 0,0" fill="#ffffff"/>
  <clipPath id="cp00619354">
   <polygon points="0,354 619,354 619,0 0,0"/>
  </clipPath>
  <g clip-path="url(#cp00619354)">
   <polygon shape-rendering="crispEdges" points="80.5888,315.27 561.022,315.27 561.022,26.5677 80.5888,26.5677" fill="#ffffff"/>
   <polyline stroke-linejoin="miter" stroke-opacity="0.15" stroke-linecap="butt" points="80.5888,315.27 80.5888,26.5677" stroke-width="0.5" stroke-dasharray="16,0" fill="none" stroke="#262626"/>
   <polyline stroke-linejoin="miter" stroke-opacity="0.15" stroke-linecap="butt" points="203.148,315.27 203.148,26.5677" stroke-width="0.5" stroke-dasharray="16,0" fill="none" stroke="#262626"/>
   <polyline stroke-linejoin="miter" stroke-opacity="0.15" stroke-linecap="butt" points="325.708,315.27 325.708,26.5677" stroke-width="0.5" stroke-dasharray="16,0" fill="none" stroke="#262626"/>
   <polyline stroke-linejoin="miter" stroke-opacity="0.15" stroke-linecap="butt" points="448.267,315.27 448.267,26.5677" stroke-width="0.5" stroke-dasharray="16,0" fill="none" stroke="#262626"/>
   <polyline stroke-linejoin="miter" stroke-linecap="butt" points="80.5888,315.27 80.5888,310.471" stroke-width="0.5" fill="none" stroke="#262626"/>
   <polyline stroke-linejoin="miter" stroke-linecap="butt" points="80.5888,26.5677 80.5888,31.3671" stroke-width="0.5" fill="none" stroke="#262626"/>
   <polyline stroke-linejoin="miter" stroke-linecap="butt" points="203.148,315.27 203.148,310.471" stroke-width="0.5" fill="none" stroke="#262626"/>
   <polyline stroke-linejoin="miter" stroke-linecap="butt" points="203.148,26.5677 203.148,31.3671" stroke-width="0.5" fill="none" stroke="#262626"/>
   <polyline stroke-linejoin="miter" stroke-linecap="butt" points="325.708,315.27 325.708,310.471" stroke-width="0.5" fill="none" stroke="#262626"/>
   <polyline stroke-linejoin="miter" stroke-linecap="butt" points="325.708,26.5677 325.708,31.3671" stroke-width="0.5" fill="none" stroke="#262626"/>
   <polyline stroke-linejoin="miter" stroke-linecap="butt" points="448.267,315.27 448.267,310.471" stroke-width="0.5" fill="none" stroke="#262626"/>
   <polyline stroke-linejoin="miter" stroke-linecap="butt" points="448.267,26.5677 448.267,31.3671" stroke-width="0.5" fill="none" stroke="#262626"/>
   <text font-weight="normal" font-family="FreeSans" font-style="normal" transform="translate(77.5888,330.763) rotate(-0,3,-8)" font-size="10" xml:space="preserve">
    <tspan y="-0" x="0 " fill="rgb(38,38,38)">0</tspan>
   </text>
   <text font-weight="normal" font-family="FreeSans" font-style="normal" transform="translate(195.648,330.763) rotate(-0,7.5,-8)" font-size="10" xml:space="preserve">
    <tspan y="-0" x="0 6 9 " fill="rgb(38,38,38)">0.1</tspan>
   </text>
   <text font-weight="normal" font-family="FreeSans" font-style="normal" transform="translate(318.208,330.763) rotate(-0,7.5,-8)" font-size="10" xml:space="preserve">
    <tspan y="-0" x="0 6 9 " fill="rgb(38,38,38)">0.2</tspan>
   </text>
   <text font-weight="normal" font-family="FreeSans" font-style="normal" transform="translate(440.767,330.763) rotate(-0,7.5,-8)" font-size="10" xml:space="preserve">
    <tspan y="-0" x="0 6 9 " fill="rgb(38,38,38)">0.3</tspan>
   </text>
   <polyline stroke-linejoin="miter" stroke-opacity="0.15" stroke-linecap="butt" points="80.5888,315.27 561.022,315.27" stroke-width="0.5" stroke-dasharray="16,0" fill="none" stroke="#262626"/>
   <polyline stroke-linejoin="miter" stroke-opacity="0.15" stroke-linecap="butt" points="80.5888,267.153 561.022,267.153" stroke-width="0.5" stroke-dasharray="16,0" fill="none" stroke="#262626"/>
   <polyline stroke-linejoin="miter" stroke-opacity="0.15" stroke-linecap="butt" points="80.5888,219.036 561.022,219.036" stroke-width="0.5" stroke-dasharray="16,0" fill="none" stroke="#262626"/>
   <polyline stroke-linejoin="miter" stroke-opacity="0.15" stroke-linecap="butt" points="80.5888,170.919 561.022,170.919" stroke-width="0.5" stroke-dasharray="16,0" fill="none" stroke="#262626"/>
   <polyline stroke-linejoin="miter" stroke-opacity="0.15" stroke-linecap="butt" points="80.5888,122.802 561.022,122.802" stroke-width="0.5" stroke-dasharray="16,0" fill="none" stroke="#262626"/>
   <polyline stroke-linejoin="miter" stroke-opacity="0.15" stroke-linecap="butt" points="80.5888,74.6848 561.022,74.6848" stroke-width="0.5" stroke-dasharray="16,0" fill="none" stroke="#262626"/>
   <polyline stroke-linejoin="miter" stroke-opacity="0.15" stroke-linecap="butt" points="80.5888,26.5677 561.022,26.5677" stroke-width="0.5" stroke-dasharray="16,0" fill="none" stroke="#262626"/>
   <polyline stroke-linejoin="miter" stroke-linecap="butt" points="80.5888,315.27 85.3975,315.27" stroke-width="0.5" fill="none" stroke="#262626"/>
   <polyline stroke-linejoin="miter" stroke-linecap="butt" points="561.022,315.27 556.213,315.27" stroke-width="0.5" fill="none" stroke="#262626"/>
   <polyline stroke-linejoin="miter" stroke-linecap="butt" points="80.5888,267.153 85.3975,267.153" stroke-width="0.5" fill="none" stroke="#262626"/>
   <polyline stroke-linejoin="miter" stroke-linecap="butt" points="561.022,267.153 556.213,267.153" stroke-width="0.5" fill="none" stroke="#262626"/>
   <polyline stroke-linejoin="miter" stroke-linecap="butt" points="80.5888,219.036 85.3975,219.036" stroke-width="0.5" fill="none" stroke="#262626"/>
   <polyline stroke-linejoin="miter" stroke-linecap="butt" points="561.022,219.036 556.213,219.036" stroke-width="0.5" fill="none" stroke="#262626"/>
   <polyline stroke-linejoin="miter" stroke-linecap="butt" points="80.5888,170.919 85.3975,170.919" stroke-width="0.5" fill="none" stroke="#262626"/>
   <polyline stroke-linejoin="miter" stroke-linecap="butt" points="561.022,170.919 556.213,170.919" stroke-width="0.5" fill="none" stroke="#262626"/>
   <polyline stroke-linejoin="miter" stroke-linecap="butt" points="80.5888,122.802 85.3975,122.802" stroke-width="0.5" fill="none" stroke="#262626"/>
   <polyline stroke-linejoin="miter" stroke-linecap="butt" points="561.022,122.802 556.213,122.802" stroke-width="0.5" fill="none" stroke="#262626"/>
   <polyline stroke-linejoin="miter" stroke-linecap="butt" points="80.5888,74.6848 85.3975,74.6848" stroke-width="0.5" fill="none" stroke="#262626"/>
   <polyline stroke-linejoin="miter" stroke-linecap="butt" points="561.022,74.6848 556.213,74.6848" stroke-width="0.5" fill="none" stroke="#262626"/>
   <polyline stroke-linejoin="miter" stroke-linecap="butt" points="80.5888,26.5677 85.3975,26.5677" stroke-width="0.5" fill="none" stroke="#262626"/>
   <polyline stroke-linejoin="miter" stroke-linecap="butt" points="561.022,26.5677 556.213,26.5677" stroke-width="0.5" fill="none" stroke="#262626"/>
   <text font-weight="normal" font-family="FreeSans" font-style="normal" transform="translate(66.5843,319.27) rotate(-0,9,-4)" font-size="10" xml:space="preserve">
    <tspan y="-0" x="0 3 " fill="rgb(38,38,38)">-6</tspan>
   </text>
   <text font-weight="normal" font-family="FreeSans" font-style="normal" transform="translate(66.5843,271.153) rotate(-0,9,-4)" font-size="10" xml:space="preserve">
    <tspan y="-0" x="0 3 " fill="rgb(38,38,38)">-5</tspan>
   </text>
   <text font-weight="normal" font-family="FreeSans" font-style="normal" transform="translate(66.5843,223.036) rotate(-0,9,-4)" font-size="10" xml:space="preserve">
    <tspan y="-0" x="0 3 " fill="rgb(38,38,38)">-4</tspan>
   </text>
   <text font-weight="normal" font-family="FreeSans" font-style="normal" transform="translate(66.5843,174.919) rotate(-0,9,-4)" font-size="10" xml:space="preserve">
    <tspan y="-0" x="0 3 " fill="rgb(38,38,38)">-3</tspan>
   </text>
   <text font-weight="normal" font-family="FreeSans" font-style="normal" transform="translate(66.5843,126.802) rotate(-0,9,-4)" font-size="10" xml:space="preserve">
    <tspan y="-0" x="0 3 " fill="rgb(38,38,38)">-2</tspan>
   </text>
   <text font-weight="normal" font-family="FreeSans" font-style="normal" transform="translate(66.5843,78.6849) rotate(-0,9,-4)" font-size="10" xml:space="preserve">
    <tspan y="-0" x="0 3 " fill="rgb(38,38,38)">-1</tspan>
   </text>
   <text font-weight="normal" font-family="FreeSans" font-style="normal" transform="translate(69.5843,30.5677) rotate(-0,6,-4)" font-size="10" xml:space="preserve">
    <tspan y="-0" x="0 " fill="rgb(38,38,38)">0</tspan>
   </text>
   <polyline stroke-linejoin="miter" stroke-linecap="square" points="80.5888,315.27 561.022,315.27" stroke-width="0.5" stroke-dasharray="16,0" fill="none" stroke="#262626"/>
   <polyline stroke-linejoin="miter" stroke-linecap="square" points="80.5888,26.5677 561.022,26.5677" stroke-width="0.5" stroke-dasharray="16,0" fill="none" stroke="#262626"/>
   <polyline stroke-linejoin="miter" stroke-linecap="square" points="80.5888,315.27 80.5888,26.5677" stroke-width="0.5" stroke-dasharray="16,0" fill="none" stroke="#262626"/>
   <polyline stroke-linejoin="miter" stroke-linecap="square" points="561.022,315.27 561.022,26.5677" stroke-width="0.5" stroke-dasharray="16,0" fill="none" stroke="#262626"/>
   <text font-weight="normal" font-family="FreeSans" font-style="normal" transform="translate(297.305,347.763) rotate(-0,23.5,-12)" font-size="11" xml:space="preserve">
    <tspan y="-3" x="0 7 13 22 28 34 38 43 " fill="rgb(38,38,38)">Tempo(s)</tspan>
   </text>
   <text font-weight="normal" font-family="FreeSans" font-style="normal" transform="translate(33.0843,170.919) rotate(-90,28.5,0)" font-size="11" xml:space="preserve">
    <tspan y="-3" x="0 7 13 19 25 27 33 37 41 47 53 " fill="rgb(38,38,38)">Ângulo(rad)</tspan>
   </text>
   <polyline stroke-linejoin="round" stroke-linecap="butt" points="80.5888,26.5677 83.04,26.5677 85.4912,26.5677 87.9424,26.5677 90.3936,26.5677 92.8447,26.5677 95.2959,26.5677 97.7471,26.5677 100.198,26.5677 102.649,27.3761 105.101,27.3761 107.552,27.3761 110.003,28.1845 112.454,28.1845 114.905,28.1845 117.357,28.9928 119.808,28.9928 122.259,29.8012 124.71,29.8012 127.161,30.6096 129.613,30.6096 132.064,31.4179 134.515,32.2263 136.966,32.2263 139.417,33.0347 141.869,33.843 144.32,34.6514 146.771,34.6514 149.222,35.4598 151.673,36.2681 154.124,37.0764 156.576,37.8848 159.027,38.6932 161.478,38.6932 163.929,39.5016 166.38,40.3099 168.832,41.1183 171.283,41.9267 173.734,42.735 176.185,43.5434 178.636,44.3518 181.088,45.1601 183.539,45.9685 185.99,46.7769 188.441,47.5852 190.892,49.202 193.344,50.0103 195.795,50.8187 198.246,51.6271 200.697,52.4355 203.148,53.2438 205.599,54.0522 208.051,55.6689 210.502,56.4773 212.953,57.2856 215.404,58.094 217.855,59.7107 220.307,60.5191 222.758,61.3275 225.209,62.1358 227.66,63.7526 230.111,64.5609 232.563,65.3693 235.014,66.986 237.465,67.7944 239.916,68.6028 242.367,70.2195 244.819,71.0279 247.27,72.6446 249.721,73.4529 252.172,74.2613 254.623,75.8781 257.074,76.6864 259.526,78.3031 261.977,79.1115 264.428,80.7282 266.879,81.5366 269.33,83.1533 271.782,83.9617 274.233,85.5784 276.684,86.3868 279.135,88.0035 281.586,88.8119 284.038,90.4286 286.489,92.0454 288.94,92.8537 291.391,94.4705 293.842,95.2788 296.293,96.8955 298.745,98.5123 301.196,99.3206 303.647,100.937 306.098,102.554 308.549,103.362 311.001,104.979 313.452,106.596 315.903,107.404 318.354,109.021 320.805,110.638 323.257,111.446 325.708,113.063 328.159,114.68 330.61,116.296 333.061,117.105 335.513,118.721 337.964,120.338 340.415,121.955 342.866,122.763 345.317,124.38 347.768,125.997 350.22,127.613 352.671,129.23 355.122,130.039 357.573,131.655 360.024,133.272 362.476,134.889 364.927,136.505 367.378,138.122 369.829,139.739 372.28,140.547 374.732,142.164 377.183,143.781 379.634,145.397 382.085,147.014 384.536,148.631 386.988,150.248 389.439,151.864 391.89,153.481 394.341,155.098 396.792,156.715 399.243,158.331 401.695,159.14 404.146,160.756 406.597,162.373 409.048,163.99 411.499,165.607 413.951,167.223 416.402,168.84 418.853,170.457 421.304,172.074 423.755,173.69 426.207,175.307 428.658,176.924 431.109,178.54 433.56,180.157 436.011,181.774 438.463,183.391 440.914,185.816 443.365,187.433 445.816,189.049 448.267,190.666 450.718,192.283 453.17,193.899 455.621,195.516 458.072,197.133 460.523,198.75 462.974,200.366 465.426,201.983 467.877,203.6 470.328,206.025 472.779,207.642 475.23,209.258 477.682,210.875 480.133,212.492 482.584,214.109 485.035,216.534 487.486,218.15 489.938,219.767 492.389,221.384 494.84,223.001 497.291,224.617 499.742,227.042 502.193,228.659 504.645,230.276 507.096,231.893 509.547,233.509 511.998,235.126 514.449,236.743 516.901,239.168 519.352,240.785 521.803,242.401 524.254,244.018 526.705,245.635 529.157,248.06 531.608,249.677 534.059,251.293 536.51,252.91 538.961,254.527 541.412,256.144 543.864,258.569 546.315,260.185 548.766,261.802 551.217,263.419 553.668,265.036 556.12,266.652 558.571,269.077 561.022,270.694" stroke-width="0.5" fill="none" stroke="#0071bc"/>
   <polyline stroke-linejoin="round" stroke-linecap="butt" points="80.5888,26.5677 83.04,26.6918 85.4912,27.0353 87.9424,27.5608 90.3936,28.2371 92.8447,29.0385 95.2959,29.9436 97.7471,30.9348 100.198,31.9975 102.649,33.1195 105.101,34.2907 107.552,35.5027 110.003,36.7488 112.454,38.0231 114.905,39.321 117.357,40.6384 119.808,41.9722 122.259,43.3196 124.71,44.6784 127.161,46.0468 129.613,47.4232 132.064,48.8063 134.515,50.1952 136.966,51.5889 139.417,52.9867 141.869,54.388 144.32,55.7924 146.771,57.1994 149.222,58.6086 151.673,60.0199 154.124,61.433 156.576,62.8476 159.027,64.2637 161.478,65.6811 163.929,67.0996 166.38,68.5193 168.832,69.9401 171.283,71.3618 173.734,72.7845 176.185,74.208 178.636,75.6324 181.088,77.0577 183.539,78.4839 185.99,79.9108 188.441,81.3385 190.892,82.7671 193.344,84.1964 195.795,85.6266 198.246,87.0575 200.697,88.4892 203.148,89.9216 205.599,91.3549 208.051,92.789 210.502,94.2238 212.953,95.6595 215.404,97.096 217.855,98.5333 220.307,99.9714 222.758,101.41 225.209,102.85 227.66,104.291 230.111,105.732 232.563,107.174 235.014,108.617 237.465,110.061 239.916,111.506 242.367,112.952 244.819,114.399 247.27,115.846 249.721,117.294 252.172,118.744 254.623,120.194 257.074,121.645 259.526,123.097 261.977,124.55 264.428,126.004 266.879,127.459 269.33,128.915 271.782,130.371 274.233,131.829 276.684,133.288 279.135,134.748 281.586,136.208 284.038,137.67 286.489,139.133 288.94,140.597 291.391,142.062 293.842,143.527 296.293,144.994 298.745,146.462 301.196,147.931 303.647,149.401 306.098,150.873 308.549,152.345 311.001,153.818 313.452,155.293 315.903,156.768 318.354,158.245 320.805,159.723 323.257,161.202 325.708,162.682 328.159,164.164 330.61,165.646 333.061,167.13 335.513,168.615 337.964,170.101 340.415,171.589 342.866,173.077 345.317,174.567 347.768,176.058 350.22,177.551 352.671,179.045 355.122,180.54 357.573,182.036 360.024,183.533 362.476,185.032 364.927,186.533 367.378,188.034 369.829,189.537 372.28,191.041 374.732,192.547 377.183,194.054 379.634,195.562 382.085,197.072 384.536,198.584 386.988,200.096 389.439,201.61 391.89,203.126 394.341,204.643 396.792,206.162 399.243,207.682 401.695,209.203 404.146,210.726 406.597,212.251 409.048,213.777 411.499,215.305 413.951,216.834 416.402,218.365 418.853,219.898 421.304,221.432 423.755,222.967 426.207,224.505 428.658,226.044 431.109,227.585 433.56,229.127 436.011,230.671 438.463,232.217 440.914,233.764 443.365,235.314 445.816,236.865 448.267,238.417 450.718,239.972 453.17,241.528 455.621,243.086 458.072,244.646 460.523,246.208 462.974,247.772 465.426,249.338 467.877,250.905 470.328,252.474 472.779,254.046 475.23,255.619 477.682,257.194 480.133,258.771 482.584,260.351 485.035,261.932 487.486,263.515 489.938,265.1 492.389,266.688 494.84,268.277 497.291,269.868 499.742,271.462 502.193,273.058 504.645,274.655 507.096,276.255 509.547,277.858 511.998,279.462 514.449,281.069 516.901,282.677 519.352,284.289 521.803,285.902 524.254,287.518 526.705,289.136 529.157,290.756 531.608,292.379 534.059,294.004 536.51,295.631 538.961,297.261 541.412,298.893 543.864,300.528 546.315,302.165 548.766,303.805 551.217,305.447 553.668,307.092 556.12,308.739 558.571,310.389 561.022,312.042" stroke-width="0.5" fill="none" stroke="#d85218"/>
   <polyline stroke-linejoin="round" stroke-linecap="butt" points="80.5888,26.5677 83.04,26.6739 85.4912,26.9708 87.9424,27.43 90.3936,28.0273 92.8447,28.7419 95.2959,29.5563 97.7471,30.4557 100.198,31.4273 102.649,32.4604 105.101,33.5458 107.552,34.6757 110.003,35.8435 112.454,37.0436 114.905,38.2711 117.357,39.522 119.808,40.7929 122.259,42.0808 124.71,43.3832 127.161,44.6979 129.613,46.0233 132.064,47.3576 134.515,48.6997 136.966,50.0484 139.417,51.4027 141.869,52.762 144.32,54.1254 146.771,55.4924 149.222,56.8625 151.673,58.2354 154.124,59.6106 156.576,60.9878 159.027,62.3669 161.478,63.7474 163.929,65.1294 166.38,66.5126 168.832,67.8969 171.283,69.2822 173.734,70.6684 176.185,72.0554 178.636,73.4431 181.088,74.8315 183.539,76.2205 185.99,77.6101 188.441,79.0003 190.892,80.391 193.344,81.7822 195.795,83.1739 198.246,84.5661 200.697,85.9587 203.148,87.3517 205.599,88.7452 208.051,90.1391 210.502,91.5334 212.953,92.9282 215.404,94.3233 217.855,95.7188 220.307,97.1148 222.758,98.5111 225.209,99.9079 227.66,101.305 230.111,102.703 232.563,104.101 235.014,105.499 237.465,106.898 239.916,108.297 242.367,109.696 244.819,111.096 247.27,112.497 249.721,113.897 252.172,115.299 254.623,116.7 257.074,118.102 259.526,119.505 261.977,120.908 264.428,122.311 266.879,123.715 269.33,125.119 271.782,126.523 274.233,127.928 276.684,129.334 279.135,130.74 281.586,132.146 284.038,133.553 286.489,134.96 288.94,136.368 291.391,137.776 293.842,139.185 296.293,140.594 298.745,142.003 301.196,143.413 303.647,144.824 306.098,146.235 308.549,147.646 311.001,149.058 313.452,150.47 315.903,151.883 318.354,153.296 320.805,154.71 323.257,156.125 325.708,157.539 328.159,158.955 330.61,160.371 333.061,161.787 335.513,163.204 337.964,164.621 340.415,166.039 342.866,167.457 345.317,168.876 347.768,170.296 350.22,171.716 352.671,173.136 355.122,174.557 357.573,175.979 360.024,177.401 362.476,178.824 364.927,180.247 367.378,181.671 369.829,183.095 372.28,184.52 374.732,185.945 377.183,187.371 379.634,188.798 382.085,190.225 384.536,191.653 386.988,193.081 389.439,194.51 391.89,195.94 394.341,197.37 396.792,198.8 399.243,200.232 401.695,201.664 404.146,203.096 406.597,204.529 409.048,205.963 411.499,207.398 413.951,208.833 416.402,210.268 418.853,211.705 421.304,213.141 423.755,214.579 426.207,216.017 428.658,217.456 431.109,218.896 433.56,220.336 436.011,221.777 438.463,223.218 440.914,224.66 443.365,226.103 445.816,227.547 448.267,228.991 450.718,230.436 453.17,231.882 455.621,233.328 458.072,234.775 460.523,236.223 462.974,237.671 465.426,239.12 467.877,240.57 470.328,242.021 472.779,243.472 475.23,244.925 477.682,246.377 480.133,247.831 482.584,249.285 485.035,250.74 487.486,252.196 489.938,253.653 492.389,255.11 494.84,256.568 497.291,258.027 499.742,259.487 502.193,260.948 504.645,262.409 507.096,263.871 509.547,265.334 511.998,266.798 514.449,268.263 516.901,269.728 519.352,271.194 521.803,272.661 524.254,274.129 526.705,275.598 529.157,277.068 531.608,278.538 534.059,280.009 536.51,281.482 538.961,282.955 541.412,284.429 543.864,285.904 546.315,287.379 548.766,288.856 551.217,290.333 553.668,291.812 556.12,293.291 558.571,294.772 561.022,296.253" stroke-width="0.5" fill="none" stroke="#ecb01f"/>
   <polyline stroke-linejoin="round" stroke-linecap="butt" points="80.5888,26.5677 83.04,26.6675 85.4912,26.9477 87.9424,27.3828 90.3936,27.9506 92.8447,28.6324 95.2959,29.412 97.7471,30.2755 100.198,31.211 102.649,32.2084 105.101,33.2587 107.552,34.3546 110.003,35.4896 112.454,36.6582 114.905,37.8555 117.357,39.0776 119.808,40.321 122.259,41.5826 124.71,42.8599 127.161,44.1507 129.613,45.4531 132.064,46.7655 134.515,48.0865 136.966,49.4149 139.417,50.7496 141.869,52.0899 144.32,53.4349 146.771,54.784 149.222,56.1367 151.673,57.4924 154.124,58.8508 156.576,60.2115 159.027,61.5743 161.478,62.9388 163.929,64.3048 166.38,65.6722 168.832,67.0408 171.283,68.4105 173.734,69.7811 176.185,71.1525 178.636,72.5247 181.088,73.8976 183.539,75.271 185.99,76.6451 188.441,78.0196 190.892,79.3946 193.344,80.7701 195.795,82.1459 198.246,83.5221 200.697,84.8987 203.148,86.2756 205.599,87.6529 208.051,89.0305 210.502,90.4084 212.953,91.7866 215.404,93.165 217.855,94.5438 220.307,95.9228 222.758,97.3021 225.209,98.6817 227.66,100.062 230.111,101.442 232.563,102.822 235.014,104.203 237.465,105.583 239.916,106.965 242.367,108.346 244.819,109.728 247.27,111.11 249.721,112.492 252.172,113.874 254.623,115.257 257.074,116.64 259.526,118.023 261.977,119.407 264.428,120.79 266.879,122.174 269.33,123.559 271.782,124.943 274.233,126.328 276.684,127.713 279.135,129.098 281.586,130.484 284.038,131.87 286.489,133.256 288.94,134.642 291.391,136.029 293.842,137.416 296.293,138.803 298.745,140.191 301.196,141.579 303.647,142.967 306.098,144.355 308.549,145.744 311.001,147.133 313.452,148.522 315.903,149.912 318.354,151.302 320.805,152.692 323.257,154.082 325.708,155.473 328.159,156.864 330.61,158.255 333.061,159.647 335.513,161.039 337.964,162.431 340.415,163.824 342.866,165.217 345.317,166.61 347.768,168.003 350.22,169.397 352.671,170.791 355.122,172.185 357.573,173.58 360.024,174.975 362.476,176.371 364.927,177.766 367.378,179.162 369.829,180.559 372.28,181.955 374.732,183.352 377.183,184.75 379.634,186.148 382.085,187.546 384.536,188.944 386.988,190.343 389.439,191.742 391.89,193.141 394.341,194.541 396.792,195.941 399.243,197.341 401.695,198.742 404.146,200.143 406.597,201.545 409.048,202.946 411.499,204.349 413.951,205.751 416.402,207.154 418.853,208.557 421.304,209.961 423.755,211.365 426.207,212.769 428.658,214.174 431.109,215.579 433.56,216.985 436.011,218.391 438.463,219.797 440.914,221.204 443.365,222.611 445.816,224.018 448.267,225.426 450.718,226.834 453.17,228.243 455.621,229.652 458.072,231.061 460.523,232.471 462.974,233.881 465.426,235.291 467.877,236.702 470.328,238.114 472.779,239.526 475.23,240.938 477.682,242.351 480.133,243.764 482.584,245.177 485.035,246.591 487.486,248.005 489.938,249.42 492.389,250.835 494.84,252.251 497.291,253.667 499.742,255.083 502.193,256.5 504.645,257.917 507.096,259.335 509.547,260.753 511.998,262.172 514.449,263.591 516.901,265.011 519.352,266.431 521.803,267.851 524.254,269.272 526.705,270.694 529.157,272.116 531.608,273.538 534.059,274.961 536.51,276.384 538.961,277.808 541.412,279.232 543.864,280.657 546.315,282.082 548.766,283.508 551.217,284.934 553.668,286.36 556.12,287.788 558.571,289.215 561.022,290.643" stroke-width="0.5" fill="none" stroke="#7d2e8d"/>
   <polyline stroke-linejoin="round" stroke-linecap="butt" points="80.5888,26.5677 83.04,26.6643 85.4912,26.9359 87.9424,27.3583 90.3936,27.9109 92.8447,28.5754 95.2959,29.3366 97.7471,30.1811 100.198,31.0973 102.649,32.0753 105.101,33.1068 107.552,34.1841 110.003,35.3011 112.454,36.4524 114.905,37.633 117.357,38.8391 119.808,40.0671 122.259,41.314 124.71,42.5773 127.161,43.8546 129.613,45.1441 132.064,46.4441 134.515,47.7531 136.966,49.07 139.417,50.3936 141.869,51.7231 144.32,53.0577 146.771,54.3967 149.222,55.7394 151.673,57.0855 154.124,58.4344 156.576,59.7858 159.027,61.1394 161.478,62.4949 163.929,63.852 166.38,65.2106 168.832,66.5704 171.283,67.9313 173.734,69.2933 176.185,70.6561 178.636,72.0197 181.088,73.3839 183.539,74.7488 185.99,76.1142 188.441,77.4801 190.892,78.8465 193.344,80.2133 195.795,81.5805 198.246,82.948 200.697,84.3159 203.148,85.6841 205.599,87.0525 208.051,88.4212 210.502,89.7902 212.953,91.1594 215.404,92.5288 217.855,93.8985 220.307,95.2684 222.758,96.6385 225.209,98.0089 227.66,99.3794 230.111,100.75 232.563,102.121 235.014,103.492 237.465,104.863 239.916,106.235 242.367,107.607 244.819,108.979 247.27,110.351 249.721,111.723 252.172,113.095 254.623,114.468 257.074,115.841 259.526,117.214 261.977,118.587 264.428,119.96 266.879,121.334 269.33,122.708 271.782,124.082 274.233,125.456 276.684,126.83 279.135,128.205 281.586,129.579 284.038,130.954 286.489,132.329 288.94,133.705 291.391,135.08 293.842,136.456 296.293,137.832 298.745,139.208 301.196,140.584 303.647,141.961 306.098,143.337 308.549,144.714 311.001,146.091 313.452,147.469 315.903,148.846 318.354,150.224 320.805,151.602 323.257,152.98 325.708,154.358 328.159,155.737 330.61,157.115 333.061,158.494 335.513,159.874 337.964,161.253 340.415,162.632 342.866,164.012 345.317,165.392 347.768,166.772 350.22,168.153 352.671,169.534 355.122,170.914 357.573,172.295 360.024,173.677 362.476,175.058 364.927,176.44 367.378,177.822 369.829,179.204 372.28,180.587 374.732,181.969 377.183,183.352 379.634,184.735 382.085,186.119 384.536,187.502 386.988,188.886 389.439,190.27 391.89,191.654 394.341,193.039 396.792,194.424 399.243,195.809 401.695,197.194 404.146,198.579 406.597,199.965 409.048,201.351 411.499,202.737 413.951,204.123 416.402,205.51 418.853,206.897 421.304,208.284 423.755,209.671 426.207,211.059 428.658,212.447 431.109,213.835 433.56,215.224 436.011,216.612 438.463,218.001 440.914,219.39 443.365,220.78 445.816,222.169 448.267,223.559 450.718,224.95 453.17,226.34 455.621,227.731 458.072,229.122 460.523,230.513 462.974,231.905 465.426,233.296 467.877,234.688 470.328,236.081 472.779,237.473 475.23,238.866 477.682,240.259 480.133,241.653 482.584,243.047 485.035,244.441 487.486,245.835 489.938,247.229 492.389,248.624 494.84,250.019 497.291,251.415 499.742,252.811 502.193,254.207 504.645,255.603 507.096,256.999 509.547,258.396 511.998,259.793 514.449,261.191 516.901,262.589 519.352,263.987 521.803,265.385 524.254,266.784 526.705,268.183 529.157,269.582 531.608,270.981 534.059,272.381 536.51,273.781 538.961,275.182 541.412,276.583 543.864,277.984 546.315,279.385 548.766,280.787 551.217,282.189 553.668,283.591 556.12,284.994 558.571,286.397 561.022,287.8" stroke-width="0.5" fill="none" stroke="#76ab2f"/>
  </g>
  <clipPath id="cp00619354">
   <polygon points="0,354 619,354 619,0 0,0"/>
  </clipPath>
  <g clip-path="url(#cp00619354)">
   <polygon shape-rendering="crispEdges" points="87.3639,308.495 188.464,308.495 188.464,196.17 87.3639,196.17" fill="#ffffff"/>
   <polyline stroke-linejoin="miter" stroke-linecap="square" points="87.3639,308.495 188.464,308.495" stroke-width="0.5" stroke-dasharray="16,0" fill="none" stroke="#262626"/>
   <polyline stroke-linejoin="miter" stroke-linecap="square" points="87.3639,196.17 188.464,196.17" stroke-width="0.5" stroke-dasharray="16,0" fill="none" stroke="#262626"/>
   <polyline stroke-linejoin="miter" stroke-linecap="square" points="87.3639,308.495 87.3639,196.17" stroke-width="0.5" stroke-dasharray="16,0" fill="none" stroke="#262626"/>
   <polyline stroke-linejoin="miter" stroke-linecap="square" points="188.464,308.495 188.464,196.17" stroke-width="0.5" stroke-dasharray="16,0" fill="none" stroke="#262626"/>
   <polyline stroke-linejoin="round" stroke-linecap="butt" points="90.7515,207.557 107.689,207.557" stroke-width="0.5" fill="none" stroke="#0071bc"/>
   <text font-weight="normal" font-family="FreeSans" font-style="normal" transform="translate(111.077,215.557) rotate(-0,-0,-8)" font-size="20" xml:space="preserve">
    <tspan y="-0" x="0 14 25 36 " fill="rgb(0,0,0)">Real</tspan>
   </text>
   <polyline stroke-linejoin="round" stroke-linecap="butt" points="90.7515,228.445 107.689,228.445" stroke-width="0.5" fill="none" stroke="#d85218"/>
   <text font-weight="normal" font-family="FreeSans" font-style="normal" transform="translate(111.077,237.945) rotate(-0,-0,-9.5)" font-size="20" xml:space="preserve">
    <tspan y="-3" x="0 " fill="rgb(0,0,0)">I</tspan>
    <tspan y="-0" x="6 " font-size="14" fill="rgb(0,0,0)">c</tspan>
    <tspan y="-3" x="13 18 30 35 46 52 63 " fill="rgb(0,0,0)"> = 0,03</tspan>
   </text>
   <polyline stroke-linejoin="round" stroke-linecap="butt" points="90.7515,250.833 107.689,250.833" stroke-width="0.5" fill="none" stroke="#ecb01f"/>
   <text font-weight="normal" font-family="FreeSans" font-style="normal" transform="translate(111.077,260.333) rotate(-0,-0,-9.5)" font-size="20" xml:space="preserve">
    <tspan y="-3" x="0 " fill="rgb(0,0,0)">I</tspan>
    <tspan y="-0" x="6 " font-size="14" fill="rgb(0,0,0)">c</tspan>
    <tspan y="-3" x="13 18 30 35 46 52 63 " fill="rgb(0,0,0)"> = 0,06</tspan>
   </text>
   <polyline stroke-linejoin="round" stroke-linecap="butt" points="90.7515,273.22 107.689,273.22" stroke-width="0.5" fill="none" stroke="#7d2e8d"/>
   <text font-weight="normal" font-family="FreeSans" font-style="normal" transform="translate(111.077,282.72) rotate(-0,-0,-9.5)" font-size="20" xml:space="preserve">
    <tspan y="-3" x="0 " fill="rgb(0,0,0)">I</tspan>
    <tspan y="-0" x="6 " font-size="14" fill="rgb(0,0,0)">c</tspan>
    <tspan y="-3" x="13 18 30 35 46 52 63 " fill="rgb(0,0,0)"> = 0,09</tspan>
   </text>
   <polyline stroke-linejoin="round" stroke-linecap="butt" points="90.7515,295.608 107.689,295.608" stroke-width="0.5" fill="none" stroke="#76ab2f"/>
   <text font-weight="normal" font-family="FreeSans" font-style="normal" transform="translate(111.077,305.108) rotate(-0,-0,-9.5)" font-size="20" xml:space="preserve">
    <tspan y="-3" x="0 " fill="rgb(0,0,0)">I</tspan>
    <tspan y="-0" x="6 " font-size="14" fill="rgb(0,0,0)">c</tspan>
    <tspan y="-3" x="13 18 30 35 46 52 63 " fill="rgb(0,0,0)"> = 0,12</tspan>
   </text>
  </g>
 </g>
</svg>
