<?xml version='1.0' encoding='UTF-8' standalone='no'?>
<svg height="354pt" xmlns="http://www.w3.org/2000/svg" xmlns:xlink="http://www.w3.org/1999/xlink" viewBox="0 0 619 354" width="619pt">
 <title>gl2ps_renderer figure</title>
 <desc>
Creator: GL2PS 1.4.2, (C) 1999-2020 C. Geuzaine
For: Octave
CreationDate: Mon Nov 14 00:52:46 2022
</desc>
 <defs/>
 <polygon fill="#ffffff" points="0,0 619,0 619,354 0,354"/>
 <g>
  <polygon fill="#ffffff" points="0,354 619,354 619,0 0,0" shape-rendering="crispEdges"/>
  <clipPath id="cp00619354">
   <polygon points="0,354 619,354 619,0 0,0"/>
  </clipPath>
  <g clip-path="url(#cp00619354)">
   <polygon fill="#ffffff" points="80.5888,315.27 561.022,315.27 561.022,26.5677 80.5888,26.5677" shape-rendering="crispEdges"/>
   <polyline stroke-dasharray="16,0" stroke-opacity="0.15" fill="none" points="80.5888,315.27 80.5888,26.5677" stroke-width="0.5" stroke-linecap="butt" stroke-linejoin="miter" stroke="#262626"/>
   <polyline stroke-dasharray="16,0" stroke-opacity="0.15" fill="none" points="158.078,315.27 158.078,26.5677" stroke-width="0.5" stroke-linecap="butt" stroke-linejoin="miter" stroke="#262626"/>
   <polyline stroke-dasharray="16,0" stroke-opacity="0.15" fill="none" points="235.567,315.27 235.567,26.5677" stroke-width="0.5" stroke-linecap="butt" stroke-linejoin="miter" stroke="#262626"/>
   <polyline stroke-dasharray="16,0" stroke-opacity="0.15" fill="none" points="313.056,315.27 313.056,26.5677" stroke-width="0.5" stroke-linecap="butt" stroke-linejoin="miter" stroke="#262626"/>
   <polyline stroke-dasharray="16,0" stroke-opacity="0.15" fill="none" points="390.546,315.27 390.546,26.5677" stroke-width="0.5" stroke-linecap="butt" stroke-linejoin="miter" stroke="#262626"/>
   <polyline stroke-dasharray="16,0" stroke-opacity="0.15" fill="none" points="468.035,315.27 468.035,26.5677" stroke-width="0.5" stroke-linecap="butt" stroke-linejoin="miter" stroke="#262626"/>
   <polyline stroke-dasharray="16,0" stroke-opacity="0.15" fill="none" points="545.524,315.27 545.524,26.5677" stroke-width="0.5" stroke-linecap="butt" stroke-linejoin="miter" stroke="#262626"/>
   <polyline fill="none" points="80.5888,315.27 80.5888,310.471" stroke-width="0.5" stroke-linecap="butt" stroke-linejoin="miter" stroke="#262626"/>
   <polyline fill="none" points="80.5888,26.5677 80.5888,31.3671" stroke-width="0.5" stroke-linecap="butt" stroke-linejoin="miter" stroke="#262626"/>
   <polyline fill="none" points="158.078,315.27 158.078,310.471" stroke-width="0.5" stroke-linecap="butt" stroke-linejoin="miter" stroke="#262626"/>
   <polyline fill="none" points="158.078,26.5677 158.078,31.3671" stroke-width="0.5" stroke-linecap="butt" stroke-linejoin="miter" stroke="#262626"/>
   <polyline fill="none" points="235.567,315.27 235.567,310.471" stroke-width="0.5" stroke-linecap="butt" stroke-linejoin="miter" stroke="#262626"/>
   <polyline fill="none" points="235.567,26.5677 235.567,31.3671" stroke-width="0.5" stroke-linecap="butt" stroke-linejoin="miter" stroke="#262626"/>
   <polyline fill="none" points="313.056,315.27 313.056,310.471" stroke-width="0.5" stroke-linecap="butt" stroke-linejoin="miter" stroke="#262626"/>
   <polyline fill="none" points="313.056,26.5677 313.056,31.3671" stroke-width="0.5" stroke-linecap="butt" stroke-linejoin="miter" stroke="#262626"/>
   <polyline fill="none" points="390.546,315.27 390.546,310.471" stroke-width="0.5" stroke-linecap="butt" stroke-linejoin="miter" stroke="#262626"/>
   <polyline fill="none" points="390.546,26.5677 390.546,31.3671" stroke-width="0.5" stroke-linecap="butt" stroke-linejoin="miter" stroke="#262626"/>
   <polyline fill="none" points="468.035,315.27 468.035,310.471" stroke-width="0.5" stroke-linecap="butt" stroke-linejoin="miter" stroke="#262626"/>
   <polyline fill="none" points="468.035,26.5677 468.035,31.3671" stroke-width="0.5" stroke-linecap="butt" stroke-linejoin="miter" stroke="#262626"/>
   <polyline fill="none" points="545.524,315.27 545.524,310.471" stroke-width="0.5" stroke-linecap="butt" stroke-linejoin="miter" stroke="#262626"/>
   <polyline fill="none" points="545.524,26.5677 545.524,31.3671" stroke-width="0.5" stroke-linecap="butt" stroke-linejoin="miter" stroke="#262626"/>
   <text transform="translate(77.5888,330.763) rotate(-0,3,-8)" font-family="FreeSans" xml:space="preserve" font-weight="normal" font-size="10" font-style="normal">
    <tspan y="-0" fill="rgb(38,38,38)" x="0 ">0</tspan>
   </text>
   <text transform="translate(147.578,330.763) rotate(-0,10.5,-8)" font-family="FreeSans" xml:space="preserve" font-weight="normal" font-size="10" font-style="normal">
    <tspan y="-0" fill="rgb(38,38,38)" x="0 6 9 15 ">0.05</tspan>
   </text>
   <text transform="translate(228.067,330.763) rotate(-0,7.5,-8)" font-family="FreeSans" xml:space="preserve" font-weight="normal" font-size="10" font-style="normal">
    <tspan y="-0" fill="rgb(38,38,38)" x="0 6 9 ">0.1</tspan>
   </text>
   <text transform="translate(302.556,330.763) rotate(-0,10.5,-8)" font-family="FreeSans" xml:space="preserve" font-weight="normal" font-size="10" font-style="normal">
    <tspan y="-0" fill="rgb(38,38,38)" x="0 6 9 15 ">0.15</tspan>
   </text>
   <text transform="translate(383.046,330.763) rotate(-0,7.5,-8)" font-family="FreeSans" xml:space="preserve" font-weight="normal" font-size="10" font-style="normal">
    <tspan y="-0" fill="rgb(38,38,38)" x="0 6 9 ">0.2</tspan>
   </text>
   <text transform="translate(457.535,330.763) rotate(-0,10.5,-8)" font-family="FreeSans" xml:space="preserve" font-weight="normal" font-size="10" font-style="normal">
    <tspan y="-0" fill="rgb(38,38,38)" x="0 6 9 15 ">0.25</tspan>
   </text>
   <text transform="translate(538.024,330.763) rotate(-0,7.5,-8)" font-family="FreeSans" xml:space="preserve" font-weight="normal" font-size="10" font-style="normal">
    <tspan y="-0" fill="rgb(38,38,38)" x="0 6 9 ">0.3</tspan>
   </text>
   <polyline stroke-dasharray="16,0" stroke-opacity="0.15" fill="none" points="80.5888,315.27 561.022,315.27" stroke-width="0.5" stroke-linecap="butt" stroke-linejoin="miter" stroke="#262626"/>
   <polyline stroke-dasharray="16,0" stroke-opacity="0.15" fill="none" points="80.5888,267.153 561.022,267.153" stroke-width="0.5" stroke-linecap="butt" stroke-linejoin="miter" stroke="#262626"/>
   <polyline stroke-dasharray="16,0" stroke-opacity="0.15" fill="none" points="80.5888,219.036 561.022,219.036" stroke-width="0.5" stroke-linecap="butt" stroke-linejoin="miter" stroke="#262626"/>
   <polyline stroke-dasharray="16,0" stroke-opacity="0.15" fill="none" points="80.5888,170.919 561.022,170.919" stroke-width="0.5" stroke-linecap="butt" stroke-linejoin="miter" stroke="#262626"/>
   <polyline stroke-dasharray="16,0" stroke-opacity="0.15" fill="none" points="80.5888,122.802 561.022,122.802" stroke-width="0.5" stroke-linecap="butt" stroke-linejoin="miter" stroke="#262626"/>
   <polyline stroke-dasharray="16,0" stroke-opacity="0.15" fill="none" points="80.5888,74.6848 561.022,74.6848" stroke-width="0.5" stroke-linecap="butt" stroke-linejoin="miter" stroke="#262626"/>
   <polyline stroke-dasharray="16,0" stroke-opacity="0.15" fill="none" points="80.5888,26.5677 561.022,26.5677" stroke-width="0.5" stroke-linecap="butt" stroke-linejoin="miter" stroke="#262626"/>
   <polyline fill="none" points="80.5888,315.27 85.3975,315.27" stroke-width="0.5" stroke-linecap="butt" stroke-linejoin="miter" stroke="#262626"/>
   <polyline fill="none" points="561.022,315.27 556.213,315.27" stroke-width="0.5" stroke-linecap="butt" stroke-linejoin="miter" stroke="#262626"/>
   <polyline fill="none" points="80.5888,267.153 85.3975,267.153" stroke-width="0.5" stroke-linecap="butt" stroke-linejoin="miter" stroke="#262626"/>
   <polyline fill="none" points="561.022,267.153 556.213,267.153" stroke-width="0.5" stroke-linecap="butt" stroke-linejoin="miter" stroke="#262626"/>
   <polyline fill="none" points="80.5888,219.036 85.3975,219.036" stroke-width="0.5" stroke-linecap="butt" stroke-linejoin="miter" stroke="#262626"/>
   <polyline fill="none" points="561.022,219.036 556.213,219.036" stroke-width="0.5" stroke-linecap="butt" stroke-linejoin="miter" stroke="#262626"/>
   <polyline fill="none" points="80.5888,170.919 85.3975,170.919" stroke-width="0.5" stroke-linecap="butt" stroke-linejoin="miter" stroke="#262626"/>
   <polyline fill="none" points="561.022,170.919 556.213,170.919" stroke-width="0.5" stroke-linecap="butt" stroke-linejoin="miter" stroke="#262626"/>
   <polyline fill="none" points="80.5888,122.802 85.3975,122.802" stroke-width="0.5" stroke-linecap="butt" stroke-linejoin="miter" stroke="#262626"/>
   <polyline fill="none" points="561.022,122.802 556.213,122.802" stroke-width="0.5" stroke-linecap="butt" stroke-linejoin="miter" stroke="#262626"/>
   <polyline fill="none" points="80.5888,74.6848 85.3975,74.6848" stroke-width="0.5" stroke-linecap="butt" stroke-linejoin="miter" stroke="#262626"/>
   <polyline fill="none" points="561.022,74.6848 556.213,74.6848" stroke-width="0.5" stroke-linecap="butt" stroke-linejoin="miter" stroke="#262626"/>
   <polyline fill="none" points="80.5888,26.5677 85.3975,26.5677" stroke-width="0.5" stroke-linecap="butt" stroke-linejoin="miter" stroke="#262626"/>
   <polyline fill="none" points="561.022,26.5677 556.213,26.5677" stroke-width="0.5" stroke-linecap="butt" stroke-linejoin="miter" stroke="#262626"/>
   <text transform="translate(66.5843,319.27) rotate(-0,9,-4)" font-family="FreeSans" xml:space="preserve" font-weight="normal" font-size="10" font-style="normal">
    <tspan y="-0" fill="rgb(38,38,38)" x="0 3 ">-6</tspan>
   </text>
   <text transform="translate(66.5843,271.153) rotate(-0,9,-4)" font-family="FreeSans" xml:space="preserve" font-weight="normal" font-size="10" font-style="normal">
    <tspan y="-0" fill="rgb(38,38,38)" x="0 3 ">-5</tspan>
   </text>
   <text transform="translate(66.5843,223.036) rotate(-0,9,-4)" font-family="FreeSans" xml:space="preserve" font-weight="normal" font-size="10" font-style="normal">
    <tspan y="-0" fill="rgb(38,38,38)" x="0 3 ">-4</tspan>
   </text>
   <text transform="translate(66.5843,174.919) rotate(-0,9,-4)" font-family="FreeSans" xml:space="preserve" font-weight="normal" font-size="10" font-style="normal">
    <tspan y="-0" fill="rgb(38,38,38)" x="0 3 ">-3</tspan>
   </text>
   <text transform="translate(66.5843,126.802) rotate(-0,9,-4)" font-family="FreeSans" xml:space="preserve" font-weight="normal" font-size="10" font-style="normal">
    <tspan y="-0" fill="rgb(38,38,38)" x="0 3 ">-2</tspan>
   </text>
   <text transform="translate(66.5843,78.6849) rotate(-0,9,-4)" font-family="FreeSans" xml:space="preserve" font-weight="normal" font-size="10" font-style="normal">
    <tspan y="-0" fill="rgb(38,38,38)" x="0 3 ">-1</tspan>
   </text>
   <text transform="translate(69.5843,30.5677) rotate(-0,6,-4)" font-family="FreeSans" xml:space="preserve" font-weight="normal" font-size="10" font-style="normal">
    <tspan y="-0" fill="rgb(38,38,38)" x="0 ">0</tspan>
   </text>
   <polyline stroke-dasharray="16,0" fill="none" points="80.5888,315.27 561.022,315.27" stroke-width="0.5" stroke-linecap="square" stroke-linejoin="miter" stroke="#262626"/>
   <polyline stroke-dasharray="16,0" fill="none" points="80.5888,26.5677 561.022,26.5677" stroke-width="0.5" stroke-linecap="square" stroke-linejoin="miter" stroke="#262626"/>
   <polyline stroke-dasharray="16,0" fill="none" points="80.5888,315.27 80.5888,26.5677" stroke-width="0.5" stroke-linecap="square" stroke-linejoin="miter" stroke="#262626"/>
   <polyline stroke-dasharray="16,0" fill="none" points="561.022,315.27 561.022,26.5677" stroke-width="0.5" stroke-linecap="square" stroke-linejoin="miter" stroke="#262626"/>
   <text transform="translate(297.305,347.763) rotate(-0,23.5,-12)" font-family="FreeSans" xml:space="preserve" font-weight="normal" font-size="11" font-style="normal">
    <tspan y="-3" fill="rgb(38,38,38)" x="0 7 13 22 28 34 38 43 ">Tempo(s)</tspan>
   </text>
   <text transform="translate(33.0843,170.919) rotate(-90,28.5,0)" font-family="FreeSans" xml:space="preserve" font-weight="normal" font-size="11" font-style="normal">
    <tspan y="-3" fill="rgb(38,38,38)" x="0 7 13 19 25 27 33 37 41 47 53 ">Ângulo(rad)</tspan>
   </text>
   <polyline fill="none" points="80.5888,26.5677 83.6884,26.5677 86.7879,26.5677 89.8875,27.3761 92.9871,27.3761 96.0866,27.3761 99.1862,27.3761 102.286,27.3761 105.385,28.1845 108.485,28.1845 111.584,28.9928 114.684,28.9928 117.784,29.8012 120.883,29.8012 123.983,30.6096 127.082,30.6096 130.182,31.4179 133.281,32.2263 136.381,33.0347 139.481,33.0347 142.58,33.843 145.68,34.6514 148.779,35.4598 151.879,36.2681 154.978,37.0764 158.078,37.8848 161.178,38.6932 164.277,39.5016 167.377,40.3099 170.476,41.1183 173.576,42.735 176.675,43.5434 179.775,44.3518 182.875,45.1601 185.974,46.7769 189.074,47.5852 192.173,48.3936 195.273,50.0103 198.372,50.8187 201.472,52.4355 204.572,53.2438 207.671,54.8605 210.771,55.6689 213.87,57.2856 216.97,58.094 220.069,59.7107 223.169,60.5191 226.269,62.1358 229.368,63.7526 232.468,64.5609 235.567,66.1776 238.667,66.986 241.766,68.6028 244.866,70.2195 247.966,71.0279 251.065,72.6446 254.165,74.2613 257.264,75.8781 260.364,76.6864 263.463,78.3031 266.563,79.9199 269.663,81.5366 272.762,83.1533 275.862,84.7701 278.961,86.3868 282.061,87.1952 285.16,88.8119 288.26,90.4286 291.36,92.0454 294.459,93.6621 297.559,95.2788 300.658,96.8955 303.758,98.5123 306.857,100.129 309.957,101.746 313.056,103.362 316.156,104.979 319.256,106.596 322.355,108.213 325.455,109.829 328.554,111.446 331.654,113.871 334.753,115.488 337.853,117.105 340.953,118.721 344.052,120.338 347.152,121.955 350.251,123.572 353.351,125.997 356.45,127.613 359.55,129.23 362.65,130.847 365.749,132.464 368.849,134.889 371.948,136.505 375.048,138.122 378.147,139.739 381.247,142.164 384.347,143.781 387.446,145.397 390.546,147.823 393.645,149.439 396.745,151.056 399.844,153.481 402.944,155.098 406.044,156.715 409.143,159.14 412.243,160.756 415.342,162.373 418.442,164.798 421.541,166.415 424.641,168.032 427.741,170.457 430.84,172.074 433.94,174.499 437.039,176.115 440.139,178.54 443.238,180.157 446.338,181.774 449.438,184.199 452.537,185.816 455.637,188.241 458.736,189.858 461.836,192.283 464.935,193.899 468.035,196.325 471.135,197.941 474.234,200.366 477.334,201.983 480.433,204.408 483.533,206.025 486.632,208.45 489.732,210.875 492.831,212.492 495.931,214.917 499.031,216.534 502.13,218.959 505.23,220.576 508.329,223.001 511.429,225.426 514.529,227.042 517.628,229.468 520.728,231.084 523.827,233.509 526.927,235.934 530.026,237.551 533.126,239.976 536.225,241.593 539.325,244.018 542.425,245.635 545.524,248.06 548.624,250.485 551.723,252.102 554.823,254.527 557.922,256.144 561.022,258.569" stroke-width="0.5" stroke-linecap="butt" stroke-linejoin="round" stroke="#0071bc"/>
   <polyline fill="none" points="80.5888,26.5677 83.6884,26.6961 86.7879,27.0582 89.8875,27.6228 92.9871,28.3629 96.0866,29.2553 99.1862,30.2796 102.286,31.4183 105.385,32.6561 108.485,33.9798 111.584,35.3781 114.684,36.841 117.784,38.3599 120.883,39.9274 123.983,41.537 127.082,43.1832 130.182,44.8611 133.281,46.5665 136.381,48.2958 139.481,50.0458 142.58,51.8138 145.68,53.5974 148.779,55.3946 151.879,57.2036 154.978,59.0228 158.078,60.851 161.178,62.6869 164.277,64.5296 167.377,66.3782 170.476,68.2319 173.576,70.0901 176.675,71.9523 179.775,73.8179 182.875,75.6865 185.974,77.5577 189.074,79.4313 192.173,81.3069 195.273,83.1843 198.372,85.0634 201.472,86.9438 204.572,88.8256 207.671,90.7085 210.771,92.5924 213.87,94.4772 216.97,96.3629 220.069,98.2494 223.169,100.137 226.269,102.024 229.368,103.913 232.468,105.802 235.567,107.691 238.667,109.581 241.766,111.471 244.866,113.362 247.966,115.254 251.065,117.145 254.165,119.037 257.264,120.93 260.364,122.823 263.463,124.716 266.563,126.61 269.663,128.503 272.762,130.398 275.862,132.292 278.961,134.187 282.061,136.082 285.16,137.978 288.26,139.874 291.36,141.77 294.459,143.667 297.559,145.564 300.658,147.461 303.758,149.359 306.857,151.257 309.957,153.155 313.056,155.053 316.156,156.952 319.256,158.852 322.355,160.751 325.455,162.651 328.554,164.552 331.654,166.452 334.753,168.353 337.853,170.255 340.953,172.156 344.052,174.058 347.152,175.961 350.251,177.863 353.351,179.767 356.45,181.67 359.55,183.574 362.65,185.478 365.749,187.383 368.849,189.288 371.948,191.193 375.048,193.099 378.147,195.005 381.247,196.911 384.347,198.818 387.446,200.725 390.546,202.633 393.645,204.541 396.745,206.449 399.844,208.358 402.944,210.267 406.044,212.177 409.143,214.087 412.243,215.997 415.342,217.908 418.442,219.819 421.541,221.731 424.641,223.643 427.741,225.555 430.84,227.468 433.94,229.382 437.039,231.295 440.139,233.21 443.238,235.124 446.338,237.039 449.438,238.955 452.537,240.871 455.637,242.787 458.736,244.704 461.836,246.621 464.935,248.539 468.035,250.457 471.135,252.376 474.234,254.295 477.334,256.214 480.433,258.134 483.533,260.055 486.632,261.976 489.732,263.898 492.831,265.82 495.931,267.742 499.031,269.665 502.13,271.588 505.23,273.512 508.329,275.437 511.429,277.362 514.529,279.287 517.628,281.213 520.728,283.14 523.827,285.067 526.927,286.994 530.026,288.922 533.126,290.851 536.225,292.78 539.325,294.709 542.425,296.64 545.524,298.57 548.624,300.502 551.723,302.433 554.823,304.366 557.922,306.299 561.022,308.232" stroke-width="0.5" stroke-linecap="butt" stroke-linejoin="round" stroke="#d85218"/>
   <polyline fill="none" points="80.5888,26.5677 83.6884,26.6953 86.7879,27.0523 89.8875,27.6044 92.9871,28.3224 96.0866,29.1815 99.1862,30.1607 102.286,31.242 105.385,32.4102 108.485,33.6524 111.584,34.9576 114.684,36.3162 117.784,37.7205 120.883,39.1637 123.983,40.6399 127.082,42.1443 130.182,43.6728 133.281,45.2218 136.381,46.7882 139.481,48.3697 142.58,49.9638 145.68,51.569 148.779,53.1834 151.879,54.8059 154.978,56.4354 158.078,58.0707 161.178,59.7111 164.277,61.356 167.377,63.0046 170.476,64.6566 173.576,66.3116 176.675,67.969 179.775,69.6286 182.875,71.2902 185.974,72.9536 189.074,74.6185 192.173,76.2849 195.273,77.9524 198.372,79.6211 201.472,81.2909 204.572,82.9617 207.671,84.6333 210.771,86.3058 213.87,87.9791 216.97,89.6531 220.069,91.3278 223.169,93.0033 226.269,94.6794 229.368,96.3561 232.468,98.0334 235.567,99.7114 238.667,101.39 241.766,103.069 244.866,104.749 247.966,106.429 251.065,108.11 254.165,109.792 257.264,111.474 260.364,113.156 263.463,114.84 266.563,116.523 269.663,118.208 272.762,119.893 275.862,121.578 278.961,123.264 282.061,124.951 285.16,126.638 288.26,128.326 291.36,130.014 294.459,131.703 297.559,133.393 300.658,135.083 303.758,136.773 306.857,138.465 309.957,140.157 313.056,141.849 316.156,143.542 319.256,145.236 322.355,146.93 325.455,148.625 328.554,150.321 331.654,152.017 334.753,153.714 337.853,155.412 340.953,157.11 344.052,158.808 347.152,160.508 350.251,162.208 353.351,163.909 356.45,165.61 359.55,167.312 362.65,169.015 365.749,170.718 368.849,172.422 371.948,174.127 375.048,175.832 378.147,177.539 381.247,179.245 384.347,180.953 387.446,182.661 390.546,184.37 393.645,186.08 396.745,187.79 399.844,189.501 402.944,191.213 406.044,192.925 409.143,194.638 412.243,196.352 415.342,198.067 418.442,199.782 421.541,201.499 424.641,203.216 427.741,204.933 430.84,206.652 433.94,208.371 437.039,210.091 440.139,211.812 443.238,213.533 446.338,215.256 449.438,216.979 452.537,218.703 455.637,220.428 458.736,222.153 461.836,223.88 464.935,225.607 468.035,227.335 471.135,229.064 474.234,230.793 477.334,232.524 480.433,234.255 483.533,235.988 486.632,237.721 489.732,239.455 492.831,241.19 495.931,242.925 499.031,244.662 502.13,246.399 505.23,248.138 508.329,249.877 511.429,251.617 514.529,253.358 517.628,255.1 520.728,256.843 523.827,258.587 526.927,260.332 530.026,262.077 533.126,263.824 536.225,265.572 539.325,267.32 542.425,269.07 545.524,270.82 548.624,272.572 551.723,274.324 554.823,276.077 557.922,277.832 561.022,279.587" stroke-width="0.5" stroke-linecap="butt" stroke-linejoin="round" stroke="#ecb01f"/>
   <polyline fill="none" points="80.5888,26.5677 83.6884,26.6945 86.7879,27.0465 89.8875,27.5865 92.9871,28.2832 96.0866,29.1109 99.1862,30.0479 102.286,31.0762 105.385,32.1807 108.485,33.3489 111.584,34.5703 114.684,35.8363 117.784,37.1395 120.883,38.4739 123.983,39.8344 127.082,41.2168 130.182,42.6176 133.281,44.0338 136.381,45.463 139.481,46.9033 142.58,48.3527 145.68,49.81 148.779,51.274 151.879,52.7436 154.978,54.2181 158.078,55.6968 161.178,57.1791 164.277,58.6645 167.377,60.1526 170.476,61.6432 173.576,63.1359 176.675,64.6304 179.775,66.1267 182.875,67.6245 185.974,69.1238 189.074,70.6244 192.173,72.1262 195.273,73.6291 198.372,75.1331 201.472,76.6382 204.572,78.1443 207.671,79.6513 210.771,81.1592 213.87,82.6681 216.97,84.1779 220.069,85.6885 223.169,87.2 226.269,88.7124 229.368,90.2256 232.468,91.7397 235.567,93.2545 238.667,94.7703 241.766,96.2869 244.866,97.8043 247.966,99.3226 251.065,100.842 254.165,102.362 257.264,103.882 260.364,105.404 263.463,106.926 266.563,108.45 269.663,109.974 272.762,111.499 275.862,113.025 278.961,114.552 282.061,116.079 285.16,117.608 288.26,119.137 291.36,120.668 294.459,122.199 297.559,123.731 300.658,125.264 303.758,126.798 306.857,128.332 309.957,129.868 313.056,131.405 316.156,132.942 319.256,134.48 322.355,136.02 325.455,137.56 328.554,139.101 331.654,140.643 334.753,142.186 337.853,143.731 340.953,145.276 344.052,146.822 347.152,148.368 350.251,149.916 353.351,151.465 356.45,153.015 359.55,154.566 362.65,156.118 365.749,157.671 368.849,159.225 371.948,160.78 375.048,162.335 378.147,163.892 381.247,165.45 384.347,167.009 387.446,168.569 390.546,170.13 393.645,171.693 396.745,173.256 399.844,174.82 402.944,176.385 406.044,177.952 409.143,179.519 412.243,181.088 415.342,182.657 418.442,184.228 421.541,185.8 424.641,187.373 427.741,188.947 430.84,190.522 433.94,192.099 437.039,193.676 440.139,195.255 443.238,196.835 446.338,198.416 449.438,199.998 452.537,201.581 455.637,203.165 458.736,204.751 461.836,206.338 464.935,207.926 468.035,209.515 471.135,211.106 474.234,212.697 477.334,214.29 480.433,215.884 483.533,217.48 486.632,219.076 489.732,220.674 492.831,222.273 495.931,223.874 499.031,225.476 502.13,227.079 505.23,228.683 508.329,230.288 511.429,231.895 514.529,233.504 517.628,235.113 520.728,236.724 523.827,238.336 526.927,239.95 530.026,241.565 533.126,243.181 536.225,244.799 539.325,246.418 542.425,248.038 545.524,249.66 548.624,251.283 551.723,252.908 554.823,254.534 557.922,256.161 561.022,257.79" stroke-width="0.5" stroke-linecap="butt" stroke-linejoin="round" stroke="#7d2e8d"/>
   <polyline fill="none" points="80.5888,26.5677 83.6884,26.6938 86.7879,27.0409 89.8875,27.569 92.9871,28.2455 96.0866,29.0434 99.1862,29.9409 102.286,30.92 105.385,31.9661 108.485,33.0671 111.584,34.2132 114.684,35.3964 117.784,36.6102 120.883,37.8491 123.983,39.1088 127.082,40.3856 130.182,41.6766 133.281,42.9795 136.381,44.2922 139.481,45.6131 142.58,46.9409 145.68,48.2747 148.779,49.6133 151.879,50.9562 154.978,52.3028 158.078,53.6526 161.178,55.0051 164.277,56.3601 167.377,57.7173 170.476,59.0765 173.576,60.4375 176.675,61.8002 179.775,63.1645 182.875,64.5302 185.974,65.8973 189.074,67.2657 192.173,68.6355 195.273,70.0064 198.372,71.3786 201.472,72.752 204.572,74.1265 207.671,75.5022 210.771,76.879 213.87,78.257 216.97,79.636 220.069,81.0162 223.169,82.3975 226.269,83.7799 229.368,85.1634 232.468,86.548 235.567,87.9338 238.667,89.3206 241.766,90.7086 244.866,92.0977 247.966,93.4879 251.065,94.8793 254.165,96.2717 257.264,97.6653 260.364,99.0601 263.463,100.456 266.563,101.853 269.663,103.251 272.762,104.65 275.862,106.051 278.961,107.453 282.061,108.855 285.16,110.259 288.26,111.665 291.36,113.071 294.459,114.479 297.559,115.887 300.658,117.297 303.758,118.708 306.857,120.121 309.957,121.534 313.056,122.949 316.156,124.365 319.256,125.782 322.355,127.201 325.455,128.621 328.554,130.042 331.654,131.464 334.753,132.887 337.853,134.312 340.953,135.738 344.052,137.165 347.152,138.594 350.251,140.024 353.351,141.455 356.45,142.888 359.55,144.321 362.65,145.756 365.749,147.193 368.849,148.631 371.948,150.07 375.048,151.51 378.147,152.952 381.247,154.395 384.347,155.84 387.446,157.286 390.546,158.733 393.645,160.181 396.745,161.632 399.844,163.083 402.944,164.536 406.044,165.99 409.143,167.446 412.243,168.903 415.342,170.361 418.442,171.821 421.541,173.283 424.641,174.746 427.741,176.21 430.84,177.676 433.94,179.143 437.039,180.612 440.139,182.082 443.238,183.554 446.338,185.027 449.438,186.502 452.537,187.978 455.637,189.456 458.736,190.936 461.836,192.416 464.935,193.899 468.035,195.383 471.135,196.869 474.234,198.356 477.334,199.845 480.433,201.335 483.533,202.827 486.632,204.321 489.732,205.816 492.831,207.313 495.931,208.812 499.031,210.312 502.13,211.814 505.23,213.318 508.329,214.823 511.429,216.33 514.529,217.839 517.628,219.349 520.728,220.861 523.827,222.375 526.927,223.891 530.026,225.408 533.126,226.927 536.225,228.448 539.325,229.97 542.425,231.495 545.524,233.021 548.624,234.549 551.723,236.079 554.823,237.611 557.922,239.144 561.022,240.68" stroke-width="0.5" stroke-linecap="butt" stroke-linejoin="round" stroke="#76ab2f"/>
  </g>
  <clipPath id="cp00619354">
   <polygon points="0,354 619,354 619,0 0,0"/>
  </clipPath>
  <g clip-path="url(#cp00619354)">
   <polygon fill="#ffffff" points="87.3639,308.495 191.464,308.495 191.464,196.17 87.3639,196.17" shape-rendering="crispEdges"/>
   <polyline stroke-dasharray="16,0" fill="none" points="87.3639,308.495 191.464,308.495" stroke-width="0.5" stroke-linecap="square" stroke-linejoin="miter" stroke="#262626"/>
   <polyline stroke-dasharray="16,0" fill="none" points="87.3639,196.17 191.464,196.17" stroke-width="0.5" stroke-linecap="square" stroke-linejoin="miter" stroke="#262626"/>
   <polyline stroke-dasharray="16,0" fill="none" points="87.3639,308.495 87.3639,196.17" stroke-width="0.5" stroke-linecap="square" stroke-linejoin="miter" stroke="#262626"/>
   <polyline stroke-dasharray="16,0" fill="none" points="191.464,308.495 191.464,196.17" stroke-width="0.5" stroke-linecap="square" stroke-linejoin="miter" stroke="#262626"/>
   <polyline fill="none" points="90.7515,207.557 107.689,207.557" stroke-width="0.5" stroke-linecap="butt" stroke-linejoin="round" stroke="#0071bc"/>
   <text transform="translate(111.077,215.557) rotate(-0,-0,-8)" font-family="FreeSans" xml:space="preserve" font-weight="normal" font-size="20" font-style="normal">
    <tspan y="-0" fill="rgb(0,0,0)" x="0 14 25 36 ">Real</tspan>
   </text>
   <polyline fill="none" points="90.7515,228.445 107.689,228.445" stroke-width="0.5" stroke-linecap="butt" stroke-linejoin="round" stroke="#d85218"/>
   <text transform="translate(111.077,237.945) rotate(-0,-0,-9.5)" font-family="FreeSans" xml:space="preserve" font-weight="normal" font-size="20" font-style="normal">
    <tspan y="-3" fill="rgb(0,0,0)" x="0 ">b</tspan>
    <tspan y="-0" fill="rgb(0,0,0)" font-size="14" x="11 ">r</tspan>
    <tspan y="-3" fill="rgb(0,0,0)" x="16 21 33 38 49 55 66 "> = 0,01</tspan>
   </text>
   <polyline fill="none" points="90.7515,250.833 107.689,250.833" stroke-width="0.5" stroke-linecap="butt" stroke-linejoin="round" stroke="#ecb01f"/>
   <text transform="translate(111.077,260.333) rotate(-0,-0,-9.5)" font-family="FreeSans" xml:space="preserve" font-weight="normal" font-size="20" font-style="normal">
    <tspan y="-3" fill="rgb(0,0,0)" x="0 ">b</tspan>
    <tspan y="-0" fill="rgb(0,0,0)" font-size="14" x="11 ">r</tspan>
    <tspan y="-3" fill="rgb(0,0,0)" x="16 21 33 38 49 55 66 "> = 0,02</tspan>
   </text>
   <polyline fill="none" points="90.7515,273.22 107.689,273.22" stroke-width="0.5" stroke-linecap="butt" stroke-linejoin="round" stroke="#7d2e8d"/>
   <text transform="translate(111.077,282.72) rotate(-0,-0,-9.5)" font-family="FreeSans" xml:space="preserve" font-weight="normal" font-size="20" font-style="normal">
    <tspan y="-3" fill="rgb(0,0,0)" x="0 ">b</tspan>
    <tspan y="-0" fill="rgb(0,0,0)" font-size="14" x="11 ">r</tspan>
    <tspan y="-3" fill="rgb(0,0,0)" x="16 21 33 38 49 55 66 "> = 0,03</tspan>
   </text>
   <polyline fill="none" points="90.7515,295.608 107.689,295.608" stroke-width="0.5" stroke-linecap="butt" stroke-linejoin="round" stroke="#76ab2f"/>
   <text transform="translate(111.077,305.108) rotate(-0,-0,-9.5)" font-family="FreeSans" xml:space="preserve" font-weight="normal" font-size="20" font-style="normal">
    <tspan y="-3" fill="rgb(0,0,0)" x="0 ">b</tspan>
    <tspan y="-0" fill="rgb(0,0,0)" font-size="14" x="11 ">r</tspan>
    <tspan y="-3" fill="rgb(0,0,0)" x="16 21 33 38 49 55 66 "> = 0,04</tspan>
   </text>
  </g>
 </g>
</svg>
