<?xml version='1.0' encoding='UTF-8' standalone='no'?>
<svg viewBox="0 0 619 354" width="619pt" xmlns="http://www.w3.org/2000/svg" xmlns:xlink="http://www.w3.org/1999/xlink" height="354pt">
 <title>gl2ps_renderer figure</title>
 <desc>
Creator: GL2PS 1.4.2, (C) 1999-2020 C. Geuzaine
For: Octave
CreationDate: Mon Nov 14 00:51:23 2022
</desc>
 <defs/>
 <polygon points="0,0 619,0 619,354 0,354" fill="#ffffff"/>
 <g>
  <polygon points="0,354 619,354 619,0 0,0" fill="#ffffff" shape-rendering="crispEdges"/>
  <clipPath id="cp00619354">
   <polygon points="0,354 619,354 619,0 0,0"/>
  </clipPath>
  <g clip-path="url(#cp00619354)">
   <polygon points="80.5888,315.27 561.022,315.27 561.022,26.5677 80.5888,26.5677" fill="#ffffff" shape-rendering="crispEdges"/>
   <polyline stroke-opacity="0.15" points="80.5888,315.27 80.5888,26.5677" fill="none" stroke-linecap="butt" stroke-width="0.5" stroke="#262626" stroke-dasharray="16,0" stroke-linejoin="miter"/>
   <polyline stroke-opacity="0.15" points="196.635,315.27 196.635,26.5677" fill="none" stroke-linecap="butt" stroke-width="0.5" stroke="#262626" stroke-dasharray="16,0" stroke-linejoin="miter"/>
   <polyline stroke-opacity="0.15" points="312.682,315.27 312.682,26.5677" fill="none" stroke-linecap="butt" stroke-width="0.5" stroke="#262626" stroke-dasharray="16,0" stroke-linejoin="miter"/>
   <polyline stroke-opacity="0.15" points="428.729,315.27 428.729,26.5677" fill="none" stroke-linecap="butt" stroke-width="0.5" stroke="#262626" stroke-dasharray="16,0" stroke-linejoin="miter"/>
   <polyline stroke-opacity="0.15" points="544.776,315.27 544.776,26.5677" fill="none" stroke-linecap="butt" stroke-width="0.5" stroke="#262626" stroke-dasharray="16,0" stroke-linejoin="miter"/>
   <polyline points="80.5888,315.27 80.5888,310.471" fill="none" stroke-linecap="butt" stroke-width="0.5" stroke="#262626" stroke-linejoin="miter"/>
   <polyline points="80.5888,26.5677 80.5888,31.3671" fill="none" stroke-linecap="butt" stroke-width="0.5" stroke="#262626" stroke-linejoin="miter"/>
   <polyline points="196.635,315.27 196.635,310.471" fill="none" stroke-linecap="butt" stroke-width="0.5" stroke="#262626" stroke-linejoin="miter"/>
   <polyline points="196.635,26.5677 196.635,31.3671" fill="none" stroke-linecap="butt" stroke-width="0.5" stroke="#262626" stroke-linejoin="miter"/>
   <polyline points="312.682,315.27 312.682,310.471" fill="none" stroke-linecap="butt" stroke-width="0.5" stroke="#262626" stroke-linejoin="miter"/>
   <polyline points="312.682,26.5677 312.682,31.3671" fill="none" stroke-linecap="butt" stroke-width="0.5" stroke="#262626" stroke-linejoin="miter"/>
   <polyline points="428.729,315.27 428.729,310.471" fill="none" stroke-linecap="butt" stroke-width="0.5" stroke="#262626" stroke-linejoin="miter"/>
   <polyline points="428.729,26.5677 428.729,31.3671" fill="none" stroke-linecap="butt" stroke-width="0.5" stroke="#262626" stroke-linejoin="miter"/>
   <polyline points="544.776,315.27 544.776,310.471" fill="none" stroke-linecap="butt" stroke-width="0.5" stroke="#262626" stroke-linejoin="miter"/>
   <polyline points="544.776,26.5677 544.776,31.3671" fill="none" stroke-linecap="butt" stroke-width="0.5" stroke="#262626" stroke-linejoin="miter"/>
   <text transform="translate(77.5888,330.763) rotate(-0,3,-8)" xml:space="preserve" font-size="10" font-weight="normal" font-family="FreeSans" font-style="normal">
    <tspan y="-0" fill="rgb(38,38,38)" x="0 ">0</tspan>
   </text>
   <text transform="translate(189.135,330.763) rotate(-0,7.5,-8)" xml:space="preserve" font-size="10" font-weight="normal" font-family="FreeSans" font-style="normal">
    <tspan y="-0" fill="rgb(38,38,38)" x="0 6 9 ">0.1</tspan>
   </text>
   <text transform="translate(305.182,330.763) rotate(-0,7.5,-8)" xml:space="preserve" font-size="10" font-weight="normal" font-family="FreeSans" font-style="normal">
    <tspan y="-0" fill="rgb(38,38,38)" x="0 6 9 ">0.2</tspan>
   </text>
   <text transform="translate(421.229,330.763) rotate(-0,7.5,-8)" xml:space="preserve" font-size="10" font-weight="normal" font-family="FreeSans" font-style="normal">
    <tspan y="-0" fill="rgb(38,38,38)" x="0 6 9 ">0.3</tspan>
   </text>
   <text transform="translate(537.275,330.763) rotate(-0,7.5,-8)" xml:space="preserve" font-size="10" font-weight="normal" font-family="FreeSans" font-style="normal">
    <tspan y="-0" fill="rgb(38,38,38)" x="0 6 9 ">0.4</tspan>
   </text>
   <polyline stroke-opacity="0.15" points="80.5888,315.27 561.022,315.27" fill="none" stroke-linecap="butt" stroke-width="0.5" stroke="#262626" stroke-dasharray="16,0" stroke-linejoin="miter"/>
   <polyline stroke-opacity="0.15" points="80.5888,267.153 561.022,267.153" fill="none" stroke-linecap="butt" stroke-width="0.5" stroke="#262626" stroke-dasharray="16,0" stroke-linejoin="miter"/>
   <polyline stroke-opacity="0.15" points="80.5888,219.036 561.022,219.036" fill="none" stroke-linecap="butt" stroke-width="0.5" stroke="#262626" stroke-dasharray="16,0" stroke-linejoin="miter"/>
   <polyline stroke-opacity="0.15" points="80.5888,170.919 561.022,170.919" fill="none" stroke-linecap="butt" stroke-width="0.5" stroke="#262626" stroke-dasharray="16,0" stroke-linejoin="miter"/>
   <polyline stroke-opacity="0.15" points="80.5888,122.802 561.022,122.802" fill="none" stroke-linecap="butt" stroke-width="0.5" stroke="#262626" stroke-dasharray="16,0" stroke-linejoin="miter"/>
   <polyline stroke-opacity="0.15" points="80.5888,74.6848 561.022,74.6848" fill="none" stroke-linecap="butt" stroke-width="0.5" stroke="#262626" stroke-dasharray="16,0" stroke-linejoin="miter"/>
   <polyline stroke-opacity="0.15" points="80.5888,26.5677 561.022,26.5677" fill="none" stroke-linecap="butt" stroke-width="0.5" stroke="#262626" stroke-dasharray="16,0" stroke-linejoin="miter"/>
   <polyline points="80.5888,315.27 85.3975,315.27" fill="none" stroke-linecap="butt" stroke-width="0.5" stroke="#262626" stroke-linejoin="miter"/>
   <polyline points="561.022,315.27 556.213,315.27" fill="none" stroke-linecap="butt" stroke-width="0.5" stroke="#262626" stroke-linejoin="miter"/>
   <polyline points="80.5888,267.153 85.3975,267.153" fill="none" stroke-linecap="butt" stroke-width="0.5" stroke="#262626" stroke-linejoin="miter"/>
   <polyline points="561.022,267.153 556.213,267.153" fill="none" stroke-linecap="butt" stroke-width="0.5" stroke="#262626" stroke-linejoin="miter"/>
   <polyline points="80.5888,219.036 85.3975,219.036" fill="none" stroke-linecap="butt" stroke-width="0.5" stroke="#262626" stroke-linejoin="miter"/>
   <polyline points="561.022,219.036 556.213,219.036" fill="none" stroke-linecap="butt" stroke-width="0.5" stroke="#262626" stroke-linejoin="miter"/>
   <polyline points="80.5888,170.919 85.3975,170.919" fill="none" stroke-linecap="butt" stroke-width="0.5" stroke="#262626" stroke-linejoin="miter"/>
   <polyline points="561.022,170.919 556.213,170.919" fill="none" stroke-linecap="butt" stroke-width="0.5" stroke="#262626" stroke-linejoin="miter"/>
   <polyline points="80.5888,122.802 85.3975,122.802" fill="none" stroke-linecap="butt" stroke-width="0.5" stroke="#262626" stroke-linejoin="miter"/>
   <polyline points="561.022,122.802 556.213,122.802" fill="none" stroke-linecap="butt" stroke-width="0.5" stroke="#262626" stroke-linejoin="miter"/>
   <polyline points="80.5888,74.6848 85.3975,74.6848" fill="none" stroke-linecap="butt" stroke-width="0.5" stroke="#262626" stroke-linejoin="miter"/>
   <polyline points="561.022,74.6848 556.213,74.6848" fill="none" stroke-linecap="butt" stroke-width="0.5" stroke="#262626" stroke-linejoin="miter"/>
   <polyline points="80.5888,26.5677 85.3975,26.5677" fill="none" stroke-linecap="butt" stroke-width="0.5" stroke="#262626" stroke-linejoin="miter"/>
   <polyline points="561.022,26.5677 556.213,26.5677" fill="none" stroke-linecap="butt" stroke-width="0.5" stroke="#262626" stroke-linejoin="miter"/>
   <text transform="translate(66.5843,319.27) rotate(-0,9,-4)" xml:space="preserve" font-size="10" font-weight="normal" font-family="FreeSans" font-style="normal">
    <tspan y="-0" fill="rgb(38,38,38)" x="0 3 ">-6</tspan>
   </text>
   <text transform="translate(66.5843,271.153) rotate(-0,9,-4)" xml:space="preserve" font-size="10" font-weight="normal" font-family="FreeSans" font-style="normal">
    <tspan y="-0" fill="rgb(38,38,38)" x="0 3 ">-5</tspan>
   </text>
   <text transform="translate(66.5843,223.036) rotate(-0,9,-4)" xml:space="preserve" font-size="10" font-weight="normal" font-family="FreeSans" font-style="normal">
    <tspan y="-0" fill="rgb(38,38,38)" x="0 3 ">-4</tspan>
   </text>
   <text transform="translate(66.5843,174.919) rotate(-0,9,-4)" xml:space="preserve" font-size="10" font-weight="normal" font-family="FreeSans" font-style="normal">
    <tspan y="-0" fill="rgb(38,38,38)" x="0 3 ">-3</tspan>
   </text>
   <text transform="translate(66.5843,126.802) rotate(-0,9,-4)" xml:space="preserve" font-size="10" font-weight="normal" font-family="FreeSans" font-style="normal">
    <tspan y="-0" fill="rgb(38,38,38)" x="0 3 ">-2</tspan>
   </text>
   <text transform="translate(66.5843,78.6849) rotate(-0,9,-4)" xml:space="preserve" font-size="10" font-weight="normal" font-family="FreeSans" font-style="normal">
    <tspan y="-0" fill="rgb(38,38,38)" x="0 3 ">-1</tspan>
   </text>
   <text transform="translate(69.5843,30.5677) rotate(-0,6,-4)" xml:space="preserve" font-size="10" font-weight="normal" font-family="FreeSans" font-style="normal">
    <tspan y="-0" fill="rgb(38,38,38)" x="0 ">0</tspan>
   </text>
   <polyline points="80.5888,315.27 561.022,315.27" fill="none" stroke-linecap="square" stroke-width="0.5" stroke="#262626" stroke-dasharray="16,0" stroke-linejoin="miter"/>
   <polyline points="80.5888,26.5677 561.022,26.5677" fill="none" stroke-linecap="square" stroke-width="0.5" stroke="#262626" stroke-dasharray="16,0" stroke-linejoin="miter"/>
   <polyline points="80.5888,315.27 80.5888,26.5677" fill="none" stroke-linecap="square" stroke-width="0.5" stroke="#262626" stroke-dasharray="16,0" stroke-linejoin="miter"/>
   <polyline points="561.022,315.27 561.022,26.5677" fill="none" stroke-linecap="square" stroke-width="0.5" stroke="#262626" stroke-dasharray="16,0" stroke-linejoin="miter"/>
   <text transform="translate(297.305,347.763) rotate(-0,23.5,-12)" xml:space="preserve" font-size="11" font-weight="normal" font-family="FreeSans" font-style="normal">
    <tspan y="-3" fill="rgb(38,38,38)" x="0 7 13 22 28 34 38 43 ">Tempo(s)</tspan>
   </text>
   <text transform="translate(33.0843,170.919) rotate(-90,28.5,0)" xml:space="preserve" font-size="11" font-weight="normal" font-family="FreeSans" font-style="normal">
    <tspan y="-3" fill="rgb(38,38,38)" x="0 7 13 19 25 27 33 37 41 47 53 ">Ângulo(rad)</tspan>
   </text>
   <polyline points="80.5888,26.5677 82.9097,26.5677 85.2307,26.5677 87.5516,26.5677 89.8725,26.5677 92.1935,26.5677 94.5144,27.3761 96.8353,27.3761 99.1563,27.3761 101.477,27.3761 103.798,27.3761 106.119,27.3761 108.44,28.1845 110.761,28.1845 113.082,28.1845 115.403,28.9928 117.724,28.9928 120.045,29.8012 122.366,29.8012 124.687,29.8012 127.007,30.6096 129.328,30.6096 131.649,31.4179 133.97,31.4179 136.291,32.2263 138.612,32.2263 140.933,33.0347 143.254,33.0347 145.575,33.843 147.896,34.6514 150.217,34.6514 152.538,35.4598 154.859,35.4598 157.18,36.2681 159.501,37.0764 161.821,37.0764 164.142,37.8848 166.463,38.6932 168.784,39.5016 171.105,39.5016 173.426,40.3099 175.747,41.1183 178.068,41.9267 180.389,41.9267 182.71,42.735 185.031,43.5434 187.352,44.3518 189.673,45.1601 191.994,45.9685 194.315,45.9685 196.635,46.7769 198.956,47.5852 201.277,48.3936 203.598,49.202 205.919,50.0103 208.24,50.8187 210.561,51.6271 212.882,52.4355 215.203,53.2438 217.524,54.0522 219.845,54.0522 222.166,54.8605 224.487,55.6689 226.808,56.4773 229.129,57.2856 231.449,58.094 233.77,58.9023 236.091,59.7107 238.412,60.5191 240.733,61.3275 243.054,62.9442 245.375,63.7526 247.696,64.5609 250.017,65.3693 252.338,66.1776 254.659,66.986 256.98,67.7944 259.301,68.6028 261.622,69.4111 263.943,70.2195 266.263,71.0279 268.584,71.8362 270.905,73.4529 273.226,74.2613 275.547,75.0697 277.868,75.8781 280.189,76.6864 282.51,77.4948 284.831,79.1115 287.152,79.9199 289.473,80.7282 291.794,81.5366 294.115,82.3449 296.436,83.9617 298.757,84.7701 301.077,85.5784 303.398,86.3868 305.719,87.1952 308.04,88.8119 310.361,89.6203 312.682,90.4286 315.003,91.237 317.324,92.8537 319.645,93.6621 321.966,94.4705 324.287,96.0872 326.608,96.8955 328.929,97.7039 331.25,99.3206 333.571,100.129 335.891,100.937 338.212,102.554 340.533,103.362 342.854,104.171 345.175,105.788 347.496,106.596 349.817,108.213 352.138,109.021 354.459,109.829 356.78,111.446 359.101,112.255 361.422,113.871 363.743,114.68 366.064,116.296 368.385,117.105 370.705,118.721 373.026,119.53 375.347,120.338 377.668,121.955 379.989,122.763 382.31,124.38 384.631,125.188 386.952,126.805 389.273,127.613 391.594,129.23 393.915,130.039 396.236,131.655 398.557,133.272 400.878,134.08 403.199,135.697 405.519,136.505 407.84,138.122 410.161,138.931 412.482,140.547 414.803,141.356 417.124,142.972 419.445,144.589 421.766,145.397 424.087,147.014 426.408,147.823 428.729,149.439 431.05,150.248 433.371,151.864 435.692,153.481 438.013,154.29 440.333,155.906 442.654,157.523 444.975,158.331 447.296,159.948 449.617,161.565 451.938,162.373 454.259,163.99 456.58,164.798 458.901,166.415 461.222,168.032 463.543,168.84 465.864,170.457 468.185,172.074 470.506,173.69 472.827,174.499 475.147,176.115 477.468,177.732 479.789,179.349 482.11,180.157 484.431,181.774 486.752,183.391 489.073,185.007 491.394,186.624 493.715,188.241 496.036,189.049 498.357,190.666 500.678,192.283 502.999,193.899 505.32,195.516 507.641,196.325 509.961,197.941 512.282,199.558 514.603,201.175 516.924,202.791 519.245,203.6 521.566,205.217 523.887,206.833 526.208,208.45 528.529,210.067 530.85,211.683 533.171,212.492 535.492,214.109 537.813,215.725 540.134,217.342 542.455,218.959 544.776,220.576 547.096,221.384 549.417,223.001 551.738,224.617 554.059,226.234 556.38,227.851 558.701,229.468 561.022,230.276" fill="none" stroke-linecap="butt" stroke-width="0.5" stroke="#0071bc" stroke-linejoin="round"/>
   <polyline points="80.5888,26.5677 82.9097,26.6532 85.2307,26.8942 87.5516,27.27 89.8725,27.7626 92.1935,28.3566 94.5144,29.0383 96.8353,29.7962 99.1563,30.62 101.477,31.501 103.798,32.4316 106.119,33.4052 108.44,34.416 110.761,35.4592 113.082,36.5305 115.403,37.6259 117.724,38.7426 120.045,39.8774 122.366,41.0282 124.687,42.1927 127.007,43.3691 129.328,44.556 131.649,45.7518 133.97,46.9555 136.291,48.166 138.612,49.3823 140.933,50.6039 143.254,51.8298 145.575,53.0597 147.896,54.293 150.217,55.5292 152.538,56.768 154.859,58.0091 157.18,59.2522 159.501,60.4969 161.821,61.7432 164.142,62.9908 166.463,64.2397 168.784,65.4895 171.105,66.7403 173.426,67.9919 175.747,69.2442 178.068,70.4972 180.389,71.7507 182.71,73.0048 185.031,74.2593 187.352,75.5143 189.673,76.7697 191.994,78.0255 194.315,79.2815 196.635,80.5379 198.956,81.7946 201.277,83.0516 203.598,84.3088 205.919,85.5663 208.24,86.824 210.561,88.0819 212.882,89.34 215.203,90.5984 217.524,91.857 219.845,93.1157 222.166,94.3747 224.487,95.6338 226.808,96.8932 229.129,98.1527 231.449,99.4124 233.77,100.672 236.091,101.932 238.412,103.193 240.733,104.453 243.054,105.714 245.375,106.975 247.696,108.236 250.017,109.497 252.338,110.758 254.659,112.02 256.98,113.281 259.301,114.543 261.622,115.805 263.943,117.068 266.263,118.33 268.584,119.593 270.905,120.855 273.226,122.119 275.547,123.382 277.868,124.645 280.189,125.909 282.51,127.173 284.831,128.437 287.152,129.701 289.473,130.965 291.794,132.23 294.115,133.494 296.436,134.759 298.757,136.025 301.077,137.29 303.398,138.556 305.719,139.821 308.04,141.087 310.361,142.354 312.682,143.62 315.003,144.887 317.324,146.153 319.645,147.421 321.966,148.688 324.287,149.955 326.608,151.223 328.929,152.491 331.25,153.759 333.571,155.027 335.891,156.296 338.212,157.565 340.533,158.834 342.854,160.103 345.175,161.373 347.496,162.643 349.817,163.913 352.138,165.183 354.459,166.453 356.78,167.724 359.101,168.995 361.422,170.266 363.743,171.537 366.064,172.809 368.385,174.081 370.705,175.353 373.026,176.626 375.347,177.898 377.668,179.171 379.989,180.444 382.31,181.718 384.631,182.991 386.952,184.265 389.273,185.54 391.594,186.814 393.915,188.089 396.236,189.364 398.557,190.639 400.878,191.915 403.199,193.19 405.519,194.466 407.84,195.743 410.161,197.019 412.482,198.296 414.803,199.574 417.124,200.851 419.445,202.129 421.766,203.407 424.087,204.685 426.408,205.964 428.729,207.243 431.05,208.522 433.371,209.801 435.692,211.081 438.013,212.361 440.333,213.642 442.654,214.923 444.975,216.204 447.296,217.485 449.617,218.767 451.938,220.049 454.259,221.331 456.58,222.613 458.901,223.896 461.222,225.18 463.543,226.463 465.864,227.747 468.185,229.031 470.506,230.316 472.827,231.601 475.147,232.886 477.468,234.171 479.789,235.457 482.11,236.744 484.431,238.03 486.752,239.317 489.073,240.604 491.394,241.892 493.715,243.18 496.036,244.468 498.357,245.757 500.678,247.046 502.999,248.335 505.32,249.625 507.641,250.915 509.961,252.206 512.282,253.497 514.603,254.788 516.924,256.08 519.245,257.372 521.566,258.664 523.887,259.957 526.208,261.25 528.529,262.543 530.85,263.837 533.171,265.132 535.492,266.427 537.813,267.722 540.134,269.017 542.455,270.313 544.776,271.61 547.096,272.906 549.417,274.203 551.738,275.501 554.059,276.799 556.38,278.098 558.701,279.396 561.022,280.696" fill="none" stroke-linecap="butt" stroke-width="0.5" stroke="#d85218" stroke-linejoin="round"/>
   <polyline points="80.5888,26.5677 82.9097,26.6526 85.2307,26.8903 87.5516,27.2577 89.8725,27.7356 92.1935,28.3074 94.5144,28.9591 96.8353,29.6787 99.1563,30.4561 101.477,31.2828 103.798,32.1513 106.119,33.0554 108.44,33.9898 110.761,34.9501 113.082,35.9323 115.403,36.9333 117.724,37.9502 120.045,38.9807 122.366,40.0229 124.687,41.0749 127.007,42.1354 129.328,43.2032 131.649,44.277 133.97,45.3563 136.291,46.44 138.612,47.5276 140.933,48.6187 143.254,49.7125 145.575,50.8089 147.896,51.9075 150.217,53.0079 152.538,54.11 154.859,55.2135 157.18,56.3182 159.501,57.4241 161.821,58.5309 164.142,59.6387 166.463,60.7472 168.784,61.8564 171.105,62.9663 173.426,64.0768 175.747,65.1878 178.068,66.2993 180.389,67.4114 182.71,68.5238 185.031,69.6367 187.352,70.75 189.673,71.8637 191.994,72.9778 194.315,74.0922 196.635,75.2069 198.956,76.3221 201.277,77.4375 203.598,78.5533 205.919,79.6695 208.24,80.7859 210.561,81.9027 212.882,83.0198 215.203,84.1373 217.524,85.255 219.845,86.3731 222.166,87.4915 224.487,88.6103 226.808,89.7293 229.129,90.8487 231.449,91.9684 233.77,93.0884 236.091,94.2088 238.412,95.3295 240.733,96.4505 243.054,97.5719 245.375,98.6936 247.696,99.8156 250.017,100.938 252.338,102.061 254.659,103.184 256.98,104.307 259.301,105.431 261.622,106.555 263.943,107.68 266.263,108.804 268.584,109.929 270.905,111.055 273.226,112.181 275.547,113.307 277.868,114.434 280.189,115.561 282.51,116.688 284.831,117.816 287.152,118.944 289.473,120.072 291.794,121.201 294.115,122.33 296.436,123.46 298.757,124.59 301.077,125.72 303.398,126.851 305.719,127.982 308.04,129.114 310.361,130.246 312.682,131.378 315.003,132.511 317.324,133.644 319.645,134.778 321.966,135.912 324.287,137.046 326.608,138.181 328.929,139.316 331.25,140.452 333.571,141.588 335.891,142.725 338.212,143.862 340.533,144.999 342.854,146.137 345.175,147.275 347.496,148.414 349.817,149.553 352.138,150.693 354.459,151.833 356.78,152.973 359.101,154.114 361.422,155.256 363.743,156.397 366.064,157.54 368.385,158.683 370.705,159.826 373.026,160.97 375.347,162.114 377.668,163.259 379.989,164.404 382.31,165.55 384.631,166.696 386.952,167.843 389.273,168.99 391.594,170.137 393.915,171.286 396.236,172.434 398.557,173.584 400.878,174.733 403.199,175.883 405.519,177.034 407.84,178.186 410.161,179.337 412.482,180.49 414.803,181.643 417.124,182.796 419.445,183.95 421.766,185.104 424.087,186.259 426.408,187.415 428.729,188.571 431.05,189.728 433.371,190.885 435.692,192.043 438.013,193.201 440.333,194.36 442.654,195.52 444.975,196.68 447.296,197.841 449.617,199.002 451.938,200.164 454.259,201.326 456.58,202.49 458.901,203.653 461.222,204.818 463.543,205.982 465.864,207.148 468.185,208.314 470.506,209.481 472.827,210.648 475.147,211.816 477.468,212.985 479.789,214.154 482.11,215.324 484.431,216.495 486.752,217.666 489.073,218.838 491.394,220.011 493.715,221.184 496.036,222.358 498.357,223.532 500.678,224.708 502.999,225.884 505.32,227.06 507.641,228.238 509.961,229.416 512.282,230.594 514.603,231.774 516.924,232.954 519.245,234.135 521.566,235.316 523.887,236.499 526.208,237.682 528.529,238.866 530.85,240.05 533.171,241.235 535.492,242.421 537.813,243.608 540.134,244.796 542.455,245.984 544.776,247.173 547.096,248.363 549.417,249.553 551.738,250.745 554.059,251.937 556.38,253.13 558.701,254.324 561.022,255.518" fill="none" stroke-linecap="butt" stroke-width="0.5" stroke="#ecb01f" stroke-linejoin="round"/>
   <polyline points="80.5888,26.5677 82.9097,26.6521 85.2307,26.8864 87.5516,27.2458 89.8725,27.7095 92.1935,28.2603 94.5144,28.8839 96.8353,29.5682 99.1563,30.3031 101.477,31.0805 103.798,31.8932 106.119,32.7355 108.44,33.6025 110.761,34.4902 113.082,35.3953 115.403,36.3149 117.724,37.2466 120.045,38.1886 122.366,39.1392 124.687,40.097 127.007,41.0609 129.328,42.03 131.649,43.0034 133.97,43.9807 136.291,44.961 138.612,45.944 140.933,46.9294 143.254,47.9168 145.575,48.906 147.896,49.8967 150.217,50.8888 152.538,51.882 154.859,52.8764 157.18,53.8717 159.501,54.8679 161.821,55.8649 164.142,56.8626 166.463,57.8611 168.784,58.8602 171.105,59.8599 173.426,60.8603 175.747,61.8612 178.068,62.8626 180.389,63.8646 182.71,64.8672 185.031,65.8702 187.352,66.8737 189.673,67.8778 191.994,68.8824 194.315,69.8875 196.635,70.893 198.956,71.899 201.277,72.9056 203.598,73.9126 205.919,74.9201 208.24,75.9281 210.561,76.9366 212.882,77.9456 215.203,78.9551 217.524,79.9651 219.845,80.9756 222.166,81.9865 224.487,82.998 226.808,84.01 229.129,85.0225 231.449,86.0355 233.77,87.049 236.091,88.063 238.412,89.0775 240.733,90.0926 243.054,91.1082 245.375,92.1243 247.696,93.1409 250.017,94.1581 252.338,95.1758 254.659,96.194 256.98,97.2127 259.301,98.232 261.622,99.2518 263.943,100.272 266.263,101.293 268.584,102.315 270.905,103.337 273.226,104.359 275.547,105.382 277.868,106.406 280.189,107.43 282.51,108.455 284.831,109.481 287.152,110.507 289.473,111.533 291.794,112.561 294.115,113.588 296.436,114.617 298.757,115.646 301.077,116.675 303.398,117.705 305.719,118.736 308.04,119.768 310.361,120.799 312.682,121.832 315.003,122.865 317.324,123.899 319.645,124.934 321.966,125.969 324.287,127.004 326.608,128.041 328.929,129.078 331.25,130.115 333.571,131.154 335.891,132.193 338.212,133.232 340.533,134.272 342.854,135.313 345.175,136.355 347.496,137.397 349.817,138.44 352.138,139.484 354.459,140.528 356.78,141.573 359.101,142.618 361.422,143.665 363.743,144.712 366.064,145.76 368.385,146.808 370.705,147.857 373.026,148.907 375.347,149.958 377.668,151.009 379.989,152.061 382.31,153.114 384.631,154.167 386.952,155.222 389.273,156.277 391.594,157.332 393.915,158.389 396.236,159.446 398.557,160.504 400.878,161.563 403.199,162.622 405.519,163.683 407.84,164.744 410.161,165.806 412.482,166.869 414.803,167.932 417.124,168.996 419.445,170.061 421.766,171.127 424.087,172.194 426.408,173.262 428.729,174.33 431.05,175.399 433.371,176.469 435.692,177.54 438.013,178.612 440.333,179.684 442.654,180.758 444.975,181.832 447.296,182.907 449.617,183.983 451.938,185.06 454.259,186.138 456.58,187.217 458.901,188.296 461.222,189.377 463.543,190.458 465.864,191.541 468.185,192.624 470.506,193.708 472.827,194.793 475.147,195.879 477.468,196.966 479.789,198.054 482.11,199.143 484.431,200.232 486.752,201.323 489.073,202.415 491.394,203.508 493.715,204.601 496.036,205.696 498.357,206.792 500.678,207.888 502.999,208.986 505.32,210.085 507.641,211.184 509.961,212.285 512.282,213.387 514.603,214.49 516.924,215.593 519.245,216.698 521.566,217.804 523.887,218.911 526.208,220.019 528.529,221.128 530.85,222.239 533.171,223.35 535.492,224.462 537.813,225.576 540.134,226.691 542.455,227.806 544.776,228.923 547.096,230.041 549.417,231.16 551.738,232.281 554.059,233.402 556.38,234.525 558.701,235.648 561.022,236.773" fill="none" stroke-linecap="butt" stroke-width="0.5" stroke="#7d2e8d" stroke-linejoin="round"/>
   <polyline points="80.5888,26.5677 82.9097,26.6516 85.2307,26.8827 87.5516,27.2342 89.8725,27.6844 92.1935,28.2154 94.5144,28.8126 96.8353,29.4641 99.1563,30.1601 101.477,30.8926 103.798,31.6551 106.119,32.4423 108.44,33.2496 110.761,34.0737 113.082,34.9115 115.403,35.7607 117.724,36.6192 120.045,37.4855 122.366,38.3584 124.687,39.2366 127.007,40.1194 129.328,41.006 131.649,41.8958 133.97,42.7884 136.291,43.6833 138.612,44.5803 140.933,45.479 143.254,46.3793 145.575,47.2811 147.896,48.184 150.217,49.0881 152.538,49.9933 154.859,50.8994 157.18,51.8064 159.501,52.7143 161.821,53.6229 164.142,54.5324 166.463,55.4426 168.784,56.3535 171.105,57.2651 173.426,58.1775 175.747,59.0905 178.068,60.0042 180.389,60.9186 182.71,61.8336 185.031,62.7494 187.352,63.6657 189.673,64.5828 191.994,65.5005 194.315,66.4189 196.635,67.3379 198.956,68.2576 201.277,69.1779 203.598,70.0989 205.919,71.0206 208.24,71.943 210.561,72.866 212.882,73.7897 215.203,74.7141 217.524,75.6392 219.845,76.5649 222.166,77.4913 224.487,78.4184 226.808,79.3463 229.129,80.2747 231.449,81.2039 233.77,82.1338 236.091,83.0644 238.412,83.9957 240.733,84.9277 243.054,85.8604 245.375,86.7939 247.696,87.728 250.017,88.6629 252.338,89.5985 254.659,90.5348 256.98,91.4719 259.301,92.4097 261.622,93.3482 263.943,94.2875 266.263,95.2275 268.584,96.1683 270.905,97.1098 273.226,98.0521 275.547,98.9951 277.868,99.9389 280.189,100.883 282.51,101.829 284.831,102.775 287.152,103.722 289.473,104.669 291.794,105.618 294.115,106.567 296.436,107.517 298.757,108.468 301.077,109.42 303.398,110.372 305.719,111.325 308.04,112.28 310.361,113.234 312.682,114.19 315.003,115.147 317.324,116.104 319.645,117.062 321.966,118.021 324.287,118.981 326.608,119.942 328.929,120.904 331.25,121.866 333.571,122.829 335.891,123.794 338.212,124.759 340.533,125.725 342.854,126.691 345.175,127.659 347.496,128.628 349.817,129.597 352.138,130.568 354.459,131.539 356.78,132.511 359.101,133.484 361.422,134.458 363.743,135.433 366.064,136.409 368.385,137.386 370.705,138.364 373.026,139.342 375.347,140.322 377.668,141.303 379.989,142.284 382.31,143.267 384.631,144.25 386.952,145.235 389.273,146.22 391.594,147.207 393.915,148.194 396.236,149.183 398.557,150.172 400.878,151.163 403.199,152.154 405.519,153.147 407.84,154.14 410.161,155.135 412.482,156.13 414.803,157.127 417.124,158.125 419.445,159.124 421.766,160.123 424.087,161.124 426.408,162.126 428.729,163.129 431.05,164.134 433.371,165.139 435.692,166.145 438.013,167.153 440.333,168.161 442.654,169.171 444.975,170.182 447.296,171.194 449.617,172.207 451.938,173.221 454.259,174.236 456.58,175.253 458.901,176.271 461.222,177.289 463.543,178.309 465.864,179.331 468.185,180.353 470.506,181.377 472.827,182.402 475.147,183.428 477.468,184.455 479.789,185.484 482.11,186.513 484.431,187.544 486.752,188.577 489.073,189.61 491.394,190.645 493.715,191.681 496.036,192.718 498.357,193.757 500.678,194.797 502.999,195.838 505.32,196.881 507.641,197.924 509.961,198.97 512.282,200.016 514.603,201.064 516.924,202.113 519.245,203.164 521.566,204.216 523.887,205.269 526.208,206.324 528.529,207.38 530.85,208.437 533.171,209.496 535.492,210.557 537.813,211.619 540.134,212.682 542.455,213.746 544.776,214.813 547.096,215.88 549.417,216.949 551.738,218.02 554.059,219.092 556.38,220.165 558.701,221.24 561.022,222.317" fill="none" stroke-linecap="butt" stroke-width="0.5" stroke="#76ab2f" stroke-linejoin="round"/>
  </g>
  <clipPath id="cp00619354">
   <polygon points="0,354 619,354 619,0 0,0"/>
  </clipPath>
  <g clip-path="url(#cp00619354)">
   <polygon points="87.3639,308.495 191.464,308.495 191.464,196.17 87.3639,196.17" fill="#ffffff" shape-rendering="crispEdges"/>
   <polyline points="87.3639,308.495 191.464,308.495" fill="none" stroke-linecap="square" stroke-width="0.5" stroke="#262626" stroke-dasharray="16,0" stroke-linejoin="miter"/>
   <polyline points="87.3639,196.17 191.464,196.17" fill="none" stroke-linecap="square" stroke-width="0.5" stroke="#262626" stroke-dasharray="16,0" stroke-linejoin="miter"/>
   <polyline points="87.3639,308.495 87.3639,196.17" fill="none" stroke-linecap="square" stroke-width="0.5" stroke="#262626" stroke-dasharray="16,0" stroke-linejoin="miter"/>
   <polyline points="191.464,308.495 191.464,196.17" fill="none" stroke-linecap="square" stroke-width="0.5" stroke="#262626" stroke-dasharray="16,0" stroke-linejoin="miter"/>
   <polyline points="90.7515,207.557 107.689,207.557" fill="none" stroke-linecap="butt" stroke-width="0.5" stroke="#0071bc" stroke-linejoin="round"/>
   <text transform="translate(111.077,215.557) rotate(-0,-0,-8)" xml:space="preserve" font-size="20" font-weight="normal" font-family="FreeSans" font-style="normal">
    <tspan y="-0" fill="rgb(0,0,0)" x="0 14 25 36 ">Real</tspan>
   </text>
   <polyline points="90.7515,228.445 107.689,228.445" fill="none" stroke-linecap="butt" stroke-width="0.5" stroke="#d85218" stroke-linejoin="round"/>
   <text transform="translate(111.077,237.945) rotate(-0,-0,-9.5)" xml:space="preserve" font-size="20" font-weight="normal" font-family="FreeSans" font-style="normal">
    <tspan y="-3" fill="rgb(0,0,0)" x="0 ">b</tspan>
    <tspan y="-0" fill="rgb(0,0,0)" font-size="14" x="11 ">r</tspan>
    <tspan y="-3" fill="rgb(0,0,0)" x="16 21 33 38 49 55 66 "> = 0,01</tspan>
   </text>
   <polyline points="90.7515,250.833 107.689,250.833" fill="none" stroke-linecap="butt" stroke-width="0.5" stroke="#ecb01f" stroke-linejoin="round"/>
   <text transform="translate(111.077,260.333) rotate(-0,-0,-9.5)" xml:space="preserve" font-size="20" font-weight="normal" font-family="FreeSans" font-style="normal">
    <tspan y="-3" fill="rgb(0,0,0)" x="0 ">b</tspan>
    <tspan y="-0" fill="rgb(0,0,0)" font-size="14" x="11 ">r</tspan>
    <tspan y="-3" fill="rgb(0,0,0)" x="16 21 33 38 49 55 66 "> = 0,02</tspan>
   </text>
   <polyline points="90.7515,273.22 107.689,273.22" fill="none" stroke-linecap="butt" stroke-width="0.5" stroke="#7d2e8d" stroke-linejoin="round"/>
   <text transform="translate(111.077,282.72) rotate(-0,-0,-9.5)" xml:space="preserve" font-size="20" font-weight="normal" font-family="FreeSans" font-style="normal">
    <tspan y="-3" fill="rgb(0,0,0)" x="0 ">b</tspan>
    <tspan y="-0" fill="rgb(0,0,0)" font-size="14" x="11 ">r</tspan>
    <tspan y="-3" fill="rgb(0,0,0)" x="16 21 33 38 49 55 66 "> = 0,03</tspan>
   </text>
   <polyline points="90.7515,295.608 107.689,295.608" fill="none" stroke-linecap="butt" stroke-width="0.5" stroke="#76ab2f" stroke-linejoin="round"/>
   <text transform="translate(111.077,305.108) rotate(-0,-0,-9.5)" xml:space="preserve" font-size="20" font-weight="normal" font-family="FreeSans" font-style="normal">
    <tspan y="-3" fill="rgb(0,0,0)" x="0 ">b</tspan>
    <tspan y="-0" fill="rgb(0,0,0)" font-size="14" x="11 ">r</tspan>
    <tspan y="-3" fill="rgb(0,0,0)" x="16 21 33 38 49 55 66 "> = 0,04</tspan>
   </text>
  </g>
 </g>
</svg>
