<?xml version='1.0' encoding='UTF-8' standalone='no'?>
<svg xmlns="http://www.w3.org/2000/svg" xmlns:xlink="http://www.w3.org/1999/xlink" viewBox="0 0 619 354" height="354pt" width="619pt">
 <title>gl2ps_renderer figure</title>
 <desc>
Creator: GL2PS 1.4.2, (C) 1999-2020 C. Geuzaine
For: Octave
CreationDate: Mon Nov 14 00:44:41 2022
</desc>
 <defs/>
 <polygon fill="#ffffff" points="0,0 619,0 619,354 0,354"/>
 <g>
  <polygon shape-rendering="crispEdges" fill="#ffffff" points="0,354 619,354 619,0 0,0"/>
  <clipPath id="cp00619354">
   <polygon points="0,354 619,354 619,0 0,0"/>
  </clipPath>
  <g clip-path="url(#cp00619354)">
   <polygon shape-rendering="crispEdges" fill="#ffffff" points="80.5888,315.27 561.022,315.27 561.022,26.5677 80.5888,26.5677"/>
   <polyline fill="none" stroke-linecap="butt" stroke-linejoin="miter" stroke-opacity="0.15" stroke-dasharray="16,0" points="80.5888,315.27 80.5888,26.5677" stroke="#262626" stroke-width="0.5"/>
   <polyline fill="none" stroke-linecap="butt" stroke-linejoin="miter" stroke-opacity="0.15" stroke-dasharray="16,0" points="158.329,315.27 158.329,26.5677" stroke="#262626" stroke-width="0.5"/>
   <polyline fill="none" stroke-linecap="butt" stroke-linejoin="miter" stroke-opacity="0.15" stroke-dasharray="16,0" points="236.069,315.27 236.069,26.5677" stroke="#262626" stroke-width="0.5"/>
   <polyline fill="none" stroke-linecap="butt" stroke-linejoin="miter" stroke-opacity="0.15" stroke-dasharray="16,0" points="313.809,315.27 313.809,26.5677" stroke="#262626" stroke-width="0.5"/>
   <polyline fill="none" stroke-linecap="butt" stroke-linejoin="miter" stroke-opacity="0.15" stroke-dasharray="16,0" points="391.549,315.27 391.549,26.5677" stroke="#262626" stroke-width="0.5"/>
   <polyline fill="none" stroke-linecap="butt" stroke-linejoin="miter" stroke-opacity="0.15" stroke-dasharray="16,0" points="469.289,315.27 469.289,26.5677" stroke="#262626" stroke-width="0.5"/>
   <polyline fill="none" stroke-linecap="butt" stroke-linejoin="miter" stroke-opacity="0.15" stroke-dasharray="16,0" points="547.029,315.27 547.029,26.5677" stroke="#262626" stroke-width="0.5"/>
   <polyline fill="none" stroke-linecap="butt" stroke-linejoin="miter" points="80.5888,315.27 80.5888,310.471" stroke="#262626" stroke-width="0.5"/>
   <polyline fill="none" stroke-linecap="butt" stroke-linejoin="miter" points="80.5888,26.5677 80.5888,31.3671" stroke="#262626" stroke-width="0.5"/>
   <polyline fill="none" stroke-linecap="butt" stroke-linejoin="miter" points="158.329,315.27 158.329,310.471" stroke="#262626" stroke-width="0.5"/>
   <polyline fill="none" stroke-linecap="butt" stroke-linejoin="miter" points="158.329,26.5677 158.329,31.3671" stroke="#262626" stroke-width="0.5"/>
   <polyline fill="none" stroke-linecap="butt" stroke-linejoin="miter" points="236.069,315.27 236.069,310.471" stroke="#262626" stroke-width="0.5"/>
   <polyline fill="none" stroke-linecap="butt" stroke-linejoin="miter" points="236.069,26.5677 236.069,31.3671" stroke="#262626" stroke-width="0.5"/>
   <polyline fill="none" stroke-linecap="butt" stroke-linejoin="miter" points="313.809,315.27 313.809,310.471" stroke="#262626" stroke-width="0.5"/>
   <polyline fill="none" stroke-linecap="butt" stroke-linejoin="miter" points="313.809,26.5677 313.809,31.3671" stroke="#262626" stroke-width="0.5"/>
   <polyline fill="none" stroke-linecap="butt" stroke-linejoin="miter" points="391.549,315.27 391.549,310.471" stroke="#262626" stroke-width="0.5"/>
   <polyline fill="none" stroke-linecap="butt" stroke-linejoin="miter" points="391.549,26.5677 391.549,31.3671" stroke="#262626" stroke-width="0.5"/>
   <polyline fill="none" stroke-linecap="butt" stroke-linejoin="miter" points="469.289,315.27 469.289,310.471" stroke="#262626" stroke-width="0.5"/>
   <polyline fill="none" stroke-linecap="butt" stroke-linejoin="miter" points="469.289,26.5677 469.289,31.3671" stroke="#262626" stroke-width="0.5"/>
   <polyline fill="none" stroke-linecap="butt" stroke-linejoin="miter" points="547.029,315.27 547.029,310.471" stroke="#262626" stroke-width="0.5"/>
   <polyline fill="none" stroke-linecap="butt" stroke-linejoin="miter" points="547.029,26.5677 547.029,31.3671" stroke="#262626" stroke-width="0.5"/>
   <text xml:space="preserve" font-family="FreeSans" font-weight="normal" transform="translate(77.5888,330.763) rotate(-0,3,-8)" font-style="normal" font-size="10">
    <tspan fill="rgb(38,38,38)" y="-0" x="0 ">0</tspan>
   </text>
   <text xml:space="preserve" font-family="FreeSans" font-weight="normal" transform="translate(150.829,330.763) rotate(-0,7.5,-8)" font-style="normal" font-size="10">
    <tspan fill="rgb(38,38,38)" y="-0" x="0 6 9 ">0.1</tspan>
   </text>
   <text xml:space="preserve" font-family="FreeSans" font-weight="normal" transform="translate(228.569,330.763) rotate(-0,7.5,-8)" font-style="normal" font-size="10">
    <tspan fill="rgb(38,38,38)" y="-0" x="0 6 9 ">0.2</tspan>
   </text>
   <text xml:space="preserve" font-family="FreeSans" font-weight="normal" transform="translate(306.309,330.763) rotate(-0,7.5,-8)" font-style="normal" font-size="10">
    <tspan fill="rgb(38,38,38)" y="-0" x="0 6 9 ">0.3</tspan>
   </text>
   <text xml:space="preserve" font-family="FreeSans" font-weight="normal" transform="translate(384.049,330.763) rotate(-0,7.5,-8)" font-style="normal" font-size="10">
    <tspan fill="rgb(38,38,38)" y="-0" x="0 6 9 ">0.4</tspan>
   </text>
   <text xml:space="preserve" font-family="FreeSans" font-weight="normal" transform="translate(461.789,330.763) rotate(-0,7.5,-8)" font-style="normal" font-size="10">
    <tspan fill="rgb(38,38,38)" y="-0" x="0 6 9 ">0.5</tspan>
   </text>
   <text xml:space="preserve" font-family="FreeSans" font-weight="normal" transform="translate(539.529,330.763) rotate(-0,7.5,-8)" font-style="normal" font-size="10">
    <tspan fill="rgb(38,38,38)" y="-0" x="0 6 9 ">0.6</tspan>
   </text>
   <polyline fill="none" stroke-linecap="butt" stroke-linejoin="miter" stroke-opacity="0.15" stroke-dasharray="16,0" points="80.5888,315.27 561.022,315.27" stroke="#262626" stroke-width="0.5"/>
   <polyline fill="none" stroke-linecap="butt" stroke-linejoin="miter" stroke-opacity="0.15" stroke-dasharray="16,0" points="80.5888,267.153 561.022,267.153" stroke="#262626" stroke-width="0.5"/>
   <polyline fill="none" stroke-linecap="butt" stroke-linejoin="miter" stroke-opacity="0.15" stroke-dasharray="16,0" points="80.5888,219.036 561.022,219.036" stroke="#262626" stroke-width="0.5"/>
   <polyline fill="none" stroke-linecap="butt" stroke-linejoin="miter" stroke-opacity="0.15" stroke-dasharray="16,0" points="80.5888,170.919 561.022,170.919" stroke="#262626" stroke-width="0.5"/>
   <polyline fill="none" stroke-linecap="butt" stroke-linejoin="miter" stroke-opacity="0.15" stroke-dasharray="16,0" points="80.5888,122.802 561.022,122.802" stroke="#262626" stroke-width="0.5"/>
   <polyline fill="none" stroke-linecap="butt" stroke-linejoin="miter" stroke-opacity="0.15" stroke-dasharray="16,0" points="80.5888,74.6848 561.022,74.6848" stroke="#262626" stroke-width="0.5"/>
   <polyline fill="none" stroke-linecap="butt" stroke-linejoin="miter" stroke-opacity="0.15" stroke-dasharray="16,0" points="80.5888,26.5677 561.022,26.5677" stroke="#262626" stroke-width="0.5"/>
   <polyline fill="none" stroke-linecap="butt" stroke-linejoin="miter" points="80.5888,315.27 85.3975,315.27" stroke="#262626" stroke-width="0.5"/>
   <polyline fill="none" stroke-linecap="butt" stroke-linejoin="miter" points="561.022,315.27 556.213,315.27" stroke="#262626" stroke-width="0.5"/>
   <polyline fill="none" stroke-linecap="butt" stroke-linejoin="miter" points="80.5888,267.153 85.3975,267.153" stroke="#262626" stroke-width="0.5"/>
   <polyline fill="none" stroke-linecap="butt" stroke-linejoin="miter" points="561.022,267.153 556.213,267.153" stroke="#262626" stroke-width="0.5"/>
   <polyline fill="none" stroke-linecap="butt" stroke-linejoin="miter" points="80.5888,219.036 85.3975,219.036" stroke="#262626" stroke-width="0.5"/>
   <polyline fill="none" stroke-linecap="butt" stroke-linejoin="miter" points="561.022,219.036 556.213,219.036" stroke="#262626" stroke-width="0.5"/>
   <polyline fill="none" stroke-linecap="butt" stroke-linejoin="miter" points="80.5888,170.919 85.3975,170.919" stroke="#262626" stroke-width="0.5"/>
   <polyline fill="none" stroke-linecap="butt" stroke-linejoin="miter" points="561.022,170.919 556.213,170.919" stroke="#262626" stroke-width="0.5"/>
   <polyline fill="none" stroke-linecap="butt" stroke-linejoin="miter" points="80.5888,122.802 85.3975,122.802" stroke="#262626" stroke-width="0.5"/>
   <polyline fill="none" stroke-linecap="butt" stroke-linejoin="miter" points="561.022,122.802 556.213,122.802" stroke="#262626" stroke-width="0.5"/>
   <polyline fill="none" stroke-linecap="butt" stroke-linejoin="miter" points="80.5888,74.6848 85.3975,74.6848" stroke="#262626" stroke-width="0.5"/>
   <polyline fill="none" stroke-linecap="butt" stroke-linejoin="miter" points="561.022,74.6848 556.213,74.6848" stroke="#262626" stroke-width="0.5"/>
   <polyline fill="none" stroke-linecap="butt" stroke-linejoin="miter" points="80.5888,26.5677 85.3975,26.5677" stroke="#262626" stroke-width="0.5"/>
   <polyline fill="none" stroke-linecap="butt" stroke-linejoin="miter" points="561.022,26.5677 556.213,26.5677" stroke="#262626" stroke-width="0.5"/>
   <text xml:space="preserve" font-family="FreeSans" font-weight="normal" transform="translate(66.5843,319.27) rotate(-0,9,-4)" font-style="normal" font-size="10">
    <tspan fill="rgb(38,38,38)" y="-0" x="0 3 ">-6</tspan>
   </text>
   <text xml:space="preserve" font-family="FreeSans" font-weight="normal" transform="translate(66.5843,271.153) rotate(-0,9,-4)" font-style="normal" font-size="10">
    <tspan fill="rgb(38,38,38)" y="-0" x="0 3 ">-5</tspan>
   </text>
   <text xml:space="preserve" font-family="FreeSans" font-weight="normal" transform="translate(66.5843,223.036) rotate(-0,9,-4)" font-style="normal" font-size="10">
    <tspan fill="rgb(38,38,38)" y="-0" x="0 3 ">-4</tspan>
   </text>
   <text xml:space="preserve" font-family="FreeSans" font-weight="normal" transform="translate(66.5843,174.919) rotate(-0,9,-4)" font-style="normal" font-size="10">
    <tspan fill="rgb(38,38,38)" y="-0" x="0 3 ">-3</tspan>
   </text>
   <text xml:space="preserve" font-family="FreeSans" font-weight="normal" transform="translate(66.5843,126.802) rotate(-0,9,-4)" font-style="normal" font-size="10">
    <tspan fill="rgb(38,38,38)" y="-0" x="0 3 ">-2</tspan>
   </text>
   <text xml:space="preserve" font-family="FreeSans" font-weight="normal" transform="translate(66.5843,78.6849) rotate(-0,9,-4)" font-style="normal" font-size="10">
    <tspan fill="rgb(38,38,38)" y="-0" x="0 3 ">-1</tspan>
   </text>
   <text xml:space="preserve" font-family="FreeSans" font-weight="normal" transform="translate(69.5843,30.5677) rotate(-0,6,-4)" font-style="normal" font-size="10">
    <tspan fill="rgb(38,38,38)" y="-0" x="0 ">0</tspan>
   </text>
   <polyline fill="none" stroke-linecap="square" stroke-linejoin="miter" stroke-dasharray="16,0" points="80.5888,315.27 561.022,315.27" stroke="#262626" stroke-width="0.5"/>
   <polyline fill="none" stroke-linecap="square" stroke-linejoin="miter" stroke-dasharray="16,0" points="80.5888,26.5677 561.022,26.5677" stroke="#262626" stroke-width="0.5"/>
   <polyline fill="none" stroke-linecap="square" stroke-linejoin="miter" stroke-dasharray="16,0" points="80.5888,315.27 80.5888,26.5677" stroke="#262626" stroke-width="0.5"/>
   <polyline fill="none" stroke-linecap="square" stroke-linejoin="miter" stroke-dasharray="16,0" points="561.022,315.27 561.022,26.5677" stroke="#262626" stroke-width="0.5"/>
   <text xml:space="preserve" font-family="FreeSans" font-weight="normal" transform="translate(297.305,347.763) rotate(-0,23.5,-12)" font-style="normal" font-size="11">
    <tspan fill="rgb(38,38,38)" y="-3" x="0 7 13 22 28 34 38 43 ">Tempo(s)</tspan>
   </text>
   <text xml:space="preserve" font-family="FreeSans" font-weight="normal" transform="translate(33.0843,170.919) rotate(-90,28.5,0)" font-style="normal" font-size="11">
    <tspan fill="rgb(38,38,38)" y="-3" x="0 7 13 19 25 27 33 37 41 47 53 ">Ângulo(rad)</tspan>
   </text>
   <polyline fill="none" stroke-linecap="butt" stroke-linejoin="round" points="80.5888,26.5677 82.1436,26.5677 83.6984,26.5677 85.2532,26.5677 86.808,26.5677 88.3628,26.5677 89.9176,26.5677 91.4724,26.5677 93.0272,27.3761 94.582,27.3761 96.1368,27.3761 97.6916,27.3761 99.2464,27.3761 100.801,27.3761 102.356,27.3761 103.911,27.3761 105.466,28.1845 107.02,28.1845 108.575,28.1845 110.13,28.1845 111.685,28.1845 113.24,28.9928 114.794,28.9928 116.349,28.9928 117.904,28.9928 119.459,29.8012 121.014,29.8012 122.568,29.8012 124.123,29.8012 125.678,30.6096 127.233,30.6096 128.788,30.6096 130.342,31.4179 131.897,31.4179 133.452,31.4179 135.007,32.2263 136.562,32.2263 138.116,32.2263 139.671,33.0347 141.226,33.0347 142.781,33.0347 144.336,33.843 145.89,33.843 147.445,33.843 149,34.6514 150.555,34.6514 152.11,35.4598 153.664,35.4598 155.219,36.2681 156.774,36.2681 158.329,36.2681 159.884,37.0764 161.438,37.0764 162.993,37.8848 164.548,37.8848 166.103,38.6932 167.658,38.6932 169.212,39.5016 170.767,39.5016 172.322,40.3099 173.877,40.3099 175.432,41.1183 176.986,41.1183 178.541,41.9267 180.096,41.9267 181.651,42.735 183.206,42.735 184.76,43.5434 186.315,43.5434 187.87,44.3518 189.425,44.3518 190.98,45.1601 192.534,45.1601 194.089,45.9685 195.644,45.9685 197.199,46.7769 198.754,46.7769 200.308,47.5852 201.863,48.3936 203.418,48.3936 204.973,49.202 206.528,49.202 208.082,50.0103 209.637,50.0103 211.192,50.8187 212.747,51.6271 214.302,51.6271 215.856,52.4355 217.411,52.4355 218.966,53.2438 220.521,54.0522 222.076,54.0522 223.63,54.8605 225.185,54.8605 226.74,55.6689 228.295,56.4773 229.85,56.4773 231.404,57.2856 232.959,57.2856 234.514,58.094 236.069,58.094 237.624,58.9023 239.178,59.7107 240.733,59.7107 242.288,60.5191 243.843,61.3275 245.398,61.3275 246.952,62.1358 248.507,62.1358 250.062,62.9442 251.617,63.7526 253.172,63.7526 254.726,64.5609 256.281,65.3693 257.836,65.3693 259.391,66.1776 260.946,66.986 262.5,66.986 264.055,67.7944 265.61,68.6028 267.165,68.6028 268.72,69.4111 270.274,70.2195 271.829,70.2195 273.384,71.0279 274.939,71.8362 276.494,72.6446 278.048,72.6446 279.603,73.4529 281.158,74.2613 282.713,74.2613 284.268,75.0697 285.822,75.8781 287.377,76.6864 288.932,76.6864 290.487,77.4948 292.042,78.3031 293.596,78.3031 295.151,79.1115 296.706,79.9199 298.261,80.7282 299.816,80.7282 301.37,81.5366 302.925,82.3449 304.48,83.1533 306.035,83.1533 307.59,83.9617 309.144,84.7701 310.699,85.5784 312.254,86.3868 313.809,86.3868 315.364,87.1952 316.918,88.0035 318.473,88.8119 320.028,89.6203 321.583,89.6203 323.138,90.4286 324.692,91.237 326.247,92.0454 327.802,92.8537 329.357,93.6621 330.912,94.4705 332.466,94.4705 334.021,95.2788 335.576,96.0872 337.131,96.8955 338.686,97.7039 340.24,98.5123 341.795,99.3206 343.35,100.129 344.905,100.129 346.46,100.937 348.014,101.746 349.569,102.554 351.124,103.362 352.679,104.171 354.234,104.979 355.788,105.788 357.343,106.596 358.898,107.404 360.453,108.213 362.008,109.021 363.562,109.829 365.117,110.638 366.672,111.446 368.227,112.255 369.782,113.063 371.336,113.871 372.891,114.68 374.446,115.488 376.001,116.296 377.556,117.105 379.11,117.913 380.665,118.721 382.22,119.53 383.775,120.338 385.33,121.146 386.884,121.955 388.439,122.763 389.994,123.572 391.549,124.38 393.104,125.997 394.658,126.805 396.213,127.613 397.768,128.422 399.323,129.23 400.878,130.039 402.432,130.847 403.987,131.655 405.542,132.464 407.097,134.08 408.652,134.889 410.206,135.697 411.761,136.505 413.316,137.314 414.871,138.122 416.426,138.931 417.98,140.547 419.535,141.356 421.09,142.164 422.645,142.972 424.2,143.781 425.754,144.589 427.309,146.206 428.864,147.014 430.419,147.823 431.974,148.631 433.528,149.439 435.083,151.056 436.638,151.864 438.193,152.673 439.748,154.29 441.302,155.098 442.857,155.906 444.412,156.715 445.967,158.331 447.522,159.14 449.076,159.948 450.631,161.565 452.186,162.373 453.741,163.182 455.296,164.798 456.85,165.607 458.405,166.415 459.96,168.032 461.515,168.84 463.07,169.648 464.624,171.265 466.179,172.074 467.734,172.882 469.289,174.499 470.844,175.307 472.398,176.115 473.953,177.732 475.508,178.54 477.063,180.157 478.618,180.966 480.172,181.774 481.727,183.391 483.282,184.199 484.837,185.816 486.392,186.624 487.946,187.433 489.501,189.049 491.056,189.858 492.611,191.474 494.166,192.283 495.72,193.091 497.275,194.708 498.83,195.516 500.385,197.133 501.94,197.941 503.494,199.558 505.049,200.366 506.604,201.175 508.159,202.791 509.714,203.6 511.268,205.217 512.823,206.025 514.378,207.642 515.933,208.45 517.488,210.067 519.042,210.875 520.597,212.492 522.152,213.3 523.707,214.109 525.262,215.725 526.816,216.534 528.371,218.15 529.926,218.959 531.481,220.576 533.036,221.384 534.59,223.001 536.145,223.809 537.7,225.426 539.255,226.234 540.81,227.042 542.364,228.659 543.919,229.468 545.474,231.084 547.029,231.893 548.584,233.509 550.138,234.318 551.693,235.934 553.248,236.743 554.803,238.36 556.358,239.168 557.912,240.785 559.467,241.593 561.022,243.21" stroke="#0071bc" stroke-width="0.5"/>
   <polyline fill="none" stroke-linecap="butt" stroke-linejoin="round" points="80.5888,26.5677 82.1436,26.6414 83.6984,26.8454 85.2532,27.1573 86.808,27.5589 88.3628,28.0346 89.9176,28.5719 91.4724,29.1603 93.0272,29.791 94.582,30.4568 96.1368,31.1517 97.6916,31.8709 99.2464,32.6101 100.801,33.366 102.356,34.1358 103.911,34.9171 105.466,35.708 107.02,36.507 108.575,37.3125 110.13,38.1237 111.685,38.9395 113.24,39.7592 114.794,40.5822 116.349,41.4079 117.904,42.236 119.459,43.066 121.014,43.8977 122.568,44.7309 124.123,45.5653 125.678,46.4008 127.233,47.2372 128.788,48.0744 130.342,48.9124 131.897,49.751 133.452,50.5902 135.007,51.43 136.562,52.2702 138.116,53.1109 139.671,53.9521 141.226,54.7936 142.781,55.6356 144.336,56.4779 145.89,57.3206 147.445,58.1636 149,59.007 150.555,59.8507 152.11,60.6948 153.664,61.5392 155.219,62.384 156.774,63.229 158.329,64.0744 159.884,64.9202 161.438,65.7662 162.993,66.6126 164.548,67.4594 166.103,68.3065 167.658,69.1539 169.212,70.0016 170.767,70.8497 172.322,71.6982 173.877,72.547 175.432,73.3961 176.986,74.2456 178.541,75.0955 180.096,75.9457 181.651,76.7963 183.206,77.6473 184.76,78.4986 186.315,79.3503 187.87,80.2024 189.425,81.0548 190.98,81.9077 192.534,82.7609 194.089,83.6145 195.644,84.4685 197.199,85.3229 198.754,86.1777 200.308,87.033 201.863,87.8885 203.418,88.7446 204.973,89.601 206.528,90.4579 208.082,91.3152 209.637,92.1729 211.192,93.0311 212.747,93.8896 214.302,94.7487 215.856,95.6081 217.411,96.468 218.966,97.3284 220.521,98.1892 222.076,99.0505 223.63,99.9122 225.185,100.774 226.74,101.637 228.295,102.5 229.85,103.364 231.404,104.228 232.959,105.092 234.514,105.958 236.069,106.823 237.624,107.689 239.178,108.556 240.733,109.423 242.288,110.29 243.843,111.159 245.398,112.027 246.952,112.896 248.507,113.766 250.062,114.636 251.617,115.507 253.172,116.378 254.726,117.25 256.281,118.123 257.836,118.996 259.391,119.869 260.946,120.743 262.5,121.618 264.055,122.493 265.61,123.369 267.165,124.245 268.72,125.122 270.274,126 271.829,126.878 273.384,127.757 274.939,128.637 276.494,129.517 278.048,130.397 279.603,131.279 281.158,132.161 282.713,133.043 284.268,133.926 285.822,134.81 287.377,135.695 288.932,136.58 290.487,137.466 292.042,138.353 293.596,139.24 295.151,140.128 296.706,141.016 298.261,141.906 299.816,142.796 301.37,143.686 302.925,144.578 304.48,145.47 306.035,146.363 307.59,147.257 309.144,148.151 310.699,149.046 312.254,149.942 313.809,150.839 315.364,151.736 316.918,152.634 318.473,153.533 320.028,154.433 321.583,155.334 323.138,156.235 324.692,157.137 326.247,158.04 327.802,158.944 329.357,159.849 330.912,160.754 332.466,161.66 334.021,162.567 335.576,163.475 337.131,164.384 338.686,165.294 340.24,166.205 341.795,167.116 343.35,168.029 344.905,168.942 346.46,169.856 348.014,170.771 349.569,171.687 351.124,172.604 352.679,173.522 354.234,174.441 355.788,175.361 357.343,176.282 358.898,177.204 360.453,178.126 362.008,179.05 363.562,179.975 365.117,180.901 366.672,181.827 368.227,182.755 369.782,183.684 371.336,184.614 372.891,185.545 374.446,186.477 376.001,187.41 377.556,188.344 379.11,189.279 380.665,190.215 382.22,191.153 383.775,192.091 385.33,193.031 386.884,193.972 388.439,194.914 389.994,195.857 391.549,196.801 393.104,197.746 394.658,198.693 396.213,199.641 397.768,200.59 399.323,201.54 400.878,202.491 402.432,203.444 403.987,204.398 405.542,205.353 407.097,206.309 408.652,207.267 410.206,208.226 411.761,209.186 413.316,210.148 414.871,211.11 416.426,212.075 417.98,213.04 419.535,214.007 421.09,214.975 422.645,215.945 424.2,216.916 425.754,217.888 427.309,218.862 428.864,219.837 430.419,220.814 431.974,221.792 433.528,222.772 435.083,223.753 436.638,224.735 438.193,225.719 439.748,226.705 441.302,227.692 442.857,228.681 444.412,229.671 445.967,230.662 447.522,231.656 449.076,232.651 450.631,233.647 452.186,234.645 453.741,235.645 455.296,236.646 456.85,237.649 458.405,238.654 459.96,239.66 461.515,240.668 463.07,241.678 464.624,242.689 466.179,243.702 467.734,244.717 469.289,245.734 470.844,246.753 472.398,247.773 473.953,248.795 475.508,249.819 477.063,250.845 478.618,251.872 480.172,252.902 481.727,253.933 483.282,254.967 484.837,256.002 486.392,257.039 487.946,258.078 489.501,259.119 491.056,260.162 492.611,261.207 494.166,262.255 495.72,263.304 497.275,264.355 498.83,265.408 500.385,266.464 501.94,267.521 503.494,268.581 505.049,269.642 506.604,270.706 508.159,271.773 509.714,272.841 511.268,273.911 512.823,274.984 514.378,276.059 515.933,277.136 517.488,278.216 519.042,279.298 520.597,280.382 522.152,281.469 523.707,282.558 525.262,283.649 526.816,284.743 528.371,285.839 529.926,286.937 531.481,288.039 533.036,289.142 534.59,290.248 536.145,291.357 537.7,292.468 539.255,293.582 540.81,294.698 542.364,295.817 543.919,296.939 545.474,298.063 547.029,299.19 548.584,300.32 550.138,301.452 551.693,302.588 553.248,303.726 554.803,304.866 556.358,306.01 557.912,307.156 559.467,308.306 561.022,309.458" stroke="#d85218" stroke-width="0.5"/>
   <polyline fill="none" stroke-linecap="butt" stroke-linejoin="round" points="80.5888,26.5677 82.1436,26.631 83.6984,26.808 85.2532,27.0818 86.808,27.4379 88.3628,27.8638 89.9176,28.3493 91.4724,28.8854 93.0272,29.4645 94.582,30.0802 96.1368,30.7271 97.6916,31.4004 99.2464,32.0963 100.801,32.8113 102.356,33.5427 103.911,34.2879 105.466,35.045 107.02,35.8122 108.575,36.5879 110.13,37.371 111.685,38.1602 113.24,38.9548 114.794,39.754 116.349,40.557 117.904,41.3633 119.459,42.1725 121.014,42.9841 122.568,43.7978 124.123,44.6133 125.678,45.4303 127.233,46.2486 128.788,47.0681 130.342,47.8886 131.897,48.71 133.452,49.532 135.007,50.3548 136.562,51.1782 138.116,52.002 139.671,52.8263 141.226,53.651 142.781,54.4761 144.336,55.3015 145.89,56.1273 147.445,56.9532 149,57.7795 150.555,58.606 152.11,59.4327 153.664,60.2596 155.219,61.0868 156.774,61.9141 158.329,62.7416 159.884,63.5693 161.438,64.3972 162.993,65.2252 164.548,66.0534 166.103,66.8818 167.658,67.7103 169.212,68.539 170.767,69.3678 172.322,70.1968 173.877,71.026 175.432,71.8553 176.986,72.6848 178.541,73.5144 180.096,74.3442 181.651,75.1742 183.206,76.0043 184.76,76.8346 186.315,77.665 187.87,78.4956 189.425,79.3264 190.98,80.1573 192.534,80.9884 194.089,81.8196 195.644,82.651 197.199,83.4826 198.754,84.3144 200.308,85.1463 201.863,85.9784 203.418,86.8106 204.973,87.6431 206.528,88.4757 208.082,89.3085 209.637,90.1414 211.192,90.9745 212.747,91.8079 214.302,92.6414 215.856,93.475 217.411,94.3089 218.966,95.1429 220.521,95.9772 222.076,96.8116 223.63,97.6462 225.185,98.481 226.74,99.3159 228.295,100.151 229.85,100.986 231.404,101.822 232.959,102.658 234.514,103.494 236.069,104.33 237.624,105.166 239.178,106.003 240.733,106.84 242.288,107.676 243.843,108.514 245.398,109.351 246.952,110.189 248.507,111.026 250.062,111.864 251.617,112.703 253.172,113.541 254.726,114.38 256.281,115.218 257.836,116.058 259.391,116.897 260.946,117.736 262.5,118.576 264.055,119.416 265.61,120.256 267.165,121.097 268.72,121.937 270.274,122.778 271.829,123.619 273.384,124.461 274.939,125.302 276.494,126.144 278.048,126.986 279.603,127.828 281.158,128.671 282.713,129.514 284.268,130.357 285.822,131.2 287.377,132.044 288.932,132.887 290.487,133.731 292.042,134.576 293.596,135.42 295.151,136.265 296.706,137.11 298.261,137.955 299.816,138.801 301.37,139.647 302.925,140.493 304.48,141.339 306.035,142.186 307.59,143.033 309.144,143.88 310.699,144.727 312.254,145.575 313.809,146.423 315.364,147.272 316.918,148.12 318.473,148.969 320.028,149.818 321.583,150.668 323.138,151.517 324.692,152.367 326.247,153.218 327.802,154.068 329.357,154.919 330.912,155.771 332.466,156.622 334.021,157.474 335.576,158.326 337.131,159.179 338.686,160.031 340.24,160.884 341.795,161.738 343.35,162.592 344.905,163.446 346.46,164.3 348.014,165.155 349.569,166.01 351.124,166.865 352.679,167.721 354.234,168.577 355.788,169.433 357.343,170.29 358.898,171.147 360.453,172.004 362.008,172.862 363.562,173.72 365.117,174.578 366.672,175.437 368.227,176.296 369.782,177.155 371.336,178.015 372.891,178.875 374.446,179.736 376.001,180.597 377.556,181.458 379.11,182.32 380.665,183.182 382.22,184.044 383.775,184.907 385.33,185.77 386.884,186.634 388.439,187.498 389.994,188.362 391.549,189.227 393.104,190.092 394.658,190.957 396.213,191.823 397.768,192.689 399.323,193.556 400.878,194.423 402.432,195.291 403.987,196.159 405.542,197.027 407.097,197.896 408.652,198.765 410.206,199.635 411.761,200.505 413.316,201.375 414.871,202.246 416.426,203.117 417.98,203.989 419.535,204.861 421.09,205.734 422.645,206.607 424.2,207.481 425.754,208.355 427.309,209.229 428.864,210.104 430.419,210.979 431.974,211.855 433.528,212.732 435.083,213.608 436.638,214.486 438.193,215.363 439.748,216.242 441.302,217.12 442.857,217.999 444.412,218.879 445.967,219.759 447.522,220.64 449.076,221.521 450.631,222.403 452.186,223.285 453.741,224.168 455.296,225.051 456.85,225.935 458.405,226.819 459.96,227.704 461.515,228.589 463.07,229.475 464.624,230.361 466.179,231.248 467.734,232.135 469.289,233.023 470.844,233.912 472.398,234.801 473.953,235.691 475.508,236.581 477.063,237.472 478.618,238.363 480.172,239.255 481.727,240.147 483.282,241.04 484.837,241.934 486.392,242.828 487.946,243.723 489.501,244.618 491.056,245.514 492.611,246.411 494.166,247.308 495.72,248.206 497.275,249.104 498.83,250.003 500.385,250.903 501.94,251.803 503.494,252.704 505.049,253.606 506.604,254.508 508.159,255.411 509.714,256.314 511.268,257.219 512.823,258.123 514.378,259.029 515.933,259.935 517.488,260.842 519.042,261.749 520.597,262.657 522.152,263.566 523.707,264.476 525.262,265.386 526.816,266.297 528.371,267.208 529.926,268.121 531.481,269.034 533.036,269.947 534.59,270.862 536.145,271.777 537.7,272.693 539.255,273.61 540.81,274.527 542.364,275.445 543.919,276.364 545.474,277.284 547.029,278.204 548.584,279.125 550.138,280.047 551.693,280.97 553.248,281.893 554.803,282.817 556.358,283.742 557.912,284.668 559.467,285.595 561.022,286.522" stroke="#ecb01f" stroke-width="0.5"/>
   <polyline fill="none" stroke-linecap="butt" stroke-linejoin="round" points="80.5888,26.5677 82.1436,26.6273 83.6984,26.7947 85.2532,27.0545 86.808,27.3936 88.3628,27.8008 89.9176,28.2664 91.4724,28.782 93.0272,29.3407 94.582,29.9362 96.1368,30.5633 97.6916,31.2177 99.2464,31.8953 100.801,32.5929 102.356,33.3077 103.911,34.0372 105.466,34.7794 107.02,35.5324 108.575,36.2948 110.13,37.0652 111.685,37.8424 113.24,38.6256 114.794,39.4139 116.349,40.2065 117.904,41.0029 119.459,41.8026 121.014,42.605 122.568,43.4098 124.123,44.2167 125.678,45.0254 127.233,45.8356 128.788,46.6472 130.342,47.4599 131.897,48.2736 133.452,49.0882 135.007,49.9036 136.562,50.7196 138.116,51.5362 139.671,52.3533 141.226,53.1708 142.781,53.9888 144.336,54.8071 145.89,55.6257 147.445,56.4445 149,57.2637 150.555,58.0831 152.11,58.9026 153.664,59.7224 155.219,60.5424 156.774,61.3625 158.329,62.1827 159.884,63.0031 161.438,63.8237 162.993,64.6443 164.548,65.4651 166.103,66.286 167.658,67.107 169.212,67.9282 170.767,68.7494 172.322,69.5707 173.877,70.3922 175.432,71.2137 176.986,72.0354 178.541,72.8571 180.096,73.679 181.651,74.5009 183.206,75.3229 184.76,76.1451 186.315,76.9673 187.87,77.7897 189.425,78.6121 190.98,79.4346 192.534,80.2572 194.089,81.08 195.644,81.9028 197.199,82.7257 198.754,83.5487 200.308,84.3719 201.863,85.1951 203.418,86.0184 204.973,86.8418 206.528,87.6653 208.082,88.489 209.637,89.3127 211.192,90.1365 212.747,90.9605 214.302,91.7845 215.856,92.6087 217.411,93.4329 218.966,94.2573 220.521,95.0818 222.076,95.9063 223.63,96.731 225.185,97.5558 226.74,98.3807 228.295,99.2057 229.85,100.031 231.404,100.856 232.959,101.681 234.514,102.507 236.069,103.332 237.624,104.158 239.178,104.984 240.733,105.81 242.288,106.636 243.843,107.462 245.398,108.288 246.952,109.115 248.507,109.941 250.062,110.768 251.617,111.594 253.172,112.421 254.726,113.248 256.281,114.075 257.836,114.903 259.391,115.73 260.946,116.557 262.5,117.385 264.055,118.213 265.61,119.041 267.165,119.869 268.72,120.697 270.274,121.525 271.829,122.353 273.384,123.182 274.939,124.01 276.494,124.839 278.048,125.668 279.603,126.497 281.158,127.326 282.713,128.156 284.268,128.985 285.822,129.814 287.377,130.644 288.932,131.474 290.487,132.304 292.042,133.134 293.596,133.964 295.151,134.795 296.706,135.625 298.261,136.456 299.816,137.287 301.37,138.118 302.925,138.949 304.48,139.78 306.035,140.612 307.59,141.443 309.144,142.275 310.699,143.107 312.254,143.939 313.809,144.771 315.364,145.603 316.918,146.436 318.473,147.268 320.028,148.101 321.583,148.934 323.138,149.767 324.692,150.6 326.247,151.434 327.802,152.267 329.357,153.101 330.912,153.935 332.466,154.769 334.021,155.603 335.576,156.438 337.131,157.272 338.686,158.107 340.24,158.942 341.795,159.777 343.35,160.612 344.905,161.448 346.46,162.283 348.014,163.119 349.569,163.955 351.124,164.791 352.679,165.627 354.234,166.463 355.788,167.3 357.343,168.137 358.898,168.974 360.453,169.811 362.008,170.648 363.562,171.486 365.117,172.324 366.672,173.161 368.227,173.999 369.782,174.838 371.336,175.676 372.891,176.515 374.446,177.354 376.001,178.193 377.556,179.032 379.11,179.871 380.665,180.711 382.22,181.551 383.775,182.391 385.33,183.231 386.884,184.071 388.439,184.912 389.994,185.753 391.549,186.593 393.104,187.435 394.658,188.276 396.213,189.118 397.768,189.959 399.323,190.801 400.878,191.644 402.432,192.486 403.987,193.329 405.542,194.172 407.097,195.015 408.652,195.858 410.206,196.701 411.761,197.545 413.316,198.389 414.871,199.233 416.426,200.078 417.98,200.922 419.535,201.767 421.09,202.612 422.645,203.457 424.2,204.303 425.754,205.149 427.309,205.995 428.864,206.841 430.419,207.687 431.974,208.534 433.528,209.381 435.083,210.228 436.638,211.075 438.193,211.923 439.748,212.771 441.302,213.619 442.857,214.467 444.412,215.316 445.967,216.165 447.522,217.014 449.076,217.863 450.631,218.713 452.186,219.562 453.741,220.412 455.296,221.263 456.85,222.113 458.405,222.964 459.96,223.815 461.515,224.667 463.07,225.518 464.624,226.37 466.179,227.222 467.734,228.075 469.289,228.928 470.844,229.781 472.398,230.634 473.953,231.487 475.508,232.341 477.063,233.195 478.618,234.05 480.172,234.904 481.727,235.759 483.282,236.614 484.837,237.47 486.392,238.326 487.946,239.182 489.501,240.038 491.056,240.895 492.611,241.751 494.166,242.609 495.72,243.466 497.275,244.324 498.83,245.182 500.385,246.04 501.94,246.899 503.494,247.758 505.049,248.617 506.604,249.477 508.159,250.337 509.714,251.197 511.268,252.058 512.823,252.919 514.378,253.78 515.933,254.641 517.488,255.503 519.042,256.365 520.597,257.228 522.152,258.091 523.707,258.954 525.262,259.817 526.816,260.681 528.371,261.545 529.926,262.409 531.481,263.274 533.036,264.139 534.59,265.005 536.145,265.871 537.7,266.737 539.255,267.603 540.81,268.47 542.364,269.337 543.919,270.205 545.474,271.073 547.029,271.941 548.584,272.81 550.138,273.678 551.693,274.548 553.248,275.417 554.803,276.288 556.358,277.158 557.912,278.029 559.467,278.9 561.022,279.771" stroke="#7d2e8d" stroke-width="0.5"/>
   <polyline fill="none" stroke-linecap="butt" stroke-linejoin="round" points="80.5888,26.5677 82.1436,26.6255 83.6984,26.7878 85.2532,27.0404 86.808,27.3707 88.3628,27.768 89.9176,28.2231 91.4724,28.7278 93.0272,29.2755 94.582,29.8601 96.1368,30.4766 97.6916,31.1206 99.2464,31.7882 100.801,32.4762 102.356,33.1818 103.911,33.9026 105.466,34.6365 107.02,35.3816 108.575,36.1364 110.13,36.8996 111.685,37.6701 113.24,38.4468 114.794,39.2289 116.349,40.0156 117.904,40.8063 119.459,41.6005 121.014,42.3977 122.568,43.1975 124.123,43.9995 125.678,44.8035 127.233,45.6091 128.788,46.4161 130.342,47.2245 131.897,48.0339 133.452,48.8443 135.007,49.6555 136.562,50.4673 138.116,51.2799 139.671,52.093 141.226,52.9065 142.781,53.7205 144.336,54.5349 145.89,55.3495 147.445,56.1645 149,56.9798 150.555,57.7952 152.11,58.6109 153.664,59.4267 155.219,60.2428 156.774,61.0589 158.329,61.8752 159.884,62.6917 161.438,63.5083 162.993,64.325 164.548,65.1417 166.103,65.9586 167.658,66.7756 169.212,67.5927 170.767,68.4098 172.322,69.2271 173.877,70.0444 175.432,70.8618 176.986,71.6792 178.541,72.4968 180.096,73.3144 181.651,74.1321 183.206,74.9499 184.76,75.7677 186.315,76.5856 187.87,77.4036 189.425,78.2216 190.98,79.0397 192.534,79.8579 194.089,80.6761 195.644,81.4944 197.199,82.3128 198.754,83.1313 200.308,83.9498 201.863,84.7684 203.418,85.5871 204.973,86.4058 206.528,87.2246 208.082,88.0435 209.637,88.8624 211.192,89.6814 212.747,90.5005 214.302,91.3196 215.856,92.1389 217.411,92.9582 218.966,93.7775 220.521,94.597 222.076,95.4165 223.63,96.2361 225.185,97.0557 226.74,97.8755 228.295,98.6953 229.85,99.5151 231.404,100.335 232.959,101.155 234.514,101.975 236.069,102.795 237.624,103.616 239.178,104.436 240.733,105.256 242.288,106.077 243.843,106.897 245.398,107.718 246.952,108.539 248.507,109.36 250.062,110.181 251.617,111.002 253.172,111.823 254.726,112.644 256.281,113.465 257.836,114.286 259.391,115.108 260.946,115.929 262.5,116.751 264.055,117.572 265.61,118.394 267.165,119.216 268.72,120.038 270.274,120.859 271.829,121.682 273.384,122.504 274.939,123.326 276.494,124.148 278.048,124.971 279.603,125.793 281.158,126.616 282.713,127.438 284.268,128.261 285.822,129.084 287.377,129.907 288.932,130.73 290.487,131.553 292.042,132.376 293.596,133.199 295.151,134.023 296.706,134.846 298.261,135.67 299.816,136.493 301.37,137.317 302.925,138.141 304.48,138.965 306.035,139.789 307.59,140.613 309.144,141.437 310.699,142.262 312.254,143.086 313.809,143.911 315.364,144.735 316.918,145.56 318.473,146.385 320.028,147.21 321.583,148.035 323.138,148.86 324.692,149.685 326.247,150.511 327.802,151.336 329.357,152.162 330.912,152.987 332.466,153.813 334.021,154.639 335.576,155.465 337.131,156.291 338.686,157.117 340.24,157.943 341.795,158.77 343.35,159.596 344.905,160.423 346.46,161.25 348.014,162.076 349.569,162.903 351.124,163.73 352.679,164.558 354.234,165.385 355.788,166.212 357.343,167.04 358.898,167.867 360.453,168.695 362.008,169.523 363.562,170.351 365.117,171.179 366.672,172.007 368.227,172.836 369.782,173.664 371.336,174.492 372.891,175.321 374.446,176.15 376.001,176.979 377.556,177.808 379.11,178.637 380.665,179.466 382.22,180.296 383.775,181.125 385.33,181.955 386.884,182.785 388.439,183.615 389.994,184.445 391.549,185.275 393.104,186.105 394.658,186.935 396.213,187.766 397.768,188.597 399.323,189.427 400.878,190.258 402.432,191.089 403.987,191.921 405.542,192.752 407.097,193.583 408.652,194.415 410.206,195.247 411.761,196.079 413.316,196.91 414.871,197.743 416.426,198.575 417.98,199.407 419.535,200.24 421.09,201.073 422.645,201.905 424.2,202.738 425.754,203.571 427.309,204.405 428.864,205.238 430.419,206.072 431.974,206.905 433.528,207.739 435.083,208.573 436.638,209.407 438.193,210.241 439.748,211.076 441.302,211.91 442.857,212.745 444.412,213.58 445.967,214.415 447.522,215.25 449.076,216.086 450.631,216.921 452.186,217.757 453.741,218.592 455.296,219.428 456.85,220.264 458.405,221.101 459.96,221.937 461.515,222.774 463.07,223.61 464.624,224.447 466.179,225.284 467.734,226.122 469.289,226.959 470.844,227.796 472.398,228.634 473.953,229.472 475.508,230.31 477.063,231.148 478.618,231.987 480.172,232.825 481.727,233.664 483.282,234.503 484.837,235.342 486.392,236.181 487.946,237.021 489.501,237.86 491.056,238.7 492.611,239.54 494.166,240.38 495.72,241.22 497.275,242.061 498.83,242.901 500.385,243.742 501.94,244.583 503.494,245.424 505.049,246.266 506.604,247.107 508.159,247.949 509.714,248.791 511.268,249.633 512.823,250.475 514.378,251.318 515.933,252.16 517.488,253.003 519.042,253.846 520.597,254.689 522.152,255.533 523.707,256.377 525.262,257.22 526.816,258.064 528.371,258.909 529.926,259.753 531.481,260.598 533.036,261.442 534.59,262.287 536.145,263.133 537.7,263.978 539.255,264.824 540.81,265.67 542.364,266.516 543.919,267.362 545.474,268.208 547.029,269.055 548.584,269.902 550.138,270.749 551.693,271.596 553.248,272.444 554.803,273.291 556.358,274.139 557.912,274.988 559.467,275.836 561.022,276.684" stroke="#76ab2f" stroke-width="0.5"/>
  </g>
  <clipPath id="cp00619354">
   <polygon points="0,354 619,354 619,0 0,0"/>
  </clipPath>
  <g clip-path="url(#cp00619354)">
   <polygon shape-rendering="crispEdges" fill="#ffffff" points="87.3639,308.495 188.464,308.495 188.464,196.17 87.3639,196.17"/>
   <polyline fill="none" stroke-linecap="square" stroke-linejoin="miter" stroke-dasharray="16,0" points="87.3639,308.495 188.464,308.495" stroke="#262626" stroke-width="0.5"/>
   <polyline fill="none" stroke-linecap="square" stroke-linejoin="miter" stroke-dasharray="16,0" points="87.3639,196.17 188.464,196.17" stroke="#262626" stroke-width="0.5"/>
   <polyline fill="none" stroke-linecap="square" stroke-linejoin="miter" stroke-dasharray="16,0" points="87.3639,308.495 87.3639,196.17" stroke="#262626" stroke-width="0.5"/>
   <polyline fill="none" stroke-linecap="square" stroke-linejoin="miter" stroke-dasharray="16,0" points="188.464,308.495 188.464,196.17" stroke="#262626" stroke-width="0.5"/>
   <polyline fill="none" stroke-linecap="butt" stroke-linejoin="round" points="90.7515,207.557 107.689,207.557" stroke="#0071bc" stroke-width="0.5"/>
   <text xml:space="preserve" font-family="FreeSans" font-weight="normal" transform="translate(111.077,215.557) rotate(-0,-0,-8)" font-style="normal" font-size="20">
    <tspan fill="rgb(0,0,0)" y="-0" x="0 14 25 36 ">Real</tspan>
   </text>
   <polyline fill="none" stroke-linecap="butt" stroke-linejoin="round" points="90.7515,228.445 107.689,228.445" stroke="#d85218" stroke-width="0.5"/>
   <text xml:space="preserve" font-family="FreeSans" font-weight="normal" transform="translate(111.077,237.945) rotate(-0,-0,-9.5)" font-style="normal" font-size="20">
    <tspan fill="rgb(0,0,0)" y="-3" x="0 ">I</tspan>
    <tspan fill="rgb(0,0,0)" y="-0" font-size="14" x="6 ">c</tspan>
    <tspan fill="rgb(0,0,0)" y="-3" x="13 18 30 35 46 52 63 "> = 0,03</tspan>
   </text>
   <polyline fill="none" stroke-linecap="butt" stroke-linejoin="round" points="90.7515,250.833 107.689,250.833" stroke="#ecb01f" stroke-width="0.5"/>
   <text xml:space="preserve" font-family="FreeSans" font-weight="normal" transform="translate(111.077,260.333) rotate(-0,-0,-9.5)" font-style="normal" font-size="20">
    <tspan fill="rgb(0,0,0)" y="-3" x="0 ">I</tspan>
    <tspan fill="rgb(0,0,0)" y="-0" font-size="14" x="6 ">c</tspan>
    <tspan fill="rgb(0,0,0)" y="-3" x="13 18 30 35 46 52 63 "> = 0,06</tspan>
   </text>
   <polyline fill="none" stroke-linecap="butt" stroke-linejoin="round" points="90.7515,273.22 107.689,273.22" stroke="#7d2e8d" stroke-width="0.5"/>
   <text xml:space="preserve" font-family="FreeSans" font-weight="normal" transform="translate(111.077,282.72) rotate(-0,-0,-9.5)" font-style="normal" font-size="20">
    <tspan fill="rgb(0,0,0)" y="-3" x="0 ">I</tspan>
    <tspan fill="rgb(0,0,0)" y="-0" font-size="14" x="6 ">c</tspan>
    <tspan fill="rgb(0,0,0)" y="-3" x="13 18 30 35 46 52 63 "> = 0,09</tspan>
   </text>
   <polyline fill="none" stroke-linecap="butt" stroke-linejoin="round" points="90.7515,295.608 107.689,295.608" stroke="#76ab2f" stroke-width="0.5"/>
   <text xml:space="preserve" font-family="FreeSans" font-weight="normal" transform="translate(111.077,305.108) rotate(-0,-0,-9.5)" font-style="normal" font-size="20">
    <tspan fill="rgb(0,0,0)" y="-3" x="0 ">I</tspan>
    <tspan fill="rgb(0,0,0)" y="-0" font-size="14" x="6 ">c</tspan>
    <tspan fill="rgb(0,0,0)" y="-3" x="13 18 30 35 46 52 63 "> = 0,12</tspan>
   </text>
  </g>
 </g>
</svg>
