<?xml version='1.0' encoding='UTF-8' standalone='no'?>
<svg xmlns="http://www.w3.org/2000/svg" width="619pt" viewBox="0 0 619 354" height="354pt" xmlns:xlink="http://www.w3.org/1999/xlink">
 <title>gl2ps_renderer figure</title>
 <desc>
Creator: GL2PS 1.4.2, (C) 1999-2020 C. Geuzaine
For: Octave
CreationDate: Mon Nov 14 00:45:26 2022
</desc>
 <defs/>
 <polygon points="0,0 619,0 619,354 0,354" fill="#ffffff"/>
 <g>
  <polygon points="0,354 619,354 619,0 0,0" fill="#ffffff" shape-rendering="crispEdges"/>
  <clipPath id="cp00619354">
   <polygon points="0,354 619,354 619,0 0,0"/>
  </clipPath>
  <g clip-path="url(#cp00619354)">
   <polygon points="80.5888,315.27 561.022,315.27 561.022,26.5677 80.5888,26.5677" fill="#ffffff" shape-rendering="crispEdges"/>
   <polyline stroke="#262626" points="80.5888,315.27 80.5888,26.5677" fill="none" stroke-linecap="butt" stroke-linejoin="miter" stroke-opacity="0.15" stroke-width="0.5" stroke-dasharray="16,0"/>
   <polyline stroke="#262626" points="196.635,315.27 196.635,26.5677" fill="none" stroke-linecap="butt" stroke-linejoin="miter" stroke-opacity="0.15" stroke-width="0.5" stroke-dasharray="16,0"/>
   <polyline stroke="#262626" points="312.682,315.27 312.682,26.5677" fill="none" stroke-linecap="butt" stroke-linejoin="miter" stroke-opacity="0.15" stroke-width="0.5" stroke-dasharray="16,0"/>
   <polyline stroke="#262626" points="428.729,315.27 428.729,26.5677" fill="none" stroke-linecap="butt" stroke-linejoin="miter" stroke-opacity="0.15" stroke-width="0.5" stroke-dasharray="16,0"/>
   <polyline stroke="#262626" points="544.776,315.27 544.776,26.5677" fill="none" stroke-linecap="butt" stroke-linejoin="miter" stroke-opacity="0.15" stroke-width="0.5" stroke-dasharray="16,0"/>
   <polyline stroke="#262626" points="80.5888,315.27 80.5888,310.471" fill="none" stroke-linecap="butt" stroke-linejoin="miter" stroke-width="0.5"/>
   <polyline stroke="#262626" points="80.5888,26.5677 80.5888,31.3671" fill="none" stroke-linecap="butt" stroke-linejoin="miter" stroke-width="0.5"/>
   <polyline stroke="#262626" points="196.635,315.27 196.635,310.471" fill="none" stroke-linecap="butt" stroke-linejoin="miter" stroke-width="0.5"/>
   <polyline stroke="#262626" points="196.635,26.5677 196.635,31.3671" fill="none" stroke-linecap="butt" stroke-linejoin="miter" stroke-width="0.5"/>
   <polyline stroke="#262626" points="312.682,315.27 312.682,310.471" fill="none" stroke-linecap="butt" stroke-linejoin="miter" stroke-width="0.5"/>
   <polyline stroke="#262626" points="312.682,26.5677 312.682,31.3671" fill="none" stroke-linecap="butt" stroke-linejoin="miter" stroke-width="0.5"/>
   <polyline stroke="#262626" points="428.729,315.27 428.729,310.471" fill="none" stroke-linecap="butt" stroke-linejoin="miter" stroke-width="0.5"/>
   <polyline stroke="#262626" points="428.729,26.5677 428.729,31.3671" fill="none" stroke-linecap="butt" stroke-linejoin="miter" stroke-width="0.5"/>
   <polyline stroke="#262626" points="544.776,315.27 544.776,310.471" fill="none" stroke-linecap="butt" stroke-linejoin="miter" stroke-width="0.5"/>
   <polyline stroke="#262626" points="544.776,26.5677 544.776,31.3671" fill="none" stroke-linecap="butt" stroke-linejoin="miter" stroke-width="0.5"/>
   <text font-style="normal" xml:space="preserve" font-weight="normal" font-size="10" transform="translate(77.5888,330.763) rotate(-0,3,-8)" font-family="FreeSans">
    <tspan y="-0" x="0 " fill="rgb(38,38,38)">0</tspan>
   </text>
   <text font-style="normal" xml:space="preserve" font-weight="normal" font-size="10" transform="translate(189.135,330.763) rotate(-0,7.5,-8)" font-family="FreeSans">
    <tspan y="-0" x="0 6 9 " fill="rgb(38,38,38)">0.1</tspan>
   </text>
   <text font-style="normal" xml:space="preserve" font-weight="normal" font-size="10" transform="translate(305.182,330.763) rotate(-0,7.5,-8)" font-family="FreeSans">
    <tspan y="-0" x="0 6 9 " fill="rgb(38,38,38)">0.2</tspan>
   </text>
   <text font-style="normal" xml:space="preserve" font-weight="normal" font-size="10" transform="translate(421.229,330.763) rotate(-0,7.5,-8)" font-family="FreeSans">
    <tspan y="-0" x="0 6 9 " fill="rgb(38,38,38)">0.3</tspan>
   </text>
   <text font-style="normal" xml:space="preserve" font-weight="normal" font-size="10" transform="translate(537.275,330.763) rotate(-0,7.5,-8)" font-family="FreeSans">
    <tspan y="-0" x="0 6 9 " fill="rgb(38,38,38)">0.4</tspan>
   </text>
   <polyline stroke="#262626" points="80.5888,315.27 561.022,315.27" fill="none" stroke-linecap="butt" stroke-linejoin="miter" stroke-opacity="0.15" stroke-width="0.5" stroke-dasharray="16,0"/>
   <polyline stroke="#262626" points="80.5888,267.153 561.022,267.153" fill="none" stroke-linecap="butt" stroke-linejoin="miter" stroke-opacity="0.15" stroke-width="0.5" stroke-dasharray="16,0"/>
   <polyline stroke="#262626" points="80.5888,219.036 561.022,219.036" fill="none" stroke-linecap="butt" stroke-linejoin="miter" stroke-opacity="0.15" stroke-width="0.5" stroke-dasharray="16,0"/>
   <polyline stroke="#262626" points="80.5888,170.919 561.022,170.919" fill="none" stroke-linecap="butt" stroke-linejoin="miter" stroke-opacity="0.15" stroke-width="0.5" stroke-dasharray="16,0"/>
   <polyline stroke="#262626" points="80.5888,122.802 561.022,122.802" fill="none" stroke-linecap="butt" stroke-linejoin="miter" stroke-opacity="0.15" stroke-width="0.5" stroke-dasharray="16,0"/>
   <polyline stroke="#262626" points="80.5888,74.6848 561.022,74.6848" fill="none" stroke-linecap="butt" stroke-linejoin="miter" stroke-opacity="0.15" stroke-width="0.5" stroke-dasharray="16,0"/>
   <polyline stroke="#262626" points="80.5888,26.5677 561.022,26.5677" fill="none" stroke-linecap="butt" stroke-linejoin="miter" stroke-opacity="0.15" stroke-width="0.5" stroke-dasharray="16,0"/>
   <polyline stroke="#262626" points="80.5888,315.27 85.3975,315.27" fill="none" stroke-linecap="butt" stroke-linejoin="miter" stroke-width="0.5"/>
   <polyline stroke="#262626" points="561.022,315.27 556.213,315.27" fill="none" stroke-linecap="butt" stroke-linejoin="miter" stroke-width="0.5"/>
   <polyline stroke="#262626" points="80.5888,267.153 85.3975,267.153" fill="none" stroke-linecap="butt" stroke-linejoin="miter" stroke-width="0.5"/>
   <polyline stroke="#262626" points="561.022,267.153 556.213,267.153" fill="none" stroke-linecap="butt" stroke-linejoin="miter" stroke-width="0.5"/>
   <polyline stroke="#262626" points="80.5888,219.036 85.3975,219.036" fill="none" stroke-linecap="butt" stroke-linejoin="miter" stroke-width="0.5"/>
   <polyline stroke="#262626" points="561.022,219.036 556.213,219.036" fill="none" stroke-linecap="butt" stroke-linejoin="miter" stroke-width="0.5"/>
   <polyline stroke="#262626" points="80.5888,170.919 85.3975,170.919" fill="none" stroke-linecap="butt" stroke-linejoin="miter" stroke-width="0.5"/>
   <polyline stroke="#262626" points="561.022,170.919 556.213,170.919" fill="none" stroke-linecap="butt" stroke-linejoin="miter" stroke-width="0.5"/>
   <polyline stroke="#262626" points="80.5888,122.802 85.3975,122.802" fill="none" stroke-linecap="butt" stroke-linejoin="miter" stroke-width="0.5"/>
   <polyline stroke="#262626" points="561.022,122.802 556.213,122.802" fill="none" stroke-linecap="butt" stroke-linejoin="miter" stroke-width="0.5"/>
   <polyline stroke="#262626" points="80.5888,74.6848 85.3975,74.6848" fill="none" stroke-linecap="butt" stroke-linejoin="miter" stroke-width="0.5"/>
   <polyline stroke="#262626" points="561.022,74.6848 556.213,74.6848" fill="none" stroke-linecap="butt" stroke-linejoin="miter" stroke-width="0.5"/>
   <polyline stroke="#262626" points="80.5888,26.5677 85.3975,26.5677" fill="none" stroke-linecap="butt" stroke-linejoin="miter" stroke-width="0.5"/>
   <polyline stroke="#262626" points="561.022,26.5677 556.213,26.5677" fill="none" stroke-linecap="butt" stroke-linejoin="miter" stroke-width="0.5"/>
   <text font-style="normal" xml:space="preserve" font-weight="normal" font-size="10" transform="translate(66.5843,319.27) rotate(-0,9,-4)" font-family="FreeSans">
    <tspan y="-0" x="0 3 " fill="rgb(38,38,38)">-6</tspan>
   </text>
   <text font-style="normal" xml:space="preserve" font-weight="normal" font-size="10" transform="translate(66.5843,271.153) rotate(-0,9,-4)" font-family="FreeSans">
    <tspan y="-0" x="0 3 " fill="rgb(38,38,38)">-5</tspan>
   </text>
   <text font-style="normal" xml:space="preserve" font-weight="normal" font-size="10" transform="translate(66.5843,223.036) rotate(-0,9,-4)" font-family="FreeSans">
    <tspan y="-0" x="0 3 " fill="rgb(38,38,38)">-4</tspan>
   </text>
   <text font-style="normal" xml:space="preserve" font-weight="normal" font-size="10" transform="translate(66.5843,174.919) rotate(-0,9,-4)" font-family="FreeSans">
    <tspan y="-0" x="0 3 " fill="rgb(38,38,38)">-3</tspan>
   </text>
   <text font-style="normal" xml:space="preserve" font-weight="normal" font-size="10" transform="translate(66.5843,126.802) rotate(-0,9,-4)" font-family="FreeSans">
    <tspan y="-0" x="0 3 " fill="rgb(38,38,38)">-2</tspan>
   </text>
   <text font-style="normal" xml:space="preserve" font-weight="normal" font-size="10" transform="translate(66.5843,78.6849) rotate(-0,9,-4)" font-family="FreeSans">
    <tspan y="-0" x="0 3 " fill="rgb(38,38,38)">-1</tspan>
   </text>
   <text font-style="normal" xml:space="preserve" font-weight="normal" font-size="10" transform="translate(69.5843,30.5677) rotate(-0,6,-4)" font-family="FreeSans">
    <tspan y="-0" x="0 " fill="rgb(38,38,38)">0</tspan>
   </text>
   <polyline stroke="#262626" points="80.5888,315.27 561.022,315.27" fill="none" stroke-linecap="square" stroke-linejoin="miter" stroke-width="0.5" stroke-dasharray="16,0"/>
   <polyline stroke="#262626" points="80.5888,26.5677 561.022,26.5677" fill="none" stroke-linecap="square" stroke-linejoin="miter" stroke-width="0.5" stroke-dasharray="16,0"/>
   <polyline stroke="#262626" points="80.5888,315.27 80.5888,26.5677" fill="none" stroke-linecap="square" stroke-linejoin="miter" stroke-width="0.5" stroke-dasharray="16,0"/>
   <polyline stroke="#262626" points="561.022,315.27 561.022,26.5677" fill="none" stroke-linecap="square" stroke-linejoin="miter" stroke-width="0.5" stroke-dasharray="16,0"/>
   <text font-style="normal" xml:space="preserve" font-weight="normal" font-size="11" transform="translate(297.305,347.763) rotate(-0,23.5,-12)" font-family="FreeSans">
    <tspan y="-3" x="0 7 13 22 28 34 38 43 " fill="rgb(38,38,38)">Tempo(s)</tspan>
   </text>
   <text font-style="normal" xml:space="preserve" font-weight="normal" font-size="11" transform="translate(33.0843,170.919) rotate(-90,28.5,0)" font-family="FreeSans">
    <tspan y="-3" x="0 7 13 19 25 27 33 37 41 47 53 " fill="rgb(38,38,38)">Ângulo(rad)</tspan>
   </text>
   <polyline stroke="#0071bc" points="80.5888,26.5677 82.9097,26.5677 85.2307,26.5677 87.5516,26.5677 89.8725,26.5677 92.1935,26.5677 94.5144,27.3761 96.8353,27.3761 99.1563,27.3761 101.477,27.3761 103.798,27.3761 106.119,27.3761 108.44,28.1845 110.761,28.1845 113.082,28.1845 115.403,28.9928 117.724,28.9928 120.045,29.8012 122.366,29.8012 124.687,29.8012 127.007,30.6096 129.328,30.6096 131.649,31.4179 133.97,31.4179 136.291,32.2263 138.612,32.2263 140.933,33.0347 143.254,33.0347 145.575,33.843 147.896,34.6514 150.217,34.6514 152.538,35.4598 154.859,35.4598 157.18,36.2681 159.501,37.0764 161.821,37.0764 164.142,37.8848 166.463,38.6932 168.784,39.5016 171.105,39.5016 173.426,40.3099 175.747,41.1183 178.068,41.9267 180.389,41.9267 182.71,42.735 185.031,43.5434 187.352,44.3518 189.673,45.1601 191.994,45.9685 194.315,45.9685 196.635,46.7769 198.956,47.5852 201.277,48.3936 203.598,49.202 205.919,50.0103 208.24,50.8187 210.561,51.6271 212.882,52.4355 215.203,53.2438 217.524,54.0522 219.845,54.0522 222.166,54.8605 224.487,55.6689 226.808,56.4773 229.129,57.2856 231.449,58.094 233.77,58.9023 236.091,59.7107 238.412,60.5191 240.733,61.3275 243.054,62.9442 245.375,63.7526 247.696,64.5609 250.017,65.3693 252.338,66.1776 254.659,66.986 256.98,67.7944 259.301,68.6028 261.622,69.4111 263.943,70.2195 266.263,71.0279 268.584,71.8362 270.905,73.4529 273.226,74.2613 275.547,75.0697 277.868,75.8781 280.189,76.6864 282.51,77.4948 284.831,79.1115 287.152,79.9199 289.473,80.7282 291.794,81.5366 294.115,82.3449 296.436,83.9617 298.757,84.7701 301.077,85.5784 303.398,86.3868 305.719,87.1952 308.04,88.8119 310.361,89.6203 312.682,90.4286 315.003,91.237 317.324,92.8537 319.645,93.6621 321.966,94.4705 324.287,96.0872 326.608,96.8955 328.929,97.7039 331.25,99.3206 333.571,100.129 335.891,100.937 338.212,102.554 340.533,103.362 342.854,104.171 345.175,105.788 347.496,106.596 349.817,108.213 352.138,109.021 354.459,109.829 356.78,111.446 359.101,112.255 361.422,113.871 363.743,114.68 366.064,116.296 368.385,117.105 370.705,118.721 373.026,119.53 375.347,120.338 377.668,121.955 379.989,122.763 382.31,124.38 384.631,125.188 386.952,126.805 389.273,127.613 391.594,129.23 393.915,130.039 396.236,131.655 398.557,133.272 400.878,134.08 403.199,135.697 405.519,136.505 407.84,138.122 410.161,138.931 412.482,140.547 414.803,141.356 417.124,142.972 419.445,144.589 421.766,145.397 424.087,147.014 426.408,147.823 428.729,149.439 431.05,150.248 433.371,151.864 435.692,153.481 438.013,154.29 440.333,155.906 442.654,157.523 444.975,158.331 447.296,159.948 449.617,161.565 451.938,162.373 454.259,163.99 456.58,164.798 458.901,166.415 461.222,168.032 463.543,168.84 465.864,170.457 468.185,172.074 470.506,173.69 472.827,174.499 475.147,176.115 477.468,177.732 479.789,179.349 482.11,180.157 484.431,181.774 486.752,183.391 489.073,185.007 491.394,186.624 493.715,188.241 496.036,189.049 498.357,190.666 500.678,192.283 502.999,193.899 505.32,195.516 507.641,196.325 509.961,197.941 512.282,199.558 514.603,201.175 516.924,202.791 519.245,203.6 521.566,205.217 523.887,206.833 526.208,208.45 528.529,210.067 530.85,211.683 533.171,212.492 535.492,214.109 537.813,215.725 540.134,217.342 542.455,218.959 544.776,220.576 547.096,221.384 549.417,223.001 551.738,224.617 554.059,226.234 556.38,227.851 558.701,229.468 561.022,230.276" fill="none" stroke-linecap="butt" stroke-linejoin="round" stroke-width="0.5"/>
   <polyline stroke="#d85218" points="80.5888,26.5677 82.9097,26.667 85.2307,26.9419 87.5516,27.3624 89.8725,27.9036 92.1935,28.545 94.5144,29.2693 96.8353,30.0626 99.1563,30.913 101.477,31.8109 103.798,32.7481 106.119,33.7181 108.44,34.7153 110.761,35.7351 113.082,36.7737 115.403,37.828 117.724,38.8954 120.045,39.9738 122.366,41.0612 124.687,42.1563 127.007,43.2578 129.328,44.3647 131.649,45.4763 133.97,46.5916 136.291,47.7103 138.612,48.8318 140.933,49.9557 143.254,51.0818 145.575,52.2097 147.896,53.3391 150.217,54.47 152.538,55.6022 154.859,56.7355 157.18,57.8699 159.501,59.0052 161.821,60.1415 164.142,61.2786 166.463,62.4165 168.784,63.5551 171.105,64.6945 173.426,65.8345 175.747,66.9753 178.068,68.1167 180.389,69.2588 182.71,70.4015 185.031,71.5449 187.352,72.6889 189.673,73.8336 191.994,74.9789 194.315,76.1248 196.635,77.2713 198.956,78.4185 201.277,79.5664 203.598,80.7148 205.919,81.864 208.24,83.0137 210.561,84.1642 212.882,85.3153 215.203,86.467 217.524,87.6194 219.845,88.7725 222.166,89.9263 224.487,91.0807 226.808,92.2359 229.129,93.3917 231.449,94.5483 233.77,95.7055 236.091,96.8635 238.412,98.0221 240.733,99.1815 243.054,100.342 245.375,101.503 247.696,102.664 250.017,103.826 252.338,104.99 254.659,106.153 256.98,107.318 259.301,108.483 261.622,109.65 263.943,110.817 266.263,111.984 268.584,113.153 270.905,114.322 273.226,115.492 275.547,116.663 277.868,117.835 280.189,119.008 282.51,120.181 284.831,121.356 287.152,122.531 289.473,123.707 291.794,124.884 294.115,126.062 296.436,127.24 298.757,128.42 301.077,129.601 303.398,130.782 305.719,131.964 308.04,133.147 310.361,134.332 312.682,135.517 315.003,136.703 317.324,137.89 319.645,139.078 321.966,140.267 324.287,141.457 326.608,142.647 328.929,143.839 331.25,145.032 333.571,146.226 335.891,147.421 338.212,148.617 340.533,149.814 342.854,151.012 345.175,152.211 347.496,153.411 349.817,154.613 352.138,155.815 354.459,157.018 356.78,158.223 359.101,159.428 361.422,160.635 363.743,161.843 366.064,163.052 368.385,164.262 370.705,165.473 373.026,166.686 375.347,167.9 377.668,169.114 379.989,170.33 382.31,171.548 384.631,172.766 386.952,173.986 389.273,175.207 391.594,176.429 393.915,177.652 396.236,178.877 398.557,180.103 400.878,181.33 403.199,182.559 405.519,183.789 407.84,185.02 410.161,186.253 412.482,187.486 414.803,188.722 417.124,189.958 419.445,191.196 421.766,192.436 424.087,193.677 426.408,194.919 428.729,196.162 431.05,197.407 433.371,198.654 435.692,199.902 438.013,201.151 440.333,202.402 442.654,203.655 444.975,204.909 447.296,206.164 449.617,207.421 451.938,208.68 454.259,209.94 456.58,211.202 458.901,212.465 461.222,213.73 463.543,214.997 465.864,216.265 468.185,217.535 470.506,218.806 472.827,220.079 475.147,221.354 477.468,222.631 479.789,223.909 482.11,225.189 484.431,226.471 486.752,227.754 489.073,229.04 491.394,230.327 493.715,231.616 496.036,232.906 498.357,234.199 500.678,235.493 502.999,236.789 505.32,238.088 507.641,239.388 509.961,240.69 512.282,241.993 514.603,243.299 516.924,244.607 519.245,245.917 521.566,247.229 523.887,248.542 526.208,249.858 528.529,251.176 530.85,252.496 533.171,253.818 535.492,255.142 537.813,256.468 540.134,257.797 542.455,259.127 544.776,260.46 547.096,261.795 549.417,263.132 551.738,264.471 554.059,265.813 556.38,267.156 558.701,268.502 561.022,269.851" fill="none" stroke-linecap="butt" stroke-linejoin="round" stroke-width="0.5"/>
   <polyline stroke="#ecb01f" points="80.5888,26.5677 82.9097,26.6526 85.2307,26.8903 87.5516,27.2577 89.8725,27.7356 92.1935,28.3074 94.5144,28.9591 96.8353,29.6787 99.1563,30.4561 101.477,31.2828 103.798,32.1513 106.119,33.0554 108.44,33.9898 110.761,34.9501 113.082,35.9323 115.403,36.9333 117.724,37.9502 120.045,38.9807 122.366,40.0229 124.687,41.0749 127.007,42.1354 129.328,43.2032 131.649,44.277 133.97,45.3563 136.291,46.44 138.612,47.5276 140.933,48.6187 143.254,49.7125 145.575,50.8089 147.896,51.9075 150.217,53.0079 152.538,54.11 154.859,55.2135 157.18,56.3182 159.501,57.4241 161.821,58.5309 164.142,59.6387 166.463,60.7472 168.784,61.8564 171.105,62.9663 173.426,64.0768 175.747,65.1878 178.068,66.2993 180.389,67.4114 182.71,68.5238 185.031,69.6367 187.352,70.75 189.673,71.8637 191.994,72.9778 194.315,74.0922 196.635,75.2069 198.956,76.3221 201.277,77.4375 203.598,78.5533 205.919,79.6695 208.24,80.7859 210.561,81.9027 212.882,83.0198 215.203,84.1373 217.524,85.255 219.845,86.3731 222.166,87.4915 224.487,88.6103 226.808,89.7293 229.129,90.8487 231.449,91.9684 233.77,93.0884 236.091,94.2088 238.412,95.3295 240.733,96.4505 243.054,97.5719 245.375,98.6936 247.696,99.8156 250.017,100.938 252.338,102.061 254.659,103.184 256.98,104.307 259.301,105.431 261.622,106.555 263.943,107.68 266.263,108.804 268.584,109.929 270.905,111.055 273.226,112.181 275.547,113.307 277.868,114.434 280.189,115.561 282.51,116.688 284.831,117.816 287.152,118.944 289.473,120.072 291.794,121.201 294.115,122.33 296.436,123.46 298.757,124.59 301.077,125.72 303.398,126.851 305.719,127.982 308.04,129.114 310.361,130.246 312.682,131.378 315.003,132.511 317.324,133.644 319.645,134.778 321.966,135.912 324.287,137.046 326.608,138.181 328.929,139.316 331.25,140.452 333.571,141.588 335.891,142.725 338.212,143.862 340.533,144.999 342.854,146.137 345.175,147.275 347.496,148.414 349.817,149.553 352.138,150.693 354.459,151.833 356.78,152.973 359.101,154.114 361.422,155.256 363.743,156.397 366.064,157.54 368.385,158.683 370.705,159.826 373.026,160.97 375.347,162.114 377.668,163.259 379.989,164.404 382.31,165.55 384.631,166.696 386.952,167.843 389.273,168.99 391.594,170.137 393.915,171.286 396.236,172.434 398.557,173.584 400.878,174.733 403.199,175.883 405.519,177.034 407.84,178.186 410.161,179.337 412.482,180.49 414.803,181.643 417.124,182.796 419.445,183.95 421.766,185.104 424.087,186.259 426.408,187.415 428.729,188.571 431.05,189.728 433.371,190.885 435.692,192.043 438.013,193.201 440.333,194.36 442.654,195.52 444.975,196.68 447.296,197.841 449.617,199.002 451.938,200.164 454.259,201.326 456.58,202.49 458.901,203.653 461.222,204.818 463.543,205.982 465.864,207.148 468.185,208.314 470.506,209.481 472.827,210.648 475.147,211.816 477.468,212.985 479.789,214.154 482.11,215.324 484.431,216.495 486.752,217.666 489.073,218.838 491.394,220.011 493.715,221.184 496.036,222.358 498.357,223.532 500.678,224.708 502.999,225.884 505.32,227.06 507.641,228.238 509.961,229.416 512.282,230.594 514.603,231.774 516.924,232.954 519.245,234.135 521.566,235.316 523.887,236.499 526.208,237.682 528.529,238.866 530.85,240.05 533.171,241.235 535.492,242.421 537.813,243.608 540.134,244.796 542.455,245.984 544.776,247.173 547.096,248.363 549.417,249.553 551.738,250.745 554.059,251.937 556.38,253.13 558.701,254.324 561.022,255.518" fill="none" stroke-linecap="butt" stroke-linejoin="round" stroke-width="0.5"/>
   <polyline stroke="#7d2e8d" points="80.5888,26.5677 82.9097,26.6476 85.2307,26.8718 87.5516,27.2198 89.8725,27.6742 92.1935,28.2197 94.5144,28.8435 96.8353,29.5344 99.1563,30.2829 101.477,31.0809 103.798,31.9213 106.119,32.7982 108.44,33.7063 110.761,34.6413 113.082,35.5993 115.403,36.5771 117.724,37.572 120.045,38.5814 122.366,39.6034 124.687,40.6362 127.007,41.6783 129.328,42.7284 131.649,43.7854 133.97,44.8482 136.291,45.9162 138.612,46.9886 140.933,48.0648 143.254,49.1443 145.575,50.2266 147.896,51.3114 150.217,52.3983 152.538,53.4871 154.859,54.5775 157.18,55.6693 159.501,56.7623 161.821,57.8565 164.142,58.9516 166.463,60.0475 168.784,61.1442 171.105,62.2415 173.426,63.3395 175.747,64.438 178.068,65.537 180.389,66.6364 182.71,67.7363 185.031,68.8365 187.352,69.9371 189.673,71.038 191.994,72.1393 194.315,73.2408 196.635,74.3426 198.956,75.4446 201.277,76.5469 203.598,77.6495 205.919,78.7523 208.24,79.8553 210.561,80.9586 212.882,82.062 215.203,83.1657 217.524,84.2696 219.845,85.3738 222.166,86.4781 224.487,87.5826 226.808,88.6874 229.129,89.7924 231.449,90.8976 233.77,92.003 236.091,93.1086 238.412,94.2144 240.733,95.3204 243.054,96.4267 245.375,97.5331 247.696,98.6398 250.017,99.7466 252.338,100.854 254.659,101.961 256.98,103.068 259.301,104.176 261.622,105.284 263.943,106.392 266.263,107.501 268.584,108.609 270.905,109.718 273.226,110.827 275.547,111.936 277.868,113.046 280.189,114.155 282.51,115.265 284.831,116.376 287.152,117.486 289.473,118.597 291.794,119.707 294.115,120.818 296.436,121.93 298.757,123.041 301.077,124.153 303.398,125.265 305.719,126.377 308.04,127.49 310.361,128.602 312.682,129.715 315.003,130.828 317.324,131.942 319.645,133.056 321.966,134.17 324.287,135.284 326.608,136.398 328.929,137.513 331.25,138.628 333.571,139.743 335.891,140.858 338.212,141.974 340.533,143.09 342.854,144.206 345.175,145.323 347.496,146.439 349.817,147.556 352.138,148.673 354.459,149.791 356.78,150.909 359.101,152.027 361.422,153.145 363.743,154.264 366.064,155.382 368.385,156.502 370.705,157.621 373.026,158.741 375.347,159.861 377.668,160.981 379.989,162.101 382.31,163.222 384.631,164.343 386.952,165.464 389.273,166.586 391.594,167.708 393.915,168.83 396.236,169.953 398.557,171.076 400.878,172.199 403.199,173.322 405.519,174.446 407.84,175.57 410.161,176.694 412.482,177.819 414.803,178.943 417.124,180.069 419.445,181.194 421.766,182.32 424.087,183.446 426.408,184.572 428.729,185.699 431.05,186.826 433.371,187.954 435.692,189.081 438.013,190.209 440.333,191.338 442.654,192.466 444.975,193.595 447.296,194.725 449.617,195.854 451.938,196.984 454.259,198.115 456.58,199.245 458.901,200.376 461.222,201.508 463.543,202.639 465.864,203.771 468.185,204.904 470.506,206.036 472.827,207.169 475.147,208.303 477.468,209.437 479.789,210.571 482.11,211.705 484.431,212.84 486.752,213.975 489.073,215.111 491.394,216.247 493.715,217.383 496.036,218.519 498.357,219.656 500.678,220.794 502.999,221.932 505.32,223.07 507.641,224.208 509.961,225.347 512.282,226.486 514.603,227.626 516.924,228.766 519.245,229.906 521.566,231.047 523.887,232.188 526.208,233.33 528.529,234.472 530.85,235.614 533.171,236.757 535.492,237.9 537.813,239.044 540.134,240.188 542.455,241.332 544.776,242.477 547.096,243.622 549.417,244.768 551.738,245.914 554.059,247.061 556.38,248.208 558.701,249.355 561.022,250.503" fill="none" stroke-linecap="butt" stroke-linejoin="round" stroke-width="0.5"/>
   <polyline stroke="#76ab2f" points="80.5888,26.5677 82.9097,26.645 85.2307,26.8623 87.5516,27.2003 89.8725,27.6423 92.1935,28.1741 94.5144,28.7831 96.8353,29.4587 99.1563,30.1918 101.477,30.9743 103.798,31.7995 106.119,32.6616 108.44,33.5553 110.761,34.4763 113.082,35.421 115.403,36.386 117.724,37.3685 120.045,38.3661 122.366,39.3769 124.687,40.3989 127.007,41.4306 129.328,42.4707 131.649,43.518 133.97,44.5717 136.291,45.6307 138.612,46.6945 140.933,47.7623 143.254,48.8336 145.575,49.908 147.896,50.985 150.217,52.0642 152.538,53.1455 154.859,54.2285 157.18,55.3131 159.501,56.399 161.821,57.486 164.142,58.574 166.463,59.6629 168.784,60.7526 171.105,61.843 173.426,62.9341 175.747,64.0256 178.068,65.1177 180.389,66.2102 182.71,67.3032 185.031,68.3964 187.352,69.4901 189.673,70.584 191.994,71.6782 194.315,72.7726 196.635,73.8673 198.956,74.9623 201.277,76.0575 203.598,77.1528 205.919,78.2484 208.24,79.3441 210.561,80.4401 212.882,81.5362 215.203,82.6325 217.524,83.7289 219.845,84.8256 222.166,85.9223 224.487,87.0193 226.808,88.1164 229.129,89.2137 231.449,90.3111 233.77,91.4086 236.091,92.5064 238.412,93.6042 240.733,94.7023 243.054,95.8004 245.375,96.8988 247.696,97.9973 250.017,99.0959 252.338,100.195 254.659,101.294 256.98,102.393 259.301,103.492 261.622,104.591 263.943,105.691 266.263,106.791 268.584,107.891 270.905,108.991 273.226,110.091 275.547,111.191 277.868,112.292 280.189,113.392 282.51,114.493 284.831,115.594 287.152,116.695 289.473,117.796 291.794,118.898 294.115,119.999 296.436,121.101 298.757,122.203 301.077,123.305 303.398,124.407 305.719,125.51 308.04,126.612 310.361,127.715 312.682,128.818 315.003,129.921 317.324,131.025 319.645,132.128 321.966,133.232 324.287,134.335 326.608,135.439 328.929,136.543 331.25,137.648 333.571,138.752 335.891,139.857 338.212,140.962 340.533,142.067 342.854,143.172 345.175,144.277 347.496,145.383 349.817,146.488 352.138,147.594 354.459,148.7 356.78,149.807 359.101,150.913 361.422,152.02 363.743,153.126 366.064,154.233 368.385,155.341 370.705,156.448 373.026,157.556 375.347,158.663 377.668,159.771 379.989,160.879 382.31,161.988 384.631,163.096 386.952,164.205 389.273,165.314 391.594,166.423 393.915,167.532 396.236,168.642 398.557,169.751 400.878,170.861 403.199,171.971 405.519,173.081 407.84,174.192 410.161,175.303 412.482,176.414 414.803,177.525 417.124,178.636 419.445,179.747 421.766,180.859 424.087,181.971 426.408,183.083 428.729,184.196 431.05,185.308 433.371,186.421 435.692,187.534 438.013,188.647 440.333,189.76 442.654,190.874 444.975,191.988 447.296,193.102 449.617,194.216 451.938,195.331 454.259,196.445 456.58,197.56 458.901,198.676 461.222,199.791 463.543,200.907 465.864,202.022 468.185,203.138 470.506,204.255 472.827,205.371 475.147,206.488 477.468,207.605 479.789,208.722 482.11,209.84 484.431,210.957 486.752,212.075 489.073,213.194 491.394,214.312 493.715,215.431 496.036,216.549 498.357,217.669 500.678,218.788 502.999,219.908 505.32,221.027 507.641,222.148 509.961,223.268 512.282,224.389 514.603,225.509 516.924,226.63 519.245,227.752 521.566,228.873 523.887,229.995 526.208,231.117 528.529,232.24 530.85,233.362 533.171,234.485 535.492,235.609 537.813,236.732 540.134,237.856 542.455,238.98 544.776,240.104 547.096,241.228 549.417,242.353 551.738,243.478 554.059,244.603 556.38,245.729 558.701,246.855 561.022,247.981" fill="none" stroke-linecap="butt" stroke-linejoin="round" stroke-width="0.5"/>
  </g>
  <clipPath id="cp00619354">
   <polygon points="0,354 619,354 619,0 0,0"/>
  </clipPath>
  <g clip-path="url(#cp00619354)">
   <polygon points="87.3639,308.495 188.464,308.495 188.464,196.17 87.3639,196.17" fill="#ffffff" shape-rendering="crispEdges"/>
   <polyline stroke="#262626" points="87.3639,308.495 188.464,308.495" fill="none" stroke-linecap="square" stroke-linejoin="miter" stroke-width="0.5" stroke-dasharray="16,0"/>
   <polyline stroke="#262626" points="87.3639,196.17 188.464,196.17" fill="none" stroke-linecap="square" stroke-linejoin="miter" stroke-width="0.5" stroke-dasharray="16,0"/>
   <polyline stroke="#262626" points="87.3639,308.495 87.3639,196.17" fill="none" stroke-linecap="square" stroke-linejoin="miter" stroke-width="0.5" stroke-dasharray="16,0"/>
   <polyline stroke="#262626" points="188.464,308.495 188.464,196.17" fill="none" stroke-linecap="square" stroke-linejoin="miter" stroke-width="0.5" stroke-dasharray="16,0"/>
   <polyline stroke="#0071bc" points="90.7515,207.557 107.689,207.557" fill="none" stroke-linecap="butt" stroke-linejoin="round" stroke-width="0.5"/>
   <text font-style="normal" xml:space="preserve" font-weight="normal" font-size="20" transform="translate(111.077,215.557) rotate(-0,-0,-8)" font-family="FreeSans">
    <tspan y="-0" x="0 14 25 36 " fill="rgb(0,0,0)">Real</tspan>
   </text>
   <polyline stroke="#d85218" points="90.7515,228.445 107.689,228.445" fill="none" stroke-linecap="butt" stroke-linejoin="round" stroke-width="0.5"/>
   <text font-style="normal" xml:space="preserve" font-weight="normal" font-size="20" transform="translate(111.077,237.945) rotate(-0,-0,-9.5)" font-family="FreeSans">
    <tspan y="-3" x="0 " fill="rgb(0,0,0)">I</tspan>
    <tspan y="-0" font-size="14" x="6 " fill="rgb(0,0,0)">c</tspan>
    <tspan y="-3" x="13 18 30 35 46 52 63 " fill="rgb(0,0,0)"> = 0,03</tspan>
   </text>
   <polyline stroke="#ecb01f" points="90.7515,250.833 107.689,250.833" fill="none" stroke-linecap="butt" stroke-linejoin="round" stroke-width="0.5"/>
   <text font-style="normal" xml:space="preserve" font-weight="normal" font-size="20" transform="translate(111.077,260.333) rotate(-0,-0,-9.5)" font-family="FreeSans">
    <tspan y="-3" x="0 " fill="rgb(0,0,0)">I</tspan>
    <tspan y="-0" font-size="14" x="6 " fill="rgb(0,0,0)">c</tspan>
    <tspan y="-3" x="13 18 30 35 46 52 63 " fill="rgb(0,0,0)"> = 0,06</tspan>
   </text>
   <polyline stroke="#7d2e8d" points="90.7515,273.22 107.689,273.22" fill="none" stroke-linecap="butt" stroke-linejoin="round" stroke-width="0.5"/>
   <text font-style="normal" xml:space="preserve" font-weight="normal" font-size="20" transform="translate(111.077,282.72) rotate(-0,-0,-9.5)" font-family="FreeSans">
    <tspan y="-3" x="0 " fill="rgb(0,0,0)">I</tspan>
    <tspan y="-0" font-size="14" x="6 " fill="rgb(0,0,0)">c</tspan>
    <tspan y="-3" x="13 18 30 35 46 52 63 " fill="rgb(0,0,0)"> = 0,09</tspan>
   </text>
   <polyline stroke="#76ab2f" points="90.7515,295.608 107.689,295.608" fill="none" stroke-linecap="butt" stroke-linejoin="round" stroke-width="0.5"/>
   <text font-style="normal" xml:space="preserve" font-weight="normal" font-size="20" transform="translate(111.077,305.108) rotate(-0,-0,-9.5)" font-family="FreeSans">
    <tspan y="-3" x="0 " fill="rgb(0,0,0)">I</tspan>
    <tspan y="-0" font-size="14" x="6 " fill="rgb(0,0,0)">c</tspan>
    <tspan y="-3" x="13 18 30 35 46 52 63 " fill="rgb(0,0,0)"> = 0,12</tspan>
   </text>
  </g>
 </g>
</svg>
