<?xml version='1.0' encoding='UTF-8' standalone='no'?>
<svg height="354pt" xmlns:xlink="http://www.w3.org/1999/xlink" xmlns="http://www.w3.org/2000/svg" viewBox="0 0 619 354" width="619pt">
 <title>gl2ps_renderer figure</title>
 <desc>
Creator: GL2PS 1.4.2, (C) 1999-2020 C. Geuzaine
For: Octave
CreationDate: Mon Nov 14 00:51:50 2022
</desc>
 <defs/>
 <polygon fill="#ffffff" points="0,0 619,0 619,354 0,354"/>
 <g>
  <polygon fill="#ffffff" points="0,354 619,354 619,0 0,0" shape-rendering="crispEdges"/>
  <clipPath id="cp00619354">
   <polygon points="0,354 619,354 619,0 0,0"/>
  </clipPath>
  <g clip-path="url(#cp00619354)">
   <polygon fill="#ffffff" points="80.5888,315.27 561.022,315.27 561.022,26.5677 80.5888,26.5677" shape-rendering="crispEdges"/>
   <polyline stroke-opacity="0.15" fill="none" stroke-width="0.5" stroke-dasharray="16,0" points="80.5888,315.27 80.5888,26.5677" stroke-linejoin="miter" stroke-linecap="butt" stroke="#262626"/>
   <polyline stroke-opacity="0.15" fill="none" stroke-width="0.5" stroke-dasharray="16,0" points="203.148,315.27 203.148,26.5677" stroke-linejoin="miter" stroke-linecap="butt" stroke="#262626"/>
   <polyline stroke-opacity="0.15" fill="none" stroke-width="0.5" stroke-dasharray="16,0" points="325.708,315.27 325.708,26.5677" stroke-linejoin="miter" stroke-linecap="butt" stroke="#262626"/>
   <polyline stroke-opacity="0.15" fill="none" stroke-width="0.5" stroke-dasharray="16,0" points="448.267,315.27 448.267,26.5677" stroke-linejoin="miter" stroke-linecap="butt" stroke="#262626"/>
   <polyline fill="none" stroke-width="0.5" points="80.5888,315.27 80.5888,310.471" stroke-linejoin="miter" stroke-linecap="butt" stroke="#262626"/>
   <polyline fill="none" stroke-width="0.5" points="80.5888,26.5677 80.5888,31.3671" stroke-linejoin="miter" stroke-linecap="butt" stroke="#262626"/>
   <polyline fill="none" stroke-width="0.5" points="203.148,315.27 203.148,310.471" stroke-linejoin="miter" stroke-linecap="butt" stroke="#262626"/>
   <polyline fill="none" stroke-width="0.5" points="203.148,26.5677 203.148,31.3671" stroke-linejoin="miter" stroke-linecap="butt" stroke="#262626"/>
   <polyline fill="none" stroke-width="0.5" points="325.708,315.27 325.708,310.471" stroke-linejoin="miter" stroke-linecap="butt" stroke="#262626"/>
   <polyline fill="none" stroke-width="0.5" points="325.708,26.5677 325.708,31.3671" stroke-linejoin="miter" stroke-linecap="butt" stroke="#262626"/>
   <polyline fill="none" stroke-width="0.5" points="448.267,315.27 448.267,310.471" stroke-linejoin="miter" stroke-linecap="butt" stroke="#262626"/>
   <polyline fill="none" stroke-width="0.5" points="448.267,26.5677 448.267,31.3671" stroke-linejoin="miter" stroke-linecap="butt" stroke="#262626"/>
   <text font-family="FreeSans" transform="translate(77.5888,330.763) rotate(-0,3,-8)" font-weight="normal" font-size="10" xml:space="preserve" font-style="normal">
    <tspan y="-0" fill="rgb(38,38,38)" x="0 ">0</tspan>
   </text>
   <text font-family="FreeSans" transform="translate(195.648,330.763) rotate(-0,7.5,-8)" font-weight="normal" font-size="10" xml:space="preserve" font-style="normal">
    <tspan y="-0" fill="rgb(38,38,38)" x="0 6 9 ">0.1</tspan>
   </text>
   <text font-family="FreeSans" transform="translate(318.208,330.763) rotate(-0,7.5,-8)" font-weight="normal" font-size="10" xml:space="preserve" font-style="normal">
    <tspan y="-0" fill="rgb(38,38,38)" x="0 6 9 ">0.2</tspan>
   </text>
   <text font-family="FreeSans" transform="translate(440.767,330.763) rotate(-0,7.5,-8)" font-weight="normal" font-size="10" xml:space="preserve" font-style="normal">
    <tspan y="-0" fill="rgb(38,38,38)" x="0 6 9 ">0.3</tspan>
   </text>
   <polyline stroke-opacity="0.15" fill="none" stroke-width="0.5" stroke-dasharray="16,0" points="80.5888,315.27 561.022,315.27" stroke-linejoin="miter" stroke-linecap="butt" stroke="#262626"/>
   <polyline stroke-opacity="0.15" fill="none" stroke-width="0.5" stroke-dasharray="16,0" points="80.5888,274.027 561.022,274.027" stroke-linejoin="miter" stroke-linecap="butt" stroke="#262626"/>
   <polyline stroke-opacity="0.15" fill="none" stroke-width="0.5" stroke-dasharray="16,0" points="80.5888,232.784 561.022,232.784" stroke-linejoin="miter" stroke-linecap="butt" stroke="#262626"/>
   <polyline stroke-opacity="0.15" fill="none" stroke-width="0.5" stroke-dasharray="16,0" points="80.5888,191.541 561.022,191.541" stroke-linejoin="miter" stroke-linecap="butt" stroke="#262626"/>
   <polyline stroke-opacity="0.15" fill="none" stroke-width="0.5" stroke-dasharray="16,0" points="80.5888,150.297 561.022,150.297" stroke-linejoin="miter" stroke-linecap="butt" stroke="#262626"/>
   <polyline stroke-opacity="0.15" fill="none" stroke-width="0.5" stroke-dasharray="16,0" points="80.5888,109.054 561.022,109.054" stroke-linejoin="miter" stroke-linecap="butt" stroke="#262626"/>
   <polyline stroke-opacity="0.15" fill="none" stroke-width="0.5" stroke-dasharray="16,0" points="80.5888,67.811 561.022,67.811" stroke-linejoin="miter" stroke-linecap="butt" stroke="#262626"/>
   <polyline stroke-opacity="0.15" fill="none" stroke-width="0.5" stroke-dasharray="16,0" points="80.5888,26.5677 561.022,26.5677" stroke-linejoin="miter" stroke-linecap="butt" stroke="#262626"/>
   <polyline fill="none" stroke-width="0.5" points="80.5888,315.27 85.3975,315.27" stroke-linejoin="miter" stroke-linecap="butt" stroke="#262626"/>
   <polyline fill="none" stroke-width="0.5" points="561.022,315.27 556.213,315.27" stroke-linejoin="miter" stroke-linecap="butt" stroke="#262626"/>
   <polyline fill="none" stroke-width="0.5" points="80.5888,274.027 85.3975,274.027" stroke-linejoin="miter" stroke-linecap="butt" stroke="#262626"/>
   <polyline fill="none" stroke-width="0.5" points="561.022,274.027 556.213,274.027" stroke-linejoin="miter" stroke-linecap="butt" stroke="#262626"/>
   <polyline fill="none" stroke-width="0.5" points="80.5888,232.784 85.3975,232.784" stroke-linejoin="miter" stroke-linecap="butt" stroke="#262626"/>
   <polyline fill="none" stroke-width="0.5" points="561.022,232.784 556.213,232.784" stroke-linejoin="miter" stroke-linecap="butt" stroke="#262626"/>
   <polyline fill="none" stroke-width="0.5" points="80.5888,191.541 85.3975,191.541" stroke-linejoin="miter" stroke-linecap="butt" stroke="#262626"/>
   <polyline fill="none" stroke-width="0.5" points="561.022,191.541 556.213,191.541" stroke-linejoin="miter" stroke-linecap="butt" stroke="#262626"/>
   <polyline fill="none" stroke-width="0.5" points="80.5888,150.297 85.3975,150.297" stroke-linejoin="miter" stroke-linecap="butt" stroke="#262626"/>
   <polyline fill="none" stroke-width="0.5" points="561.022,150.297 556.213,150.297" stroke-linejoin="miter" stroke-linecap="butt" stroke="#262626"/>
   <polyline fill="none" stroke-width="0.5" points="80.5888,109.054 85.3975,109.054" stroke-linejoin="miter" stroke-linecap="butt" stroke="#262626"/>
   <polyline fill="none" stroke-width="0.5" points="561.022,109.054 556.213,109.054" stroke-linejoin="miter" stroke-linecap="butt" stroke="#262626"/>
   <polyline fill="none" stroke-width="0.5" points="80.5888,67.811 85.3975,67.811" stroke-linejoin="miter" stroke-linecap="butt" stroke="#262626"/>
   <polyline fill="none" stroke-width="0.5" points="561.022,67.811 556.213,67.811" stroke-linejoin="miter" stroke-linecap="butt" stroke="#262626"/>
   <polyline fill="none" stroke-width="0.5" points="80.5888,26.5677 85.3975,26.5677" stroke-linejoin="miter" stroke-linecap="butt" stroke="#262626"/>
   <polyline fill="none" stroke-width="0.5" points="561.022,26.5677 556.213,26.5677" stroke-linejoin="miter" stroke-linecap="butt" stroke="#262626"/>
   <text font-family="FreeSans" transform="translate(66.5843,319.27) rotate(-0,9,-4)" font-weight="normal" font-size="10" xml:space="preserve" font-style="normal">
    <tspan y="-0" fill="rgb(38,38,38)" x="0 3 ">-7</tspan>
   </text>
   <text font-family="FreeSans" transform="translate(66.5843,278.027) rotate(-0,9,-4)" font-weight="normal" font-size="10" xml:space="preserve" font-style="normal">
    <tspan y="-0" fill="rgb(38,38,38)" x="0 3 ">-6</tspan>
   </text>
   <text font-family="FreeSans" transform="translate(66.5843,236.784) rotate(-0,9,-4)" font-weight="normal" font-size="10" xml:space="preserve" font-style="normal">
    <tspan y="-0" fill="rgb(38,38,38)" x="0 3 ">-5</tspan>
   </text>
   <text font-family="FreeSans" transform="translate(66.5843,195.541) rotate(-0,9,-4)" font-weight="normal" font-size="10" xml:space="preserve" font-style="normal">
    <tspan y="-0" fill="rgb(38,38,38)" x="0 3 ">-4</tspan>
   </text>
   <text font-family="FreeSans" transform="translate(66.5843,154.297) rotate(-0,9,-4)" font-weight="normal" font-size="10" xml:space="preserve" font-style="normal">
    <tspan y="-0" fill="rgb(38,38,38)" x="0 3 ">-3</tspan>
   </text>
   <text font-family="FreeSans" transform="translate(66.5843,113.054) rotate(-0,9,-4)" font-weight="normal" font-size="10" xml:space="preserve" font-style="normal">
    <tspan y="-0" fill="rgb(38,38,38)" x="0 3 ">-2</tspan>
   </text>
   <text font-family="FreeSans" transform="translate(66.5843,71.811) rotate(-0,9,-4)" font-weight="normal" font-size="10" xml:space="preserve" font-style="normal">
    <tspan y="-0" fill="rgb(38,38,38)" x="0 3 ">-1</tspan>
   </text>
   <text font-family="FreeSans" transform="translate(69.5843,30.5677) rotate(-0,6,-4)" font-weight="normal" font-size="10" xml:space="preserve" font-style="normal">
    <tspan y="-0" fill="rgb(38,38,38)" x="0 ">0</tspan>
   </text>
   <polyline fill="none" stroke-width="0.5" stroke-dasharray="16,0" points="80.5888,315.27 561.022,315.27" stroke-linejoin="miter" stroke-linecap="square" stroke="#262626"/>
   <polyline fill="none" stroke-width="0.5" stroke-dasharray="16,0" points="80.5888,26.5677 561.022,26.5677" stroke-linejoin="miter" stroke-linecap="square" stroke="#262626"/>
   <polyline fill="none" stroke-width="0.5" stroke-dasharray="16,0" points="80.5888,315.27 80.5888,26.5677" stroke-linejoin="miter" stroke-linecap="square" stroke="#262626"/>
   <polyline fill="none" stroke-width="0.5" stroke-dasharray="16,0" points="561.022,315.27 561.022,26.5677" stroke-linejoin="miter" stroke-linecap="square" stroke="#262626"/>
   <text font-family="FreeSans" transform="translate(297.305,347.763) rotate(-0,23.5,-12)" font-weight="normal" font-size="11" xml:space="preserve" font-style="normal">
    <tspan y="-3" fill="rgb(38,38,38)" x="0 7 13 22 28 34 38 43 ">Tempo(s)</tspan>
   </text>
   <text font-family="FreeSans" transform="translate(33.0843,170.919) rotate(-90,28.5,0)" font-weight="normal" font-size="11" xml:space="preserve" font-style="normal">
    <tspan y="-3" fill="rgb(38,38,38)" x="0 7 13 19 25 27 33 37 41 47 53 ">Ângulo(rad)</tspan>
   </text>
   <polyline fill="none" stroke-width="0.5" points="80.5888,26.5677 83.04,26.5677 85.4912,26.5677 87.9424,26.5677 90.3936,26.5677 92.8447,26.5677 95.2959,26.5677 97.7471,26.5677 100.198,26.5677 102.649,27.2606 105.101,27.2606 107.552,27.2606 110.003,27.9535 112.454,27.9535 114.905,27.9535 117.357,28.6464 119.808,28.6464 122.259,29.3393 124.71,29.3393 127.161,30.0322 129.613,30.0322 132.064,30.725 134.515,31.4179 136.966,31.4179 139.417,32.1108 141.869,32.8037 144.32,33.4966 146.771,33.4966 149.222,34.1895 151.673,34.8824 154.124,35.5752 156.576,36.2681 159.027,36.961 161.478,36.961 163.929,37.6539 166.38,38.3468 168.832,39.0396 171.283,39.7325 173.734,40.4254 176.185,41.1183 178.636,41.8112 181.088,42.5041 183.539,43.197 185.99,43.8899 188.441,44.5827 190.892,45.9685 193.344,46.6614 195.795,47.3543 198.246,48.0472 200.697,48.7401 203.148,49.433 205.599,50.1258 208.051,51.5116 210.502,52.2045 212.953,52.8973 215.404,53.5902 217.855,54.976 220.307,55.6689 222.758,56.3618 225.209,57.0547 227.66,58.4404 230.111,59.1333 232.563,59.8262 235.014,61.212 237.465,61.9048 239.916,62.5977 242.367,63.9835 244.819,64.6764 247.27,66.0622 249.721,66.7551 252.172,67.448 254.623,68.8337 257.074,69.5266 259.526,70.9124 261.977,71.6052 264.428,72.991 266.879,73.6839 269.33,75.0697 271.782,75.7625 274.233,77.1483 276.684,77.8412 279.135,79.227 281.586,79.9199 284.038,81.3056 286.489,82.6914 288.94,83.3843 291.391,84.7701 293.842,85.463 296.293,86.8487 298.745,88.2345 301.196,88.9274 303.647,90.3131 306.098,91.6989 308.549,92.3918 311.001,93.7776 313.452,95.1633 315.903,95.8562 318.354,97.242 320.805,98.6278 323.257,99.3207 325.708,100.706 328.159,102.092 330.61,103.478 333.061,104.171 335.513,105.557 337.964,106.942 340.415,108.328 342.866,109.021 345.317,110.407 347.768,111.793 350.22,113.178 352.671,114.564 355.122,115.257 357.573,116.643 360.024,118.029 362.476,119.414 364.927,120.8 367.378,122.186 369.829,123.572 372.28,124.264 374.732,125.65 377.183,127.036 379.634,128.422 382.085,129.808 384.536,131.193 386.988,132.579 389.439,133.965 391.89,135.351 394.341,136.736 396.792,138.122 399.243,139.508 401.695,140.201 404.146,141.587 406.597,142.972 409.048,144.358 411.499,145.744 413.951,147.13 416.402,148.515 418.853,149.901 421.304,151.287 423.755,152.673 426.207,154.059 428.658,155.444 431.109,156.83 433.56,158.216 436.011,159.602 438.463,160.987 440.914,163.066 443.365,164.452 445.816,165.838 448.267,167.223 450.718,168.609 453.17,169.995 455.621,171.381 458.072,172.766 460.523,174.152 462.974,175.538 465.426,176.924 467.877,178.31 470.328,180.388 472.779,181.774 475.23,183.16 477.682,184.546 480.133,185.931 482.584,187.317 485.035,189.396 487.486,190.781 489.938,192.167 492.389,193.553 494.84,194.939 497.291,196.325 499.742,198.403 502.193,199.789 504.645,201.175 507.096,202.561 509.547,203.946 511.998,205.332 514.449,206.718 516.901,208.796 519.352,210.182 521.803,211.568 524.254,212.954 526.705,214.34 529.157,216.418 531.608,217.804 534.059,219.19 536.51,220.576 538.961,221.961 541.412,223.347 543.864,225.426 546.315,226.811 548.766,228.197 551.217,229.583 553.668,230.969 556.12,232.355 558.571,234.433 561.022,235.819" stroke-linejoin="round" stroke-linecap="butt" stroke="#0071bc"/>
   <polyline fill="none" stroke-width="0.5" points="80.5888,26.5677 83.04,26.6593 85.4912,26.9174 87.9424,27.32 90.3936,27.8477 92.8447,28.484 95.2959,29.2143 97.7471,30.0261 100.198,30.9086 102.649,31.8524 105.101,32.8492 107.552,33.8922 110.003,34.975 112.454,36.0925 114.905,37.24 117.357,38.4135 119.808,39.6096 122.259,40.8253 124.71,42.058 127.161,43.3054 129.613,44.5656 132.064,45.837 134.515,47.118 136.966,48.4073 139.417,49.704 141.869,51.007 144.32,52.3155 146.771,53.6287 149.222,54.9462 151.673,56.2672 154.124,57.5915 156.576,58.9185 159.027,60.2479 161.478,61.5795 163.929,62.9128 166.38,64.2479 168.832,65.5843 171.283,66.922 173.734,68.2608 176.185,69.6006 178.636,70.9413 181.088,72.2827 183.539,73.6249 185.99,74.9677 188.441,76.311 190.892,77.6548 193.344,78.9991 195.795,80.3438 198.246,81.689 200.697,83.0344 203.148,84.3802 205.599,85.7263 208.051,87.0728 210.502,88.4194 212.953,89.7664 215.404,91.1136 217.855,92.461 220.307,93.8087 222.758,95.1565 225.209,96.5046 227.66,97.8529 230.111,99.2015 232.563,100.55 235.014,101.899 237.465,103.248 239.916,104.598 242.367,105.947 244.819,107.297 247.27,108.647 249.721,109.997 252.172,111.347 254.623,112.698 257.074,114.048 259.526,115.399 261.977,116.75 264.428,118.101 266.879,119.453 269.33,120.804 271.782,122.156 274.233,123.508 276.684,124.861 279.135,126.213 281.586,127.566 284.038,128.918 286.489,130.271 288.94,131.625 291.391,132.978 293.842,134.332 296.293,135.686 298.745,137.04 301.196,138.394 303.647,139.748 306.098,141.103 308.549,142.458 311.001,143.813 313.452,145.168 315.903,146.524 318.354,147.88 320.805,149.236 323.257,150.592 325.708,151.948 328.159,153.305 330.61,154.662 333.061,156.019 335.513,157.376 337.964,158.734 340.415,160.091 342.866,161.449 345.317,162.808 347.768,164.166 350.22,165.525 352.671,166.884 355.122,168.243 357.573,169.602 360.024,170.962 362.476,172.322 364.927,173.682 367.378,175.043 369.829,176.403 372.28,177.764 374.732,179.125 377.183,180.487 379.634,181.849 382.085,183.211 384.536,184.573 386.988,185.935 389.439,187.298 391.89,188.661 394.341,190.024 396.792,191.388 399.243,192.752 401.695,194.116 404.146,195.48 406.597,196.845 409.048,198.21 411.499,199.575 413.951,200.94 416.402,202.306 418.853,203.672 421.304,205.038 423.755,206.405 426.207,207.772 428.658,209.139 431.109,210.507 433.56,211.874 436.011,213.243 438.463,214.611 440.914,215.98 443.365,217.349 445.816,218.718 448.267,220.088 450.718,221.458 453.17,222.828 455.621,224.198 458.072,225.569 460.523,226.94 462.974,228.312 465.426,229.684 467.877,231.056 470.328,232.429 472.779,233.801 475.23,235.175 477.682,236.548 480.133,237.922 482.584,239.296 485.035,240.671 487.486,242.045 489.938,243.421 492.389,244.796 494.84,246.172 497.291,247.548 499.742,248.925 502.193,250.302 504.645,251.679 507.096,253.057 509.547,254.435 511.998,255.814 514.449,257.192 516.901,258.572 519.352,259.951 521.803,261.331 524.254,262.711 526.705,264.092 529.157,265.473 531.608,266.855 534.059,268.237 536.51,269.619 538.961,271.002 541.412,272.385 543.864,273.768 546.315,275.152 548.766,276.536 551.217,277.921 553.668,279.306 556.12,280.691 558.571,282.077 561.022,283.464" stroke-linejoin="round" stroke-linecap="butt" stroke="#d85218"/>
   <polyline fill="none" stroke-width="0.5" points="80.5888,26.5677 83.04,26.6587 85.4912,26.9132 87.9424,27.3069 90.3936,27.8188 92.8447,28.4313 95.2959,29.1294 97.7471,29.9003 100.198,30.7331 102.649,31.6186 105.101,32.5489 107.552,33.5174 110.003,34.5184 112.454,35.547 114.905,36.5992 117.357,37.6714 119.808,38.7607 122.259,39.8647 124.71,40.981 127.161,42.1079 129.613,43.2439 132.064,44.3876 134.515,45.538 136.966,46.694 139.417,47.8549 141.869,49.0199 144.32,50.1886 146.771,51.3603 149.222,52.5347 151.673,53.7115 154.124,54.8902 156.576,56.0707 159.027,57.2527 161.478,58.4361 163.929,59.6206 166.38,60.8062 168.832,61.9928 171.283,63.1801 173.734,64.3683 176.185,65.5571 178.636,66.7466 181.088,67.9366 183.539,69.1273 185.99,70.3184 188.441,71.5099 190.892,72.702 193.344,73.8944 195.795,75.0873 198.246,76.2806 200.697,77.4743 203.148,78.6683 205.599,79.8627 208.051,81.0575 210.502,82.2526 212.953,83.4481 215.404,84.6439 217.855,85.8401 220.307,87.0367 222.758,88.2335 225.209,89.4307 227.66,90.6283 230.111,91.8262 232.563,93.0244 235.014,94.223 237.465,95.4219 239.916,96.6212 242.367,97.8208 244.819,99.0208 247.27,100.221 249.721,101.422 252.172,102.623 254.623,103.824 257.074,105.026 259.526,106.228 261.977,107.431 264.428,108.633 266.879,109.837 269.33,111.04 271.782,112.244 274.233,113.448 276.684,114.653 279.135,115.858 281.586,117.064 284.038,118.269 286.489,119.476 288.94,120.682 291.391,121.889 293.842,123.096 296.293,124.304 298.745,125.512 301.196,126.721 303.647,127.93 306.098,129.139 308.549,130.349 311.001,131.559 313.452,132.77 315.903,133.981 318.354,135.192 320.805,136.404 323.257,137.616 325.708,138.829 328.159,140.042 330.61,141.256 333.061,142.47 335.513,143.684 337.964,144.899 340.415,146.114 342.866,147.33 345.317,148.546 347.768,149.763 350.22,150.98 352.671,152.198 355.122,153.416 357.573,154.634 360.024,155.853 362.476,157.073 364.927,158.293 367.378,159.513 369.829,160.734 372.28,161.955 374.732,163.177 377.183,164.399 379.634,165.622 382.085,166.845 384.536,168.069 386.988,169.294 389.439,170.518 391.89,171.744 394.341,172.969 396.792,174.196 399.243,175.423 401.695,176.65 404.146,177.878 406.597,179.106 409.048,180.335 411.499,181.565 413.951,182.795 416.402,184.025 418.853,185.256 421.304,186.488 423.755,187.72 426.207,188.953 428.658,190.186 431.109,191.42 433.56,192.655 436.011,193.89 438.463,195.125 440.914,196.362 443.365,197.598 445.816,198.836 448.267,200.074 450.718,201.312 453.17,202.551 455.621,203.791 458.072,205.031 460.523,206.272 462.974,207.514 465.426,208.756 467.877,209.999 470.328,211.242 472.779,212.486 475.23,213.731 477.682,214.976 480.133,216.222 482.584,217.469 485.035,218.716 487.486,219.964 489.938,221.212 492.389,222.461 494.84,223.711 497.291,224.962 499.742,226.213 502.193,227.465 504.645,228.717 507.096,229.971 509.547,231.225 511.998,232.479 514.449,233.735 516.901,234.991 519.352,236.248 521.803,237.505 524.254,238.763 526.705,240.022 529.157,241.282 531.608,242.542 534.059,243.804 536.51,245.065 538.961,246.328 541.412,247.591 543.864,248.856 546.315,250.121 548.766,251.386 551.217,252.653 553.668,253.92 556.12,255.188 558.571,256.457 561.022,257.726" stroke-linejoin="round" stroke-linecap="butt" stroke="#ecb01f"/>
   <polyline fill="none" stroke-width="0.5" points="80.5888,26.5677 83.04,26.6581 85.4912,26.9091 87.9424,27.2941 90.3936,27.7908 92.8447,28.3809 95.2959,29.0489 97.7471,29.7819 100.198,30.5692 102.649,31.4018 105.101,32.2724 107.552,33.1747 110.003,34.1034 112.454,35.0544 114.905,36.0239 117.357,37.0089 119.808,38.007 122.259,39.016 124.71,40.0342 127.161,41.0602 129.613,42.0927 132.064,43.1308 134.515,44.1735 136.966,45.2202 139.417,46.2703 141.869,47.3233 144.32,48.3788 146.771,49.4365 149.222,50.496 151.673,51.5572 154.124,52.6198 156.576,53.6837 159.027,54.7488 161.478,55.8149 163.929,56.8819 166.38,57.9498 168.832,59.0185 171.283,60.088 173.734,61.1581 176.185,62.2289 178.636,63.3004 181.088,64.3724 183.539,65.445 185.99,66.5183 188.441,67.592 190.892,68.6664 193.344,69.7413 195.795,70.8167 198.246,71.8926 200.697,72.9691 203.148,74.0461 205.599,75.1236 208.051,76.2017 210.502,77.2802 212.953,78.3593 215.404,79.4389 217.855,80.519 220.307,81.5997 222.758,82.6808 225.209,83.7625 227.66,84.8448 230.111,85.9276 232.563,87.0108 235.014,88.0947 237.465,89.179 239.916,90.2639 242.367,91.3494 244.819,92.4354 247.27,93.5219 249.721,94.609 252.172,95.6967 254.623,96.7849 257.074,97.8736 259.526,98.9629 261.977,100.053 264.428,101.143 266.879,102.234 269.33,103.326 271.782,104.418 274.233,105.511 276.684,106.604 279.135,107.698 281.586,108.793 284.038,109.888 286.489,110.983 288.94,112.08 291.391,113.177 293.842,114.274 296.293,115.372 298.745,116.471 301.196,117.57 303.647,118.67 306.098,119.771 308.549,120.872 311.001,121.974 313.452,123.077 315.903,124.18 318.354,125.283 320.805,126.388 323.257,127.493 325.708,128.599 328.159,129.705 330.61,130.812 333.061,131.92 335.513,133.028 337.964,134.137 340.415,135.247 342.866,136.357 345.317,137.468 347.768,138.58 350.22,139.693 352.671,140.806 355.122,141.92 357.573,143.034 360.024,144.15 362.476,145.266 364.927,146.382 367.378,147.5 369.829,148.618 372.28,149.737 374.732,150.856 377.183,151.977 379.634,153.098 382.085,154.22 384.536,155.342 386.988,156.465 389.439,157.59 391.89,158.714 394.341,159.84 396.792,160.966 399.243,162.094 401.695,163.222 404.146,164.35 406.597,165.48 409.048,166.61 411.499,167.741 413.951,168.873 416.402,170.006 418.853,171.14 421.304,172.274 423.755,173.409 426.207,174.545 428.658,175.682 431.109,176.82 433.56,177.959 436.011,179.098 438.463,180.238 440.914,181.379 443.365,182.522 445.816,183.664 448.267,184.808 450.718,185.953 453.17,187.098 455.621,188.245 458.072,189.392 460.523,190.54 462.974,191.69 465.426,192.84 467.877,193.991 470.328,195.143 472.779,196.295 475.23,197.449 477.682,198.604 480.133,199.76 482.584,200.916 485.035,202.074 487.486,203.232 489.938,204.392 492.389,205.552 494.84,206.714 497.291,207.876 499.742,209.04 502.193,210.204 504.645,211.37 507.096,212.537 509.547,213.704 511.998,214.873 514.449,216.042 516.901,217.213 519.352,218.385 521.803,219.557 524.254,220.731 526.705,221.906 529.157,223.082 531.608,224.259 534.059,225.437 536.51,226.617 538.961,227.797 541.412,228.978 543.864,230.161 546.315,231.345 548.766,232.53 551.217,233.716 553.668,234.903 556.12,236.091 558.571,237.28 561.022,238.471" stroke-linejoin="round" stroke-linecap="butt" stroke="#7d2e8d"/>
   <polyline fill="none" stroke-width="0.5" points="80.5888,26.5677 83.04,26.6576 85.4912,26.9051 87.9424,27.2816 90.3936,27.7639 92.8447,28.3327 95.2959,28.9724 97.7471,29.6703 100.198,30.4159 102.649,31.2006 105.101,32.0174 107.552,32.8605 110.003,33.7254 112.454,34.6081 114.905,35.5056 117.357,36.4151 119.808,37.3348 122.259,38.2628 124.71,39.1977 127.161,40.1384 129.613,41.084 132.064,42.0337 134.515,42.9868 136.966,43.9429 139.417,44.9014 141.869,45.8622 144.32,46.8249 146.771,47.7892 149.222,48.7551 151.673,49.7222 154.124,50.6906 156.576,51.6601 159.027,52.6306 161.478,53.6021 163.929,54.5745 166.38,55.5478 168.832,56.5219 171.283,57.4967 173.734,58.4724 176.185,59.4488 178.636,60.426 181.088,61.4038 183.539,62.3824 185.99,63.3618 188.441,64.3418 190.892,65.3226 193.344,66.304 195.795,67.2862 198.246,68.2691 200.697,69.2526 203.148,70.2369 205.599,71.2219 208.051,72.2076 210.502,73.194 212.953,74.1811 215.404,75.1689 217.855,76.1574 220.307,77.1467 222.758,78.1366 225.209,79.1273 227.66,80.1187 230.111,81.1109 232.563,82.1038 235.014,83.0974 237.465,84.0917 239.916,85.0868 242.367,86.0826 244.819,87.0792 247.27,88.0765 249.721,89.0746 252.172,90.0735 254.623,91.0731 257.074,92.0734 259.526,93.0746 261.977,94.0764 264.428,95.0791 266.879,96.0826 269.33,97.0868 271.782,98.0918 274.233,99.0977 276.684,100.104 279.135,101.112 281.586,102.12 284.038,103.129 286.489,104.139 288.94,105.149 291.391,106.161 293.842,107.173 296.293,108.186 298.745,109.2 301.196,110.215 303.647,111.23 306.098,112.247 308.549,113.264 311.001,114.282 313.452,115.301 315.903,116.321 318.354,117.342 320.805,118.363 323.257,119.386 325.708,120.409 328.159,121.433 330.61,122.458 333.061,123.484 335.513,124.511 337.964,125.539 340.415,126.568 342.866,127.597 345.317,128.628 347.768,129.659 350.22,130.691 352.671,131.725 355.122,132.759 357.573,133.794 360.024,134.83 362.476,135.867 364.927,136.905 367.378,137.944 369.829,138.984 372.28,140.025 374.732,141.066 377.183,142.109 379.634,143.153 382.085,144.198 384.536,145.244 386.988,146.29 389.439,147.338 391.89,148.387 394.341,149.437 396.792,150.488 399.243,151.539 401.695,152.592 404.146,153.646 406.597,154.701 409.048,155.757 411.499,156.814 413.951,157.873 416.402,158.932 418.853,159.992 421.304,161.053 423.755,162.116 426.207,163.18 428.658,164.244 431.109,165.31 433.56,166.377 436.011,167.445 438.463,168.514 440.914,169.584 443.365,170.656 445.816,171.728 448.267,172.802 450.718,173.877 453.17,174.953 455.621,176.03 458.072,177.108 460.523,178.188 462.974,179.269 465.426,180.351 467.877,181.434 470.328,182.518 472.779,183.604 475.23,184.69 477.682,185.778 480.133,186.868 482.584,187.958 485.035,189.05 487.486,190.143 489.938,191.237 492.389,192.333 494.84,193.43 497.291,194.528 499.742,195.628 502.193,196.728 504.645,197.831 507.096,198.934 509.547,200.039 511.998,201.145 514.449,202.252 516.901,203.361 519.352,204.471 521.803,205.583 524.254,206.696 526.705,207.81 529.157,208.926 531.608,210.043 534.059,211.161 536.51,212.281 538.961,213.403 541.412,214.526 543.864,215.65 546.315,216.776 548.766,217.903 551.217,219.032 553.668,220.162 556.12,221.293 558.571,222.427 561.022,223.561" stroke-linejoin="round" stroke-linecap="butt" stroke="#76ab2f"/>
  </g>
  <clipPath id="cp00619354">
   <polygon points="0,354 619,354 619,0 0,0"/>
  </clipPath>
  <g clip-path="url(#cp00619354)">
   <polygon fill="#ffffff" points="87.3639,308.495 191.464,308.495 191.464,196.17 87.3639,196.17" shape-rendering="crispEdges"/>
   <polyline fill="none" stroke-width="0.5" stroke-dasharray="16,0" points="87.3639,308.495 191.464,308.495" stroke-linejoin="miter" stroke-linecap="square" stroke="#262626"/>
   <polyline fill="none" stroke-width="0.5" stroke-dasharray="16,0" points="87.3639,196.17 191.464,196.17" stroke-linejoin="miter" stroke-linecap="square" stroke="#262626"/>
   <polyline fill="none" stroke-width="0.5" stroke-dasharray="16,0" points="87.3639,308.495 87.3639,196.17" stroke-linejoin="miter" stroke-linecap="square" stroke="#262626"/>
   <polyline fill="none" stroke-width="0.5" stroke-dasharray="16,0" points="191.464,308.495 191.464,196.17" stroke-linejoin="miter" stroke-linecap="square" stroke="#262626"/>
   <polyline fill="none" stroke-width="0.5" points="90.7515,207.557 107.689,207.557" stroke-linejoin="round" stroke-linecap="butt" stroke="#0071bc"/>
   <text font-family="FreeSans" transform="translate(111.077,215.557) rotate(-0,-0,-8)" font-weight="normal" font-size="20" xml:space="preserve" font-style="normal">
    <tspan y="-0" fill="rgb(0,0,0)" x="0 14 25 36 ">Real</tspan>
   </text>
   <polyline fill="none" stroke-width="0.5" points="90.7515,228.445 107.689,228.445" stroke-linejoin="round" stroke-linecap="butt" stroke="#d85218"/>
   <text font-family="FreeSans" transform="translate(111.077,237.945) rotate(-0,-0,-9.5)" font-weight="normal" font-size="20" xml:space="preserve" font-style="normal">
    <tspan y="-3" fill="rgb(0,0,0)" x="0 ">b</tspan>
    <tspan y="-0" fill="rgb(0,0,0)" x="11 " font-size="14">r</tspan>
    <tspan y="-3" fill="rgb(0,0,0)" x="16 21 33 38 49 55 66 "> = 0,01</tspan>
   </text>
   <polyline fill="none" stroke-width="0.5" points="90.7515,250.833 107.689,250.833" stroke-linejoin="round" stroke-linecap="butt" stroke="#ecb01f"/>
   <text font-family="FreeSans" transform="translate(111.077,260.333) rotate(-0,-0,-9.5)" font-weight="normal" font-size="20" xml:space="preserve" font-style="normal">
    <tspan y="-3" fill="rgb(0,0,0)" x="0 ">b</tspan>
    <tspan y="-0" fill="rgb(0,0,0)" x="11 " font-size="14">r</tspan>
    <tspan y="-3" fill="rgb(0,0,0)" x="16 21 33 38 49 55 66 "> = 0,02</tspan>
   </text>
   <polyline fill="none" stroke-width="0.5" points="90.7515,273.22 107.689,273.22" stroke-linejoin="round" stroke-linecap="butt" stroke="#7d2e8d"/>
   <text font-family="FreeSans" transform="translate(111.077,282.72) rotate(-0,-0,-9.5)" font-weight="normal" font-size="20" xml:space="preserve" font-style="normal">
    <tspan y="-3" fill="rgb(0,0,0)" x="0 ">b</tspan>
    <tspan y="-0" fill="rgb(0,0,0)" x="11 " font-size="14">r</tspan>
    <tspan y="-3" fill="rgb(0,0,0)" x="16 21 33 38 49 55 66 "> = 0,03</tspan>
   </text>
   <polyline fill="none" stroke-width="0.5" points="90.7515,295.608 107.689,295.608" stroke-linejoin="round" stroke-linecap="butt" stroke="#76ab2f"/>
   <text font-family="FreeSans" transform="translate(111.077,305.108) rotate(-0,-0,-9.5)" font-weight="normal" font-size="20" xml:space="preserve" font-style="normal">
    <tspan y="-3" fill="rgb(0,0,0)" x="0 ">b</tspan>
    <tspan y="-0" fill="rgb(0,0,0)" x="11 " font-size="14">r</tspan>
    <tspan y="-3" fill="rgb(0,0,0)" x="16 21 33 38 49 55 66 "> = 0,04</tspan>
   </text>
  </g>
 </g>
</svg>
