<?xml version='1.0' encoding='UTF-8' standalone='no'?>
<svg xmlns:xlink="http://www.w3.org/1999/xlink" width="418pt" viewBox="0 0 418 314" height="314pt" xmlns="http://www.w3.org/2000/svg">
 <title>gl2ps_renderer figure</title>
 <desc>
Creator: GL2PS 1.4.2, (C) 1999-2020 C. Geuzaine
For: Octave
CreationDate: Mon Nov 14 02:56:15 2022
</desc>
 <defs/>
 <polygon points="0,0 418,0 418,314 0,314" fill="#ffffff"/>
 <g>
  <polygon points="0,314 418,314 418,0 0,0" fill="#ffffff" shape-rendering="crispEdges"/>
  <clipPath id="cp00418314">
   <polygon points="0,314 418,314 418,0 0,0"/>
  </clipPath>
  <g clip-path="url(#cp00418314)">
   <polygon points="54.4343,279.499 378.946,279.499 378.946,23.5533 54.4343,23.5533" fill="#ffffff" shape-rendering="crispEdges"/>
   <polyline stroke-opacity="0.15" points="54.4343,279.499 54.4343,23.5533" stroke-linecap="butt" stroke-width="0.5" fill="none" stroke-dasharray="16,0" stroke="#262626" stroke-linejoin="miter"/>
   <polyline stroke-opacity="0.15" points="135.562,279.499 135.562,23.5533" stroke-linecap="butt" stroke-width="0.5" fill="none" stroke-dasharray="16,0" stroke="#262626" stroke-linejoin="miter"/>
   <polyline stroke-opacity="0.15" points="216.69,279.499 216.69,23.5533" stroke-linecap="butt" stroke-width="0.5" fill="none" stroke-dasharray="16,0" stroke="#262626" stroke-linejoin="miter"/>
   <polyline stroke-opacity="0.15" points="297.818,279.499 297.818,23.5533" stroke-linecap="butt" stroke-width="0.5" fill="none" stroke-dasharray="16,0" stroke="#262626" stroke-linejoin="miter"/>
   <polyline stroke-opacity="0.15" points="378.946,279.499 378.946,23.5533" stroke-linecap="butt" stroke-width="0.5" fill="none" stroke-dasharray="16,0" stroke="#262626" stroke-linejoin="miter"/>
   <polyline points="54.4343,279.499 54.4343,276.255" stroke-linecap="butt" stroke-width="0.5" fill="none" stroke="#262626" stroke-linejoin="miter"/>
   <polyline points="54.4343,23.5533 54.4343,26.7977" stroke-linecap="butt" stroke-width="0.5" fill="none" stroke="#262626" stroke-linejoin="miter"/>
   <polyline points="135.562,279.499 135.562,276.255" stroke-linecap="butt" stroke-width="0.5" fill="none" stroke="#262626" stroke-linejoin="miter"/>
   <polyline points="135.562,23.5533 135.562,26.7977" stroke-linecap="butt" stroke-width="0.5" fill="none" stroke="#262626" stroke-linejoin="miter"/>
   <polyline points="216.69,279.499 216.69,276.255" stroke-linecap="butt" stroke-width="0.5" fill="none" stroke="#262626" stroke-linejoin="miter"/>
   <polyline points="216.69,23.5533 216.69,26.7977" stroke-linecap="butt" stroke-width="0.5" fill="none" stroke="#262626" stroke-linejoin="miter"/>
   <polyline points="297.818,279.499 297.818,276.255" stroke-linecap="butt" stroke-width="0.5" fill="none" stroke="#262626" stroke-linejoin="miter"/>
   <polyline points="297.818,23.5533 297.818,26.7977" stroke-linecap="butt" stroke-width="0.5" fill="none" stroke="#262626" stroke-linejoin="miter"/>
   <polyline points="378.946,279.499 378.946,276.255" stroke-linecap="butt" stroke-width="0.5" fill="none" stroke="#262626" stroke-linejoin="miter"/>
   <polyline points="378.946,23.5533 378.946,26.7977" stroke-linecap="butt" stroke-width="0.5" fill="none" stroke="#262626" stroke-linejoin="miter"/>
   <text font-weight="normal" transform="translate(51.4343,294.998) rotate(-0,3,-8)" font-size="10" font-family="FreeSans" font-style="normal" xml:space="preserve">
    <tspan fill="rgb(38,38,38)" x="0 " y="-0">0</tspan>
   </text>
   <text font-weight="normal" transform="translate(128.062,294.998) rotate(-0,7.5,-8)" font-size="10" font-family="FreeSans" font-style="normal" xml:space="preserve">
    <tspan fill="rgb(38,38,38)" x="0 6 9 " y="-0">0.5</tspan>
   </text>
   <text font-weight="normal" transform="translate(213.69,294.998) rotate(-0,3,-8)" font-size="10" font-family="FreeSans" font-style="normal" xml:space="preserve">
    <tspan fill="rgb(38,38,38)" x="0 " y="-0">1</tspan>
   </text>
   <text font-weight="normal" transform="translate(290.318,294.998) rotate(-0,7.5,-8)" font-size="10" font-family="FreeSans" font-style="normal" xml:space="preserve">
    <tspan fill="rgb(38,38,38)" x="0 6 9 " y="-0">1.5</tspan>
   </text>
   <text font-weight="normal" transform="translate(375.946,294.998) rotate(-0,3,-8)" font-size="10" font-family="FreeSans" font-style="normal" xml:space="preserve">
    <tspan fill="rgb(38,38,38)" x="0 " y="-0">2</tspan>
   </text>
   <polyline stroke-opacity="0.15" points="54.4343,267.865 378.946,267.865" stroke-linecap="butt" stroke-width="0.5" fill="none" stroke-dasharray="16,0" stroke="#262626" stroke-linejoin="miter"/>
   <polyline stroke-opacity="0.15" points="54.4343,213.194 378.946,213.194" stroke-linecap="butt" stroke-width="0.5" fill="none" stroke-dasharray="16,0" stroke="#262626" stroke-linejoin="miter"/>
   <polyline stroke-opacity="0.15" points="54.4343,158.523 378.946,158.523" stroke-linecap="butt" stroke-width="0.5" fill="none" stroke-dasharray="16,0" stroke="#262626" stroke-linejoin="miter"/>
   <polyline stroke-opacity="0.15" points="54.4343,103.852 378.946,103.852" stroke-linecap="butt" stroke-width="0.5" fill="none" stroke-dasharray="16,0" stroke="#262626" stroke-linejoin="miter"/>
   <polyline stroke-opacity="0.15" points="54.4343,49.1809 378.946,49.1809" stroke-linecap="butt" stroke-width="0.5" fill="none" stroke-dasharray="16,0" stroke="#262626" stroke-linejoin="miter"/>
   <polyline points="54.4343,267.865 57.6745,267.865" stroke-linecap="butt" stroke-width="0.5" fill="none" stroke="#262626" stroke-linejoin="miter"/>
   <polyline points="378.946,267.865 375.706,267.865" stroke-linecap="butt" stroke-width="0.5" fill="none" stroke="#262626" stroke-linejoin="miter"/>
   <polyline points="54.4343,213.194 57.6745,213.194" stroke-linecap="butt" stroke-width="0.5" fill="none" stroke="#262626" stroke-linejoin="miter"/>
   <polyline points="378.946,213.194 375.706,213.194" stroke-linecap="butt" stroke-width="0.5" fill="none" stroke="#262626" stroke-linejoin="miter"/>
   <polyline points="54.4343,158.523 57.6745,158.523" stroke-linecap="butt" stroke-width="0.5" fill="none" stroke="#262626" stroke-linejoin="miter"/>
   <polyline points="378.946,158.523 375.706,158.523" stroke-linecap="butt" stroke-width="0.5" fill="none" stroke="#262626" stroke-linejoin="miter"/>
   <polyline points="54.4343,103.852 57.6745,103.852" stroke-linecap="butt" stroke-width="0.5" fill="none" stroke="#262626" stroke-linejoin="miter"/>
   <polyline points="378.946,103.852 375.706,103.852" stroke-linecap="butt" stroke-width="0.5" fill="none" stroke="#262626" stroke-linejoin="miter"/>
   <polyline points="54.4343,49.1809 57.6745,49.1809" stroke-linecap="butt" stroke-width="0.5" fill="none" stroke="#262626" stroke-linejoin="miter"/>
   <polyline points="378.946,49.1809 375.706,49.1809" stroke-linecap="butt" stroke-width="0.5" fill="none" stroke="#262626" stroke-linejoin="miter"/>
   <text font-weight="normal" transform="translate(43.4418,271.865) rotate(-0,6,-4)" font-size="10" font-family="FreeSans" font-style="normal" xml:space="preserve">
    <tspan fill="rgb(38,38,38)" x="0 " y="-0">0</tspan>
   </text>
   <text font-weight="normal" transform="translate(37.4418,217.194) rotate(-0,12,-4)" font-size="10" font-family="FreeSans" font-style="normal" xml:space="preserve">
    <tspan fill="rgb(38,38,38)" x="0 6 " y="-0">10</tspan>
   </text>
   <text font-weight="normal" transform="translate(37.4418,162.523) rotate(-0,12,-4)" font-size="10" font-family="FreeSans" font-style="normal" xml:space="preserve">
    <tspan fill="rgb(38,38,38)" x="0 6 " y="-0">20</tspan>
   </text>
   <text font-weight="normal" transform="translate(37.4418,107.852) rotate(-0,12,-4)" font-size="10" font-family="FreeSans" font-style="normal" xml:space="preserve">
    <tspan fill="rgb(38,38,38)" x="0 6 " y="-0">30</tspan>
   </text>
   <text font-weight="normal" transform="translate(37.4418,53.1809) rotate(-0,12,-4)" font-size="10" font-family="FreeSans" font-style="normal" xml:space="preserve">
    <tspan fill="rgb(38,38,38)" x="0 6 " y="-0">40</tspan>
   </text>
   <polyline points="54.4343,279.499 378.946,279.499" stroke-linecap="square" stroke-width="0.5" fill="none" stroke-dasharray="16,0" stroke="#262626" stroke-linejoin="miter"/>
   <polyline points="54.4343,23.5533 378.946,23.5533" stroke-linecap="square" stroke-width="0.5" fill="none" stroke-dasharray="16,0" stroke="#262626" stroke-linejoin="miter"/>
   <polyline points="54.4343,279.499 54.4343,23.5533" stroke-linecap="square" stroke-width="0.5" fill="none" stroke-dasharray="16,0" stroke="#262626" stroke-linejoin="miter"/>
   <polyline points="378.946,279.499 378.946,23.5533" stroke-linecap="square" stroke-width="0.5" fill="none" stroke-dasharray="16,0" stroke="#262626" stroke-linejoin="miter"/>
   <text font-weight="normal" transform="translate(3.9418,151.526) rotate(-90,28.5,0)" font-size="11" font-family="FreeSans" font-style="normal" xml:space="preserve">
    <tspan fill="rgb(38,38,38)" x="0 7 13 19 25 27 33 37 41 47 53 " y="-3">Ângulo(rad)</tspan>
   </text>
   <text font-weight="normal" transform="translate(193.19,311.998) rotate(-0,23.5,-12)" font-size="11" font-family="FreeSans" font-style="normal" xml:space="preserve">
    <tspan fill="rgb(38,38,38)" x="0 7 13 22 28 34 38 43 " y="-3">Tempo(s)</tspan>
   </text>
   <polyline points="54.4343,267.865 55.6452,267.555 56.856,267.367 58.0669,267.245 59.2778,267.158 60.4886,267.089 61.6995,267.03 62.9103,266.976 64.1212,266.924 65.3321,266.874 66.543,266.824 67.7538,266.774 68.9647,266.725 70.1755,266.675 71.3864,266.625 72.5973,266.574 73.8081,266.523 75.019,266.472 76.2299,266.42 77.4408,266.367 78.6516,266.315 79.8625,266.261 81.0733,266.208 82.2842,266.153 83.4951,266.099 84.7059,266.043 85.9168,265.987 87.1277,265.93 88.3385,265.873 89.5494,265.815 90.7603,265.756 91.9711,265.697 93.182,265.637 94.3929,265.576 95.6037,265.514 96.8146,265.452 98.0255,265.389 99.2363,265.324 100.447,265.259 101.658,265.194 102.869,265.127 104.08,265.059 105.291,264.99 106.502,264.921 107.712,264.85 108.923,264.778 110.134,264.705 111.345,264.631 112.556,264.556 113.767,264.48 114.978,264.402 116.188,264.324 117.399,264.244 118.61,264.163 119.821,264.08 121.032,263.997 122.243,263.912 123.454,263.825 124.665,263.737 125.875,263.648 127.086,263.557 128.297,263.465 129.508,263.371 130.719,263.275 131.93,263.178 133.141,263.079 134.351,262.979 135.562,262.877 136.773,262.773 137.984,262.667 139.195,262.56 140.406,262.45 141.617,262.339 142.828,262.225 144.038,262.11 145.249,261.993 146.46,261.873 147.671,261.752 148.882,261.628 150.093,261.502 151.304,261.374 152.514,261.243 153.725,261.11 154.936,260.975 156.147,260.837 157.358,260.697 158.569,260.554 159.78,260.409 160.99,260.261 162.201,260.11 163.412,259.957 164.623,259.8 165.834,259.641 167.045,259.479 168.256,259.314 169.467,259.146 170.677,258.975 171.888,258.8 173.099,258.623 174.31,258.442 175.521,258.258 176.732,258.07 177.943,257.879 179.153,257.684 180.364,257.486 181.575,257.283 182.786,257.078 183.997,256.868 185.208,256.654 186.419,256.437 187.63,256.215 188.84,255.989 190.051,255.759 191.262,255.525 192.473,255.286 193.684,255.042 194.895,254.795 196.106,254.542 197.316,254.285 198.527,254.023 199.738,253.756 200.949,253.483 202.16,253.206 203.371,252.924 204.582,252.636 205.793,252.343 207.003,252.044 208.214,251.739 209.425,251.429 210.636,251.113 211.847,250.791 213.058,250.463 214.269,250.129 215.479,249.788 216.69,249.441 217.901,249.087 219.112,248.727 220.323,248.359 221.534,247.985 222.745,247.604 223.956,247.215 225.166,246.819 226.377,246.416 227.588,246.005 228.799,245.586 230.01,245.159 231.221,244.724 232.432,244.281 233.642,243.829 234.853,243.369 236.064,242.9 237.275,242.422 238.486,241.935 239.697,241.438 240.908,240.933 242.119,240.417 243.329,239.892 244.54,239.357 245.751,238.812 246.962,238.256 248.173,237.69 249.384,237.113 250.595,236.525 251.805,235.925 253.016,235.315 254.227,234.692 255.438,234.058 256.649,233.412 257.86,232.753 259.071,232.082 260.282,231.398 261.492,230.701 262.703,229.991 263.914,229.267 265.125,228.53 266.336,227.778 267.547,227.013 268.758,226.232 269.968,225.437 271.179,224.626 272.39,223.8 273.601,222.958 274.812,222.101 276.023,221.227 277.234,220.336 278.444,219.428 279.655,218.503 280.866,217.56 282.077,216.599 283.288,215.62 284.499,214.623 285.71,213.606 286.921,212.57 288.131,211.514 289.342,210.438 290.553,209.342 291.764,208.224 292.975,207.085 294.186,205.925 295.397,204.742 296.607,203.537 297.818,202.309 299.029,201.057 300.24,199.782 301.451,198.482 302.662,197.158 303.873,195.808 305.084,194.432 306.294,193.03 307.505,191.602 308.716,190.146 309.927,188.662 311.138,187.15 312.349,185.61 313.56,184.04 314.77,182.439 315.981,180.809 317.192,179.147 318.403,177.454 319.614,175.728 320.825,173.969 322.036,172.177 323.247,170.351 324.457,168.489 325.668,166.592 326.879,164.66 328.09,162.69 329.301,160.682 330.512,158.636 331.723,156.552 332.933,154.427 334.144,152.262 335.355,150.056 336.566,147.807 337.777,145.516 338.988,143.18 340.199,140.801 341.41,138.376 342.62,135.904 343.831,133.386 345.042,130.819 346.253,128.204 347.464,125.538 348.675,122.822 349.886,120.054 351.096,117.233 352.307,114.358 353.518,111.428 354.729,108.442 355.94,105.4 357.151,102.299 358.362,99.1393 359.573,95.9192 360.783,92.6377 361.994,89.2935 363.205,85.8855 364.416,82.4125 365.627,78.8732 366.838,75.2664 368.049,71.5907 369.259,67.8449 370.47,64.0276 371.681,60.1375 372.892,56.1731 374.103,52.1331 375.314,48.016 376.525,43.8203 377.736,39.5446 378.946,35.1872" stroke-linecap="butt" stroke-width="0.5" fill="none" stroke="#0071bc" stroke-linejoin="round"/>
  </g>
 </g>
</svg>
