<?xml version='1.0' encoding='UTF-8' standalone='no'?>
<svg height="314pt" xmlns="http://www.w3.org/2000/svg" width="418pt" xmlns:xlink="http://www.w3.org/1999/xlink" viewBox="0 0 418 314">
 <title>Figure 1</title>
 <desc>
Creator: GL2PS 1.4.2, (C) 1999-2020 C. Geuzaine
For: Octave
CreationDate: Mon Nov 14 03:54:17 2022
</desc>
 <defs/>
 <polygon points="0,0 418,0 418,314 0,314" fill="#ffffff"/>
 <g>
  <polygon shape-rendering="crispEdges" points="0,314 418,314 418,0 0,0" fill="#ffffff"/>
  <clipPath id="cp00418314">
   <polygon points="0,314 418,314 418,0 0,0"/>
  </clipPath>
  <g clip-path="url(#cp00418314)">
   <polygon shape-rendering="crispEdges" points="54.4343,279.499 378.946,279.499 378.946,23.5533 54.4343,23.5533" fill="#ffffff"/>
   <polyline stroke-linejoin="miter" points="54.4343,279.499 54.4343,23.5533" fill="none" stroke-dasharray="16,0" stroke="#262626" stroke-linecap="butt" stroke-width="0.5" stroke-opacity="0.15"/>
   <polyline stroke-linejoin="miter" points="119.337,279.499 119.337,23.5533" fill="none" stroke-dasharray="16,0" stroke="#262626" stroke-linecap="butt" stroke-width="0.5" stroke-opacity="0.15"/>
   <polyline stroke-linejoin="miter" points="184.239,279.499 184.239,23.5533" fill="none" stroke-dasharray="16,0" stroke="#262626" stroke-linecap="butt" stroke-width="0.5" stroke-opacity="0.15"/>
   <polyline stroke-linejoin="miter" points="249.142,279.499 249.142,23.5533" fill="none" stroke-dasharray="16,0" stroke="#262626" stroke-linecap="butt" stroke-width="0.5" stroke-opacity="0.15"/>
   <polyline stroke-linejoin="miter" points="314.044,279.499 314.044,23.5533" fill="none" stroke-dasharray="16,0" stroke="#262626" stroke-linecap="butt" stroke-width="0.5" stroke-opacity="0.15"/>
   <polyline stroke-linejoin="miter" points="378.946,279.499 378.946,23.5533" fill="none" stroke-dasharray="16,0" stroke="#262626" stroke-linecap="butt" stroke-width="0.5" stroke-opacity="0.15"/>
   <polyline stroke-linejoin="miter" points="54.4343,279.499 54.4343,276.255" fill="none" stroke="#262626" stroke-linecap="butt" stroke-width="0.5"/>
   <polyline stroke-linejoin="miter" points="54.4343,23.5533 54.4343,26.7977" fill="none" stroke="#262626" stroke-linecap="butt" stroke-width="0.5"/>
   <polyline stroke-linejoin="miter" points="119.337,279.499 119.337,276.255" fill="none" stroke="#262626" stroke-linecap="butt" stroke-width="0.5"/>
   <polyline stroke-linejoin="miter" points="119.337,23.5533 119.337,26.7977" fill="none" stroke="#262626" stroke-linecap="butt" stroke-width="0.5"/>
   <polyline stroke-linejoin="miter" points="184.239,279.499 184.239,276.255" fill="none" stroke="#262626" stroke-linecap="butt" stroke-width="0.5"/>
   <polyline stroke-linejoin="miter" points="184.239,23.5533 184.239,26.7977" fill="none" stroke="#262626" stroke-linecap="butt" stroke-width="0.5"/>
   <polyline stroke-linejoin="miter" points="249.142,279.499 249.142,276.255" fill="none" stroke="#262626" stroke-linecap="butt" stroke-width="0.5"/>
   <polyline stroke-linejoin="miter" points="249.142,23.5533 249.142,26.7977" fill="none" stroke="#262626" stroke-linecap="butt" stroke-width="0.5"/>
   <polyline stroke-linejoin="miter" points="314.044,279.499 314.044,276.255" fill="none" stroke="#262626" stroke-linecap="butt" stroke-width="0.5"/>
   <polyline stroke-linejoin="miter" points="314.044,23.5533 314.044,26.7977" fill="none" stroke="#262626" stroke-linecap="butt" stroke-width="0.5"/>
   <polyline stroke-linejoin="miter" points="378.946,279.499 378.946,276.255" fill="none" stroke="#262626" stroke-linecap="butt" stroke-width="0.5"/>
   <polyline stroke-linejoin="miter" points="378.946,23.5533 378.946,26.7977" fill="none" stroke="#262626" stroke-linecap="butt" stroke-width="0.5"/>
   <g font-family="FreeSans" font-size="10" xml:space="preserve" font-weight="normal" font-style="normal" transform="translate(51.4343,294.998) rotate(-0,3,-8)">
    <text x="0 " fill="rgb(38,38,38)" y="-0">0</text>
   </g>
   <g font-family="FreeSans" font-size="10" xml:space="preserve" font-weight="normal" font-style="normal" transform="translate(116.337,294.998) rotate(-0,3,-8)">
    <text x="0 " fill="rgb(38,38,38)" y="-0">1</text>
   </g>
   <g font-family="FreeSans" font-size="10" xml:space="preserve" font-weight="normal" font-style="normal" transform="translate(181.239,294.998) rotate(-0,3,-8)">
    <text x="0 " fill="rgb(38,38,38)" y="-0">2</text>
   </g>
   <g font-family="FreeSans" font-size="10" xml:space="preserve" font-weight="normal" font-style="normal" transform="translate(246.142,294.998) rotate(-0,3,-8)">
    <text x="0 " fill="rgb(38,38,38)" y="-0">3</text>
   </g>
   <g font-family="FreeSans" font-size="10" xml:space="preserve" font-weight="normal" font-style="normal" transform="translate(311.044,294.998) rotate(-0,3,-8)">
    <text x="0 " fill="rgb(38,38,38)" y="-0">4</text>
   </g>
   <g font-family="FreeSans" font-size="10" xml:space="preserve" font-weight="normal" font-style="normal" transform="translate(375.946,294.998) rotate(-0,3,-8)">
    <text x="0 " fill="rgb(38,38,38)" y="-0">5</text>
   </g>
   <polyline stroke-linejoin="miter" points="54.4343,279.499 378.946,279.499" fill="none" stroke-dasharray="16,0" stroke="#262626" stroke-linecap="butt" stroke-width="0.5" stroke-opacity="0.15"/>
   <polyline stroke-linejoin="miter" points="54.4343,242.935 378.946,242.935" fill="none" stroke-dasharray="16,0" stroke="#262626" stroke-linecap="butt" stroke-width="0.5" stroke-opacity="0.15"/>
   <polyline stroke-linejoin="miter" points="54.4343,206.372 378.946,206.372" fill="none" stroke-dasharray="16,0" stroke="#262626" stroke-linecap="butt" stroke-width="0.5" stroke-opacity="0.15"/>
   <polyline stroke-linejoin="miter" points="54.4343,169.808 378.946,169.808" fill="none" stroke-dasharray="16,0" stroke="#262626" stroke-linecap="butt" stroke-width="0.5" stroke-opacity="0.15"/>
   <polyline stroke-linejoin="miter" points="54.4343,133.244 378.946,133.244" fill="none" stroke-dasharray="16,0" stroke="#262626" stroke-linecap="butt" stroke-width="0.5" stroke-opacity="0.15"/>
   <polyline stroke-linejoin="miter" points="54.4343,96.6807 378.946,96.6807" fill="none" stroke-dasharray="16,0" stroke="#262626" stroke-linecap="butt" stroke-width="0.5" stroke-opacity="0.15"/>
   <polyline stroke-linejoin="miter" points="54.4343,60.117 378.946,60.117" fill="none" stroke-dasharray="16,0" stroke="#262626" stroke-linecap="butt" stroke-width="0.5" stroke-opacity="0.15"/>
   <polyline stroke-linejoin="miter" points="54.4343,23.5533 378.946,23.5533" fill="none" stroke-dasharray="16,0" stroke="#262626" stroke-linecap="butt" stroke-width="0.5" stroke-opacity="0.15"/>
   <polyline stroke-linejoin="miter" points="54.4343,279.499 57.6745,279.499" fill="none" stroke="#262626" stroke-linecap="butt" stroke-width="0.5"/>
   <polyline stroke-linejoin="miter" points="378.946,279.499 375.706,279.499" fill="none" stroke="#262626" stroke-linecap="butt" stroke-width="0.5"/>
   <polyline stroke-linejoin="miter" points="54.4343,242.935 57.6745,242.935" fill="none" stroke="#262626" stroke-linecap="butt" stroke-width="0.5"/>
   <polyline stroke-linejoin="miter" points="378.946,242.935 375.706,242.935" fill="none" stroke="#262626" stroke-linecap="butt" stroke-width="0.5"/>
   <polyline stroke-linejoin="miter" points="54.4343,206.372 57.6745,206.372" fill="none" stroke="#262626" stroke-linecap="butt" stroke-width="0.5"/>
   <polyline stroke-linejoin="miter" points="378.946,206.372 375.706,206.372" fill="none" stroke="#262626" stroke-linecap="butt" stroke-width="0.5"/>
   <polyline stroke-linejoin="miter" points="54.4343,169.808 57.6745,169.808" fill="none" stroke="#262626" stroke-linecap="butt" stroke-width="0.5"/>
   <polyline stroke-linejoin="miter" points="378.946,169.808 375.706,169.808" fill="none" stroke="#262626" stroke-linecap="butt" stroke-width="0.5"/>
   <polyline stroke-linejoin="miter" points="54.4343,133.244 57.6745,133.244" fill="none" stroke="#262626" stroke-linecap="butt" stroke-width="0.5"/>
   <polyline stroke-linejoin="miter" points="378.946,133.244 375.706,133.244" fill="none" stroke="#262626" stroke-linecap="butt" stroke-width="0.5"/>
   <polyline stroke-linejoin="miter" points="54.4343,96.6807 57.6745,96.6807" fill="none" stroke="#262626" stroke-linecap="butt" stroke-width="0.5"/>
   <polyline stroke-linejoin="miter" points="378.946,96.6807 375.706,96.6807" fill="none" stroke="#262626" stroke-linecap="butt" stroke-width="0.5"/>
   <polyline stroke-linejoin="miter" points="54.4343,60.117 57.6745,60.117" fill="none" stroke="#262626" stroke-linecap="butt" stroke-width="0.5"/>
   <polyline stroke-linejoin="miter" points="378.946,60.117 375.706,60.117" fill="none" stroke="#262626" stroke-linecap="butt" stroke-width="0.5"/>
   <polyline stroke-linejoin="miter" points="54.4343,23.5533 57.6745,23.5533" fill="none" stroke="#262626" stroke-linecap="butt" stroke-width="0.5"/>
   <polyline stroke-linejoin="miter" points="378.946,23.5533 375.706,23.5533" fill="none" stroke="#262626" stroke-linecap="butt" stroke-width="0.5"/>
   <g font-family="FreeSans" font-size="10" xml:space="preserve" font-weight="normal" font-style="normal" transform="translate(40.4418,283.499) rotate(-0,9,-4)">
    <text x="0 3 " fill="rgb(38,38,38)" y="-0">-6</text>
   </g>
   <g font-family="FreeSans" font-size="10" xml:space="preserve" font-weight="normal" font-style="normal" transform="translate(40.4418,246.935) rotate(-0,9,-4)">
    <text x="0 3 " fill="rgb(38,38,38)" y="-0">-5</text>
   </g>
   <g font-family="FreeSans" font-size="10" xml:space="preserve" font-weight="normal" font-style="normal" transform="translate(40.4418,210.372) rotate(-0,9,-4)">
    <text x="0 3 " fill="rgb(38,38,38)" y="-0">-4</text>
   </g>
   <g font-family="FreeSans" font-size="10" xml:space="preserve" font-weight="normal" font-style="normal" transform="translate(40.4418,173.808) rotate(-0,9,-4)">
    <text x="0 3 " fill="rgb(38,38,38)" y="-0">-3</text>
   </g>
   <g font-family="FreeSans" font-size="10" xml:space="preserve" font-weight="normal" font-style="normal" transform="translate(40.4418,137.244) rotate(-0,9,-4)">
    <text x="0 3 " fill="rgb(38,38,38)" y="-0">-2</text>
   </g>
   <g font-family="FreeSans" font-size="10" xml:space="preserve" font-weight="normal" font-style="normal" transform="translate(40.4418,100.681) rotate(-0,9,-4)">
    <text x="0 3 " fill="rgb(38,38,38)" y="-0">-1</text>
   </g>
   <g font-family="FreeSans" font-size="10" xml:space="preserve" font-weight="normal" font-style="normal" transform="translate(43.4418,64.117) rotate(-0,6,-4)">
    <text x="0 " fill="rgb(38,38,38)" y="-0">0</text>
   </g>
   <g font-family="FreeSans" font-size="10" xml:space="preserve" font-weight="normal" font-style="normal" transform="translate(43.4418,27.5533) rotate(-0,6,-4)">
    <text x="0 " fill="rgb(38,38,38)" y="-0">1</text>
   </g>
   <polyline stroke-linejoin="miter" points="54.4343,279.499 378.946,279.499" fill="none" stroke-dasharray="16,0" stroke="#262626" stroke-linecap="square" stroke-width="0.5"/>
   <polyline stroke-linejoin="miter" points="54.4343,23.5533 378.946,23.5533" fill="none" stroke-dasharray="16,0" stroke="#262626" stroke-linecap="square" stroke-width="0.5"/>
   <polyline stroke-linejoin="miter" points="54.4343,279.499 54.4343,23.5533" fill="none" stroke-dasharray="16,0" stroke="#262626" stroke-linecap="square" stroke-width="0.5"/>
   <polyline stroke-linejoin="miter" points="378.946,279.499 378.946,23.5533" fill="none" stroke-dasharray="16,0" stroke="#262626" stroke-linecap="square" stroke-width="0.5"/>
   <g font-family="FreeSans" font-size="11" xml:space="preserve" font-weight="normal" font-style="normal" transform="translate(193.19,311.998) rotate(-0,23.5,-12)">
    <text x="0 7 13 22 28 34 38 43 " fill="rgb(38,38,38)" y="-3">Tempo(s)</text>
   </g>
   <g font-family="FreeSans" font-size="11" xml:space="preserve" font-weight="normal" font-style="normal" transform="translate(9.9418,151.526) rotate(-90,25.5,0)">
    <text x="0 7 13 19 24 30 36 40 47 " fill="rgb(38,38,38)" y="-3">Tensão(V)</text>
   </g>
   <polyline stroke-linejoin="round" points="54.4343,251.736 54.5641,248.399 54.6939,245.096 54.8237,241.829 54.9535,238.598 55.0833,235.403 55.2131,232.244 55.3429,229.121 55.4727,226.034 55.6025,222.983 55.7323,219.968 55.8621,216.99 55.9919,214.047 56.1217,211.139 56.2516,208.267 56.3814,205.431 56.5112,202.629 56.641,199.862 56.7708,197.13 56.9006,194.432 57.0304,191.768 57.1602,189.138 57.29,186.541 57.4198,183.978 57.5496,181.447 57.6794,178.95 57.8092,176.485 57.939,174.052 58.0688,171.651 58.1986,169.282 58.3284,166.944 58.4582,164.637 58.588,162.361 58.7178,160.115 58.8476,157.9 58.9775,155.715 59.1073,153.559 59.2371,151.434 59.3669,149.337 59.4967,147.269 59.6265,145.23 59.7563,143.219 59.8861,141.236 60.0159,139.281 60.1457,137.354 60.2755,135.454 60.4053,133.581 60.5351,131.734 60.6649,129.915 60.7947,128.121 60.9245,126.354 61.0543,124.612 61.1841,122.896 61.3139,121.205 61.4438,119.539 61.5736,117.897 61.7034,116.28 61.8332,114.688 61.963,113.119 62.0928,111.574 62.2226,110.052 62.3524,108.554 62.4822,107.079 62.612,105.626 62.7418,104.196 62.8716,102.789 63.0014,101.403 63.1312,100.039 63.261,98.6965 63.3908,97.3754 63.5206,96.0755 63.6504,94.7964 63.7802,93.5379 63.91,92.2998 64.0398,91.082 64.1696,89.884 64.2995,88.7059 64.4293,87.5472 64.5591,86.4078 64.6889,85.2876 64.8187,84.1861 64.9485,83.1033 65.0783,82.039 65.2081,80.9929 65.3379,79.9648 65.4677,78.9545 65.5975,77.9617 65.7273,76.9864 65.8571,76.0283 65.9869,75.0871 66.1167,74.1627 66.2465,73.2549 66.3763,72.3635 66.5061,71.4883 66.6359,70.6291 66.7658,69.7856 66.8956,68.9578 67.0254,68.1454 67.1552,67.3482 67.285,66.5661 67.4148,65.7988 67.5446,65.0462 67.6744,64.308 67.8042,63.5842 67.934,62.8745 68.0638,62.1787 68.1936,61.4967 68.3234,60.8284 68.4532,60.1734 68.583,59.5317 68.7128,58.903 68.8426,58.2873 68.9724,57.6843 69.1022,57.0938 69.232,56.5158 69.3618,55.95 69.4916,55.3963 69.6215,54.8546 69.7513,54.3245 69.8811,53.8061 70.0109,53.2992 70.1407,52.8035 70.2705,52.3189 70.4003,51.8454 70.5301,51.3827 70.6599,50.9307 70.7897,50.4892 70.9195,50.0581 71.0493,49.6372 71.1791,49.2265 71.3089,48.8257 71.4387,48.4348 71.5685,48.0535 71.6983,47.6817 71.8281,47.3194 71.9579,46.9663 72.0878,46.6224 72.2175,46.2875 72.3474,45.9615 72.4772,45.6441 72.607,45.3354 72.7368,45.0352 72.8666,44.7434 72.9964,44.4597 73.1262,44.1842 73.256,43.9167 73.3858,43.657 73.5156,43.4051 73.6454,43.1609 73.7752,42.9241 73.905,42.6947 74.0348,42.4726 74.1646,42.2576 74.2944,42.0497 74.4242,41.8488 74.554,41.6547 74.6838,41.4673 74.8137,41.2865 74.9435,41.1122 75.0733,40.9443 75.2031,40.7827 75.3329,40.6274 75.4627,40.4781 75.5925,40.3348 75.7223,40.1974 75.8521,40.0658 75.9819,39.9398 76.1117,39.8195 76.2415,39.7047 76.3713,39.5953 76.5011,39.4912 76.6309,39.3924 76.7607,39.2986 76.8905,39.21 77.0203,39.1263 77.1501,39.0474 77.2799,38.9733 77.4097,38.904 77.5395,38.8392 77.6693,38.779 77.7992,38.7232 77.929,38.6717 78.0588,38.6246 78.1886,38.5817 78.3184,38.5428 78.4482,38.5081 78.578,38.4773 78.7078,38.4504 78.8376,38.4273 78.9674,38.4079 79.0972,38.3923 79.227,38.3802 79.3568,38.3717 79.4866,38.3666 79.6164,38.3649 79.7462,38.3665 79.876,38.3714 80.0058,38.3795 80.1357,38.3907 80.2655,38.405 80.3953,38.4222 80.5251,38.4424 80.6549,38.4654 80.7847,38.4913 80.9145,38.5199 81.0443,38.5511 81.1741,38.5851 81.3039,38.6215 81.4337,38.6605 81.5635,38.7019 81.6933,38.7458 81.8231,38.7919 81.9529,38.8404 82.0827,38.8911 82.2125,38.9439 82.3423,38.9989 82.4721,39.056 82.6019,39.1151 82.7317,39.1762 82.8615,39.2392 82.9914,39.304 83.1212,39.3708 83.251,39.4393 83.3808,39.5095 83.5106,39.5814 83.6404,39.655 83.7702,39.7301 83.9,39.8069 84.0298,39.8851 84.1596,39.9648 84.2894,40.0459 84.4192,40.1284 84.549,40.2123 84.6788,40.2975 84.8086,40.3839 84.9384,40.4716 85.0682,40.5605 85.198,40.6505 85.3278,40.7416 85.4576,40.8338 85.5874,40.9271 85.7172,41.0213 85.8471,41.1166 85.9769,41.2128 86.1067,41.3098 86.2365,41.4078 86.3663,41.5066 86.4961,41.6062 86.6259,41.7066 86.7557,41.8077 86.8855,41.9095 87.0153,42.0121 87.1451,42.1152 87.2749,42.219 87.4047,42.3234 87.5345,42.4284 87.6643,42.5339 87.7941,42.64 87.9239,42.7465 88.0537,42.8535 88.1835,42.9609 88.3134,43.0687 88.4432,43.1769 88.573,43.2855 88.7028,43.3944 88.8326,43.5037 88.9624,43.6132 89.0922,43.723 89.222,43.8331 89.3518,43.9433 89.4816,44.0538 89.6114,44.1645 89.7412,44.2753 89.871,44.3863 90.0008,44.4974 90.1306,44.6086 90.2604,44.7199 90.3902,44.8312 90.52,44.9426 90.6498,45.054 90.7796,45.1655 90.9094,45.2769 91.0393,45.3883 91.1691,45.4997 91.2989,45.6111 91.4287,45.7223 91.5585,45.8335 91.6883,45.9445 91.8181,46.0555 91.9479,46.1663 92.0777,46.277 92.2075,46.3875 92.3373,46.4979 92.4671,46.6081 92.5969,46.718 92.7267,46.8278 92.8565,46.9373 92.9863,47.0466 93.1161,47.1557 93.2459,47.2645 93.3757,47.373 93.5055,47.4812 93.6354,47.5892 93.7652,47.6969 93.895,47.8042 94.0248,47.9112 94.1546,48.0179 94.2844,48.1242 94.4142,48.2303 94.544,48.3359 94.6738,48.4411 94.8036,48.5461 94.9334,48.6505 95.0632,48.7546 95.193,48.8584 95.3228,48.9617 95.4526,49.0645 95.5824,49.167 95.7122,49.269 95.842,49.3706 95.9718,49.4718 96.1016,49.5725 96.2314,49.6727 96.3613,49.7725 96.4911,49.8718 96.6209,49.9707 96.7507,50.069 96.8805,50.1669 97.0103,50.2643 97.1401,50.3612 97.2699,50.4576 97.3997,50.5535 97.5295,50.6489 97.6593,50.7437 97.7891,50.8381 97.9189,50.9319 98.0487,51.0252 98.1785,51.118 98.3083,51.2103 98.4381,51.302 98.5679,51.3932 98.6977,51.4838 98.8275,51.5739 98.9573,51.6635 99.0872,51.7525 99.217,51.8409 99.3468,51.9289 99.4766,52.0162 99.6064,52.103 99.7362,52.1892 99.866,52.2749 99.9958,52.36 100.126,52.4445 100.255,52.5285 100.385,52.6119 100.515,52.6948 100.645,52.7771 100.775,52.8588 100.904,52.9399 101.034,53.0205 101.164,53.1005 101.294,53.1799 101.424,53.2588 101.553,53.337 101.683,53.4147 101.813,53.4919 101.943,53.5684 102.073,53.6444 102.202,53.7198 102.332,53.7946 102.462,53.8689 102.592,53.9426 102.722,54.0157 102.851,54.0882 102.981,54.1602 103.111,54.2316 103.241,54.3024 103.371,54.3727 103.501,54.4424 103.63,54.5115 103.76,54.58 103.89,54.648 104.02,54.7155 104.15,54.7823 104.279,54.8486 104.409,54.9144 104.539,54.9796 104.669,55.0442 104.799,55.1082 104.928,55.1718 105.058,55.2347 105.188,55.2971 105.318,55.359 105.448,55.4203 105.577,55.481 105.707,55.5413 105.837,55.6009 105.967,55.6601 106.097,55.7187 106.226,55.7767 106.356,55.8342 106.486,55.8912 106.616,55.9477 106.746,56.0036 106.875,56.059 107.005,56.1139 107.135,56.1683 107.265,56.2221 107.395,56.2754 107.524,56.3282 107.654,56.3806 107.784,56.4323 107.914,56.4836 108.044,56.5344 108.173,56.5847 108.303,56.6344 108.433,56.6837 108.563,56.7325 108.693,56.7808 108.823,56.8286 108.952,56.8759 109.082,56.9227 109.212,56.9691 109.342,57.015 109.472,57.0603 109.601,57.1053 109.731,57.1497 109.861,57.1937 109.991,57.2372 110.121,57.2803 110.25,57.3229 110.38,57.365 110.51,57.4067 110.64,57.448 110.77,57.4887 110.899,57.5291 111.029,57.569 111.159,57.6085 111.289,57.6475 111.419,57.6861 111.548,57.7242 111.678,57.762 111.808,57.7993 111.938,57.8362 112.068,57.8727 112.197,57.9087 112.327,57.9444 112.457,57.9796 112.587,58.0144 112.717,58.0489 112.846,58.0829 112.976,58.1165 113.106,58.1497 113.236,58.1826 113.366,58.215 113.495,58.2471 113.625,58.2788 113.755,58.3101 113.885,58.341 114.015,58.3715 114.145,58.4017 114.274,58.4315 114.404,58.461 114.534,58.4901 114.664,58.5188 114.794,58.5471 114.923,58.5751 115.053,58.6028 115.183,58.6301 115.313,58.6571 115.443,58.6837 115.572,58.71 115.702,58.7359 115.832,58.7616 115.962,58.7868 116.092,58.8118 116.221,58.8364 116.351,58.8607 116.481,58.8847 116.611,58.9084 116.741,58.9318 116.87,58.9548 117,58.9776 117.13,59 117.26,59.0221 117.39,59.044 117.519,59.0655 117.649,59.0867 117.779,59.1077 117.909,59.1284 118.039,59.1487 118.168,59.1688 118.298,59.1886 118.428,59.2082 118.558,59.2274 118.688,59.2464 118.817,59.2651 118.947,59.2836 119.077,59.3018 119.207,59.3197 119.337,59.3374 119.467,59.3548 119.596,59.3719 119.726,59.3888 119.856,59.4055 119.986,59.4219 120.116,59.438 120.245,59.4539 120.375,59.4696 120.505,59.4851 120.635,59.5003 120.765,59.5152 120.894,59.53 121.024,59.5445 121.154,59.5588 121.284,59.5729 121.414,59.5867 121.543,59.6004 121.673,59.6138 121.803,59.627 121.933,59.64 122.063,59.6528 122.192,59.6654 122.322,59.6777 122.452,59.6899 122.582,59.7019 122.712,59.7137 122.841,59.7253 122.971,59.7366 123.101,59.7478 123.231,59.7589 123.361,59.7697 123.49,59.7803 123.62,59.7908 123.75,59.8011 123.88,59.8112 124.01,59.8211 124.139,59.8308 124.269,59.8404 124.399,59.8498 124.529,59.8591 124.659,59.8682 124.789,59.8771 124.918,59.8858 125.048,59.8944 125.178,59.9029 125.308,59.9111 125.438,59.9193 125.567,59.9272 125.697,59.9351 125.827,59.9427 125.957,59.9503 126.087,59.9577 126.216,59.9649 126.346,59.972 126.476,59.979 126.606,59.9858 126.736,59.9925 126.865,59.999 126.995,60.0054 127.125,60.0117 127.255,60.0179 127.385,60.0239 127.514,60.0298 127.644,60.0356 127.774,60.0413 127.904,60.0468 128.034,60.0523 128.163,60.0576 128.293,60.0628 128.423,60.0678 128.553,60.0728 128.683,60.0776 128.812,60.0824 128.942,60.087 129.072,60.0915 129.202,60.096 129.332,60.1003 129.461,60.1045 129.591,60.1086 129.721,60.1126 129.851,60.1165 129.981,60.1204 130.111,60.1241 130.24,60.1277 130.37,60.1313 130.5,60.1347 130.63,60.1381 130.76,60.1413 130.889,60.1445 131.019,60.1476 131.149,60.1506 131.279,60.1535 131.409,60.1564 131.538,60.1591 131.668,60.1618 131.798,60.1644 131.928,60.167 132.058,60.1694 132.187,60.1718 132.317,60.1741 132.447,60.1763 132.577,60.1785 132.707,60.1806 132.836,60.1826 132.966,60.1845 133.096,60.1864 133.226,60.1882 133.356,60.19 133.485,60.1917 133.615,60.1933 133.745,60.1949 133.875,60.1964 134.005,60.1978 134.134,60.1992 134.264,60.2005 134.394,60.2018 134.524,60.203 134.654,60.2041 134.783,60.2052 134.913,60.2063 135.043,60.2073 135.173,60.2082 135.303,60.2091 135.433,60.21 135.562,60.2108 135.692,60.2115 135.822,60.2122 135.952,60.2129 136.082,60.2135 136.211,60.2141 136.341,60.2146 136.471,60.2151 136.601,60.2155 136.731,60.2159 136.86,60.2162 136.99,60.2166 137.12,60.2168 137.25,60.2171 137.38,60.2173 137.509,60.2175 137.639,60.2176 137.769,60.2177 137.899,60.2177 138.029,60.2178 138.158,60.2178 138.288,60.2177 138.418,60.2177 138.548,60.2175 138.678,60.2174 138.807,60.2172 138.937,60.2171 139.067,60.2168 139.197,60.2166 139.327,60.2163 139.456,60.216 139.586,60.2157 139.716,60.2153 139.846,60.2149 139.976,60.2145 140.105,60.2141 140.235,60.2136 140.365,60.2132 140.495,60.2127 140.625,60.2121 140.755,60.2116 140.884,60.211 141.014,60.2105 141.144,60.2099 141.274,60.2092 141.404,60.2086 141.533,60.2079 141.663,60.2073 141.793,60.2066 141.923,60.2059 142.053,60.2051 142.182,60.2044 142.312,60.2036 142.442,60.2029 142.572,60.2021 142.702,60.2013 142.831,60.2005 142.961,60.1996 143.091,60.1988 143.221,60.1979 143.351,60.1971 143.48,60.1962 143.61,60.1953 143.74,60.1944 143.87,60.1935 144,60.1925 144.129,60.1916 144.259,60.1907 144.389,60.1897 144.519,60.1887 144.649,60.1878 144.778,60.1868 144.908,60.1858 145.038,60.1848 145.168,60.1838 145.298,60.1828 145.427,60.1818 145.557,60.1808 145.687,60.1797 145.817,60.1787 145.947,60.1776 146.077,60.1766 146.206,60.1755 146.336,60.1745 146.466,60.1734 146.596,60.1723 146.726,60.1713 146.855,60.1702 146.985,60.1691 147.115,60.168 147.245,60.167 147.375,60.1659 147.504,60.1648 147.634,60.1637 147.764,60.1626 147.894,60.1615 148.024,60.1604 148.153,60.1593 148.283,60.1582 148.413,60.1571 148.543,60.156 148.673,60.1549 148.802,60.1538 148.932,60.1527 149.062,60.1516 149.192,60.1505 149.322,60.1493 149.451,60.1482 149.581,60.1471 149.711,60.146 149.841,60.1449 149.971,60.1438 150.1,60.1427 150.23,60.1416 150.36,60.1405 150.49,60.1394 150.62,60.1383 150.749,60.1372 150.879,60.1361 151.009,60.135 151.139,60.1339 151.269,60.1328 151.399,60.1318 151.528,60.1307 151.658,60.1296 151.788,60.1285 151.918,60.1274 152.048,60.1264 152.177,60.1253 152.307,60.1242 152.437,60.1232 152.567,60.1221 152.697,60.121 152.826,60.12 152.956,60.1189 153.086,60.1179 153.216,60.1169 153.346,60.1158 153.475,60.1148 153.605,60.1137 153.735,60.1127 153.865,60.1117 153.995,60.1107 154.124,60.1097 154.254,60.1087 154.384,60.1077 154.514,60.1066 154.644,60.1057 154.773,60.1047 154.903,60.1037 155.033,60.1027 155.163,60.1017 155.293,60.1007 155.422,60.0998 155.552,60.0988 155.682,60.0979 155.812,60.0969 155.942,60.0959 156.071,60.095 156.201,60.0941 156.331,60.0931 156.461,60.0922 156.591,60.0913 156.721,60.0904 156.85,60.0894 156.98,60.0885 157.11,60.0876 157.24,60.0867 157.37,60.0859 157.499,60.085 157.629,60.0841 157.759,60.0832 157.889,60.0824 158.019,60.0815 158.148,60.0806 158.278,60.0798 158.408,60.0789 158.538,60.0781 158.668,60.0773 158.797,60.0764 158.927,60.0756 159.057,60.0748 159.187,60.074 159.317,60.0732 159.446,60.0724 159.576,60.0716 159.706,60.0708 159.836,60.07 159.966,60.0692 160.095,60.0685 160.225,60.0677 160.355,60.0669 160.485,60.0662 160.615,60.0654 160.744,60.0647 160.874,60.0639 161.004,60.0632 161.134,60.0625 161.264,60.0618 161.393,60.0611 161.523,60.0603 161.653,60.0596 161.783,60.0589 161.913,60.0582 162.042,60.0576 162.172,60.0569 162.302,60.0562 162.432,60.0555 162.562,60.0549 162.692,60.0542 162.821,60.0536 162.951,60.0529 163.081,60.0523 163.211,60.0516 163.341,60.051 163.47,60.0504 163.6,60.0498 163.73,60.0491 163.86,60.0485 163.99,60.0479 164.119,60.0473 164.249,60.0467 164.379,60.0462 164.509,60.0456 164.639,60.045 164.768,60.0444 164.898,60.0439 165.028,60.0433 165.158,60.0428 165.288,60.0422 165.417,60.0417 165.547,60.0411 165.677,60.0406 165.807,60.0401 165.937,60.0395 166.066,60.039 166.196,60.0385 166.326,60.038 166.456,60.0375 166.586,60.037 166.715,60.0365 166.845,60.036 166.975,60.0355 167.105,60.035 167.235,60.0346 167.365,60.0341 167.494,60.0336 167.624,60.0332 167.754,60.0327 167.884,60.0323 168.014,60.0318 168.143,60.0314 168.273,60.0309 168.403,60.0305 168.533,60.0301 168.663,60.0297 168.792,60.0293 168.922,60.0288 169.052,60.0284 169.182,60.028 169.312,60.0276 169.441,60.0272 169.571,60.0268 169.701,60.0265 169.831,60.0261 169.961,60.0257 170.09,60.0253 170.22,60.0249 170.35,60.0246 170.48,60.0242 170.61,60.0239 170.739,60.0235 170.869,60.0232 170.999,60.0228 171.129,60.0225 171.259,60.0221 171.388,60.0218 171.518,60.0215 171.648,60.0212 171.778,60.0208 171.908,60.0205 172.037,60.0202 172.167,60.0199 172.297,60.0196 172.427,60.0193 172.557,60.019 172.687,60.0187 172.816,60.0184 172.946,60.0181 173.076,60.0178 173.206,60.0176 173.336,60.0173 173.465,60.017 173.595,60.0167 173.725,60.0165 173.855,60.0162 173.985,60.016 174.114,60.0157 174.244,60.0154 174.374,60.0152 174.504,60.0149 174.634,60.0147 174.763,60.0145 174.893,60.0142 175.023,60.014 175.153,60.0138 175.283,60.0135 175.412,60.0133 175.542,60.0131 175.672,60.0129 175.802,60.0127 175.932,60.0125 176.061,60.0122 176.191,60.012 176.321,60.0118 176.451,60.0116 176.581,60.0114 176.71,60.0112 176.84,60.011 176.97,60.0108 177.1,60.0107 177.23,60.0105 177.359,60.0103 177.489,60.0101 177.619,60.01 177.749,60.0098 177.879,60.0096 178.008,60.0094 178.138,60.0093 178.268,60.0091 178.398,60.009 178.528,60.0088 178.658,60.0086 178.787,60.0085 178.917,60.0083 179.047,60.0082 179.177,60.008 179.307,60.0079 179.436,60.0078 179.566,60.0076 179.696,60.0075 179.826,60.0073 179.956,60.0072 180.085,60.0071 180.215,60.007 180.345,60.0068 180.475,60.0067 180.605,60.0066 180.734,60.0065 180.864,60.0063 180.994,60.0062 181.124,60.0061 181.254,60.006 181.383,60.0059 181.513,60.0058 181.643,60.0057 181.773,60.0056 181.903,60.0055 182.032,60.0054 182.162,60.0053 182.292,60.0052 182.422,60.0051 182.552,60.005 182.681,60.0049 182.811,60.0048 182.941,60.0047 183.071,60.0046 183.201,60.0045 183.33,60.0044 183.46,60.0044 183.59,60.0043 183.72,60.0042 183.85,60.0041 183.98,60.004 184.109,60.004 184.239,60.0039 184.369,60.0038 184.499,60.0038 184.629,60.0037 184.758,60.0036 184.888,60.0036 185.018,60.0035 185.148,60.0034 185.278,60.0034 185.407,60.0033 185.537,60.0032 185.667,60.0032 185.797,60.0031 185.927,60.0031 186.056,60.003 186.186,60.003 186.316,60.0029 186.446,60.0029 186.576,60.0028 186.705,60.0028 186.835,60.0027 186.965,60.0027 187.095,60.0026 187.225,60.0026 187.354,60.0025 187.484,60.0025 187.614,60.0025 187.744,60.0024 187.874,60.0024 188.003,60.0023 188.133,60.0023 188.263,60.0023 188.393,60.0022 188.523,60.0022 188.653,60.0022 188.782,60.0021 188.912,60.0021 189.042,60.0021 189.172,60.002 189.302,60.002 189.431,60.002 189.561,60.002 189.691,60.0019 189.821,60.0019 189.951,60.0019 190.08,60.0018 190.21,60.0018 190.34,60.0018 190.47,60.0018 190.6,60.0018 190.729,60.0018 190.859,60.0017 190.989,60.0017 191.119,60.0017 191.249,60.0017 191.378,60.0017 191.508,60.0016 191.638,60.0016 191.768,60.0016 191.898,60.0016 192.027,60.0016 192.157,60.0016 192.287,60.0016 192.417,60.0016 192.547,60.0015 192.676,60.0015 192.806,60.0015 192.936,60.0015 193.066,60.0015 193.196,60.0015 193.325,60.0015 193.455,60.0015 193.585,60.0015 193.715,60.0015 193.845,60.0015 193.975,60.0015 194.104,60.0015 194.234,60.0015 194.364,60.0014 194.494,60.0014 194.624,60.0014 194.753,60.0014 194.883,60.0014 195.013,60.0014 195.143,60.0014 195.273,60.0014 195.402,60.0014 195.532,60.0014 195.662,60.0014 195.792,60.0014 195.922,60.0014 196.051,60.0014 196.181,60.0014 196.311,60.0014 196.441,60.0015 196.571,60.0015 196.7,60.0015 196.83,60.0015 196.96,60.0015 197.09,60.0015 197.22,60.0015 197.349,60.0015 197.479,60.0015 197.609,60.0015 197.739,60.0015 197.869,60.0015 197.998,60.0015 198.128,60.0015 198.258,60.0015 198.388,60.0015 198.518,60.0015 198.647,60.0016 198.777,60.0016 198.907,60.0016 199.037,60.0016 199.167,60.0016 199.297,60.0016 199.426,60.0016 199.556,60.0016 199.686,60.0016 199.816,60.0016 199.946,60.0016 200.075,60.0017 200.205,60.0017 200.335,60.0017 200.465,60.0017 200.595,60.0017 200.724,60.0017 200.854,60.0017 200.984,60.0017 201.114,60.0017 201.244,60.0018 201.373,60.0018 201.503,60.0018 201.633,60.0018 201.763,60.0018 201.893,60.0018 202.022,60.0018 202.152,60.0018 202.282,60.0018 202.412,60.0019 202.542,60.0019 202.671,60.0019 202.801,60.0019 202.931,60.0019 203.061,60.0019 203.191,60.0019 203.32,60.002 203.45,60.002 203.58,60.002 203.71,60.002 203.84,60.002 203.969,60.002 204.099,60.002 204.229,60.002 204.359,60.0021 204.489,60.0021 204.618,60.0021 204.748,60.0021 204.878,60.0021 205.008,60.0021 205.138,60.0021 205.268,60.0022 205.397,60.0022 205.527,60.0022 205.657,60.0022 205.787,60.0022 205.917,60.0022 206.046,60.0022 206.176,60.0023 206.306,60.0023 206.436,60.0023 206.566,60.0023 206.695,60.0023 206.825,60.0023 206.955,60.0023 207.085,60.0024 207.215,60.0024 207.344,60.0024 207.474,60.0024 207.604,60.0024 207.734,60.0024 207.864,60.0024 207.993,60.0025 208.123,60.0025 208.253,60.0025 208.383,60.0025 208.513,60.0025 208.642,60.0025 208.772,60.0025 208.902,60.0025 209.032,60.0026 209.162,60.0026 209.291,60.0026 209.421,60.0026 209.551,60.0026 209.681,60.0026 209.811,60.0027 209.94,60.0027 210.07,60.0027 210.2,60.0027 210.33,60.0027 210.46,60.0027 210.59,60.0027 210.719,60.0027 210.849,60.0028 210.979,60.0028 211.109,60.0028 211.239,60.0028 211.368,60.0028 211.498,60.0028 211.628,60.0029 211.758,60.0029 211.888,60.0029 212.017,60.0029 212.147,60.0029 212.277,60.0029 212.407,60.0029 212.537,60.0029 212.666,60.003 212.796,60.003 212.926,60.003 213.056,60.003 213.186,60.003 213.315,60.003 213.445,60.003 213.575,60.0031 213.705,60.0031 213.835,60.0031 213.964,60.0031 214.094,60.0031 214.224,60.0031 214.354,60.0031 214.484,60.0031 214.613,60.0032 214.743,60.0032 214.873,60.0032 215.003,60.0032 215.133,60.0032 215.262,60.0032 215.392,60.0032 215.522,60.0032 215.652,60.0033 215.782,60.0033 215.912,60.0033 216.041,60.0033 216.171,60.0033 216.301,60.0033 216.431,60.0033 216.561,60.0033 216.69,60.0034 216.82,60.0034 216.95,60.0034 217.08,60.0034 217.21,60.0034 217.339,60.0034 217.469,60.0034 217.599,60.0034 217.729,60.0034 217.859,60.0034 217.988,60.0035 218.118,60.0035 218.248,60.0035 218.378,60.0035 218.508,60.0035 218.637,60.0035 218.767,60.0035 218.897,60.0035 219.027,60.0036 219.157,60.0036 219.286,60.0036 219.416,60.0036 219.546,60.0036 219.676,60.0036 219.806,60.0036 219.935,60.0036 220.065,60.0036 220.195,60.0036 220.325,60.0037 220.455,60.0037 220.584,60.0037 220.714,60.0037 220.844,60.0037 220.974,60.0037 221.104,60.0037 221.234,60.0037 221.363,60.0037 221.493,60.0037 221.623,60.0038 221.753,60.0038 221.883,60.0038 222.012,60.0038 222.142,60.0038 222.272,60.0038 222.402,60.0038 222.532,60.0038 222.661,60.0038 222.791,60.0038 222.921,60.0038 223.051,60.0039 223.181,60.0039 223.31,60.0039 223.44,60.0039 223.57,60.0039 223.7,60.0039 223.83,60.0039 223.959,60.0039 224.089,60.0039 224.219,60.0039 224.349,60.004 224.479,60.004 224.608,60.004 224.738,60.004 224.868,60.004 224.998,60.004 225.128,60.004 225.257,60.004 225.387,60.004 225.517,60.004 225.647,60.004 225.777,60.004 225.906,60.004 226.036,60.0041 226.166,60.0041 226.296,60.0041 226.426,60.0041 226.556,60.0041 226.685,60.0041 226.815,60.0041 226.945,60.0041 227.075,60.0041 227.205,60.0041 227.334,60.0041 227.464,60.0041 227.594,60.0042 227.724,60.0042 227.854,60.0042 227.983,60.0042 228.113,60.0042 228.243,60.0042 228.373,60.0042 228.503,60.0042 228.632,60.0042 228.762,60.0042 228.892,60.0042 229.022,60.0042 229.152,60.0042 229.281,60.0042 229.411,60.0042 229.541,60.0042 229.671,60.0043 229.801,60.0043 229.93,60.0043 230.06,60.0043 230.19,60.0043 230.32,60.0043 230.45,60.0043 230.579,60.0043 230.709,60.0043 230.839,60.0043 230.969,60.0043 231.099,60.0043 231.228,60.0043 231.358,60.0043 231.488,60.0043 231.618,60.0043 231.748,60.0044 231.878,60.0044 232.007,60.0044 232.137,60.0044 232.267,60.0044 232.397,60.0044 232.527,60.0044 232.656,60.0044 232.786,60.0044 232.916,60.0044 233.046,60.0044 233.176,60.0044 233.305,60.0044 233.435,60.0044 233.565,60.0044 233.695,60.0044 233.825,60.0045 233.954,60.0045 234.084,60.0045 234.214,60.0045 234.344,60.0045 234.474,60.0045 234.603,60.0045 234.733,60.0045 234.863,60.0045 234.993,60.0045 235.123,60.0045 235.252,60.0045 235.382,60.0045 235.512,60.0045 235.642,60.0045 235.772,60.0045 235.901,60.0045 236.031,60.0045 236.161,60.0045 236.291,60.0045 236.421,60.0046 236.55,60.0046 236.68,60.0046 236.81,60.0046 236.94,60.0046 237.07,60.0046 237.2,60.0046 237.329,60.0046 237.459,60.0046 237.589,60.0046 237.719,60.0046 237.849,60.0046 237.978,60.0046 238.108,60.0046 238.238,60.0046 238.368,60.0046 238.498,60.0046 238.627,60.0046 238.757,60.0046 238.887,60.0046 239.017,60.0047 239.147,60.0047 239.276,60.0047 239.406,60.0047 239.536,60.0047 239.666,60.0047 239.796,60.0047 239.925,60.0047 240.055,60.0047 240.185,60.0047 240.315,60.0047 240.445,60.0047 240.574,60.0047 240.704,60.0047 240.834,60.0047 240.964,60.0047 241.094,60.0047 241.223,60.0047 241.353,60.0047 241.483,60.0047 241.613,60.0047 241.743,60.0047 241.872,60.0047 242.002,60.0047 242.132,60.0048 242.262,60.0048 242.392,60.0048 242.521,60.0048 242.651,60.0048 242.781,60.0048 242.911,60.0048 243.041,60.0048 243.171,60.0048 243.3,60.0048 243.43,60.0048 243.56,60.0048 243.69,60.0048 243.82,60.0048 243.949,60.0048 244.079,60.0048 244.209,60.0048 244.339,60.0048 244.469,60.0048 244.598,60.0048 244.728,60.0048 244.858,60.0048 244.988,60.0048 245.118,60.0049 245.247,60.0049 245.377,60.0049 245.507,60.0049 245.637,60.0049 245.767,60.0049 245.896,60.0049 246.026,60.0049 246.156,60.0049 246.286,60.0049 246.416,60.0049 246.545,60.0049 246.675,60.0049 246.805,60.0049 246.935,60.0049 247.065,60.0049 247.194,60.0049 247.324,60.0049 247.454,60.0049 247.584,60.0049 247.714,60.0049 247.844,60.0049 247.973,60.0049 248.103,60.0049 248.233,60.0049 248.363,60.0049 248.493,60.0049 248.622,60.0049 248.752,60.0049 248.882,60.0049 249.012,60.0049 249.142,60.005 249.271,60.005 249.401,60.005 249.531,60.005 249.661,60.005 249.791,60.005 249.92,60.005 250.05,60.005 250.18,60.005 250.31,60.005 250.44,60.005 250.569,60.005 250.699,60.005 250.829,60.005 250.959,60.005 251.089,60.005 251.218,60.005 251.348,60.005 251.478,60.005 251.608,60.005 251.738,60.005 251.867,60.005 251.997,60.005 252.127,60.005 252.257,60.005 252.387,60.0051 252.516,60.0051 252.646,60.0051 252.776,60.0051 252.906,60.0051 253.036,60.0051 253.165,60.0051 253.295,60.0051 253.425,60.0051 253.555,60.0051 253.685,60.0051 253.815,60.0051 253.944,60.0051 254.074,60.0051 254.204,60.0051 254.334,60.0051 254.464,60.0051 254.593,60.0051 254.723,60.0051 254.853,60.0051 254.983,60.0051 255.113,60.0051 255.242,60.0051 255.372,60.0051 255.502,60.0051 255.632,60.0051 255.762,60.0051 255.891,60.0051 256.021,60.0051 256.151,60.0051 256.281,60.0051 256.411,60.0051 256.54,60.0051 256.67,60.0051 256.8,60.0052 256.93,60.0052 257.06,60.0052 257.189,60.0052 257.319,60.0052 257.449,60.0052 257.579,60.0052 257.709,60.0052 257.839,60.0052 257.968,60.0052 258.098,60.0052 258.228,60.0052 258.358,60.0052 258.488,60.0052 258.617,60.0052 258.747,60.0052 258.877,60.0052 259.007,60.0052 259.137,60.0052 259.266,60.0052 259.396,60.0052 259.526,60.0052 259.656,60.0052 259.786,60.0052 259.915,60.0052 260.045,60.0052 260.175,60.0052 260.305,60.0052 260.435,60.0052 260.564,60.0052 260.694,60.0052 260.824,60.0052 260.954,60.0052 261.084,60.0053 261.213,60.0053 261.343,60.0053 261.473,60.0053 261.603,60.0053 261.733,60.0053 261.862,60.0053 261.992,60.0053 262.122,60.0053 262.252,60.0053 262.382,60.0053 262.511,60.0053 262.641,60.0053 262.771,60.0053 262.901,60.0053 263.031,60.0053 263.16,60.0053 263.29,60.0053 263.42,60.0053 263.55,60.0053 263.68,60.0053 263.81,60.0053 263.939,60.0053 264.069,60.0053 264.199,60.0053 264.329,60.0053 264.459,60.0053 264.588,60.0053 264.718,60.0053 264.848,60.0053 264.978,60.0054 265.108,60.0054 265.237,60.0054 265.367,60.0054 265.497,60.0054 265.627,60.0054 265.757,60.0054 265.886,60.0054 266.016,60.0054 266.146,60.0054 266.276,60.0054 266.406,60.0054 266.535,60.0054 266.665,60.0054 266.795,60.0054 266.925,60.0054 267.055,60.0054 267.184,60.0054 267.314,60.0054 267.444,60.0054 267.574,60.0054 267.704,60.0054 267.833,60.0054 267.963,60.0054 268.093,60.0054 268.223,60.0054 268.353,60.0054 268.482,60.0054 268.612,60.0054 268.742,60.0054 268.872,60.0054 269.002,60.0054 269.132,60.0055 269.261,60.0055 269.391,60.0055 269.521,60.0055 269.651,60.0055 269.781,60.0055 269.91,60.0055 270.04,60.0055 270.17,60.0055 270.3,60.0055 270.43,60.0055 270.559,60.0055 270.689,60.0055 270.819,60.0055 270.949,60.0055 271.079,60.0055 271.208,60.0055 271.338,60.0055 271.468,60.0055 271.598,60.0055 271.728,60.0055 271.857,60.0055 271.987,60.0055 272.117,60.0055 272.247,60.0055 272.377,60.0055 272.506,60.0055 272.636,60.0055 272.766,60.0055 272.896,60.0055 273.026,60.0056 273.155,60.0056 273.285,60.0056 273.415,60.0056 273.545,60.0056 273.675,60.0056 273.804,60.0056 273.934,60.0056 274.064,60.0056 274.194,60.0056 274.324,60.0056 274.453,60.0056 274.583,60.0056 274.713,60.0056 274.843,60.0056 274.973,60.0056 275.103,60.0056 275.232,60.0056 275.362,60.0056 275.492,60.0056 275.622,60.0056 275.752,60.0056 275.881,60.0056 276.011,60.0056 276.141,60.0056 276.271,60.0056 276.401,60.0056 276.53,60.0056 276.66,60.0056 276.79,60.0056 276.92,60.0056 277.05,60.0056 277.179,60.0056 277.309,60.0056 277.439,60.0056 277.569,60.0056 277.699,60.0057 277.828,60.0057 277.958,60.0057 278.088,60.0057 278.218,60.0057 278.348,60.0057 278.477,60.0057 278.607,60.0057 278.737,60.0057 278.867,60.0057 278.997,60.0057 279.126,60.0057 279.256,60.0057 279.386,60.0057 279.516,60.0057 279.646,60.0057 279.775,60.0057 279.905,60.0057 280.035,60.0057 280.165,60.0057 280.295,60.0057 280.425,60.0057 280.554,60.0057 280.684,60.0057 280.814,60.0057 280.944,60.0057 281.074,60.0058 281.203,60.0058 281.333,60.0058 281.463,60.0058 281.593,60.0058 281.723,60.0058 281.852,60.0058 281.982,60.0058 282.112,60.0058 282.242,60.0058 282.372,60.0058 282.501,60.0058 282.631,60.0058 282.761,60.0058 282.891,60.0058 283.021,60.0058 283.15,60.0058 283.28,60.0058 283.41,60.0058 283.54,60.0058 283.67,60.0058 283.799,60.0058 283.929,60.0058 284.059,60.0058 284.189,60.0058 284.319,60.0058 284.448,60.0058 284.578,60.0058 284.708,60.0058 284.838,60.0058 284.968,60.0058 285.097,60.0058 285.227,60.0058 285.357,60.0058 285.487,60.0058 285.617,60.0059 285.747,60.0059 285.876,60.0059 286.006,60.0059 286.136,60.0059 286.266,60.0059 286.396,60.0059 286.525,60.0059 286.655,60.0059 286.785,60.0059 286.915,60.0059 287.045,60.0059 287.174,60.0059 287.304,60.0059 287.434,60.0059 287.564,60.0059 287.694,60.0059 287.823,60.0059 287.953,60.0059 288.083,60.0059 288.213,60.0059 288.343,60.0059 288.472,60.0059 288.602,60.0059 288.732,60.0059 288.862,60.0059 288.992,60.0059 289.121,60.0059 289.251,60.0059 289.381,60.0059 289.511,60.006 289.641,60.006 289.77,60.006 289.9,60.006 290.03,60.006 290.16,60.006 290.29,60.006 290.419,60.006 290.549,60.006 290.679,60.006 290.809,60.006 290.939,60.006 291.069,60.006 291.198,60.006 291.328,60.006 291.458,60.006 291.588,60.006 291.718,60.006 291.847,60.006 291.977,60.006 292.107,60.006 292.237,60.006 292.367,60.006 292.496,60.006 292.626,60.006 292.756,60.006 292.886,60.006 293.016,60.006 293.145,60.006 293.275,60.006 293.405,60.006 293.535,60.006 293.665,60.0061 293.794,60.0061 293.924,60.0061 294.054,60.0061 294.184,60.0061 294.314,60.0061 294.443,60.0061 294.573,60.0061 294.703,60.0061 294.833,60.0061 294.963,60.0061 295.092,60.0061 295.222,60.0061 295.352,60.0061 295.482,60.0061 295.612,60.0061 295.741,60.0061 295.871,60.0061 296.001,60.0061 296.131,60.0061 296.261,60.0061 296.391,60.0061 296.52,60.0061 296.65,60.0061 296.78,60.0061 296.91,60.0061 297.04,60.0061 297.169,60.0061 297.299,60.0061 297.429,60.0061 297.559,60.0061 297.689,60.0061 297.818,60.0062 297.948,60.0062 298.078,60.0062 298.208,60.0062 298.338,60.0062 298.467,60.0062 298.597,60.0062 298.727,60.0062 298.857,60.0062 298.987,60.0062 299.116,60.0062 299.246,60.0062 299.376,60.0062 299.506,60.0062 299.636,60.0062 299.765,60.0062 299.895,60.0062 300.025,60.0062 300.155,60.0062 300.285,60.0062 300.414,60.0062 300.544,60.0062 300.674,60.0062 300.804,60.0062 300.934,60.0062 301.064,60.0062 301.193,60.0062 301.323,60.0062 301.453,60.0062 301.583,60.0063 301.713,60.0063 301.842,60.0063 301.972,60.0063 302.102,60.0063 302.232,60.0063 302.362,60.0063 302.491,60.0063 302.621,60.0063 302.751,60.0063 302.881,60.0063 303.011,60.0063 303.14,60.0063 303.27,60.0063 303.4,60.0063 303.53,60.0063 303.66,60.0063 303.789,60.0063 303.919,60.0063 304.049,60.0063 304.179,60.0063 304.309,60.0063 304.438,60.0063 304.568,60.0063 304.698,60.0063 304.828,60.0063 304.958,60.0063 305.087,60.0063 305.217,60.0063 305.347,60.0063 305.477,60.0063 305.607,60.0063 305.736,60.0063 305.866,60.0063 305.996,60.0063 306.126,60.0064 306.256,60.0064 306.385,60.0064 306.515,60.0064 306.645,60.0064 306.775,60.0064 306.905,60.0064 307.035,60.0064 307.164,60.0064 307.294,60.0064 307.424,60.0064 307.554,60.0064 307.684,60.0064 307.813,60.0064 307.943,60.0064 308.073,60.0064 308.203,60.0064 308.333,60.0064 308.462,60.0064 308.592,60.0064 308.722,60.0064 308.852,60.0064 308.982,60.0064 309.111,60.0064 309.241,60.0064 309.371,60.0064 309.501,60.0065 309.631,60.0065 309.76,60.0065 309.89,60.0065 310.02,60.0065 310.15,60.0065 310.28,60.0065 310.409,60.0065 310.539,60.0065 310.669,60.0065 310.799,60.0065 310.929,60.0065 311.058,60.0065 311.188,60.0065 311.318,60.0065 311.448,60.0065 311.578,60.0065 311.707,60.0065 311.837,60.0065 311.967,60.0065 312.097,60.0065 312.227,60.0065 312.357,60.0065 312.486,60.0065 312.616,60.0065 312.746,60.0065 312.876,60.0065 313.006,60.0065 313.135,60.0065 313.265,60.0065 313.395,60.0065 313.525,60.0065 313.655,60.0065 313.784,60.0065 313.914,60.0065 314.044,60.0066 314.174,60.0066 314.304,60.0066 314.433,60.0066 314.563,60.0066 314.693,60.0066 314.823,60.0066 314.953,60.0066 315.082,60.0066 315.212,60.0066 315.342,60.0066 315.472,60.0066 315.602,60.0066 315.731,60.0066 315.861,60.0066 315.991,60.0066 316.121,60.0066 316.251,60.0066 316.38,60.0066 316.51,60.0066 316.64,60.0066 316.77,60.0066 316.9,60.0066 317.029,60.0066 317.159,60.0066 317.289,60.0066 317.419,60.0066 317.549,60.0066 317.679,60.0066 317.808,60.0067 317.938,60.0067 318.068,60.0067 318.198,60.0067 318.328,60.0067 318.457,60.0067 318.587,60.0067 318.717,60.0067 318.847,60.0067 318.977,60.0067 319.106,60.0067 319.236,60.0067 319.366,60.0067 319.496,60.0067 319.626,60.0067 319.755,60.0067 319.885,60.0067 320.015,60.0067 320.145,60.0067 320.275,60.0067 320.404,60.0067 320.534,60.0067 320.664,60.0067 320.794,60.0067 320.924,60.0067 321.053,60.0067 321.183,60.0067 321.313,60.0067 321.443,60.0067 321.573,60.0067 321.702,60.0067 321.832,60.0067 321.962,60.0068 322.092,60.0068 322.222,60.0068 322.351,60.0068 322.481,60.0068 322.611,60.0068 322.741,60.0068 322.871,60.0068 323,60.0068 323.13,60.0068 323.26,60.0068 323.39,60.0068 323.52,60.0068 323.65,60.0068 323.779,60.0068 323.909,60.0068 324.039,60.0068 324.169,60.0068 324.299,60.0068 324.428,60.0068 324.558,60.0068 324.688,60.0068 324.818,60.0068 324.948,60.0068 325.077,60.0068 325.207,60.0068 325.337,60.0068 325.467,60.0068 325.597,60.0068 325.726,60.0069 325.856,60.0069 325.986,60.0069 326.116,60.0069 326.246,60.0069 326.375,60.0069 326.505,60.0069 326.635,60.0069 326.765,60.0069 326.895,60.0069 327.024,60.0069 327.154,60.0069 327.284,60.0069 327.414,60.0069 327.544,60.0069 327.673,60.0069 327.803,60.0069 327.933,60.0069 328.063,60.0069 328.193,60.0069 328.322,60.0069 328.452,60.0069 328.582,60.0069 328.712,60.0069 328.842,60.0069 328.972,60.0069 329.101,60.0069 329.231,60.0069 329.361,60.0069 329.491,60.0069 329.621,60.0069 329.75,60.0069 329.88,60.007 330.01,60.007 330.14,60.007 330.27,60.007 330.399,60.007 330.529,60.007 330.659,60.007 330.789,60.007 330.919,60.007 331.048,60.007 331.178,60.007 331.308,60.007 331.438,60.007 331.568,60.007 331.697,60.007 331.827,60.007 331.957,60.007 332.087,60.007 332.217,60.007 332.346,60.007 332.476,60.007 332.606,60.007 332.736,60.007 332.866,60.007 332.995,60.007 333.125,60.007 333.255,60.007 333.385,60.007 333.515,60.007 333.645,60.007 333.774,60.007 333.904,60.007 334.034,60.007 334.164,60.007 334.294,60.007 334.423,60.007 334.553,60.0071 334.683,60.0071 334.813,60.0071 334.943,60.0071 335.072,60.0071 335.202,60.0071 335.332,60.0071 335.462,60.0071 335.592,60.0071 335.721,60.0071 335.851,60.0071 335.981,60.0071 336.111,60.0071 336.241,60.0071 336.37,60.0071 336.5,60.0071 336.63,60.0071 336.76,60.0071 336.89,60.0071 337.019,60.0071 337.149,60.0071 337.279,60.0071 337.409,60.0071 337.539,60.0071 337.668,60.0071 337.798,60.0071 337.928,60.0072 338.058,60.0072 338.188,60.0072 338.317,60.0072 338.447,60.0072 338.577,60.0072 338.707,60.0072 338.837,60.0072 338.966,60.0072 339.096,60.0072 339.226,60.0072 339.356,60.0072 339.486,60.0072 339.616,60.0072 339.745,60.0072 339.875,60.0072 340.005,60.0072 340.135,60.0072 340.265,60.0072 340.394,60.0072 340.524,60.0072 340.654,60.0072 340.784,60.0072 340.914,60.0072 341.043,60.0072 341.173,60.0072 341.303,60.0072 341.433,60.0072 341.563,60.0072 341.692,60.0072 341.822,60.0072 341.952,60.0072 342.082,60.0072 342.212,60.0072 342.341,60.0072 342.471,60.0073 342.601,60.0073 342.731,60.0073 342.861,60.0073 342.99,60.0073 343.12,60.0073 343.25,60.0073 343.38,60.0073 343.51,60.0073 343.639,60.0073 343.769,60.0073 343.899,60.0073 344.029,60.0073 344.159,60.0073 344.289,60.0073 344.418,60.0073 344.548,60.0073 344.678,60.0073 344.808,60.0073 344.938,60.0073 345.067,60.0073 345.197,60.0073 345.327,60.0073 345.457,60.0073 345.587,60.0073 345.716,60.0073 345.846,60.0073 345.976,60.0073 346.106,60.0073 346.236,60.0074 346.365,60.0074 346.495,60.0074 346.625,60.0074 346.755,60.0074 346.885,60.0074 347.014,60.0074 347.144,60.0074 347.274,60.0074 347.404,60.0074 347.534,60.0074 347.663,60.0074 347.793,60.0074 347.923,60.0074 348.053,60.0074 348.183,60.0074 348.312,60.0074 348.442,60.0074 348.572,60.0074 348.702,60.0074 348.832,60.0074 348.961,60.0074 349.091,60.0074 349.221,60.0074 349.351,60.0074 349.481,60.0074 349.611,60.0074 349.74,60.0074 349.87,60.0074 350,60.0074 350.13,60.0074 350.26,60.0074 350.389,60.0074 350.519,60.0075 350.649,60.0075 350.779,60.0075 350.909,60.0075 351.038,60.0075 351.168,60.0075 351.298,60.0075 351.428,60.0075 351.558,60.0075 351.687,60.0075 351.817,60.0075 351.947,60.0075 352.077,60.0075 352.207,60.0075 352.336,60.0075 352.466,60.0075 352.596,60.0075 352.726,60.0075 352.856,60.0075 352.985,60.0075 353.115,60.0075 353.245,60.0075 353.375,60.0075 353.505,60.0075 353.634,60.0075 353.764,60.0075 353.894,60.0075 354.024,60.0075 354.154,60.0075 354.283,60.0076 354.413,60.0076 354.543,60.0076 354.673,60.0076 354.803,60.0076 354.932,60.0076 355.062,60.0076 355.192,60.0076 355.322,60.0076 355.452,60.0076 355.582,60.0076 355.711,60.0076 355.841,60.0076 355.971,60.0076 356.101,60.0076 356.231,60.0076 356.36,60.0076 356.49,60.0076 356.62,60.0076 356.75,60.0076 356.88,60.0076 357.009,60.0076 357.139,60.0076 357.269,60.0076 357.399,60.0076 357.529,60.0076 357.658,60.0076 357.788,60.0076 357.918,60.0076 358.048,60.0076 358.178,60.0076 358.307,60.0076 358.437,60.0077 358.567,60.0077 358.697,60.0077 358.827,60.0077 358.956,60.0077 359.086,60.0077 359.216,60.0077 359.346,60.0077 359.476,60.0077 359.605,60.0077 359.735,60.0077 359.865,60.0077 359.995,60.0077 360.125,60.0077 360.254,60.0077 360.384,60.0077 360.514,60.0077 360.644,60.0077 360.774,60.0077 360.904,60.0077 361.033,60.0077 361.163,60.0077 361.293,60.0077 361.423,60.0077 361.553,60.0077 361.682,60.0077 361.812,60.0077 361.942,60.0077 362.072,60.0077 362.202,60.0077 362.331,60.0078 362.461,60.0078 362.591,60.0078 362.721,60.0078 362.851,60.0078 362.98,60.0078 363.11,60.0078 363.24,60.0078 363.37,60.0078 363.5,60.0078 363.629,60.0078 363.759,60.0078 363.889,60.0078 364.019,60.0078 364.149,60.0078 364.278,60.0078 364.408,60.0078 364.538,60.0078 364.668,60.0078 364.798,60.0078 364.927,60.0078 365.057,60.0078 365.187,60.0078 365.317,60.0078 365.447,60.0078 365.577,60.0078 365.706,60.0078 365.836,60.0078 365.966,60.0078 366.096,60.0078 366.226,60.0078 366.355,60.0078 366.485,60.0079 366.615,60.0079 366.745,60.0079 366.875,60.0079 367.004,60.0079 367.134,60.0079 367.264,60.0079 367.394,60.0079 367.524,60.0079 367.653,60.0079 367.783,60.0079 367.913,60.0079 368.043,60.0079 368.173,60.0079 368.302,60.0079 368.432,60.0079 368.562,60.0079 368.692,60.0079 368.822,60.0079 368.951,60.0079 369.081,60.0079 369.211,60.0079 369.341,60.0079 369.471,60.0079 369.6,60.0079 369.73,60.0079 369.86,60.0079 369.99,60.0079 370.12,60.0079 370.249,60.0079 370.379,60.0079 370.509,60.0079 370.639,60.0079 370.769,60.0079 370.898,60.0079 371.028,60.0079 371.158,60.008 371.288,60.008 371.418,60.008 371.548,60.008 371.677,60.008 371.807,60.008 371.937,60.008 372.067,60.008 372.197,60.008 372.326,60.008 372.456,60.008 372.586,60.008 372.716,60.008 372.846,60.008 372.975,60.008 373.105,60.008 373.235,60.008 373.365,60.008 373.495,60.008 373.624,60.008 373.754,60.008 373.884,60.008 374.014,60.008 374.144,60.008 374.273,60.008 374.403,60.008 374.533,60.008 374.663,60.008 374.793,60.008 374.922,60.0081 375.052,60.0081 375.182,60.0081 375.312,60.0081 375.442,60.0081 375.571,60.0081 375.701,60.0081 375.831,60.0081 375.961,60.0081 376.091,60.0081 376.221,60.0081 376.35,60.0081 376.48,60.0081 376.61,60.0081 376.74,60.0081 376.87,60.0081 376.999,60.0081 377.129,60.0081 377.259,60.0081 377.389,60.0081 377.519,60.0081 377.648,60.0081 377.778,60.0081 377.908,60.0081 378.038,60.0081 378.168,60.0081 378.297,60.0081 378.427,60.0081 378.557,60.0081 378.687,60.0081 378.817,60.0081 378.946,60.0081" fill="none" stroke="#0071bc" stroke-linecap="butt" stroke-width="0.5"/>
  </g>
 </g>
</svg>
