<?xml version='1.0' encoding='UTF-8' standalone='no'?>
<svg xmlns:xlink="http://www.w3.org/1999/xlink" viewBox="0 0 418 314" height="314pt" xmlns="http://www.w3.org/2000/svg" width="418pt">
 <title>Figure 1</title>
 <desc>
Creator: GL2PS 1.4.2, (C) 1999-2020 C. Geuzaine
For: Octave
CreationDate: Mon Nov 14 03:52:06 2022
</desc>
 <defs/>
 <polygon points="0,0 418,0 418,314 0,314" fill="#ffffff"/>
 <g>
  <polygon points="0,314 418,314 418,0 0,0" shape-rendering="crispEdges" fill="#ffffff"/>
  <clipPath id="cp00418314">
   <polygon points="0,314 418,314 418,0 0,0"/>
  </clipPath>
  <g clip-path="url(#cp00418314)">
   <polygon shape-rendering="crispEdges" points="54.4343,279.499 378.946,279.499 378.946,23.5533 54.4343,23.5533" fill="#ffffff"/>
   <polyline stroke-linecap="butt" stroke-dasharray="16,0" stroke-opacity="0.15" points="54.4343,279.499 54.4343,23.5533" fill="none" stroke="#262626" stroke-width="0.5" stroke-linejoin="miter"/>
   <polyline stroke-linecap="butt" stroke-dasharray="16,0" stroke-opacity="0.15" points="119.337,279.499 119.337,23.5533" fill="none" stroke="#262626" stroke-width="0.5" stroke-linejoin="miter"/>
   <polyline stroke-linecap="butt" stroke-dasharray="16,0" stroke-opacity="0.15" points="184.239,279.499 184.239,23.5533" fill="none" stroke="#262626" stroke-width="0.5" stroke-linejoin="miter"/>
   <polyline stroke-linecap="butt" stroke-dasharray="16,0" stroke-opacity="0.15" points="249.142,279.499 249.142,23.5533" fill="none" stroke="#262626" stroke-width="0.5" stroke-linejoin="miter"/>
   <polyline stroke-linecap="butt" stroke-dasharray="16,0" stroke-opacity="0.15" points="314.044,279.499 314.044,23.5533" fill="none" stroke="#262626" stroke-width="0.5" stroke-linejoin="miter"/>
   <polyline stroke-linecap="butt" stroke-dasharray="16,0" stroke-opacity="0.15" points="378.946,279.499 378.946,23.5533" fill="none" stroke="#262626" stroke-width="0.5" stroke-linejoin="miter"/>
   <polyline stroke-linecap="butt" points="54.4343,279.499 54.4343,276.255" fill="none" stroke="#262626" stroke-width="0.5" stroke-linejoin="miter"/>
   <polyline stroke-linecap="butt" points="54.4343,23.5533 54.4343,26.7977" fill="none" stroke="#262626" stroke-width="0.5" stroke-linejoin="miter"/>
   <polyline stroke-linecap="butt" points="119.337,279.499 119.337,276.255" fill="none" stroke="#262626" stroke-width="0.5" stroke-linejoin="miter"/>
   <polyline stroke-linecap="butt" points="119.337,23.5533 119.337,26.7977" fill="none" stroke="#262626" stroke-width="0.5" stroke-linejoin="miter"/>
   <polyline stroke-linecap="butt" points="184.239,279.499 184.239,276.255" fill="none" stroke="#262626" stroke-width="0.5" stroke-linejoin="miter"/>
   <polyline stroke-linecap="butt" points="184.239,23.5533 184.239,26.7977" fill="none" stroke="#262626" stroke-width="0.5" stroke-linejoin="miter"/>
   <polyline stroke-linecap="butt" points="249.142,279.499 249.142,276.255" fill="none" stroke="#262626" stroke-width="0.5" stroke-linejoin="miter"/>
   <polyline stroke-linecap="butt" points="249.142,23.5533 249.142,26.7977" fill="none" stroke="#262626" stroke-width="0.5" stroke-linejoin="miter"/>
   <polyline stroke-linecap="butt" points="314.044,279.499 314.044,276.255" fill="none" stroke="#262626" stroke-width="0.5" stroke-linejoin="miter"/>
   <polyline stroke-linecap="butt" points="314.044,23.5533 314.044,26.7977" fill="none" stroke="#262626" stroke-width="0.5" stroke-linejoin="miter"/>
   <polyline stroke-linecap="butt" points="378.946,279.499 378.946,276.255" fill="none" stroke="#262626" stroke-width="0.5" stroke-linejoin="miter"/>
   <polyline stroke-linecap="butt" points="378.946,23.5533 378.946,26.7977" fill="none" stroke="#262626" stroke-width="0.5" stroke-linejoin="miter"/>
   <g font-weight="normal" transform="translate(51.4343,294.998) rotate(-0,3,-8)" font-style="normal" font-family="FreeSans" xml:space="preserve" font-size="10">
    <text y="-0" fill="rgb(38,38,38)" x="0 ">0</text>
   </g>
   <g font-weight="normal" transform="translate(116.337,294.998) rotate(-0,3,-8)" font-style="normal" font-family="FreeSans" xml:space="preserve" font-size="10">
    <text y="-0" fill="rgb(38,38,38)" x="0 ">1</text>
   </g>
   <g font-weight="normal" transform="translate(181.239,294.998) rotate(-0,3,-8)" font-style="normal" font-family="FreeSans" xml:space="preserve" font-size="10">
    <text y="-0" fill="rgb(38,38,38)" x="0 ">2</text>
   </g>
   <g font-weight="normal" transform="translate(246.142,294.998) rotate(-0,3,-8)" font-style="normal" font-family="FreeSans" xml:space="preserve" font-size="10">
    <text y="-0" fill="rgb(38,38,38)" x="0 ">3</text>
   </g>
   <g font-weight="normal" transform="translate(311.044,294.998) rotate(-0,3,-8)" font-style="normal" font-family="FreeSans" xml:space="preserve" font-size="10">
    <text y="-0" fill="rgb(38,38,38)" x="0 ">4</text>
   </g>
   <g font-weight="normal" transform="translate(375.946,294.998) rotate(-0,3,-8)" font-style="normal" font-family="FreeSans" xml:space="preserve" font-size="10">
    <text y="-0" fill="rgb(38,38,38)" x="0 ">5</text>
   </g>
   <polyline stroke-linecap="butt" stroke-dasharray="16,0" stroke-opacity="0.15" points="54.4343,279.499 378.946,279.499" fill="none" stroke="#262626" stroke-width="0.5" stroke-linejoin="miter"/>
   <polyline stroke-linecap="butt" stroke-dasharray="16,0" stroke-opacity="0.15" points="54.4343,236.842 378.946,236.842" fill="none" stroke="#262626" stroke-width="0.5" stroke-linejoin="miter"/>
   <polyline stroke-linecap="butt" stroke-dasharray="16,0" stroke-opacity="0.15" points="54.4343,194.184 378.946,194.184" fill="none" stroke="#262626" stroke-width="0.5" stroke-linejoin="miter"/>
   <polyline stroke-linecap="butt" stroke-dasharray="16,0" stroke-opacity="0.15" points="54.4343,151.526 378.946,151.526" fill="none" stroke="#262626" stroke-width="0.5" stroke-linejoin="miter"/>
   <polyline stroke-linecap="butt" stroke-dasharray="16,0" stroke-opacity="0.15" points="54.4343,108.869 378.946,108.869" fill="none" stroke="#262626" stroke-width="0.5" stroke-linejoin="miter"/>
   <polyline stroke-linecap="butt" stroke-dasharray="16,0" stroke-opacity="0.15" points="54.4343,66.2109 378.946,66.2109" fill="none" stroke="#262626" stroke-width="0.5" stroke-linejoin="miter"/>
   <polyline stroke-linecap="butt" stroke-dasharray="16,0" stroke-opacity="0.15" points="54.4343,23.5533 378.946,23.5533" fill="none" stroke="#262626" stroke-width="0.5" stroke-linejoin="miter"/>
   <polyline stroke-linecap="butt" points="54.4343,279.499 57.6745,279.499" fill="none" stroke="#262626" stroke-width="0.5" stroke-linejoin="miter"/>
   <polyline stroke-linecap="butt" points="378.946,279.499 375.706,279.499" fill="none" stroke="#262626" stroke-width="0.5" stroke-linejoin="miter"/>
   <polyline stroke-linecap="butt" points="54.4343,236.842 57.6745,236.842" fill="none" stroke="#262626" stroke-width="0.5" stroke-linejoin="miter"/>
   <polyline stroke-linecap="butt" points="378.946,236.842 375.706,236.842" fill="none" stroke="#262626" stroke-width="0.5" stroke-linejoin="miter"/>
   <polyline stroke-linecap="butt" points="54.4343,194.184 57.6745,194.184" fill="none" stroke="#262626" stroke-width="0.5" stroke-linejoin="miter"/>
   <polyline stroke-linecap="butt" points="378.946,194.184 375.706,194.184" fill="none" stroke="#262626" stroke-width="0.5" stroke-linejoin="miter"/>
   <polyline stroke-linecap="butt" points="54.4343,151.526 57.6745,151.526" fill="none" stroke="#262626" stroke-width="0.5" stroke-linejoin="miter"/>
   <polyline stroke-linecap="butt" points="378.946,151.526 375.706,151.526" fill="none" stroke="#262626" stroke-width="0.5" stroke-linejoin="miter"/>
   <polyline stroke-linecap="butt" points="54.4343,108.869 57.6745,108.869" fill="none" stroke="#262626" stroke-width="0.5" stroke-linejoin="miter"/>
   <polyline stroke-linecap="butt" points="378.946,108.869 375.706,108.869" fill="none" stroke="#262626" stroke-width="0.5" stroke-linejoin="miter"/>
   <polyline stroke-linecap="butt" points="54.4343,66.2109 57.6745,66.2109" fill="none" stroke="#262626" stroke-width="0.5" stroke-linejoin="miter"/>
   <polyline stroke-linecap="butt" points="378.946,66.2109 375.706,66.2109" fill="none" stroke="#262626" stroke-width="0.5" stroke-linejoin="miter"/>
   <polyline stroke-linecap="butt" points="54.4343,23.5533 57.6745,23.5533" fill="none" stroke="#262626" stroke-width="0.5" stroke-linejoin="miter"/>
   <polyline stroke-linecap="butt" points="378.946,23.5533 375.706,23.5533" fill="none" stroke="#262626" stroke-width="0.5" stroke-linejoin="miter"/>
   <g font-weight="normal" transform="translate(40.4418,283.499) rotate(-0,9,-4)" font-style="normal" font-family="FreeSans" xml:space="preserve" font-size="10">
    <text y="-0" fill="rgb(38,38,38)" x="0 3 ">-5</text>
   </g>
   <g font-weight="normal" transform="translate(40.4418,240.842) rotate(-0,9,-4)" font-style="normal" font-family="FreeSans" xml:space="preserve" font-size="10">
    <text y="-0" fill="rgb(38,38,38)" x="0 3 ">-4</text>
   </g>
   <g font-weight="normal" transform="translate(40.4418,198.184) rotate(-0,9,-4)" font-style="normal" font-family="FreeSans" xml:space="preserve" font-size="10">
    <text y="-0" fill="rgb(38,38,38)" x="0 3 ">-3</text>
   </g>
   <g font-weight="normal" transform="translate(40.4418,155.526) rotate(-0,9,-4)" font-style="normal" font-family="FreeSans" xml:space="preserve" font-size="10">
    <text y="-0" fill="rgb(38,38,38)" x="0 3 ">-2</text>
   </g>
   <g font-weight="normal" transform="translate(40.4418,112.869) rotate(-0,9,-4)" font-style="normal" font-family="FreeSans" xml:space="preserve" font-size="10">
    <text y="-0" fill="rgb(38,38,38)" x="0 3 ">-1</text>
   </g>
   <g font-weight="normal" transform="translate(43.4418,70.2109) rotate(-0,6,-4)" font-style="normal" font-family="FreeSans" xml:space="preserve" font-size="10">
    <text y="-0" fill="rgb(38,38,38)" x="0 ">0</text>
   </g>
   <g font-weight="normal" transform="translate(43.4418,27.5533) rotate(-0,6,-4)" font-style="normal" font-family="FreeSans" xml:space="preserve" font-size="10">
    <text y="-0" fill="rgb(38,38,38)" x="0 ">1</text>
   </g>
   <polyline stroke-linecap="square" stroke-dasharray="16,0" points="54.4343,279.499 378.946,279.499" fill="none" stroke="#262626" stroke-width="0.5" stroke-linejoin="miter"/>
   <polyline stroke-linecap="square" stroke-dasharray="16,0" points="54.4343,23.5533 378.946,23.5533" fill="none" stroke="#262626" stroke-width="0.5" stroke-linejoin="miter"/>
   <polyline stroke-linecap="square" stroke-dasharray="16,0" points="54.4343,279.499 54.4343,23.5533" fill="none" stroke="#262626" stroke-width="0.5" stroke-linejoin="miter"/>
   <polyline stroke-linecap="square" stroke-dasharray="16,0" points="378.946,279.499 378.946,23.5533" fill="none" stroke="#262626" stroke-width="0.5" stroke-linejoin="miter"/>
   <g font-weight="normal" transform="translate(193.19,311.998) rotate(-0,23.5,-12)" font-style="normal" font-family="FreeSans" xml:space="preserve" font-size="11">
    <text y="-3" fill="rgb(38,38,38)" x="0 7 13 22 28 34 38 43 ">Tempo(s)</text>
   </g>
   <g font-weight="normal" transform="translate(9.9418,151.526) rotate(-90,25.5,0)" font-style="normal" font-family="FreeSans" xml:space="preserve" font-size="11">
    <text y="-3" fill="rgb(38,38,38)" x="0 7 13 19 24 30 36 40 47 ">Tensão(V)</text>
   </g>
   <polyline stroke-linecap="butt" points="54.4343,267.157 54.5641,223.417 54.6939,195.504 54.8237,177.617 54.9535,166.082 55.0833,158.572 55.2131,153.612 55.3429,150.269 55.4727,147.951 55.6025,146.284 55.7323,145.03 55.8621,144.039 55.9919,143.215 56.1217,142.498 56.2516,141.851 56.3814,141.248 56.5112,140.674 56.641,140.121 56.7708,139.581 56.9006,139.05 57.0304,138.527 57.1602,138.009 57.29,137.496 57.4198,136.986 57.5496,136.48 57.6794,135.978 57.8092,135.478 57.939,134.981 58.0688,134.488 58.1986,133.997 58.3284,133.509 58.4582,133.023 58.588,132.541 58.7178,132.061 58.8476,131.583 58.9775,131.109 59.1073,130.637 59.2371,130.167 59.3669,129.7 59.4967,129.236 59.6265,128.775 59.7563,128.316 59.8861,127.859 60.0159,127.405 60.1457,126.954 60.2755,126.505 60.4053,126.059 60.5351,125.615 60.6649,125.174 60.7947,124.735 60.9245,124.299 61.0543,123.865 61.1841,123.433 61.3139,123.004 61.4438,122.577 61.5736,122.153 61.7034,121.731 61.8332,121.312 61.963,120.894 62.0928,120.48 62.2226,120.067 62.3524,119.657 62.4822,119.249 62.612,118.843 62.7418,118.44 62.8716,118.039 63.0014,117.64 63.1312,117.244 63.261,116.849 63.3908,116.457 63.5206,116.068 63.6504,115.68 63.7802,115.294 63.91,114.911 64.0398,114.53 64.1696,114.151 64.2995,113.774 64.4293,113.4 64.5591,113.027 64.6889,112.657 64.8187,112.288 64.9485,111.922 65.0783,111.558 65.2081,111.196 65.3379,110.836 65.4677,110.478 65.5975,110.122 65.7273,109.768 65.8571,109.416 65.9869,109.066 66.1167,108.718 66.2465,108.372 66.3763,108.028 66.5061,107.686 66.6359,107.346 66.7658,107.008 66.8956,106.672 67.0254,106.337 67.1552,106.005 67.285,105.675 67.4148,105.346 67.5446,105.019 67.6744,104.694 67.8042,104.371 67.934,104.05 68.0638,103.731 68.1936,103.414 68.3234,103.098 68.4532,102.784 68.583,102.472 68.7128,102.162 68.8426,101.854 68.9724,101.547 69.1022,101.242 69.232,100.939 69.3618,100.637 69.4916,100.338 69.6215,100.04 69.7513,99.7437 69.8811,99.4492 70.0109,99.1564 70.1407,98.8653 70.2705,98.5758 70.4003,98.2881 70.5301,98.002 70.6599,97.7176 70.7897,97.4348 70.9195,97.1537 71.0493,96.8742 71.1791,96.5963 71.3089,96.32 71.4387,96.0454 71.5685,95.7723 71.6983,95.5008 71.8281,95.2309 71.9579,94.9626 72.0878,94.6958 72.2175,94.4306 72.3474,94.167 72.4772,93.9048 72.607,93.6442 72.7368,93.3852 72.8666,93.1276 72.9964,92.8716 73.1262,92.617 73.256,92.364 73.3858,92.1124 73.5156,91.8623 73.6454,91.6136 73.7752,91.3665 73.905,91.1207 74.0348,90.8764 74.1646,90.6336 74.2944,90.3922 74.4242,90.1522 74.554,89.9136 74.6838,89.6764 74.8137,89.4406 74.9435,89.2063 75.0733,88.9733 75.2031,88.7416 75.3329,88.5114 75.4627,88.2825 75.5925,88.0549 75.7223,87.8287 75.8521,87.6039 75.9819,87.3804 76.1117,87.1582 76.2415,86.9373 76.3713,86.7177 76.5011,86.4995 76.6309,86.2825 76.7607,86.0668 76.8905,85.8525 77.0203,85.6394 77.1501,85.4275 77.2799,85.217 77.4097,85.0076 77.5395,84.7996 77.6693,84.5928 77.7992,84.3872 77.929,84.1828 78.0588,83.9797 78.1886,83.7778 78.3184,83.5771 78.4482,83.3776 78.578,83.1794 78.7078,82.9823 78.8376,82.7863 78.9674,82.5916 79.0972,82.3981 79.227,82.2057 79.3568,82.0144 79.4866,81.8244 79.6164,81.6354 79.7462,81.4476 79.876,81.261 80.0058,81.0755 80.1357,80.8911 80.2655,80.7078 80.3953,80.5257 80.5251,80.3446 80.6549,80.1647 80.7847,79.9858 80.9145,79.808 81.0443,79.6313 81.1741,79.4557 81.3039,79.2812 81.4337,79.1077 81.5635,78.9353 81.6933,78.764 81.8231,78.5937 81.9529,78.4244 82.0827,78.2562 82.2125,78.089 82.3423,77.9228 82.4721,77.7577 82.6019,77.5935 82.7317,77.4304 82.8615,77.2683 82.9914,77.1072 83.1212,76.9471 83.251,76.7879 83.3808,76.6298 83.5106,76.4726 83.6404,76.3164 83.7702,76.1612 83.9,76.0069 84.0298,75.8536 84.1596,75.7013 84.2894,75.5499 84.4192,75.3994 84.549,75.2499 84.6788,75.1013 84.8086,74.9536 84.9384,74.8068 85.0682,74.661 85.198,74.5161 85.3278,74.3721 85.4576,74.229 85.5874,74.0868 85.7172,73.9455 85.8471,73.805 85.9769,73.6655 86.1067,73.5268 86.2365,73.389 86.3663,73.2521 86.4961,73.116 86.6259,72.9809 86.7557,72.8465 86.8855,72.713 87.0153,72.5804 87.1451,72.4485 87.2749,72.3176 87.4047,72.1875 87.5345,72.0581 87.6643,71.9297 87.7941,71.802 87.9239,71.6751 88.0537,71.5491 88.1835,71.4239 88.3134,71.2994 88.4432,71.1758 88.573,71.053 88.7028,70.9309 88.8326,70.8096 88.9624,70.6891 89.0922,70.5694 89.222,70.4505 89.3518,70.3323 89.4816,70.2149 89.6114,70.0983 89.7412,69.9824 89.871,69.8672 90.0008,69.7528 90.1306,69.6392 90.2604,69.5262 90.3902,69.4141 90.52,69.3026 90.6498,69.1919 90.7796,69.0819 90.9094,68.9726 91.0393,68.864 91.1691,68.7562 91.2989,68.649 91.4287,68.5426 91.5585,68.4369 91.6883,68.3318 91.8181,68.2275 91.9479,68.1238 92.0777,68.0208 92.2075,67.9185 92.3373,67.8169 92.4671,67.716 92.5969,67.6157 92.7267,67.5161 92.8565,67.4171 92.9863,67.3188 93.1161,67.2212 93.2459,67.1242 93.3757,67.0279 93.5055,66.9322 93.6354,66.8371 93.7652,66.7427 93.895,66.649 94.0248,66.5558 94.1546,66.4633 94.2844,66.3714 94.4142,66.2801 94.544,66.1895 94.6738,66.0994 94.8036,66.01 94.9334,65.9212 95.0632,65.833 95.193,65.7453 95.3228,65.6583 95.4526,65.5719 95.5824,65.4861 95.7122,65.4008 95.842,65.3162 95.9718,65.2321 96.1016,65.1486 96.2314,65.0656 96.3613,64.9833 96.4911,64.9015 96.6209,64.8203 96.7507,64.7396 96.8805,64.6595 97.0103,64.58 97.1401,64.501 97.2699,64.4225 97.3997,64.3446 97.5295,64.2673 97.6593,64.1905 97.7891,64.1142 97.9189,64.0384 98.0487,63.9632 98.1785,63.8886 98.3083,63.8144 98.4381,63.7408 98.5679,63.6677 98.6977,63.5951 98.8275,63.523 98.9573,63.4515 99.0872,63.3804 99.217,63.3099 99.3468,63.2398 99.4766,63.1703 99.6064,63.1012 99.7362,63.0327 99.866,62.9646 99.9958,62.897 100.126,62.83 100.255,62.7634 100.385,62.6973 100.515,62.6316 100.645,62.5665 100.775,62.5018 100.904,62.4376 101.034,62.3738 101.164,62.3105 101.294,62.2477 101.424,62.1854 101.553,62.1235 101.683,62.062 101.813,62.001 101.943,61.9405 102.073,61.8804 102.202,61.8208 102.332,61.7616 102.462,61.7028 102.592,61.6445 102.722,61.5866 102.851,61.5291 102.981,61.4721 103.111,61.4155 103.241,61.3593 103.371,61.3036 103.501,61.2482 103.63,61.1933 103.76,61.1389 103.89,61.0848 104.02,61.0311 104.15,60.9779 104.279,60.925 104.409,60.8726 104.539,60.8205 104.669,60.7689 104.799,60.7177 104.928,60.6668 105.058,60.6163 105.188,60.5663 105.318,60.5166 105.448,60.4673 105.577,60.4184 105.707,60.3699 105.837,60.3218 105.967,60.274 106.097,60.2267 106.226,60.1796 106.356,60.133 106.486,60.0867 106.616,60.0409 106.746,59.9953 106.875,59.9502 107.005,59.9053 107.135,59.8609 107.265,59.8168 107.395,59.7731 107.524,59.7297 107.654,59.6867 107.784,59.644 107.914,59.6017 108.044,59.5597 108.173,59.5181 108.303,59.4768 108.433,59.4358 108.563,59.3952 108.693,59.3549 108.823,59.315 108.952,59.2753 109.082,59.2361 109.212,59.1971 109.342,59.1584 109.472,59.1201 109.601,59.0822 109.731,59.0445 109.861,59.0072 109.991,58.9701 110.121,58.9334 110.25,58.897 110.38,58.8609 110.51,58.8251 110.64,58.7897 110.77,58.7545 110.899,58.7197 111.029,58.6851 111.159,58.6508 111.289,58.6169 111.419,58.5832 111.548,58.5499 111.678,58.5168 111.808,58.484 111.938,58.4516 112.068,58.4194 112.197,58.3875 112.327,58.3559 112.457,58.3245 112.587,58.2935 112.717,58.2627 112.846,58.2322 112.976,58.202 113.106,58.1721 113.236,58.1424 113.366,58.113 113.495,58.0839 113.625,58.055 113.755,58.0265 113.885,57.9981 114.015,57.9701 114.145,57.9423 114.274,57.9148 114.404,57.8875 114.534,57.8605 114.664,57.8338 114.794,57.8073 114.923,57.7811 115.053,57.7551 115.183,57.7294 115.313,57.7039 115.443,57.6786 115.572,57.6537 115.702,57.6289 115.832,57.6044 115.962,57.5802 116.092,57.5562 116.221,57.5324 116.351,57.5089 116.481,57.4856 116.611,57.4626 116.741,57.4397 116.87,57.4171 117,57.3948 117.13,57.3727 117.26,57.3507 117.39,57.3291 117.519,57.3076 117.649,57.2864 117.779,57.2654 117.909,57.2447 118.039,57.2241 118.168,57.2038 118.298,57.1837 118.428,57.1638 118.558,57.1441 118.688,57.1246 118.817,57.1054 118.947,57.0863 119.077,57.0675 119.207,57.0489 119.337,57.0305 119.467,57.0123 119.596,56.9943 119.726,56.9765 119.856,56.9589 119.986,56.9415 120.116,56.9243 120.245,56.9073 120.375,56.8905 120.505,56.8739 120.635,56.8575 120.765,56.8413 120.894,56.8253 121.024,56.8095 121.154,56.7939 121.284,56.7784 121.414,56.7632 121.543,56.7481 121.673,56.7333 121.803,56.7186 121.933,56.7041 122.063,56.6898 122.192,56.6756 122.322,56.6617 122.452,56.6479 122.582,56.6343 122.712,56.6209 122.841,56.6077 122.971,56.5946 123.101,56.5817 123.231,56.569 123.361,56.5565 123.49,56.5441 123.62,56.5319 123.75,56.5199 123.88,56.508 124.01,56.4963 124.139,56.4848 124.269,56.4734 124.399,56.4622 124.529,56.4512 124.659,56.4403 124.789,56.4296 124.918,56.4191 125.048,56.4087 125.178,56.3984 125.308,56.3884 125.438,56.3784 125.567,56.3687 125.697,56.3591 125.827,56.3496 125.957,56.3403 126.087,56.3312 126.216,56.3222 126.346,56.3133 126.476,56.3046 126.606,56.2961 126.736,56.2877 126.865,56.2794 126.995,56.2713 127.125,56.2633 127.255,56.2555 127.385,56.2478 127.514,56.2403 127.644,56.2328 127.774,56.2256 127.904,56.2185 128.034,56.2115 128.163,56.2046 128.293,56.1979 128.423,56.1913 128.553,56.1849 128.683,56.1786 128.812,56.1724 128.942,56.1664 129.072,56.1605 129.202,56.1547 129.332,56.149 129.461,56.1435 129.591,56.1381 129.721,56.1328 129.851,56.1277 129.981,56.1227 130.111,56.1178 130.24,56.113 130.37,56.1084 130.5,56.1039 130.63,56.0995 130.76,56.0952 130.889,56.091 131.019,56.087 131.149,56.083 131.279,56.0792 131.409,56.0756 131.538,56.072 131.668,56.0685 131.798,56.0652 131.928,56.062 132.058,56.0588 132.187,56.0558 132.317,56.0529 132.447,56.0501 132.577,56.0475 132.707,56.0449 132.836,56.0425 132.966,56.0401 133.096,56.0379 133.226,56.0358 133.356,56.0337 133.485,56.0318 133.615,56.03 133.745,56.0283 133.875,56.0267 134.005,56.0252 134.134,56.0238 134.264,56.0225 134.394,56.0213 134.524,56.0202 134.654,56.0192 134.783,56.0183 134.913,56.0175 135.043,56.0168 135.173,56.0161 135.303,56.0156 135.433,56.0152 135.562,56.0149 135.692,56.0146 135.822,56.0145 135.952,56.0145 136.082,56.0145 136.211,56.0146 136.341,56.0149 136.471,56.0152 136.601,56.0156 136.731,56.0161 136.86,56.0167 136.99,56.0174 137.12,56.0181 137.25,56.019 137.38,56.0199 137.509,56.0209 137.639,56.022 137.769,56.0232 137.899,56.0245 138.029,56.0258 138.158,56.0273 138.288,56.0288 138.418,56.0304 138.548,56.0321 138.678,56.0338 138.807,56.0357 138.937,56.0376 139.067,56.0396 139.197,56.0417 139.327,56.0439 139.456,56.0461 139.586,56.0484 139.716,56.0508 139.846,56.0533 139.976,56.0558 140.105,56.0584 140.235,56.0611 140.365,56.0638 140.495,56.0667 140.625,56.0696 140.755,56.0725 140.884,56.0756 141.014,56.0787 141.144,56.0819 141.274,56.0851 141.404,56.0885 141.533,56.0919 141.663,56.0953 141.793,56.0988 141.923,56.1024 142.053,56.1061 142.182,56.1098 142.312,56.1136 142.442,56.1175 142.572,56.1214 142.702,56.1254 142.831,56.1295 142.961,56.1336 143.091,56.1378 143.221,56.142 143.351,56.1463 143.48,56.1507 143.61,56.1551 143.74,56.1596 143.87,56.1642 144,56.1688 144.129,56.1734 144.259,56.1782 144.389,56.183 144.519,56.1878 144.649,56.1927 144.778,56.1977 144.908,56.2027 145.038,56.2077 145.168,56.2129 145.298,56.218 145.427,56.2233 145.557,56.2286 145.687,56.2339 145.817,56.2393 145.947,56.2448 146.077,56.2503 146.206,56.2559 146.336,56.2614 146.466,56.2671 146.596,56.2728 146.726,56.2786 146.855,56.2844 146.985,56.2903 147.115,56.2962 147.245,56.3022 147.375,56.3082 147.504,56.3142 147.634,56.3204 147.764,56.3265 147.894,56.3327 148.024,56.339 148.153,56.3453 148.283,56.3516 148.413,56.358 148.543,56.3644 148.673,56.3709 148.802,56.3775 148.932,56.384 149.062,56.3907 149.192,56.3973 149.322,56.404 149.451,56.4108 149.581,56.4176 149.711,56.4244 149.841,56.4313 149.971,56.4382 150.1,56.4452 150.23,56.4521 150.36,56.4592 150.49,56.4663 150.62,56.4734 150.749,56.4806 150.879,56.4878 151.009,56.495 151.139,56.5023 151.269,56.5096 151.399,56.5169 151.528,56.5243 151.658,56.5318 151.788,56.5392 151.918,56.5468 152.048,56.5543 152.177,56.5619 152.307,56.5695 152.437,56.5771 152.567,56.5848 152.697,56.5925 152.826,56.6003 152.956,56.608 153.086,56.6159 153.216,56.6237 153.346,56.6316 153.475,56.6395 153.605,56.6475 153.735,56.6555 153.865,56.6635 153.995,56.6715 154.124,56.6796 154.254,56.6877 154.384,56.6959 154.514,56.704 154.644,56.7122 154.773,56.7205 154.903,56.7288 155.033,56.7371 155.163,56.7454 155.293,56.7537 155.422,56.7621 155.552,56.7705 155.682,56.779 155.812,56.7874 155.942,56.7959 156.071,56.8044 156.201,56.813 156.331,56.8216 156.461,56.8302 156.591,56.8388 156.721,56.8475 156.85,56.8562 156.98,56.8649 157.11,56.8736 157.24,56.8824 157.37,56.8911 157.499,56.9 157.629,56.9088 157.759,56.9177 157.889,56.9265 158.019,56.9355 158.148,56.9444 158.278,56.9533 158.408,56.9623 158.538,56.9713 158.668,56.9803 158.797,56.9894 158.927,56.9984 159.057,57.0075 159.187,57.0166 159.317,57.0258 159.446,57.0349 159.576,57.0441 159.706,57.0533 159.836,57.0625 159.966,57.0717 160.095,57.081 160.225,57.0903 160.355,57.0995 160.485,57.1089 160.615,57.1182 160.744,57.1276 160.874,57.1369 161.004,57.1463 161.134,57.1557 161.264,57.1652 161.393,57.1746 161.523,57.1841 161.653,57.1935 161.783,57.203 161.913,57.2126 162.042,57.2221 162.172,57.2316 162.302,57.2412 162.432,57.2508 162.562,57.2604 162.692,57.27 162.821,57.2796 162.951,57.2893 163.081,57.2989 163.211,57.3086 163.341,57.3183 163.47,57.328 163.6,57.3377 163.73,57.3474 163.86,57.3572 163.99,57.367 164.119,57.3767 164.249,57.3865 164.379,57.3963 164.509,57.4062 164.639,57.416 164.768,57.4258 164.898,57.4357 165.028,57.4456 165.158,57.4554 165.288,57.4653 165.417,57.4752 165.547,57.4851 165.677,57.4951 165.807,57.505 165.937,57.515 166.066,57.5249 166.196,57.5349 166.326,57.5449 166.456,57.5549 166.586,57.5649 166.715,57.5749 166.845,57.5849 166.975,57.595 167.105,57.605 167.235,57.6151 167.365,57.6252 167.494,57.6352 167.624,57.6453 167.754,57.6554 167.884,57.6655 168.014,57.6756 168.143,57.6858 168.273,57.6959 168.403,57.706 168.533,57.7162 168.663,57.7263 168.792,57.7365 168.922,57.7467 169.052,57.7569 169.182,57.7671 169.312,57.7773 169.441,57.7874 169.571,57.7977 169.701,57.8079 169.831,57.8181 169.961,57.8283 170.09,57.8386 170.22,57.8488 170.35,57.8591 170.48,57.8693 170.61,57.8796 170.739,57.8898 170.869,57.9001 170.999,57.9104 171.129,57.9207 171.259,57.931 171.388,57.9413 171.518,57.9516 171.648,57.9619 171.778,57.9722 171.908,57.9825 172.037,57.9928 172.167,58.0032 172.297,58.0135 172.427,58.0238 172.557,58.0342 172.687,58.0445 172.816,58.0549 172.946,58.0652 173.076,58.0755 173.206,58.0859 173.336,58.0963 173.465,58.1066 173.595,58.117 173.725,58.1274 173.855,58.1377 173.985,58.1481 174.114,58.1585 174.244,58.1689 174.374,58.1793 174.504,58.1897 174.634,58.2 174.763,58.2104 174.893,58.2208 175.023,58.2312 175.153,58.2416 175.283,58.252 175.412,58.2624 175.542,58.2728 175.672,58.2832 175.802,58.2936 175.932,58.304 176.061,58.3145 176.191,58.3249 176.321,58.3353 176.451,58.3457 176.581,58.3561 176.71,58.3665 176.84,58.3769 176.97,58.3873 177.1,58.3978 177.23,58.4082 177.359,58.4186 177.489,58.429 177.619,58.4394 177.749,58.4498 177.879,58.4602 178.008,58.4707 178.138,58.4811 178.268,58.4915 178.398,58.5019 178.528,58.5123 178.658,58.5227 178.787,58.5331 178.917,58.5435 179.047,58.5539 179.177,58.5644 179.307,58.5748 179.436,58.5852 179.566,58.5956 179.696,58.606 179.826,58.6164 179.956,58.6268 180.085,58.6372 180.215,58.6476 180.345,58.658 180.475,58.6684 180.605,58.6787 180.734,58.6891 180.864,58.6995 180.994,58.7099 181.124,58.7203 181.254,58.7307 181.383,58.741 181.513,58.7514 181.643,58.7618 181.773,58.7721 181.903,58.7825 182.032,58.7929 182.162,58.8032 182.292,58.8136 182.422,58.824 182.552,58.8343 182.681,58.8447 182.811,58.855 182.941,58.8653 183.071,58.8757 183.201,58.886 183.33,58.8963 183.46,58.9067 183.59,58.917 183.72,58.9273 183.85,58.9376 183.98,58.9479 184.109,58.9583 184.239,58.9686 184.369,58.9789 184.499,58.9892 184.629,58.9994 184.758,59.0097 184.888,59.02 185.018,59.0303 185.148,59.0406 185.278,59.0508 185.407,59.0611 185.537,59.0714 185.667,59.0816 185.797,59.0919 185.927,59.1021 186.056,59.1124 186.186,59.1226 186.316,59.1328 186.446,59.143 186.576,59.1533 186.705,59.1635 186.835,59.1737 186.965,59.1839 187.095,59.1941 187.225,59.2043 187.354,59.2145 187.484,59.2247 187.614,59.2348 187.744,59.245 187.874,59.2552 188.003,59.2653 188.133,59.2755 188.263,59.2856 188.393,59.2958 188.523,59.3059 188.653,59.3161 188.782,59.3262 188.912,59.3363 189.042,59.3464 189.172,59.3565 189.302,59.3666 189.431,59.3767 189.561,59.3868 189.691,59.3969 189.821,59.407 189.951,59.417 190.08,59.4271 190.21,59.4371 190.34,59.4472 190.47,59.4572 190.6,59.4673 190.729,59.4773 190.859,59.4873 190.989,59.4973 191.119,59.5073 191.249,59.5173 191.378,59.5273 191.508,59.5373 191.638,59.5473 191.768,59.5573 191.898,59.5672 192.027,59.5772 192.157,59.5872 192.287,59.5971 192.417,59.607 192.547,59.617 192.676,59.6269 192.806,59.6368 192.936,59.6467 193.066,59.6566 193.196,59.6665 193.325,59.6764 193.455,59.6863 193.585,59.6961 193.715,59.706 193.845,59.7159 193.975,59.7257 194.104,59.7355 194.234,59.7454 194.364,59.7552 194.494,59.765 194.624,59.7748 194.753,59.7846 194.883,59.7944 195.013,59.8042 195.143,59.814 195.273,59.8237 195.402,59.8335 195.532,59.8432 195.662,59.853 195.792,59.8627 195.922,59.8724 196.051,59.8822 196.181,59.8919 196.311,59.9016 196.441,59.9113 196.571,59.9209 196.7,59.9306 196.83,59.9403 196.96,59.95 197.09,59.9596 197.22,59.9692 197.349,59.9789 197.479,59.9885 197.609,59.9981 197.739,60.0077 197.869,60.0173 197.998,60.0269 198.128,60.0365 198.258,60.0461 198.388,60.0556 198.518,60.0652 198.647,60.0747 198.777,60.0842 198.907,60.0938 199.037,60.1033 199.167,60.1128 199.297,60.1223 199.426,60.1318 199.556,60.1413 199.686,60.1508 199.816,60.1602 199.946,60.1697 200.075,60.1791 200.205,60.1886 200.335,60.198 200.465,60.2074 200.595,60.2168 200.724,60.2262 200.854,60.2356 200.984,60.245 201.114,60.2543 201.244,60.2637 201.373,60.2731 201.503,60.2824 201.633,60.2917 201.763,60.3011 201.893,60.3104 202.022,60.3197 202.152,60.329 202.282,60.3383 202.412,60.3475 202.542,60.3568 202.671,60.3661 202.801,60.3753 202.931,60.3846 203.061,60.3938 203.191,60.403 203.32,60.4122 203.45,60.4214 203.58,60.4306 203.71,60.4398 203.84,60.449 203.969,60.4581 204.099,60.4673 204.229,60.4764 204.359,60.4855 204.489,60.4947 204.618,60.5038 204.748,60.5129 204.878,60.522 205.008,60.5311 205.138,60.5401 205.268,60.5492 205.397,60.5582 205.527,60.5673 205.657,60.5763 205.787,60.5853 205.917,60.5944 206.046,60.6034 206.176,60.6124 206.306,60.6213 206.436,60.6303 206.566,60.6393 206.695,60.6482 206.825,60.6572 206.955,60.6661 207.085,60.675 207.215,60.6839 207.344,60.6928 207.474,60.7017 207.604,60.7106 207.734,60.7195 207.864,60.7283 207.993,60.7372 208.123,60.746 208.253,60.7549 208.383,60.7637 208.513,60.7725 208.642,60.7813 208.772,60.7901 208.902,60.7989 209.032,60.8076 209.162,60.8164 209.291,60.8251 209.421,60.8339 209.551,60.8426 209.681,60.8513 209.811,60.86 209.94,60.8687 210.07,60.8774 210.2,60.8861 210.33,60.8948 210.46,60.9034 210.59,60.9121 210.719,60.9207 210.849,60.9293 210.979,60.9379 211.109,60.9465 211.239,60.9551 211.368,60.9637 211.498,60.9723 211.628,60.9809 211.758,60.9894 211.888,60.998 212.017,61.0065 212.147,61.015 212.277,61.0235 212.407,61.032 212.537,61.0405 212.666,61.049 212.796,61.0574 212.926,61.0659 213.056,61.0744 213.186,61.0828 213.315,61.0912 213.445,61.0996 213.575,61.108 213.705,61.1164 213.835,61.1248 213.964,61.1332 214.094,61.1416 214.224,61.1499 214.354,61.1582 214.484,61.1666 214.613,61.1749 214.743,61.1832 214.873,61.1915 215.003,61.1998 215.133,61.2081 215.262,61.2163 215.392,61.2246 215.522,61.2328 215.652,61.2411 215.782,61.2493 215.912,61.2575 216.041,61.2657 216.171,61.2739 216.301,61.2821 216.431,61.2903 216.561,61.2984 216.69,61.3066 216.82,61.3147 216.95,61.3229 217.08,61.331 217.21,61.3391 217.339,61.3472 217.469,61.3553 217.599,61.3634 217.729,61.3714 217.859,61.3795 217.988,61.3875 218.118,61.3956 218.248,61.4036 218.378,61.4116 218.508,61.4196 218.637,61.4276 218.767,61.4356 218.897,61.4435 219.027,61.4515 219.157,61.4595 219.286,61.4674 219.416,61.4753 219.546,61.4832 219.676,61.4911 219.806,61.4991 219.935,61.5069 220.065,61.5148 220.195,61.5227 220.325,61.5305 220.455,61.5384 220.584,61.5462 220.714,61.554 220.844,61.5618 220.974,61.5696 221.104,61.5774 221.234,61.5852 221.363,61.593 221.493,61.6007 221.623,61.6085 221.753,61.6162 221.883,61.6239 222.012,61.6317 222.142,61.6394 222.272,61.6471 222.402,61.6547 222.532,61.6624 222.661,61.6701 222.791,61.6777 222.921,61.6854 223.051,61.693 223.181,61.7006 223.31,61.7082 223.44,61.7158 223.57,61.7234 223.7,61.731 223.83,61.7386 223.959,61.7461 224.089,61.7537 224.219,61.7612 224.349,61.7687 224.479,61.7762 224.608,61.7838 224.738,61.7912 224.868,61.7987 224.998,61.8062 225.128,61.8137 225.257,61.8211 225.387,61.8286 225.517,61.836 225.647,61.8434 225.777,61.8508 225.906,61.8582 226.036,61.8656 226.166,61.873 226.296,61.8804 226.426,61.8877 226.556,61.8951 226.685,61.9024 226.815,61.9097 226.945,61.917 227.075,61.9243 227.205,61.9316 227.334,61.9389 227.464,61.9462 227.594,61.9535 227.724,61.9607 227.854,61.9679 227.983,61.9752 228.113,61.9824 228.243,61.9896 228.373,61.9968 228.503,62.004 228.632,62.0112 228.762,62.0183 228.892,62.0255 229.022,62.0327 229.152,62.0398 229.281,62.0469 229.411,62.054 229.541,62.0612 229.671,62.0682 229.801,62.0753 229.93,62.0824 230.06,62.0895 230.19,62.0965 230.32,62.1036 230.45,62.1106 230.579,62.1176 230.709,62.1246 230.839,62.1316 230.969,62.1386 231.099,62.1456 231.228,62.1526 231.358,62.1596 231.488,62.1665 231.618,62.1734 231.748,62.1804 231.878,62.1873 232.007,62.1942 232.137,62.2011 232.267,62.208 232.397,62.2149 232.527,62.2218 232.656,62.2286 232.786,62.2355 232.916,62.2423 233.046,62.2491 233.176,62.256 233.305,62.2628 233.435,62.2695 233.565,62.2764 233.695,62.2831 233.825,62.2899 233.954,62.2966 234.084,62.3034 234.214,62.3101 234.344,62.3168 234.474,62.3236 234.603,62.3303 234.733,62.337 234.863,62.3437 234.993,62.3503 235.123,62.357 235.252,62.3637 235.382,62.3703 235.512,62.377 235.642,62.3836 235.772,62.3902 235.901,62.3968 236.031,62.4034 236.161,62.41 236.291,62.4165 236.421,62.4231 236.55,62.4297 236.68,62.4362 236.81,62.4428 236.94,62.4493 237.07,62.4558 237.2,62.4623 237.329,62.4688 237.459,62.4753 237.589,62.4818 237.719,62.4882 237.849,62.4947 237.978,62.5011 238.108,62.5076 238.238,62.514 238.368,62.5204 238.498,62.5268 238.627,62.5332 238.757,62.5396 238.887,62.546 239.017,62.5524 239.147,62.5587 239.276,62.5651 239.406,62.5714 239.536,62.5777 239.666,62.584 239.796,62.5904 239.925,62.5967 240.055,62.603 240.185,62.6092 240.315,62.6155 240.445,62.6218 240.574,62.628 240.704,62.6343 240.834,62.6405 240.964,62.6467 241.094,62.6529 241.223,62.6591 241.353,62.6653 241.483,62.6715 241.613,62.6777 241.743,62.6838 241.872,62.69 242.002,62.6961 242.132,62.7023 242.262,62.7084 242.392,62.7145 242.521,62.7206 242.651,62.7267 242.781,62.7328 242.911,62.7389 243.041,62.7449 243.171,62.751 243.3,62.757 243.43,62.7631 243.56,62.7691 243.69,62.7751 243.82,62.7811 243.949,62.7872 244.079,62.7932 244.209,62.7991 244.339,62.8051 244.469,62.8111 244.598,62.817 244.728,62.823 244.858,62.8289 244.988,62.8348 245.118,62.8407 245.247,62.8466 245.377,62.8525 245.507,62.8584 245.637,62.8643 245.767,62.8702 245.896,62.876 246.026,62.8819 246.156,62.8877 246.286,62.8936 246.416,62.8994 246.545,62.9052 246.675,62.911 246.805,62.9168 246.935,62.9226 247.065,62.9284 247.194,62.9341 247.324,62.9399 247.454,62.9456 247.584,62.9514 247.714,62.9571 247.844,62.9628 247.973,62.9685 248.103,62.9742 248.233,62.9799 248.363,62.9856 248.493,62.9913 248.622,62.997 248.752,63.0026 248.882,63.0083 249.012,63.0139 249.142,63.0195 249.271,63.0252 249.401,63.0308 249.531,63.0364 249.661,63.042 249.791,63.0475 249.92,63.0531 250.05,63.0587 250.18,63.0643 250.31,63.0698 250.44,63.0753 250.569,63.0809 250.699,63.0864 250.829,63.0919 250.959,63.0974 251.089,63.1029 251.218,63.1084 251.348,63.1139 251.478,63.1193 251.608,63.1248 251.738,63.1302 251.867,63.1357 251.997,63.1411 252.127,63.1465 252.257,63.152 252.387,63.1574 252.516,63.1628 252.646,63.1682 252.776,63.1735 252.906,63.1789 253.036,63.1843 253.165,63.1896 253.295,63.195 253.425,63.2003 253.555,63.2056 253.685,63.211 253.815,63.2163 253.944,63.2216 254.074,63.2269 254.204,63.2321 254.334,63.2374 254.464,63.2427 254.593,63.2479 254.723,63.2532 254.853,63.2584 254.983,63.2637 255.113,63.2689 255.242,63.2741 255.372,63.2793 255.502,63.2845 255.632,63.2897 255.762,63.2949 255.891,63.3 256.021,63.3052 256.151,63.3104 256.281,63.3155 256.411,63.3207 256.54,63.3258 256.67,63.3309 256.8,63.336 256.93,63.3411 257.06,63.3462 257.189,63.3513 257.319,63.3564 257.449,63.3615 257.579,63.3665 257.709,63.3716 257.839,63.3766 257.968,63.3817 258.098,63.3867 258.228,63.3917 258.358,63.3967 258.488,63.4017 258.617,63.4067 258.747,63.4117 258.877,63.4167 259.007,63.4217 259.137,63.4266 259.266,63.4316 259.396,63.4365 259.526,63.4415 259.656,63.4464 259.786,63.4513 259.915,63.4562 260.045,63.4611 260.175,63.466 260.305,63.4709 260.435,63.4758 260.564,63.4807 260.694,63.4855 260.824,63.4904 260.954,63.4952 261.084,63.5001 261.213,63.5049 261.343,63.5097 261.473,63.5146 261.603,63.5194 261.733,63.5242 261.862,63.5289 261.992,63.5337 262.122,63.5385 262.252,63.5433 262.382,63.548 262.511,63.5528 262.641,63.5575 262.771,63.5623 262.901,63.567 263.031,63.5717 263.16,63.5764 263.29,63.5811 263.42,63.5858 263.55,63.5905 263.68,63.5952 263.81,63.5999 263.939,63.6045 264.069,63.6092 264.199,63.6138 264.329,63.6185 264.459,63.6231 264.588,63.6277 264.718,63.6324 264.848,63.637 264.978,63.6416 265.108,63.6462 265.237,63.6508 265.367,63.6553 265.497,63.6599 265.627,63.6645 265.757,63.669 265.886,63.6736 266.016,63.6781 266.146,63.6826 266.276,63.6872 266.406,63.6917 266.535,63.6962 266.665,63.7007 266.795,63.7052 266.925,63.7097 267.055,63.7142 267.184,63.7186 267.314,63.7231 267.444,63.7276 267.574,63.732 267.704,63.7365 267.833,63.7409 267.963,63.7453 268.093,63.7497 268.223,63.7541 268.353,63.7585 268.482,63.7629 268.612,63.7673 268.742,63.7717 268.872,63.7761 269.002,63.7805 269.132,63.7848 269.261,63.7892 269.391,63.7935 269.521,63.7978 269.651,63.8022 269.781,63.8065 269.91,63.8108 270.04,63.8151 270.17,63.8194 270.3,63.8237 270.43,63.828 270.559,63.8323 270.689,63.8365 270.819,63.8408 270.949,63.8451 271.079,63.8493 271.208,63.8536 271.338,63.8578 271.468,63.862 271.598,63.8662 271.728,63.8705 271.857,63.8746 271.987,63.8789 272.117,63.883 272.247,63.8872 272.377,63.8914 272.506,63.8956 272.636,63.8997 272.766,63.9039 272.896,63.908 273.026,63.9122 273.155,63.9163 273.285,63.9205 273.415,63.9246 273.545,63.9287 273.675,63.9328 273.804,63.9369 273.934,63.941 274.064,63.9451 274.194,63.9491 274.324,63.9532 274.453,63.9573 274.583,63.9613 274.713,63.9654 274.843,63.9694 274.973,63.9735 275.103,63.9775 275.232,63.9815 275.362,63.9855 275.492,63.9895 275.622,63.9935 275.752,63.9975 275.881,64.0015 276.011,64.0055 276.141,64.0095 276.271,64.0134 276.401,64.0174 276.53,64.0213 276.66,64.0253 276.79,64.0292 276.92,64.0332 277.05,64.0371 277.179,64.041 277.309,64.0449 277.439,64.0488 277.569,64.0527 277.699,64.0566 277.828,64.0605 277.958,64.0644 278.088,64.0683 278.218,64.0721 278.348,64.076 278.477,64.0798 278.607,64.0837 278.737,64.0875 278.867,64.0914 278.997,64.0952 279.126,64.099 279.256,64.1028 279.386,64.1066 279.516,64.1104 279.646,64.1142 279.775,64.118 279.905,64.1218 280.035,64.1255 280.165,64.1293 280.295,64.1331 280.425,64.1368 280.554,64.1406 280.684,64.1443 280.814,64.148 280.944,64.1518 281.074,64.1555 281.203,64.1592 281.333,64.1629 281.463,64.1666 281.593,64.1703 281.723,64.174 281.852,64.1777 281.982,64.1814 282.112,64.185 282.242,64.1887 282.372,64.1923 282.501,64.196 282.631,64.1996 282.761,64.2033 282.891,64.2069 283.021,64.2105 283.15,64.2141 283.28,64.2178 283.41,64.2214 283.54,64.225 283.67,64.2285 283.799,64.2321 283.929,64.2357 284.059,64.2393 284.189,64.2429 284.319,64.2464 284.448,64.25 284.578,64.2535 284.708,64.2571 284.838,64.2606 284.968,64.2641 285.097,64.2677 285.227,64.2712 285.357,64.2747 285.487,64.2782 285.617,64.2817 285.747,64.2852 285.876,64.2887 286.006,64.2922 286.136,64.2956 286.266,64.2991 286.396,64.3026 286.525,64.306 286.655,64.3095 286.785,64.3129 286.915,64.3164 287.045,64.3198 287.174,64.3232 287.304,64.3266 287.434,64.3301 287.564,64.3335 287.694,64.3369 287.823,64.3403 287.953,64.3437 288.083,64.347 288.213,64.3504 288.343,64.3538 288.472,64.3572 288.602,64.3605 288.732,64.3639 288.862,64.3672 288.992,64.3706 289.121,64.3739 289.251,64.3773 289.381,64.3806 289.511,64.3839 289.641,64.3872 289.77,64.3905 289.9,64.3938 290.03,64.3971 290.16,64.4004 290.29,64.4037 290.419,64.407 290.549,64.4102 290.679,64.4135 290.809,64.4168 290.939,64.42 291.069,64.4233 291.198,64.4265 291.328,64.4298 291.458,64.433 291.588,64.4362 291.718,64.4395 291.847,64.4427 291.977,64.4459 292.107,64.4491 292.237,64.4523 292.367,64.4555 292.496,64.4587 292.626,64.4619 292.756,64.465 292.886,64.4682 293.016,64.4714 293.145,64.4745 293.275,64.4777 293.405,64.4809 293.535,64.484 293.665,64.4871 293.794,64.4903 293.924,64.4934 294.054,64.4965 294.184,64.4996 294.314,64.5027 294.443,64.5058 294.573,64.5089 294.703,64.512 294.833,64.5151 294.963,64.5182 295.092,64.5213 295.222,64.5244 295.352,64.5274 295.482,64.5305 295.612,64.5335 295.741,64.5366 295.871,64.5396 296.001,64.5427 296.131,64.5457 296.261,64.5487 296.391,64.5518 296.52,64.5548 296.65,64.5578 296.78,64.5608 296.91,64.5638 297.04,64.5668 297.169,64.5698 297.299,64.5728 297.429,64.5758 297.559,64.5787 297.689,64.5817 297.818,64.5847 297.948,64.5876 298.078,64.5906 298.208,64.5935 298.338,64.5965 298.467,64.5994 298.597,64.6024 298.727,64.6053 298.857,64.6082 298.987,64.6111 299.116,64.614 299.246,64.6169 299.376,64.6199 299.506,64.6228 299.636,64.6256 299.765,64.6285 299.895,64.6314 300.025,64.6343 300.155,64.6372 300.285,64.64 300.414,64.6429 300.544,64.6458 300.674,64.6486 300.804,64.6514 300.934,64.6543 301.064,64.6571 301.193,64.66 301.323,64.6628 301.453,64.6656 301.583,64.6684 301.713,64.6712 301.842,64.674 301.972,64.6768 302.102,64.6796 302.232,64.6824 302.362,64.6852 302.491,64.688 302.621,64.6908 302.751,64.6935 302.881,64.6963 303.011,64.6991 303.14,64.7018 303.27,64.7046 303.4,64.7073 303.53,64.7101 303.66,64.7128 303.789,64.7155 303.919,64.7183 304.049,64.721 304.179,64.7237 304.309,64.7264 304.438,64.7291 304.568,64.7318 304.698,64.7345 304.828,64.7372 304.958,64.7399 305.087,64.7426 305.217,64.7453 305.347,64.748 305.477,64.7506 305.607,64.7533 305.736,64.756 305.866,64.7586 305.996,64.7612 306.126,64.7639 306.256,64.7665 306.385,64.7692 306.515,64.7718 306.645,64.7744 306.775,64.7771 306.905,64.7797 307.035,64.7823 307.164,64.7849 307.294,64.7875 307.424,64.7901 307.554,64.7927 307.684,64.7953 307.813,64.7979 307.943,64.8004 308.073,64.803 308.203,64.8056 308.333,64.8082 308.462,64.8107 308.592,64.8133 308.722,64.8158 308.852,64.8184 308.982,64.8209 309.111,64.8235 309.241,64.826 309.371,64.8285 309.501,64.8311 309.631,64.8336 309.76,64.8361 309.89,64.8386 310.02,64.8411 310.15,64.8436 310.28,64.8461 310.409,64.8486 310.539,64.8511 310.669,64.8536 310.799,64.856 310.929,64.8585 311.058,64.861 311.188,64.8635 311.318,64.8659 311.448,64.8684 311.578,64.8708 311.707,64.8733 311.837,64.8757 311.967,64.8782 312.097,64.8806 312.227,64.8831 312.357,64.8855 312.486,64.8879 312.616,64.8903 312.746,64.8927 312.876,64.8951 313.006,64.8976 313.135,64.8999 313.265,64.9023 313.395,64.9047 313.525,64.9071 313.655,64.9095 313.784,64.9119 313.914,64.9143 314.044,64.9166 314.174,64.919 314.304,64.9214 314.433,64.9237 314.563,64.9261 314.693,64.9284 314.823,64.9308 314.953,64.9331 315.082,64.9355 315.212,64.9378 315.342,64.9401 315.472,64.9424 315.602,64.9448 315.731,64.9471 315.861,64.9494 315.991,64.9517 316.121,64.954 316.251,64.9563 316.38,64.9586 316.51,64.9609 316.64,64.9632 316.77,64.9655 316.9,64.9678 317.029,64.97 317.159,64.9723 317.289,64.9746 317.419,64.9768 317.549,64.9791 317.679,64.9813 317.808,64.9836 317.938,64.9858 318.068,64.9881 318.198,64.9903 318.328,64.9926 318.457,64.9948 318.587,64.997 318.717,64.9992 318.847,65.0015 318.977,65.0037 319.106,65.0059 319.236,65.0081 319.366,65.0103 319.496,65.0125 319.626,65.0147 319.755,65.0169 319.885,65.0191 320.015,65.0212 320.145,65.0234 320.275,65.0256 320.404,65.0278 320.534,65.0299 320.664,65.0321 320.794,65.0343 320.924,65.0364 321.053,65.0386 321.183,65.0407 321.313,65.0429 321.443,65.045 321.573,65.0471 321.702,65.0493 321.832,65.0514 321.962,65.0535 322.092,65.0556 322.222,65.0578 322.351,65.0599 322.481,65.062 322.611,65.0641 322.741,65.0662 322.871,65.0683 323,65.0704 323.13,65.0725 323.26,65.0746 323.39,65.0766 323.52,65.0787 323.65,65.0808 323.779,65.0829 323.909,65.0849 324.039,65.087 324.169,65.0891 324.299,65.0911 324.428,65.0932 324.558,65.0952 324.688,65.0973 324.818,65.0993 324.948,65.1013 325.077,65.1034 325.207,65.1054 325.337,65.1074 325.467,65.1095 325.597,65.1115 325.726,65.1135 325.856,65.1155 325.986,65.1175 326.116,65.1195 326.246,65.1215 326.375,65.1235 326.505,65.1255 326.635,65.1275 326.765,65.1295 326.895,65.1315 327.024,65.1335 327.154,65.1354 327.284,65.1374 327.414,65.1394 327.544,65.1413 327.673,65.1433 327.803,65.1452 327.933,65.1472 328.063,65.1492 328.193,65.1511 328.322,65.153 328.452,65.155 328.582,65.1569 328.712,65.1589 328.842,65.1608 328.972,65.1627 329.101,65.1646 329.231,65.1666 329.361,65.1685 329.491,65.1704 329.621,65.1723 329.75,65.1742 329.88,65.1761 330.01,65.178 330.14,65.1799 330.27,65.1818 330.399,65.1837 330.529,65.1856 330.659,65.1875 330.789,65.1893 330.919,65.1912 331.048,65.1931 331.178,65.1949 331.308,65.1968 331.438,65.1987 331.568,65.2005 331.697,65.2024 331.827,65.2042 331.957,65.2061 332.087,65.2079 332.217,65.2098 332.346,65.2116 332.476,65.2134 332.606,65.2153 332.736,65.2171 332.866,65.2189 332.995,65.2207 333.125,65.2226 333.255,65.2244 333.385,65.2262 333.515,65.228 333.645,65.2298 333.774,65.2316 333.904,65.2334 334.034,65.2352 334.164,65.237 334.294,65.2388 334.423,65.2406 334.553,65.2423 334.683,65.2441 334.813,65.2459 334.943,65.2477 335.072,65.2495 335.202,65.2512 335.332,65.253 335.462,65.2547 335.592,65.2565 335.721,65.2582 335.851,65.26 335.981,65.2617 336.111,65.2635 336.241,65.2652 336.37,65.267 336.5,65.2687 336.63,65.2704 336.76,65.2721 336.89,65.2739 337.019,65.2756 337.149,65.2773 337.279,65.279 337.409,65.2807 337.539,65.2825 337.668,65.2841 337.798,65.2859 337.928,65.2876 338.058,65.2892 338.188,65.2909 338.317,65.2926 338.447,65.2943 338.577,65.296 338.707,65.2977 338.837,65.2994 338.966,65.301 339.096,65.3027 339.226,65.3044 339.356,65.306 339.486,65.3077 339.616,65.3094 339.745,65.311 339.875,65.3127 340.005,65.3143 340.135,65.316 340.265,65.3176 340.394,65.3193 340.524,65.3209 340.654,65.3225 340.784,65.3242 340.914,65.3258 341.043,65.3274 341.173,65.3291 341.303,65.3307 341.433,65.3323 341.563,65.3339 341.692,65.3355 341.822,65.3371 341.952,65.3387 342.082,65.3403 342.212,65.3419 342.341,65.3435 342.471,65.3451 342.601,65.3467 342.731,65.3483 342.861,65.3499 342.99,65.3515 343.12,65.3531 343.25,65.3546 343.38,65.3562 343.51,65.3578 343.639,65.3594 343.769,65.3609 343.899,65.3625 344.029,65.364 344.159,65.3656 344.289,65.3672 344.418,65.3687 344.548,65.3703 344.678,65.3718 344.808,65.3733 344.938,65.3749 345.067,65.3764 345.197,65.378 345.327,65.3795 345.457,65.381 345.587,65.3825 345.716,65.3841 345.846,65.3856 345.976,65.3871 346.106,65.3886 346.236,65.3901 346.365,65.3916 346.495,65.3932 346.625,65.3947 346.755,65.3962 346.885,65.3977 347.014,65.3992 347.144,65.4007 347.274,65.4021 347.404,65.4036 347.534,65.4051 347.663,65.4066 347.793,65.4081 347.923,65.4095 348.053,65.411 348.183,65.4125 348.312,65.414 348.442,65.4154 348.572,65.4169 348.702,65.4184 348.832,65.4198 348.961,65.4213 349.091,65.4227 349.221,65.4242 349.351,65.4256 349.481,65.4271 349.611,65.4285 349.74,65.4299 349.87,65.4314 350,65.4328 350.13,65.4342 350.26,65.4357 350.389,65.4371 350.519,65.4385 350.649,65.44 350.779,65.4414 350.909,65.4428 351.038,65.4442 351.168,65.4456 351.298,65.447 351.428,65.4484 351.558,65.4498 351.687,65.4512 351.817,65.4526 351.947,65.454 352.077,65.4554 352.207,65.4568 352.336,65.4582 352.466,65.4596 352.596,65.461 352.726,65.4623 352.856,65.4637 352.985,65.4651 353.115,65.4665 353.245,65.4678 353.375,65.4692 353.505,65.4706 353.634,65.4719 353.764,65.4733 353.894,65.4747 354.024,65.476 354.154,65.4774 354.283,65.4787 354.413,65.4801 354.543,65.4814 354.673,65.4827 354.803,65.4841 354.932,65.4854 355.062,65.4868 355.192,65.4881 355.322,65.4894 355.452,65.4908 355.582,65.4921 355.711,65.4934 355.841,65.4947 355.971,65.496 356.101,65.4974 356.231,65.4987 356.36,65.5 356.49,65.5013 356.62,65.5026 356.75,65.5039 356.88,65.5052 357.009,65.5065 357.139,65.5078 357.269,65.5091 357.399,65.5104 357.529,65.5117 357.658,65.513 357.788,65.5143 357.918,65.5155 358.048,65.5168 358.178,65.5181 358.307,65.5194 358.437,65.5206 358.567,65.5219 358.697,65.5232 358.827,65.5244 358.956,65.5257 359.086,65.527 359.216,65.5282 359.346,65.5295 359.476,65.5307 359.605,65.532 359.735,65.5332 359.865,65.5345 359.995,65.5358 360.125,65.537 360.254,65.5382 360.384,65.5395 360.514,65.5407 360.644,65.5419 360.774,65.5432 360.904,65.5444 361.033,65.5456 361.163,65.5469 361.293,65.5481 361.423,65.5493 361.553,65.5505 361.682,65.5517 361.812,65.5529 361.942,65.5542 362.072,65.5554 362.202,65.5566 362.331,65.5578 362.461,65.559 362.591,65.5602 362.721,65.5614 362.851,65.5626 362.98,65.5638 363.11,65.565 363.24,65.5662 363.37,65.5674 363.5,65.5685 363.629,65.5697 363.759,65.5709 363.889,65.5721 364.019,65.5733 364.149,65.5744 364.278,65.5756 364.408,65.5768 364.538,65.5779 364.668,65.5791 364.798,65.5803 364.927,65.5814 365.057,65.5826 365.187,65.5838 365.317,65.5849 365.447,65.5861 365.577,65.5872 365.706,65.5884 365.836,65.5895 365.966,65.5907 366.096,65.5918 366.226,65.5929 366.355,65.5941 366.485,65.5952 366.615,65.5963 366.745,65.5975 366.875,65.5986 367.004,65.5997 367.134,65.6009 367.264,65.602 367.394,65.6031 367.524,65.6042 367.653,65.6053 367.783,65.6065 367.913,65.6076 368.043,65.6087 368.173,65.6098 368.302,65.6109 368.432,65.612 368.562,65.6131 368.692,65.6142 368.822,65.6153 368.951,65.6164 369.081,65.6175 369.211,65.6186 369.341,65.6197 369.471,65.6208 369.6,65.6219 369.73,65.623 369.86,65.6241 369.99,65.6251 370.12,65.6262 370.249,65.6273 370.379,65.6284 370.509,65.6294 370.639,65.6305 370.769,65.6316 370.898,65.6326 371.028,65.6337 371.158,65.6348 371.288,65.6358 371.418,65.6369 371.548,65.638 371.677,65.639 371.807,65.6401 371.937,65.6411 372.067,65.6422 372.197,65.6432 372.326,65.6443 372.456,65.6453 372.586,65.6463 372.716,65.6474 372.846,65.6484 372.975,65.6495 373.105,65.6505 373.235,65.6516 373.365,65.6526 373.495,65.6536 373.624,65.6546 373.754,65.6557 373.884,65.6567 374.014,65.6577 374.144,65.6587 374.273,65.6597 374.403,65.6608 374.533,65.6618 374.663,65.6628 374.793,65.6638 374.922,65.6648 375.052,65.6658 375.182,65.6668 375.312,65.6678 375.442,65.6688 375.571,65.6698 375.701,65.6708 375.831,65.6718 375.961,65.6728 376.091,65.6738 376.221,65.6748 376.35,65.6758 376.48,65.6768 376.61,65.6777 376.74,65.6787 376.87,65.6797 376.999,65.6807 377.129,65.6817 377.259,65.6826 377.389,65.6836 377.519,65.6846 377.648,65.6856 377.778,65.6865 377.908,65.6875 378.038,65.6885 378.168,65.6894 378.297,65.6904 378.427,65.6914 378.557,65.6923 378.687,65.6933 378.817,65.6942 378.946,65.6952" fill="none" stroke="#0071bc" stroke-width="0.5" stroke-linejoin="round"/>
  </g>
 </g>
</svg>
